<?xml version="1.0" encoding="UTF-8" standalone="no"?>
<!-- Generator: Adobe Illustrator 16.0.3, SVG Export Plug-In . SVG Version: 6.00 Build 0)  -->

<svg
   xmlns:dc="http://purl.org/dc/elements/1.1/"
   xmlns:cc="http://creativecommons.org/ns#"
   xmlns:rdf="http://www.w3.org/1999/02/22-rdf-syntax-ns#"
   xmlns:svg="http://www.w3.org/2000/svg"
   xmlns="http://www.w3.org/2000/svg"
   xmlns:sodipodi="http://sodipodi.sourceforge.net/DTD/sodipodi-0.dtd"
   xmlns:inkscape="http://www.inkscape.org/namespaces/inkscape"
   version="1.1"
   x="0px"
   y="0px"
   width="512px"
   height="512px"
   viewBox="0 0 512 512"
   enable-background="new 0 0 512 512"
   xml:space="preserve"
   id="svg20"
   sodipodi:docname="academy-icon.svg"
   inkscape:version="0.92.1 r15371"><metadata
   id="metadata26"><rdf:RDF><cc:Work
       rdf:about=""><dc:format>image/svg+xml</dc:format><dc:type
         rdf:resource="http://purl.org/dc/dcmitype/StillImage" /></cc:Work></rdf:RDF></metadata><defs
   id="defs24" /><sodipodi:namedview
   pagecolor="#ffffff"
   bordercolor="#666666"
   borderopacity="1"
   objecttolerance="10"
   gridtolerance="10"
   guidetolerance="10"
   inkscape:pageopacity="0"
   inkscape:pageshadow="2"
   inkscape:window-width="951"
   inkscape:window-height="819"
   id="namedview22"
   showgrid="false"
   inkscape:zoom="0.48"
   inkscape:cx="-97.125"
   inkscape:cy="256"
   inkscape:window-x="130"
   inkscape:window-y="127"
   inkscape:window-maximized="0"
   inkscape:current-layer="svg20" />
<g
   id="Icon_Background">
	<path
   fill="#CE872A"
   d="M512,462c0,27.615-22.386,50-50,50H50c-27.614,0-50-22.385-50-50V50C0,22.386,22.386,0,50,0h412   c27.614,0,50,22.386,50,50V462z"
   id="path2" />
</g>
<g
   id="Icon_Overlay">
	<path
   fill="#C27F26"
   d="M14.645,497.355C23.693,506.403,36.193,512,50,512h412c27.614,0,50-22.385,50-50V50   c0-13.807-5.597-26.307-14.645-35.355L14.645,497.355z"
   id="path5" />
</g>
<g
   id="Icon_Border">
	<g
   opacity="0.5"
   id="g10">
		<path
   fill="#DD9443"
   d="M462,14.173c19.755,0,35.827,16.072,35.827,35.827v412c0,19.755-16.072,35.827-35.827,35.827H50    c-19.755,0-35.827-16.072-35.827-35.827V50c0-19.755,16.072-35.827,35.827-35.827H462 M462,0H50C22.386,0,0,22.386,0,50v412    c0,27.615,22.386,50,50,50h412c27.614,0,50-22.385,50-50V50C512,22.386,489.614,0,462,0L462,0z"
   id="path8" />
	</g>
</g>
<g
   id="Academy_Symbol">
	<g
   id="g17">
		<path
   fill="#FFFFFF"
   d="M256.001,274.395l-104.408-32.136v53.671c0,24.813,46.761,44.932,104.44,44.932    c57.676,0,104.445-20.119,104.445-44.932c0-0.195-0.065-0.391-0.069-0.582v-53.089L256.001,274.395z M256.001,274.395"
   id="path13" />
		<path
   fill="#FFFFFF"
   d="M81,205.312l37.301,13.343l3.177-6.808l13.704-1.163l1.954,2.031l-11.759,2.789l-1.713,5.072    c-0.002,0-26.559,55.522-22.659,82.682c0,0,16.576,9.89,33.146,0l4.406-74.26v-6.181l24.663-5.564l-1.742,4.291l-18.389,5.979    l8.506,3.039l104.408,32.136l104.408-32.136L431,205.314l-174.999-34.175L81,205.312z M81,205.312"
   id="path15" />
	</g>
</g>
<path
   style="fill:#009cf0;fill-opacity:1;stroke:#e2dbe3;stroke-width:2.08333325"
   d="M 29.247146,506.66738 C 19.632738,502.30015 10.62012,492.48742 5.0986265,480.375 1.5020667,472.48529 1.297406,460.63138 1.2540875,257.70004 1.2206256,100.94322 1.8579048,41.19034 3.6261621,35.288423 6.7569638,24.838738 18.120756,11.661822 29.036346,5.8239767 L 37.666667,1.2083333 H 255.375 473.08333 l 9.89027,4.8706498 c 12.2503,6.0328949 23.22319,18.5480149 26.40167,30.1123939 1.77042,6.441383 2.25025,65.964873 1.80883,224.391953 l -0.60077,215.625 -4.59614,8.59211 c -5.19861,9.71833 -15.11294,18.82014 -25.02444,22.9736 -5.48219,2.29734 -46.48637,2.80096 -225,2.76354 C 48.67944,510.49404 37.241913,510.2989 29.247146,506.66738 Z M 306.97738,335.69152 c 27.4276,-6.73594 46.507,-17.9911 51.74368,-30.52423 2.95802,-7.0796 4.36379,-63.33396 1.58267,-63.33396 -0.72669,0 -24.45979,7.12815 -52.74021,15.84034 L 256.14456,273.514 204.82712,257.67367 c -28.22459,-8.71219 -51.83524,-15.84034 -52.46811,-15.84034 -0.63287,0 -1.15068,14.02988 -1.15068,31.1775 v 31.17752 l 6.53574,7.4438 c 11.68742,13.31123 30.77765,21.7152 61.85608,27.23054 21.98989,3.90244 64.9186,2.34444 87.37723,-3.17117 z M 132.89883,304.72617 c 1.322,-1.322 3.1742,-18.89825 4.41196,-41.86698 l 2.13339,-39.5884 10.35276,-2.22027 c 12.5712,-2.69604 15.11143,-1.42637 4.15515,2.07686 -7.3504,2.35025 -13.84201,6.20595 -10.44858,6.20595 0.80401,0 25.77605,7.5 55.49341,16.66667 29.71737,9.16667 55.38571,16.66667 57.04073,16.66667 4.89627,0 95.55583,-28.22523 131.62902,-40.98034 48.41108,-17.11765 44.50666,-15.41505 39.58333,-17.26105 -2.29167,-0.85926 -41.70377,-8.88587 -87.58246,-17.83691 l -83.41577,-16.27462 -83.25088,16.09287 c -45.78799,8.85109 -85.53235,16.79723 -88.320802,17.6581 -4.311836,1.33118 -2.172436,2.61001 14.308006,8.55257 17.562676,6.33281 19.559776,6.66242 21.319266,3.51838 1.06774,-1.90796 3.53539,-3.45465 5.48366,-3.43711 2.30312,0.0208 2.70263,0.56736 1.14204,1.5625 -3.00479,1.91609 -15.56297,32.16042 -21.39677,51.53061 -2.41567,8.02083 -4.61206,19.68635 -4.88087,25.92339 -0.43972,10.20244 0.0337,11.62202 4.71958,14.15054 5.8995,3.18342 23.94815,2.43625 27.52383,-1.13943 z"
   id="path4539"
   inkscape:connector-curvature="0" /></svg>