<?xml version="1.0" encoding="UTF-8" standalone="no"?>
<!-- Generator: Adobe Illustrator 16.0.3, SVG Export Plug-In . SVG Version: 6.00 Build 0)  -->

<svg
   xmlns:dc="http://purl.org/dc/elements/1.1/"
   xmlns:cc="http://creativecommons.org/ns#"
   xmlns:rdf="http://www.w3.org/1999/02/22-rdf-syntax-ns#"
   xmlns:svg="http://www.w3.org/2000/svg"
   xmlns="http://www.w3.org/2000/svg"
   xmlns:sodipodi="http://sodipodi.sourceforge.net/DTD/sodipodi-0.dtd"
   xmlns:inkscape="http://www.inkscape.org/namespaces/inkscape"
   version="1.1"
   x="0px"
   y="0px"
   width="512px"
   height="512px"
   viewBox="0 0 512 512"
   enable-background="new 0 0 512 512"
   xml:space="preserve"
   id="svg16"
   sodipodi:docname="citrix-icon.svg"
   inkscape:version="0.92.1 r15371"><metadata
   id="metadata22"><rdf:RDF><cc:Work
       rdf:about=""><dc:format>image/svg+xml</dc:format><dc:type
         rdf:resource="http://purl.org/dc/dcmitype/StillImage" /></cc:Work></rdf:RDF></metadata><defs
   id="defs20" /><sodipodi:namedview
   pagecolor="#ffffff"
   bordercolor="#666666"
   borderopacity="1"
   objecttolerance="10"
   gridtolerance="10"
   guidetolerance="10"
   inkscape:pageopacity="0"
   inkscape:pageshadow="2"
   inkscape:window-width="741"
   inkscape:window-height="966"
   id="namedview18"
   showgrid="false"
   inkscape:zoom="0.4609375"
   inkscape:cx="256"
   inkscape:cy="256"
   inkscape:window-x="0"
   inkscape:window-y="0"
   inkscape:window-maximized="0"
   inkscape:current-layer="svg16" />
<g
   id="Icon_Background">
	<path
   fill="#CE872A"
   d="M512,462c0,27.615-22.386,50-50,50H50c-27.614,0-50-22.385-50-50V50C0,22.386,22.386,0,50,0h412   c27.614,0,50,22.386,50,50V462z"
   id="path2" />
</g>
<g
   id="Icon_Overlay">
	<path
   fill="#C27F26"
   d="M14.645,497.355C23.693,506.403,36.193,512,50,512h412c27.614,0,50-22.385,50-50V50   c0-13.807-5.597-26.307-14.645-35.355L14.645,497.355z"
   id="path5" />
</g>
<g
   id="Icon_Border">
	<g
   opacity="0.5"
   id="g10">
		<path
   fill="#DD9443"
   d="M462,14.173c19.755,0,35.827,16.072,35.827,35.827v412c0,19.755-16.072,35.827-35.827,35.827H50    c-19.755,0-35.827-16.072-35.827-35.827V50c0-19.755,16.072-35.827,35.827-35.827H462 M462,0H50C22.386,0,0,22.386,0,50v412    c0,27.615,22.386,50,50,50h412c27.614,0,50-22.385,50-50V50C512,22.386,489.614,0,462,0L462,0z"
   id="path8" />
	</g>
</g>
<g
   id="Citrix_Symbol">
	<path
   fill="#FFFFFF"
   d="M279.659,256c0,13.065-10.593,23.659-23.659,23.659S232.341,269.065,232.341,256   c0-13.066,10.592-23.659,23.659-23.659S279.659,242.934,279.659,256z M431,256c0-5.186-4.203-9.389-9.389-9.389   s-9.389,4.204-9.389,9.389c0,86.141-70.082,156.223-156.223,156.223c-86.142,0-156.222-70.082-156.222-156.223   c0-86.142,70.081-156.222,156.222-156.222c5.186,0,9.389-4.204,9.389-9.389S261.186,81,256,81c-96.495,0-175,78.505-175,175   s78.505,175,175,175S431,352.495,431,256z M348.194,256c0-5.186-4.203-9.389-9.389-9.389s-9.389,4.204-9.389,9.389   c0,40.482-32.935,73.417-73.417,73.417c-40.482,0-73.417-32.935-73.417-73.417c0-40.482,32.935-73.417,73.417-73.417   c5.186,0,9.389-4.204,9.389-9.389s-4.203-9.389-9.389-9.389c-50.836,0-92.195,41.358-92.195,92.195   c0,50.837,41.358,92.194,92.195,92.194C306.837,348.194,348.194,306.837,348.194,256z"
   id="path13" />
</g>
<path
   style="fill:#009cf0;fill-opacity:1;stroke:#e2dbe3;stroke-width:2.16949153"
   d="m 33.237059,494.02639 c -4.032839,-2.14886 -9.641396,-7.7215 -12.463462,-12.38365 L 15.642569,473.1661 15.631454,255.9954 15.620339,38.824713 20.519206,31.453035 C 23.213583,27.398611 29.766207,21.884746 35.080593,19.2 l 9.662523,-4.881356 H 256.4339 468.12468 L 477.78721,19.2 c 12.14424,6.135093 18.79339,16.009839 20.52525,30.48236 0.74242,6.204193 1.05058,103.53798 0.6848,216.2973 -0.60312,185.92024 -0.99951,205.62319 -4.25554,211.52542 -4.65215,8.43299 -12.21294,15.39394 -19.87278,18.29617 -4.18174,1.58443 -73.60992,2.28532 -220.20339,2.22306 C 52.721026,497.93861 40.153322,497.71164 33.237059,494.02639 Z M 311.16863,422.82984 c 61.68893,-21.52287 106.77562,-73.71433 117.67548,-136.21875 5.52111,-31.66045 3.92816,-40.15685 -7.52886,-40.15685 -8.10083,0 -10.84745,5.01003 -10.84745,19.78656 0,25.01847 -12.95551,59.5786 -31.51907,84.0803 -19.7506,26.06843 -50.52644,46.67272 -83.46398,55.8787 -22.17974,6.19919 -63.26316,5.31387 -84.97172,-1.83112 -25.28013,-8.32047 -44.29113,-19.96016 -62.7315,-38.40798 -43.50969,-43.52727 -57.784099,-104.06971 -37.97027,-161.04437 7.92535,-22.78933 17.68939,-37.72459 38.2537,-58.51354 15.6929,-15.86434 21.701,-20.27097 39.05085,-28.6418 21.03413,-10.14839 45.95839,-16.66268 63.75289,-16.66268 7.99171,0 10.4435,-0.97577 13.2626,-5.278252 4.23257,-6.459737 1.33389,-13.531323 -6.33561,-15.456245 -7.02597,-1.763406 -37.9907,2.773148 -55.24775,8.094188 -61.34323,18.914579 -108.633427,73.075829 -119.8016,137.208229 -3.767205,21.63289 -1.545785,61.36665 4.497716,80.44902 15.125524,47.75891 46.686934,85.09913 90.003404,106.48277 30.7539,15.18199 46.15715,18.42068 83.52542,17.56203 28.41672,-0.65293 33.28831,-1.36153 50.39575,-7.33021 z m -17.2925,-82.51971 c 28.57451,-13.37969 48.01786,-38.48019 53.87503,-69.55023 3.28118,-17.40551 0.79607,-24.30566 -8.75375,-24.30566 -7.79795,0 -9.9077,3.47303 -11.68319,19.23278 -4.71165,41.82172 -49.13212,71.73022 -89.22428,60.07511 -15.25498,-4.43475 -26.21095,-11.12021 -35.42941,-21.61946 -26.37092,-30.03481 -24.22502,-73.945 4.92691,-100.81631 12.33251,-11.36771 24.57325,-17.02197 41.04022,-18.95734 14.30946,-1.6818 20.87165,-7.81844 16.69866,-15.61576 -3.29388,-6.15468 -6.86922,-6.86847 -22.97739,-4.58727 -30.43177,4.30967 -55.92641,23.06087 -69.96291,51.45742 -7.88726,15.95634 -8.15379,17.25204 -8.1033,39.39372 0.0423,18.53236 0.96941,25.1683 4.8659,34.82694 10.24423,25.39344 32.07749,45.86416 57.91482,54.30055 20.50344,6.69479 47.65346,5.13659 66.81269,-3.83449 z M 266.1222,278.08278 c 23.86341,-9.97077 15.11024,-46.81498 -11.12192,-46.81498 -25.06318,0 -31.89184,36.64813 -8.70771,46.73273 8.7919,3.82429 10.85318,3.83284 19.82963,0.0822 z"
   id="path4499"
   inkscape:connector-curvature="0" /><path
   style="fill:#009cf0;fill-opacity:1;stroke:#e2dbe3;stroke-width:2.16949153"
   d="M 30.80678,507.67338 C 20.943521,503.40111 12.046624,494.84616 6.2013119,484.01356 L 1.5186441,475.33559 V 256.21695 37.098305 L 6.2013119,28.420339 C 8.7767791,23.647458 13.658135,17.109416 17.04877,13.891358 30.978725,0.67040855 19.072885,1.3016949 254.48539,1.3016949 c 154.92441,0 217.45337,0.693099 223.40526,2.4763238 11.00086,3.2959401 22.72401,13.2465853 28.64011,24.3097963 l 4.81839,9.01049 V 256.21695 475.33559 l -4.78622,8.94744 c -5.4136,10.12025 -15.73795,19.59847 -26.05935,23.9237 -5.70435,2.39041 -46.77211,2.90994 -224.54237,2.84056 -189.496169,-0.074 -218.540722,-0.5092 -225.15443,-3.37391 z m 414.03344,-8.81234 32.89281,-1.42371 8.62295,-7.38093 c 5.74922,-4.92111 9.45905,-10.41155 11.13168,-16.4746 1.81051,-6.56267 2.57905,-67.66449 2.7614,-219.53434 l 0.25263,-210.44068 -4.98256,-9.332309 C 492.44062,28.508459 486.68214,22.497768 480.45032,18.545657 L 470.36407,12.149153 H 256.93785 43.511626 l -9.691342,5.679504 c -5.330237,3.123728 -12.093913,8.829439 -15.030389,12.679355 l -5.339048,6.999854 V 254.90235 c 0,237.87044 -0.846474,222.47654 12.95616,235.61968 6.123202,5.83064 8.685271,6.63971 24.600464,7.76854 25.346905,1.79779 354.463049,2.27452 393.832749,0.57047 z"
   id="path4501"
   inkscape:connector-curvature="0" /></svg>