<?xml version="1.0" encoding="UTF-8" standalone="no"?>
<!-- Generator: Adobe Illustrator 16.0.3, SVG Export Plug-In . SVG Version: 6.00 Build 0)  -->

<svg
   xmlns:dc="http://purl.org/dc/elements/1.1/"
   xmlns:cc="http://creativecommons.org/ns#"
   xmlns:rdf="http://www.w3.org/1999/02/22-rdf-syntax-ns#"
   xmlns:svg="http://www.w3.org/2000/svg"
   xmlns="http://www.w3.org/2000/svg"
   xmlns:sodipodi="http://sodipodi.sourceforge.net/DTD/sodipodi-0.dtd"
   xmlns:inkscape="http://www.inkscape.org/namespaces/inkscape"
   version="1.1"
   x="0px"
   y="0px"
   width="512px"
   height="512px"
   viewBox="0 0 512 512"
   enable-background="new 0 0 512 512"
   xml:space="preserve"
   id="svg20"
   sodipodi:docname="fanous-icon.svg"
   inkscape:version="0.92.1 r15371"><metadata
   id="metadata26"><rdf:RDF><cc:Work
       rdf:about=""><dc:format>image/svg+xml</dc:format><dc:type
         rdf:resource="http://purl.org/dc/dcmitype/StillImage" /></cc:Work></rdf:RDF></metadata><defs
   id="defs24" /><sodipodi:namedview
   pagecolor="#ffffff"
   bordercolor="#666666"
   borderopacity="1"
   objecttolerance="10"
   gridtolerance="10"
   guidetolerance="10"
   inkscape:pageopacity="0"
   inkscape:pageshadow="2"
   inkscape:window-width="1920"
   inkscape:window-height="1017"
   id="namedview22"
   showgrid="false"
   inkscape:zoom="0.4609375"
   inkscape:cx="256"
   inkscape:cy="256"
   inkscape:window-x="-8"
   inkscape:window-y="-8"
   inkscape:window-maximized="1"
   inkscape:current-layer="svg20" />
<g
   id="Icon_Background">
	<path
   fill="#CE872A"
   d="M512,462c0,27.615-22.386,50-50,50H50c-27.614,0-50-22.385-50-50V50C0,22.386,22.386,0,50,0h412   c27.614,0,50,22.386,50,50V462z"
   id="path2" />
</g>
<g
   id="Icon_Overlay">
	<path
   fill="#C27F26"
   d="M14.645,497.355C23.693,506.403,36.193,512,50,512h412c27.614,0,50-22.385,50-50V50   c0-13.807-5.597-26.307-14.645-35.355L14.645,497.355z"
   id="path5" />
</g>
<g
   id="Icon_Border">
	<g
   opacity="0.5"
   id="g10">
		<path
   fill="#DD9443"
   d="M462,14.173c19.755,0,35.827,16.072,35.827,35.827v412c0,19.755-16.072,35.827-35.827,35.827H50    c-19.755,0-35.827-16.072-35.827-35.827V50c0-19.755,16.072-35.827,35.827-35.827H462 M462,0H50C22.386,0,0,22.386,0,50v412    c0,27.615,22.386,50,50,50h412c27.614,0,50-22.385,50-50V50C512,22.386,489.614,0,462,0L462,0z"
   id="path8" />
	</g>
</g>
<g
   id="Fanous_Symbol">
	<g
   id="g17">
		<path
   fill="#FFFFFF"
   d="M296.891,160.353c2.797,6.087,5.129,12.675,6.588,19.66c47.697,7.814,81.432,27.063,81.432,49.572    c0,29.44-57.712,53.307-128.91,53.307c-71.193,0-128.91-23.866-128.91-53.307c0-22.508,33.734-41.757,81.437-49.572    c1.454-6.985,3.786-13.573,6.583-19.66C138.185,172.096,81,216.244,81,268.919c0,61.654,78.35,111.638,175,111.638    c96.65,0,175-49.983,175-111.638C431,216.244,373.815,172.096,296.891,160.353L296.891,160.353z M296.891,160.353"
   id="path13" />
		<path
   fill="#FFFFFF"
   d="M256,259.675c0,0,33.09-28.702,33.09-64.113c0-35.417-33.09-64.118-33.09-64.118    s-33.09,28.701-33.09,64.118C222.91,230.973,256,259.675,256,259.675L256,259.675z M256,259.675"
   id="path15" />
	</g>
</g>
<path
   style="fill:#009cf0;fill-opacity:1;stroke:#e2dbe3;stroke-width:2.16949153"
   d="M 29.288136,506.42141 C 18.501235,501.3476 13.113367,495.70063 5.2174776,481.19322 1.2316692,473.86995 1.0847458,465.8872 1.0847458,256.65085 V 39.701695 L 6.135124,29.447242 C 11.649314,18.251048 21.04555,9.2223616 31.930318,4.6610699 37.629854,2.2726636 78.826045,1.7355932 256.33011,1.7355932 c 215.10597,0 217.51682,0.047544 226.65203,4.4698223 5.07839,2.458402 12.25839,7.5638205 15.95555,11.3453735 13.54786,13.857076 13.20439,7.196312 12.56135,243.594351 l -0.58379,214.62435 -4.67022,8.67797 c -6.00079,11.15036 -12.47308,17.0914 -24.61791,22.59736 -9.61569,4.35933 -13.01374,4.42639 -225.62712,4.45244 l -215.864407,0.0265 -10.847457,-5.1023 z M 295.70924,378.16522 c 60.53353,-9.12425 110.08029,-38.66086 127.87255,-76.2294 6.24657,-13.18971 7.06228,-17.04203 7.06228,-33.35277 0,-21.08809 -5.18316,-35.06907 -19.16601,-51.6982 -22.17864,-26.37596 -65.03513,-49.03294 -105.33298,-55.68647 -9.40507,-1.55287 -9.49963,-1.5063 -8.11825,3.99751 3.78984,15.1 4.34447,15.57685 22.70657,19.52267 31.02648,6.66725 58.52492,24.04713 62.3857,39.4297 3.25693,12.97669 -6.69917,26.75916 -27.23799,37.70624 -49.25778,26.25413 -150.73662,26.13038 -200.22032,-0.24417 -13.73201,-7.31909 -24.64802,-18.20017 -26.77989,-26.69419 -4.88156,-19.44969 19.70025,-39.6685 60.35217,-49.64034 l 19.86665,-4.87325 3.06596,-9.19789 c 1.68628,-5.05883 2.48312,-9.78072 1.77076,-10.49308 -2.94946,-2.94946 -42.79608,9.00818 -63.15678,18.95283 -26.79506,13.08734 -43.69868,26.46924 -55.209855,43.70737 C 38.533578,308.78421 155.55381,399.2909 295.70924,378.16522 Z M 265.66565,250.7525 c 18.95595,-22.14576 27.30068,-46.5543 22.99934,-67.27366 -2.83776,-13.66951 -14.12786,-33.85419 -25.18654,-45.02912 L 256,130.89265 l -7.47845,7.55707 c -11.05868,11.17493 -22.34878,31.35961 -25.18654,45.02912 -4.32994,20.85713 3.98544,45.27454 22.88703,67.20591 4.37061,5.07118 8.77071,9.22033 9.77796,9.22033 1.00725,0 5.3568,-4.11864 9.66565,-9.15258 z"
   id="path4503"
   inkscape:connector-curvature="0" /></svg>