<?xml version="1.0" encoding="UTF-8" standalone="no"?>
<!-- Generator: Adobe Illustrator 16.0.3, SVG Export Plug-In . SVG Version: 6.00 Build 0)  -->

<svg
   xmlns:dc="http://purl.org/dc/elements/1.1/"
   xmlns:cc="http://creativecommons.org/ns#"
   xmlns:rdf="http://www.w3.org/1999/02/22-rdf-syntax-ns#"
   xmlns:svg="http://www.w3.org/2000/svg"
   xmlns="http://www.w3.org/2000/svg"
   xmlns:sodipodi="http://sodipodi.sourceforge.net/DTD/sodipodi-0.dtd"
   xmlns:inkscape="http://www.inkscape.org/namespaces/inkscape"
   version="1.1"
   x="0px"
   y="0px"
   width="512px"
   height="512px"
   viewBox="0 0 512 512"
   enable-background="new 0 0 512 512"
   xml:space="preserve"
   id="svg24"
   sodipodi:docname="ibill-icon.svg"
   inkscape:version="0.92.1 r15371"><metadata
   id="metadata30"><rdf:RDF><cc:Work
       rdf:about=""><dc:format>image/svg+xml</dc:format><dc:type
         rdf:resource="http://purl.org/dc/dcmitype/StillImage" /></cc:Work></rdf:RDF></metadata><defs
   id="defs28" /><sodipodi:namedview
   pagecolor="#ffffff"
   bordercolor="#666666"
   borderopacity="1"
   objecttolerance="10"
   gridtolerance="10"
   guidetolerance="10"
   inkscape:pageopacity="0"
   inkscape:pageshadow="2"
   inkscape:window-width="1920"
   inkscape:window-height="1017"
   id="namedview26"
   showgrid="false"
   inkscape:zoom="1.3010765"
   inkscape:cx="194.75891"
   inkscape:cy="207.39586"
   inkscape:window-x="-8"
   inkscape:window-y="-8"
   inkscape:window-maximized="1"
   inkscape:current-layer="svg24" />
<g
   id="Icon_Background">
	<path
   fill="#CE872A"
   d="M512,462c0,27.615-22.386,50-50,50H50c-27.614,0-50-22.385-50-50V50C0,22.386,22.386,0,50,0h412   c27.614,0,50,22.386,50,50V462z"
   id="path2" />
</g>
<g
   id="Icon_Overlay">
	<path
   fill="#C27F26"
   d="M14.645,497.355C23.693,506.403,36.193,512,50,512h412c27.614,0,50-22.385,50-50V50   c0-13.807-5.597-26.307-14.645-35.355L14.645,497.355z"
   id="path5" />
</g>
<g
   id="Icon_Border">
	<g
   opacity="0.5"
   id="g10">
		<path
   fill="#DD9443"
   d="M462,14.173c19.755,0,35.827,16.072,35.827,35.827v412c0,19.755-16.072,35.827-35.827,35.827H50    c-19.755,0-35.827-16.072-35.827-35.827V50c0-19.755,16.072-35.827,35.827-35.827H462 M462,0H50C22.386,0,0,22.386,0,50v412    c0,27.615,22.386,50,50,50h412c27.614,0,50-22.385,50-50V50C512,22.386,489.614,0,462,0L462,0z"
   id="path8" />
	</g>
</g>
<g
   id="ibill_Symbol">
	<g
   id="_152222920">
		<g
   id="_152222248">
			<path
   fill="#FFFFFF"
   d="M110.465,156.118c15.216,15.127,36.516,36.316,50.973,50.71c-6.316,15.451-5.231,34.458,3.439,55.312     c18.579,44.685,71.673,94.472,118.157,94.472c8.572,0,16.628-1.692,23.922-4.977c4.894,4.866,10.575,10.518,16.544,16.454     c11.48,11.419,24.019,23.89,34.034,33.854c-7.918,6.126-15.044,9.22-23.495,9.22c-3.777,0-7.987-0.599-12.514-1.778     c-38.433-10.017-88.16-42.771-133.02-87.618c-44.927-44.914-77.181-94.237-86.279-131.939     C98.888,175.991,101.66,167.071,110.465,156.118 M109.866,127.549c-19.667,19.769-34.29,36.424-26.929,66.932     c21.184,87.78,145.062,211.032,233.583,234.104c6.357,1.656,12.15,2.419,17.518,2.419c21.528,0,36.152-12.283,52.236-28.456     c-14.7-14.636-62.134-61.804-76.83-76.427c-7.386,7.419-16.477,10.647-26.41,10.647c-54.095,0-133.066-95.816-96.315-132.765     C172.009,189.337,124.61,142.186,109.866,127.549L109.866,127.549z"
   id="path13" />
		</g>
		<g
   id="_150519168">
			<path
   fill="#FFFFFF"
   d="M148.562,104.041l61.479,61.153l-10.967,11.009l-61.458-61.166L148.562,104.041 M148.533,80.996     c-3.11,0-6.223,1.186-8.573,3.56l-21.869,21.973c-4.703,4.741-4.694,12.415,0.047,17.118l72.424,72.081     c2.363,2.344,5.45,3.515,8.537,3.515c3.107,0,6.215-1.187,8.582-3.561l21.894-21.979c4.669-4.71,4.695-12.417-0.042-17.105     l-72.467-72.083C154.722,82.168,151.628,80.995,148.533,80.996L148.533,80.996z"
   id="path16" />
		</g>
		<g
   id="_226148072">
			<path
   fill="#FFFFFF"
   d="M346.478,300.955l61.471,61.162L397.01,373.13l-61.485-61.17L346.478,300.955 M346.429,277.93     c-3.112,0.001-6.22,1.184-8.567,3.554l-21.868,21.972c-4.688,4.74-4.69,12.431,0.043,17.106l72.49,72.118     c2.331,2.325,5.417,3.493,8.51,3.493c3.112,0,6.23-1.184,8.59-3.561l21.848-21.997c4.712-4.7,4.706-12.376-0.042-17.104     l-72.417-72.054C352.646,279.107,349.535,277.93,346.429,277.93L346.429,277.93z"
   id="path19" />
		</g>
	</g>
</g>
<path
   style="fill:#009cf0;fill-opacity:1;stroke:#e2dbe3;stroke-width:2.16949153"
   d="M 29.568562,507.02577 C 24.711272,504.81963 17.599768,499.22751 13.765222,494.59883 -0.16992434,477.77772 0.26941353,486.12601 0.92465746,250.60285 L 1.5186441,37.098305 6.3370364,28.087815 C 12.253127,17.024604 23.97629,7.0739588 34.977159,3.7780187 40.927811,1.9951599 103.18602,1.3016949 257.29766,1.3016949 c 234.55985,0 220.36664,-0.77493079 237.7336,12.9799481 4.53669,3.593138 10.06416,10.684944 12.28322,15.759566 3.82794,8.753845 4.06515,20.006149 4.6295,219.613091 0.40839,144.44227 -0.13949,213.92382 -1.748,221.67186 -3.25606,15.68438 -12.83055,28.09259 -26.63715,34.52084 l -11.26052,5.24281 -216.94916,-0.0265 C 48.972989,511.0382 37.969601,510.84143 29.568562,507.02577 Z M 357.31525,425.71969 c 5.96611,-2.80441 15.24068,-9.08008 20.61017,-13.94592 l 9.76272,-8.847 -38.27858,-38.40551 -38.27857,-38.40549 -10.18015,4.92811 c -8.26971,4.0033 -12.54599,4.71361 -22.7871,3.78499 -31.64572,-2.86955 -71.99454,-36.28733 -90.71135,-75.12915 -10.12229,-21.00617 -11.53433,-35.47798 -4.6558,-47.71667 l 4.9683,-8.83989 -38.88583,-37.8084 -38.88584,-37.8084 -9.28109,8.99221 c -26.505929,25.68094 -26.334153,54.0583 0.63688,105.21184 30.2936,57.45514 102.47127,130.67637 162.89057,165.24566 40.30025,23.05802 70.82144,29.20441 93.07567,18.74362 z m 60.38984,-44.54604 c 8.36844,-8.66822 14.45762,-16.87036 14.45762,-19.47453 0,-5.7688 -78.59117,-83.5203 -85.32196,-84.41033 -6.99459,-0.92494 -34.54244,27.33765 -34.54244,35.43862 0,4.83439 7.32934,13.25442 38.90028,44.68922 46.96435,46.76181 44.98117,46.05338 66.5065,23.75702 z M 218.85271,185.00864 c 8.73745,-8.73745 15.88627,-17.73944 15.88627,-20.0044 0,-5.50694 -80.09391,-85.60085 -85.60084,-85.60085 -5.36138,0 -35.89068,30.5293 -35.89068,35.89068 0,5.50694 80.09391,85.60085 85.60084,85.60085 2.26497,0 11.26695,-7.14883 20.00441,-15.88628 z"
   id="path4508"
   inkscape:connector-curvature="0" /><path
   style="fill:#009cf0;fill-opacity:1;stroke:#e2dbe3;stroke-width:0.38429716"
   d="m 326.28976,410.25042 c -13.95836,-2.58133 -34.75897,-11.2895 -54.1859,-22.68491 -21.80026,-12.78756 -42.71649,-28.40038 -66.09911,-49.33935 -7.27537,-6.51505 -27.20714,-26.46201 -34.0254,-34.05136 -36.58822,-40.72599 -61.06167,-80.76717 -69.31372,-113.40465 -3.205688,-12.67876 -1.66417,-21.25956 5.67062,-31.56517 1.08818,-1.52893 2.06546,-2.7827 2.17175,-2.78616 0.10628,-0.003 11.55003,11.36411 25.43055,25.26126 l 25.23732,25.26754 -1.0795,3.26652 c -2.17385,6.57799 -2.51403,9.05982 -2.50201,18.25412 0.009,7.07958 0.1489,9.1805 0.85865,12.9184 4.45118,23.44188 19.04867,49.0367 40.82654,71.58407 18.62671,19.28485 40.42479,33.68265 60.5268,39.97841 15.15635,4.74682 29.76955,4.94171 42.62471,0.56847 l 4.57929,-1.55784 12.13763,12.03918 c 6.67571,6.62156 17.96432,17.82173 25.0858,24.88928 7.12149,7.06754 12.85961,12.99335 12.75139,13.16845 -0.44201,0.71519 -6.17707,4.31305 -9.10946,5.71477 -4.81346,2.30091 -8.32113,3.05225 -14.05755,3.01113 -2.66107,-0.0191 -6.04885,-0.25855 -7.5284,-0.53216 z"
   id="path4522"
   inkscape:connector-curvature="0" /><path
   style="fill:#009cf0;fill-opacity:1;stroke:#e2dbe3;stroke-width:0.38429716"
   d="m 168.46153,145.50004 -30.62588,-30.4533 5.33622,-5.32601 5.33623,-5.32601 21.06238,20.79544 c 11.58431,11.43749 25.3847,25.13051 30.66753,30.42893 l 9.60514,9.63348 -5.37787,5.35039 -5.37788,5.35039 z"
   id="path4524"
   inkscape:connector-curvature="0" /><path
   style="fill:#009cf0;fill-opacity:1;stroke:#e2dbe3;stroke-width:0.38429716"
   d="m 366.31031,342.36207 -30.66236,-30.43417 5.30877,-5.31895 c 2.91982,-2.92543 5.42463,-5.27514 5.56624,-5.22159 0.14161,0.0535 13.95526,13.73792 30.697,30.40972 l 30.43952,30.31236 -5.34341,5.3434 -5.34339,5.3434 z"
   id="path4526"
   inkscape:connector-curvature="0" /></svg>