<?xml version="1.0" encoding="UTF-8" standalone="no"?>
<!-- Generator: Adobe Illustrator 16.0.3, SVG Export Plug-In . SVG Version: 6.00 Build 0)  -->

<svg
   xmlns:dc="http://purl.org/dc/elements/1.1/"
   xmlns:cc="http://creativecommons.org/ns#"
   xmlns:rdf="http://www.w3.org/1999/02/22-rdf-syntax-ns#"
   xmlns:svg="http://www.w3.org/2000/svg"
   xmlns="http://www.w3.org/2000/svg"
   xmlns:sodipodi="http://sodipodi.sourceforge.net/DTD/sodipodi-0.dtd"
   xmlns:inkscape="http://www.inkscape.org/namespaces/inkscape"
   version="1.1"
   x="0px"
   y="0px"
   width="512px"
   height="512px"
   viewBox="0 0 512 512"
   enable-background="new 0 0 512 512"
   xml:space="preserve"
   id="svg16"
   sodipodi:docname="isd-wiki-icon.svg"
   inkscape:version="0.92.1 r15371"><metadata
   id="metadata22"><rdf:RDF><cc:Work
       rdf:about=""><dc:format>image/svg+xml</dc:format><dc:type
         rdf:resource="http://purl.org/dc/dcmitype/StillImage" /></cc:Work></rdf:RDF></metadata><defs
   id="defs20" /><sodipodi:namedview
   pagecolor="#ffffff"
   bordercolor="#666666"
   borderopacity="1"
   objecttolerance="10"
   gridtolerance="10"
   guidetolerance="10"
   inkscape:pageopacity="0"
   inkscape:pageshadow="2"
   inkscape:window-width="1153"
   inkscape:window-height="858"
   id="namedview18"
   showgrid="false"
   inkscape:zoom="0.921875"
   inkscape:cx="66.871153"
   inkscape:cy="228.16912"
   inkscape:window-x="596"
   inkscape:window-y="105"
   inkscape:window-maximized="0"
   inkscape:current-layer="svg16" />
<g
   id="Icon_Background">
	<path
   fill="#CE872A"
   d="M512,462c0,27.615-22.386,50-50,50H50c-27.614,0-50-22.385-50-50V50C0,22.386,22.386,0,50,0h412   c27.614,0,50,22.386,50,50V462z"
   id="path2" />
</g>
<g
   id="Icon_Overlay">
	<path
   fill="#C27F26"
   d="M14.645,497.355C23.693,506.403,36.193,512,50,512h412c27.614,0,50-22.385,50-50V50   c0-13.807-5.597-26.307-14.645-35.355L14.645,497.355z"
   id="path5" />
</g>
<g
   id="Icon_Border">
	<g
   opacity="0.5"
   id="g10">
		<path
   fill="#DD9443"
   d="M462,14.173c19.755,0,35.827,16.072,35.827,35.827v412c0,19.755-16.072,35.827-35.827,35.827H50    c-19.755,0-35.827-16.072-35.827-35.827V50c0-19.755,16.072-35.827,35.827-35.827H462 M462,0H50C22.386,0,0,22.386,0,50v412    c0,27.615,22.386,50,50,50h412c27.614,0,50-22.385,50-50V50C512,22.386,489.614,0,462,0L462,0z"
   id="path8" />
	</g>
</g>
<g
   id="Wiki_Symbol">
	<path
   fill="#FFFFFF"
   d="M425.675,152.828c-5.095-2.942-11.606-1.196-14.547,3.897l-99.665,172.618l-43.164-74.766l50.349-87.204   c2.94-5.093,1.196-11.606-3.897-14.546c-5.094-2.942-11.605-1.196-14.546,3.897l-44.201,76.555l-44.197-76.555   c-2.94-5.094-9.453-6.841-14.545-3.897c-5.093,2.94-6.839,9.453-3.898,14.545l50.345,87.203l-43.168,74.767l-99.667-172.618   c-2.941-5.093-9.455-6.838-14.546-3.897c-5.093,2.94-6.838,9.453-3.897,14.546l118.11,204.563l55.464-96.063l55.46,96.063   l118.108-204.563C432.512,162.281,430.768,155.768,425.675,152.828z"
   id="path13" />
</g>
<path
   style="fill:#ffffff;fill-opacity:1;stroke:#e2dbe3;stroke-width:0.76703107"
   d="M 141.20857,268.561 C 96.116757,190.50095 81.837898,165.18617 81.583627,162.85279 c -1.014327,-9.30818 10.508436,-14.69263 17.003481,-7.94552 1.364031,1.41697 24.659322,41.06209 51.767312,88.10027 27.10799,47.03818 49.53309,85.79225 49.83356,86.12015 0.30046,0.32791 10.30036,-16.31448 22.22199,-36.98308 l 21.67568,-37.57926 -24.89467,-43.17167 c -13.69206,-23.74442 -25.2849,-43.9256 -25.76186,-44.84706 -3.36946,-6.50971 2.08718,-14.81578 9.73318,-14.81578 5.1993,0 6.22991,1.46129 29.74591,42.17626 12.28565,21.27104 22.64428,38.76932 23.01917,38.88506 0.37491,0.11575 8.77347,-13.84744 18.6635,-31.02931 27.71028,-48.14085 27.21928,-47.34865 30.23242,-48.77848 1.45289,-0.68944 3.66019,-1.25353 4.90512,-1.25353 5.21886,0 10.81169,6.65712 9.85519,11.73058 -0.25503,1.35272 -11.98097,22.40635 -26.05762,46.78583 l -25.59393,44.32633 21.56808,37.51969 c 11.86245,20.63583 21.74067,37.52232 21.9516,37.52556 0.21094,0.003 23.01033,-39.24239 50.66533,-87.21249 53.10794,-92.12055 52.1896,-90.6755 57.62412,-90.6755 5.96727,0 10.59213,4.54815 10.5975,10.42172 0.002,2.57836 -1.39884,5.57424 -7.89244,16.87468 -45.7948,79.69405 -110.54213,191.30746 -110.97814,191.30746 -0.30299,0 -12.77024,-21.21714 -27.70499,-47.1492 -14.93476,-25.93205 -27.44012,-47.06431 -27.78969,-46.96054 -0.34958,0.10375 -12.70674,21.06202 -27.46036,46.57392 -14.75361,25.51191 -27.09231,46.83908 -27.41933,47.39374 -0.3863,0.65522 -21.36235,-34.94341 -59.88517,-101.63162 z"
   id="path40"
   inkscape:connector-curvature="0" /><path
   style="fill:#009cf0;fill-opacity:1;stroke:#e2dbe3;stroke-width:1.08474576"
   d="M 37.436089,509.95526 C 28.534162,507.55786 21.181625,503.31671 15.315229,497.19534 9.0574887,490.66561 2.9070496,478.92102 1.3511965,470.53028 -0.21284797,462.09536 -0.12791791,49.928027 1.4396389,41.318239 4.7161301,23.322149 18.302049,8.2158113 36.064374,2.818601 42.998049,0.71175401 46.693491,0.68095676 258.43725,0.96537958 l 215.32204,0.28922922 5.81839,2.473518 c 17.74898,7.5454632 28.97024,21.7070182 31.5615,39.8315672 1.44243,10.089045 1.46321,413.399856 0.0219,424.677966 -2.53018,19.79806 -17.28388,36.76137 -36.27374,41.7063 -5.74134,1.49504 -30.2742,1.67554 -219.11865,1.61214 C 76.350159,511.49587 42.227647,511.24568 37.436089,509.95526 Z M 208.28513,359.48817 c 3.54737,-6.11321 15.58613,-26.85729 26.7528,-46.09797 11.16668,-19.24068 20.6336,-34.98125 21.03763,-34.97905 0.40401,0.002 12.88647,20.99204 27.7388,46.64407 14.85233,25.65204 27.29979,46.63603 27.66102,46.63111 0.69083,-0.01 3.22032,-4.34782 74.62483,-127.99104 49.28101,-85.33442 48.26518,-83.16957 41.82857,-89.14144 -3.89395,-3.61281 -7.3876,-4.37504 -11.73228,-2.5597 -4.12227,1.72238 -0.0943,-4.91889 -60.71081,100.09941 -23.84443,41.31057 -43.65077,75.11396 -44.01408,75.11865 -0.47562,0.006 -37.89985,-64.17793 -41.92608,-71.90494 -0.48644,-0.93356 0.59684,-2.87429 30.09552,-53.91707 12.41388,-21.48021 19.96247,-35.67161 20.32675,-38.2144 1.49054,-10.4043 -11.7166,-16.15872 -18.68309,-8.1403 -1.19322,1.37339 -11.68813,18.95265 -23.32203,39.06502 -11.6339,20.11235 -21.48224,36.57015 -21.88521,36.57287 -0.40298,0.003 -10.84761,-17.37875 -23.21031,-38.62551 -19.44818,-33.42397 -22.94802,-38.82699 -25.9678,-40.08873 -4.6281,-1.93374 -10.7321,-0.29096 -13.26127,3.56903 -4.05638,6.19084 -3.32028,7.88143 23.87384,54.82966 l 25.61492,44.22187 -19.65411,33.87982 c -10.80975,18.63391 -20.39566,35.15982 -21.30201,36.72427 -1.63103,2.8153 -2.15272,1.97078 -50.9261,-82.44068 -27.10299,-46.90682 -50.52967,-86.62749 -52.059281,-88.26817 -2.192378,-2.35158 -3.758666,-2.98305 -7.399026,-2.98305 -6.177548,0 -10.108406,3.34774 -10.828338,9.22203 -0.493271,4.02485 0.73315,6.5252 17.025378,34.71017 9.656317,16.70509 34.910177,60.39322 56.119697,97.08475 21.20952,36.69152 40.21123,69.52918 42.22603,72.97257 2.0148,3.44338 4.07795,6.00442 4.58478,5.69118 0.50683,-0.31323 3.82389,-5.57123 7.37126,-11.68443 z"
   id="path4491"
   inkscape:connector-curvature="0" /></svg>