<?xml version="1.0" encoding="UTF-8" standalone="no"?>
<!-- Generator: Adobe Illustrator 16.0.3, SVG Export Plug-In . SVG Version: 6.00 Build 0)  -->

<svg
   xmlns:dc="http://purl.org/dc/elements/1.1/"
   xmlns:cc="http://creativecommons.org/ns#"
   xmlns:rdf="http://www.w3.org/1999/02/22-rdf-syntax-ns#"
   xmlns:svg="http://www.w3.org/2000/svg"
   xmlns="http://www.w3.org/2000/svg"
   xmlns:sodipodi="http://sodipodi.sourceforge.net/DTD/sodipodi-0.dtd"
   xmlns:inkscape="http://www.inkscape.org/namespaces/inkscape"
   version="1.1"
   x="0px"
   y="0px"
   width="512px"
   height="512px"
   viewBox="0 0 512 512"
   enable-background="new 0 0 512 512"
   xml:space="preserve"
   id="svg18"
   sodipodi:docname="isd-ad-icon.svg"
   inkscape:version="0.92.1 r15371"><metadata
   id="metadata24"><rdf:RDF><cc:Work
       rdf:about=""><dc:format>image/svg+xml</dc:format><dc:type
         rdf:resource="http://purl.org/dc/dcmitype/StillImage" /></cc:Work></rdf:RDF></metadata><defs
   id="defs22" /><sodipodi:namedview
   pagecolor="#ffffff"
   bordercolor="#666666"
   borderopacity="1"
   objecttolerance="10"
   gridtolerance="10"
   guidetolerance="10"
   inkscape:pageopacity="0"
   inkscape:pageshadow="2"
   inkscape:window-width="1920"
   inkscape:window-height="1017"
   id="namedview20"
   showgrid="false"
   inkscape:zoom="0.86152377"
   inkscape:cx="533.6086"
   inkscape:cy="170.47335"
   inkscape:window-x="-8"
   inkscape:window-y="-8"
   inkscape:window-maximized="1"
   inkscape:current-layer="svg18" />
<g
   id="Icon_Background">
	<path
   fill="#CE872A"
   d="M512,462c0,27.615-22.386,50-50,50H50c-27.614,0-50-22.385-50-50V50C0,22.386,22.386,0,50,0h412   c27.614,0,50,22.386,50,50V462z"
   id="path2" />
</g>
<g
   id="Icon_Overlay">
	<path
   fill="#C27F26"
   d="M14.645,497.355C23.693,506.403,36.193,512,50,512h412c27.614,0,50-22.385,50-50V50   c0-13.807-5.597-26.307-14.645-35.355L14.645,497.355z"
   id="path5" />
</g>
<g
   id="Icon_Border">
	<g
   opacity="0.5"
   id="g10">
		<path
   fill="#DD9443"
   d="M462,14.173c19.755,0,35.827,16.072,35.827,35.827v412c0,19.755-16.072,35.827-35.827,35.827H50    c-19.755,0-35.827-16.072-35.827-35.827V50c0-19.755,16.072-35.827,35.827-35.827H462 M462,0H50C22.386,0,0,22.386,0,50v412    c0,27.615,22.386,50,50,50h412c27.614,0,50-22.385,50-50V50C512,22.386,489.614,0,462,0L462,0z"
   id="path8" />
	</g>
</g>
<g
   id="AD_Manager_Symbol">
	<path
   fill="#FFFFFF"
   d="M349.844,240.384c-34.396-66.738-93.451-92.957-147.86-89.053C146.629,155.317,97.438,189.837,81,254.11   c11.425-77.917,63.985-115.847,119.34-120.49C254.75,129.017,328.063,161.522,349.844,240.384L349.844,240.384z M139.437,132.509   c73.314-41.629,140.627-15.821,179.668,19.767c36.862,33.616,77.588,101.176,52.725,181.271   c36.287-76.766,1.356-159.655-38.342-195.818C291.446,99.387,219.655,74.894,139.437,132.509L139.437,132.509z M319.845,424.365   c82.889-43.971,97.683-132.857,87.697-191.707c-9-52.889-45.165-120.367-133.149-145.024   c110.587,14.876,150.408,98.587,155.791,156.284C435.28,299.028,418.637,389.229,319.845,424.365L319.845,424.365z"
   id="path13" />
	<path
   fill="#FFFFFF"
   d="M223.602,359.481L161.558,252.02c-0.019-0.032-0.041-0.061-0.06-0.093   c-0.105-0.179-0.222-0.352-0.339-0.524c-0.069-0.102-0.135-0.206-0.208-0.305c-0.113-0.154-0.237-0.302-0.36-0.45   c-0.089-0.107-0.176-0.219-0.27-0.322c-0.107-0.118-0.223-0.229-0.337-0.344c-0.122-0.122-0.242-0.246-0.369-0.361   c-0.094-0.085-0.195-0.163-0.292-0.245c-0.159-0.133-0.317-0.265-0.482-0.386c-0.087-0.063-0.179-0.122-0.269-0.184   c-0.185-0.126-0.371-0.25-0.563-0.363c-0.029-0.017-0.054-0.037-0.083-0.054c-0.076-0.044-0.154-0.076-0.23-0.118   c-0.178-0.097-0.357-0.191-0.54-0.276c-0.141-0.066-0.284-0.124-0.426-0.183c-0.147-0.061-0.294-0.121-0.445-0.174   c-0.174-0.063-0.348-0.116-0.524-0.168c-0.125-0.037-0.25-0.073-0.377-0.105c-0.191-0.048-0.382-0.088-0.574-0.125   c-0.121-0.022-0.242-0.045-0.364-0.063c-0.191-0.028-0.381-0.051-0.572-0.068c-0.132-0.012-0.265-0.022-0.398-0.029   c-0.177-0.009-0.352-0.013-0.528-0.012c-0.152,0-0.304,0.003-0.457,0.01c-0.157,0.008-0.313,0.021-0.469,0.035   c-0.168,0.017-0.336,0.035-0.504,0.061c-0.145,0.021-0.288,0.047-0.431,0.075c-0.171,0.033-0.342,0.069-0.513,0.111   c-0.146,0.036-0.291,0.078-0.435,0.121c-0.158,0.048-0.316,0.096-0.473,0.151c-0.165,0.059-0.327,0.124-0.489,0.191   c-0.129,0.054-0.259,0.106-0.388,0.166c-0.194,0.09-0.383,0.19-0.571,0.293c-0.07,0.038-0.142,0.067-0.21,0.107   c-0.027,0.016-0.05,0.034-0.077,0.05c-0.2,0.117-0.393,0.246-0.585,0.378c-0.083,0.057-0.168,0.11-0.248,0.169   c-0.171,0.126-0.336,0.263-0.5,0.4c-0.092,0.077-0.188,0.151-0.276,0.231c-0.132,0.118-0.255,0.247-0.381,0.373   c-0.11,0.11-0.223,0.219-0.327,0.333c-0.095,0.105-0.184,0.219-0.275,0.329c-0.122,0.146-0.244,0.292-0.356,0.444   c-0.073,0.1-0.14,0.204-0.209,0.307c-0.117,0.172-0.233,0.345-0.338,0.523c-0.019,0.032-0.042,0.061-0.06,0.093L82.33,359.481   c-2.739,4.745-1.114,10.813,3.632,13.553c1.563,0.902,3.268,1.331,4.951,1.331c3.429,0,6.764-1.779,8.602-4.962l16.608-28.767   h73.686l16.608,28.767c1.838,3.183,5.172,4.962,8.602,4.962c1.683,0,3.389-0.429,4.951-1.331   C224.715,370.295,226.341,364.227,223.602,359.481z M127.579,320.795l25.387-43.972l25.387,43.972H127.579z M277.832,247.111   h-53.707c-5.479,0-9.921,4.442-9.921,9.921v74.835l14.307,24.78c2.082,3.606,2.635,7.808,1.557,11.83   c-0.589,2.197-1.639,4.186-3.046,5.888h50.81c35.141,0,63.627-28.486,63.627-63.627   C341.459,275.599,312.973,247.111,277.832,247.111z M277.832,354.522h-43.785v-87.568h43.785c24.143,0,43.784,19.642,43.784,43.784   S301.975,354.522,277.832,354.522z"
   id="path15" />
</g>
<path
   style="fill:#009cf0;fill-opacity:1;stroke:#e2dbe3;stroke-width:1.16073406"
   d="m 36.912985,495.4655 c -7.380737,-2.84172 -14.908616,-10.0574 -18.85695,-18.0749 l -2.715208,-5.51352 -0.302425,-213.5261 C 14.700683,19.905829 14.092848,37.580512 22.977873,27.486589 29.306142,20.297296 35.763086,16.686019 44.939546,15.203738 54.788254,13.612868 456.95764,13.498713 466.63733,15.08404 c 12.32645,2.018812 22.42905,8.911542 27.80623,18.971447 l 2.60191,4.867784 V 255.98055 473.03782 l -2.65981,4.98128 c -3.6039,6.74936 -10.26922,13.18928 -17.16215,16.58178 l -5.71419,2.81235 -214.15544,0.23614 -214.155435,0.23614 z M 340.41001,416.14856 c 10.28022,-4.91941 26.7354,-15.7983 36.20457,-23.93564 49.21706,-42.29472 68.19224,-122.20729 44.9044,-189.11154 -17.97903,-51.65241 -54.80453,-88.49527 -106.59089,-106.641147 -10.54081,-3.69349 -38.78175,-9.974123 -39.88554,-8.870332 -0.33546,0.335459 0.11775,0.828667 1.00713,1.096021 11.20657,3.368771 22.65963,7.926079 34.1176,13.575818 49.85751,24.58389 83.69124,68.83226 95.91216,125.43567 3.43475,15.90868 4.25062,48.27939 1.66363,66.00699 -8.14901,55.84205 -35.70887,98.9394 -80.45496,125.81329 -3.99002,2.39636 -7.25459,4.57274 -7.25459,4.8364 0,0.70957 11.02,-3.72814 20.37649,-8.20553 z M 96.769756,373.25011 c 1.339353,-0.93811 6.287134,-8.51008 10.995064,-16.82659 l 8.55987,-15.12094 36.71979,-0.003 36.71979,-0.003 8.82587,15.52365 c 6.91907,12.16979 9.57617,15.83442 12.2987,16.96213 6.95448,2.88064 13.96449,-1.57481 13.96449,-8.87561 0,-4.40021 0.95189,-2.657 -46.16862,-84.5487 -9.18345,-15.9601 -17.70258,-30.05114 -18.93143,-31.31344 -2.60939,-2.68044 -10.20822,-3.13079 -13.04875,-0.77335 -1.00848,0.83696 -16.22204,26.46389 -33.80791,56.94873 -33.011967,57.22464 -34.474978,60.35496 -30.5234,65.30805 3.540005,4.43719 10.161228,5.68958 14.396536,2.72304 z m 194.544034,0.003 c 23.75107,-5.03308 44.03821,-25.32021 49.07128,-49.07128 2.27261,-10.72446 2.11572,-18.04372 -0.61575,-28.72364 -6.80302,-26.59957 -27.32924,-44.60321 -54.94377,-48.19144 -12.08724,-1.57062 -59.93873,-1.44827 -64.56681,0.16508 -6.6691,2.32466 -7.01275,4.59853 -7.01275,46.40164 v 37.34762 l 8.24029,14.29592 c 7.65406,13.27884 8.20546,14.69145 7.75065,19.85581 -0.2693,3.05795 -0.89933,6.47399 -1.40007,7.59119 -0.85346,1.90418 0.85874,2.03002 27.36155,2.01114 20.03905,-0.0143 30.55603,-0.50417 36.11538,-1.68225 z m 85.42146,-50.26194 c 13.59772,-35.26732 14.02343,-76.10357 1.19468,-114.60121 -19.07993,-57.25627 -61.44778,-96.62277 -116.44295,-108.1936 -11.52776,-2.425404 -37.05085,-2.668248 -49.40173,-0.470038 -20.3278,3.617948 -44.79582,13.629628 -63.84037,26.121828 -5.42643,3.55945 -9.3188,6.48128 -8.64971,6.49297 0.66908,0.0117 5.49669,-2.07671 10.72803,-4.64088 22.20903,-10.88591 42.4721,-15.6388 66.40499,-15.57589 40.79029,0.10722 77.24299,16.0755 108.5526,47.55197 44.4429,44.67978 63.04699,106.85061 48.85207,163.25309 -1.39429,5.5401 -2.15767,9.83966 -1.69641,9.55458 0.46127,-0.28507 2.39573,-4.55671 4.2988,-9.49254 z M 91.786828,226.23546 c 12.912752,-27.16891 32.451752,-47.01748 59.359882,-60.30032 22.65278,-11.18226 45.44185,-15.47028 72.74488,-13.68776 48.14709,3.14335 93.38326,32.89498 120.2545,79.09084 2.88538,4.96043 5.44259,8.82252 5.68268,8.58243 0.24008,-0.24008 -1.20152,-5.08211 -3.20359,-10.76006 -17.15124,-48.64181 -56.91477,-82.73936 -109.58414,-93.96932 -11.36137,-2.42243 -38.46591,-2.77316 -49.27992,-0.63767 -53.66117,10.59667 -90.488552,46.98815 -104.003663,102.77266 -3.816177,15.75152 -3.476456,19.80385 0.627151,7.48094 1.833843,-5.50693 5.164843,-13.86421 7.40222,-18.57174 z"
   id="path4577"
   inkscape:connector-curvature="0" /><path
   style="fill:#009cf0;fill-opacity:1;stroke:#e2dbe3;stroke-width:1.16073406"
   d="M 36.814407,510.06158 C 23.160219,506.40839 11.105856,495.86769 4.4296014,481.74332 L 1.4120178,475.35929 V 255.98055 36.601803 l 3.703192,-7.544772 C 11.999229,15.03174 26.338496,4.0025833 41.325589,1.2055424 45.370744,0.45059526 121.17494,0.04579401 256.06139,0.05883369 485.63467,0.08102693 474.43264,-0.26685444 486.79291,7.2242501 498.54297,14.345538 505.66305,23.158399 509.43893,35.2543 c 2.01497,6.454887 2.11572,16.965816 2.11572,220.72625 0,203.76042 -0.10075,214.27136 -2.11572,220.72625 -5.37961,17.2334 -19.5498,30.17935 -37.11619,33.90948 -4.43636,0.94204 -65.10426,1.28483 -217.63764,1.22974 C 72.350783,511.78016 42.318439,511.53419 36.814407,510.06158 Z M 477.46149,495.31061 c 7.08536,-3.59042 14.65721,-10.80505 17.79485,-16.95535 2.36058,-4.62711 2.3695,-5.46422 2.3695,-222.37471 0,-212.246324 -0.056,-217.839907 -2.22363,-222.088813 C 492.46841,28.141023 483.7005,20.17013 476.93653,17.104613 472.16421,14.941736 468.42796,14.546077 445.97317,13.825677 413.47465,12.78305 115.37002,12.786195 72.216797,13.829577 40.052324,14.6073 39.656228,14.647074 33.912572,17.67592 27.140512,21.247083 18.953895,29.301752 17.036196,34.280292 16.29847,36.195503 15.250049,48.209101 14.706372,60.977176 13.587732,87.248083 13.533981,309.05742 14.621992,409.1974 l 0.718839,66.16185 4.367724,6.52674 c 4.560603,6.81494 10.643166,11.77599 18.719852,15.26823 4.527398,1.95758 15.669281,2.03705 219.034523,1.56226 l 214.26448,-0.50023 z"
   id="path4579"
   inkscape:connector-curvature="0" /><path
   style="fill:#009cf0;fill-opacity:1;stroke:#e2dbe3;stroke-width:1.16073406"
   d="m 131.88913,314.30743 c 1.9626,-3.35162 7.3596,-12.75175 11.99334,-20.88917 4.63374,-8.13743 8.68614,-14.79306 9.00535,-14.79029 0.49346,0.004 12.31008,19.97471 21.79853,36.8402 l 2.77535,4.93312 h -24.57046 -24.57046 z"
   id="path4581"
   inkscape:connector-curvature="0" /><path
   style="fill:#009cf0;fill-opacity:1;stroke:#e2dbe3;stroke-width:1.16073406"
   d="m 234.1392,310.62856 v -43.62104 l 21.76377,0.007 c 33.2631,0.0103 40.66556,1.96083 52.62463,13.86666 8.77968,8.74059 11.98572,16.81498 12.005,30.23451 0.012,8.3482 -0.48045,10.93781 -3.20054,16.83065 -4.20991,9.1204 -13.14528,18.10762 -22.13293,22.26137 -7.03246,3.25013 -7.28892,3.27767 -34.07286,3.65848 l -26.98707,0.38369 z"
   id="path4585"
   inkscape:connector-curvature="0" /></svg>