<?xml version="1.0" encoding="UTF-8" standalone="no"?>
<!-- Generator: Adobe Illustrator 16.0.3, SVG Export Plug-In . SVG Version: 6.00 Build 0)  -->

<svg
   xmlns:dc="http://purl.org/dc/elements/1.1/"
   xmlns:cc="http://creativecommons.org/ns#"
   xmlns:rdf="http://www.w3.org/1999/02/22-rdf-syntax-ns#"
   xmlns:svg="http://www.w3.org/2000/svg"
   xmlns="http://www.w3.org/2000/svg"
   xmlns:sodipodi="http://sodipodi.sourceforge.net/DTD/sodipodi-0.dtd"
   xmlns:inkscape="http://www.inkscape.org/namespaces/inkscape"
   version="1.1"
   x="0px"
   y="0px"
   width="512px"
   height="512px"
   viewBox="0 0 512 512"
   enable-background="new 0 0 512 512"
   xml:space="preserve"
   id="svg16"
   sodipodi:docname="maximo-icon.svg"
   inkscape:version="0.92.1 r15371"><metadata
   id="metadata22"><rdf:RDF><cc:Work
       rdf:about=""><dc:format>image/svg+xml</dc:format><dc:type
         rdf:resource="http://purl.org/dc/dcmitype/StillImage" /></cc:Work></rdf:RDF></metadata><defs
   id="defs20" /><sodipodi:namedview
   pagecolor="#ffffff"
   bordercolor="#666666"
   borderopacity="1"
   objecttolerance="10"
   gridtolerance="10"
   guidetolerance="10"
   inkscape:pageopacity="0"
   inkscape:pageshadow="2"
   inkscape:window-width="1920"
   inkscape:window-height="1017"
   id="namedview18"
   showgrid="false"
   inkscape:zoom="0.4609375"
   inkscape:cx="256"
   inkscape:cy="256"
   inkscape:window-x="-8"
   inkscape:window-y="-8"
   inkscape:window-maximized="1"
   inkscape:current-layer="svg16" />
<g
   id="Icon_Background">
	<path
   fill="#CE872A"
   d="M512,462c0,27.615-22.386,50-50,50H50c-27.614,0-50-22.385-50-50V50C0,22.386,22.386,0,50,0h412   c27.614,0,50,22.386,50,50V462z"
   id="path2" />
</g>
<g
   id="Icon_Overlay">
	<path
   fill="#C27F26"
   d="M14.645,497.355C23.693,506.403,36.193,512,50,512h412c27.614,0,50-22.385,50-50V50   c0-13.807-5.597-26.307-14.645-35.355L14.645,497.355z"
   id="path5" />
</g>
<g
   id="Icon_Border">
	<g
   opacity="0.5"
   id="g10">
		<path
   fill="#DD9443"
   d="M462,14.173c19.755,0,35.827,16.072,35.827,35.827v412c0,19.755-16.072,35.827-35.827,35.827H50    c-19.755,0-35.827-16.072-35.827-35.827V50c0-19.755,16.072-35.827,35.827-35.827H462 M462,0H50C22.386,0,0,22.386,0,50v412    c0,27.615,22.386,50,50,50h412c27.614,0,50-22.385,50-50V50C512,22.386,489.614,0,462,0L462,0z"
   id="path8" />
	</g>
</g>
<g
   id="Maximo_Symbol">
	<path
   fill="#FFFFFF"
   d="M274.186,100.843l4.039,24.146l2.011,12.023l11.634,3.64c7.068,2.212,13.885,5.042,20.261,8.412   l10.837,5.728l9.973-7.126l19.921-14.236l25.707,25.71l-14.234,19.925l-7.12,9.968l5.721,10.832   c3.395,6.429,6.221,13.237,8.399,20.234l3.63,11.657l12.041,2.015l24.153,4.041v36.337l-24.16,4.051l-12.036,2.019l-3.628,11.651   c-2.196,7.054-5.022,13.873-8.4,20.27l-5.726,10.844l7.138,9.972l14.228,19.876l-25.717,25.71l-19.929-14.218l-9.955-7.104   l-10.82,5.701c-6.532,3.443-13.339,6.271-20.23,8.407l-11.682,3.62l-2.016,12.063l-4.035,24.149h-36.375l-4.001-24.125   l-2.006-12.097l-11.716-3.617c-6.892-2.127-13.702-4.953-20.242-8.399l-10.831-5.708l-9.959,7.119l-19.935,14.25l-25.688-25.696   l14.235-19.96l7.089-9.939l-5.676-10.808c-3.456-6.58-6.285-13.394-8.408-20.252l-3.619-11.686l-12.066-2.016l-24.147-4.034   v-36.378l24.154-4.042l12.045-2.016l3.627-11.662c2.166-6.965,4.993-13.774,8.401-20.24l5.708-10.828l-7.115-9.96l-14.231-19.921   l25.705-25.71l19.927,14.235l9.973,7.124l10.834-5.727c6.383-3.374,13.203-6.202,20.271-8.405l11.67-3.637l2-12.06l4-24.118   H274.186 M277.151,81h-42.303c-8.447,0-15.443,6.326-16.238,14.342l-4.374,26.372c-8.165,2.545-16.1,5.821-23.64,9.806   l-21.466-15.334c-2.922-2.385-6.608-3.56-10.296-3.56c-4.261,0-8.526,1.57-11.614,4.658l-29.931,29.938   c-5.994,5.955-6.442,15.391-1.331,21.6l15.556,21.776c-3.975,7.54-7.257,15.439-9.795,23.601l-26.008,4.353   C87.326,219.398,81,226.405,81,234.849v42.296c0,8.472,6.326,15.454,14.342,16.244l26.379,4.406   c2.51,8.104,5.821,16.039,9.795,23.607l-15.302,21.455c-5.366,6.53-4.889,15.955,1.076,21.942l29.902,29.912   c3.106,3.078,7.197,4.794,11.578,4.794c3.781,0,7.455-1.32,10.05-3.467l21.776-15.566c7.568,3.988,15.475,7.285,23.64,9.806   l4.313,26.009c0.854,8.387,7.851,14.713,16.298,14.713h42.303c8.443,0,15.447-6.326,16.237-14.353l4.406-26.369   c8.133-2.521,16.039-5.817,23.607-9.806l21.462,15.313c2.918,2.391,6.604,3.566,10.292,3.566c4.271,0,8.545-1.578,11.622-4.675   l29.905-29.898c5.987-5.966,6.467-15.391,1.355-21.639l-15.56-21.737c3.981-7.54,7.258-15.475,9.799-23.636l25.98-4.356   c8.415-0.812,14.741-7.794,14.741-16.266v-42.296c0-8.443-6.326-15.451-14.346-16.238l-26.376-4.413   c-2.541-8.161-5.817-16.061-9.799-23.601l15.334-21.466c5.337-6.548,4.857-15.983-1.102-21.91l-29.934-29.938   c-3.078-3.078-7.173-4.772-11.55-4.772c-3.784,0-7.455,1.303-10.053,3.449l-21.773,15.56c-7.54-3.985-15.475-7.261-23.607-9.806   l-4.35-26.001C292.599,87.326,285.595,81,277.151,81L277.151,81z M256,198.303c31.798,0,57.665,25.896,57.693,57.697   c0,31.798-25.896,57.658-57.693,57.658c-31.794,0-57.668-25.86-57.668-57.658C198.332,224.199,224.206,198.303,256,198.303    M256,178.461c-42.74,0-77.511,34.784-77.511,77.539c0,42.734,34.771,77.501,77.511,77.501c42.754,0,77.536-34.767,77.536-77.501   C333.498,213.237,298.715,178.461,256,178.461L256,178.461z"
   id="path13" />
</g>
<path
   style="fill:#009cf0;fill-opacity:1;stroke:#e2dbe3;stroke-width:2.16949153"
   d="m 34.937246,494.82101 c -4.05231,-1.99613 -10.154005,-8.02267 -13.559321,-13.39229 l -6.191484,-9.76295 v -214.4246 c 0,-237.153777 -0.817226,-223.663278 14.244995,-235.151794 l 8.196911,-6.252088 H 256.01662 474.40488 l 8.87227,6.14848 c 16.64768,11.536857 15.71169,-2.460474 15.65826,234.166622 -0.0453,200.44144 -0.24698,211.37102 -4.05278,219.6171 -4.63358,10.03961 -11.76275,17.17506 -20.44759,20.46566 -4.17823,1.58308 -73.39049,2.2984 -219.11865,2.2646 C 60.632711,498.45463 41.671151,498.13808 34.937246,494.82101 Z M 288.42381,427.4882 c 3.47553,-2.81431 5.34396,-7.95996 7.167,-19.73773 l 2.46589,-15.93099 11.44819,-5.06295 11.44819,-5.06292 14.54629,9.75434 c 11.28884,7.56999 15.79748,9.45295 20.13362,8.40852 3.07304,-0.74023 14.29243,-10.0031 24.93199,-20.58418 23.15741,-23.03017 23.75814,-25.65977 10.25833,-44.90509 l -9.08631,-12.95341 4.69383,-10.68654 c 2.58161,-5.87761 5.71192,-11.34386 6.95628,-12.14723 1.24435,-0.80336 8.09825,-2.13796 15.23091,-2.9658 9.34882,-1.08505 14.38384,-2.92055 18.03961,-6.57631 4.78993,-4.78994 5.07118,-6.61992 5.07118,-32.99502 0,-26.6629 -0.23489,-28.14451 -5.20196,-32.81083 -3.58758,-3.37034 -9.93315,-5.61931 -20.44687,-7.24668 l -15.24489,-2.35969 -4.48069,-11.70879 -4.4807,-11.70879 8.99029,-12.7482 c 13.53257,-19.18918 12.76117,-22.56894 -10.48062,-45.9189 -23.12344,-23.23109 -27.07881,-24.12919 -46.44367,-10.54552 l -12.28273,8.61583 -9.50645,-3.58903 c -13.63224,-5.14667 -14.28228,-5.94635 -15.99256,-19.67364 -1.66578,-13.370294 -4.17076,-19.564305 -9.59707,-23.730501 -3.63288,-2.789237 -53.12451,-3.97635 -59.75183,-1.433214 -5.21003,1.999278 -9.21795,11.199675 -10.96293,25.165965 -1.71486,13.72526 -2.36522,14.52503 -15.99665,19.67139 l -9.50646,3.58903 -12.28271,-8.61583 c -19.41293,-13.6174 -23.28762,-12.71833 -46.74283,10.84606 -23.47069,23.57994 -24.27934,27.14278 -10.41894,45.9049 l 8.95277,12.11893 -4.72227,12.02015 c -4.69828,11.95913 -4.77734,12.0272 -15.56972,13.40657 -15.578097,1.99103 -24.665422,5.31724 -27.135297,9.93224 -1.184061,2.21244 -2.152837,16.18203 -2.152837,31.04353 0,33.80028 0.952646,35.38814 23.826144,39.71323 8.79893,1.66377 16.18559,3.2578 16.4148,3.54231 0.2292,0.2845 2.4968,5.28073 5.0391,11.10276 l 4.62236,10.58551 -7.30654,10.17019 c -11.97116,16.66295 -12.79994,18.91326 -10.04275,27.26762 2.88037,8.72761 38.91885,42.27254 45.41485,42.27254 2.27323,0 10.58494,-4.3264 18.47046,-9.61421 l 14.3373,-9.61421 11.4482,5.06292 11.4482,5.06295 2.46589,15.93099 c 3.51847,22.7313 4.88582,23.54445 39.5908,23.54445 23.19818,0 28.48996,-0.62128 32.42381,-3.80672 z"
   id="path4499"
   inkscape:connector-curvature="0" /><path
   style="fill:#009cf0;fill-opacity:1;stroke:#e2dbe3;stroke-width:2.16949153"
   d="m 237.82909,405.80339 c -0.60905,-2.08814 -1.77589,-8.67797 -2.59299,-14.64407 -1.94694,-14.21585 -3.9197,-17.64076 -11.17887,-19.40768 -3.31283,-0.80636 -12.63877,-4.49196 -20.72431,-8.19018 l -14.70098,-6.72406 -14.52375,10.11061 -14.52375,10.11059 -12.46763,-12.33753 c -7.58232,-7.5032 -11.77563,-13.24153 -10.70159,-14.64456 0.97133,-1.26885 5.79517,-7.84389 10.71964,-14.61116 l 8.95359,-12.30414 -5.15927,-9.39078 c -2.83759,-5.16492 -6.87575,-14.94293 -8.97368,-21.7289 l -3.81442,-12.33813 -15.37562,-2.4462 c -8.4566,-1.34541 -16.59597,-2.84058 -18.08749,-3.32259 -1.86825,-0.60377 -2.71187,-6.23574 -2.71187,-18.1044 V 238.6022 l 15.72882,-2.50577 c 21.08626,-3.35927 19.96099,-2.70865 23.15728,-13.38925 1.55479,-5.19539 5.58865,-14.92055 8.96415,-21.61147 l 6.13726,-12.16531 -10.7212,-14.8918 -10.72121,-14.89181 12.33569,-12.46576 c 7.50204,-7.58114 13.23967,-11.77374 14.6427,-10.6997 1.26886,0.97132 7.84203,5.79379 14.60704,10.71659 l 12.30002,8.95054 16.30356,-7.5327 c 8.96695,-4.14299 17.76221,-7.53271 19.54501,-7.53271 5.75079,0 9.4277,-5.95244 10.96737,-17.75473 2.93706,-22.51407 1.7482,-21.29612 20.78741,-21.29612 19.03921,0 17.85035,-1.21795 20.78741,21.29612 1.53967,11.80229 5.21658,17.75473 10.96737,17.75473 1.7828,0 10.57806,3.38972 19.54501,7.53271 l 16.30356,7.5327 12.30002,-8.95054 c 6.76502,-4.9228 13.33819,-9.74527 14.60704,-10.71659 1.40303,-1.07404 7.14066,3.11856 14.6427,10.6997 l 12.33568,12.46576 -10.72119,14.89181 -10.72122,14.8918 6.13728,12.16531 c 3.37549,6.69092 7.40935,16.41608 8.96414,21.61147 3.19629,10.6806 2.07102,10.02998 23.15728,13.38925 l 15.72882,2.50577 v 17.22801 c 0,11.86866 -0.84361,17.50063 -2.71187,18.1044 -1.49152,0.48201 -9.63089,1.97718 -18.08748,3.32259 l -15.37564,2.4462 -3.86894,12.33813 c -2.12791,6.78597 -6.13248,16.82566 -8.89906,22.31042 -4.10989,8.14791 -4.52537,10.5293 -2.27109,13.01694 1.51745,1.67457 6.29675,7.99877 10.62064,14.05375 l 7.86165,11.00911 -12.44327,12.31343 -12.44327,12.31342 -14.52375,-10.11059 -14.52375,-10.11061 -14.70099,6.72406 c -8.08554,3.69822 -17.41148,7.38382 -20.72431,8.19018 -7.25917,1.76692 -9.23193,5.19183 -11.17887,19.40768 C 274.12434,410.43235 275.06156,409.6 256,409.6 c -14.38281,0 -17.23751,-0.59646 -18.17091,-3.79661 z m 51.13958,-79.04725 c 15.71924,-7.32505 29.63862,-21.23189 37.71508,-37.6811 5.57336,-11.35119 6.3332,-15.24141 6.3332,-32.42419 0,-16.83803 -0.83593,-21.31703 -6.07351,-32.54238 -7.9395,-17.01622 -22.66447,-31.78625 -39.24632,-39.36641 -11.19723,-5.11866 -16.12096,-6.06001 -31.69712,-6.06001 -23.91987,0 -40.36746,6.97518 -56.38604,23.91246 -13.79177,14.58276 -19.77832,28.08436 -21.1589,47.72009 -2.47501,35.20175 15.75053,64.34819 48.95449,78.28845 17.31041,7.26756 43.6988,6.47585 61.55912,-1.84691 z"
   id="path4501"
   inkscape:connector-curvature="0" /><path
   style="fill:#009cf0;fill-opacity:1;stroke:#e2dbe3;stroke-width:2.16949153"
   d="m 233.17219,308.04824 c -12.06522,-5.66702 -22.47822,-16.69267 -28.79397,-30.48809 -13.43486,-29.3456 3.62186,-65.78721 35.20199,-75.20891 13.46472,-4.0171 19.39362,-4.00772 33.0651,0.0523 14.61378,4.33983 29.17749,17.43163 35.34809,31.77558 11.30626,26.28212 -0.72376,59.23943 -26.53626,72.69845 -10.79841,5.63045 -37.41605,6.27581 -48.28495,1.1707 z"
   id="path4503"
   inkscape:connector-curvature="0" /><path
   style="fill:#009cf0;fill-opacity:1;stroke:#e2dbe3;stroke-width:2.16949153"
   d="M 32.549647,508.70782 C 22.939555,505.64803 7.6927139,490.0902 3.9518696,479.52675 1.6484545,473.02233 1.0847458,428.77588 1.0847458,254.48136 V 37.532203 L 5.7674136,28.854237 C 8.3428808,24.081356 13.224237,17.543315 16.614871,14.325256 30.555186,1.094475 18.380212,1.7310968 256.47269,1.7832396 c 206.71935,0.045272 217.99365,0.2468465 226.23917,4.044956 10.64108,4.9015734 18.90476,12.4783454 24.19693,22.1855914 3.82104,7.008809 4.00646,17.540157 4.00646,227.552313 v 220.20339 l -4.67022,8.67797 c -6.00079,11.15036 -12.47308,17.0914 -24.61791,22.59736 C 472.00154,511.40864 468.83235,511.46837 256,511.29698 103.87983,511.1744 37.89548,510.40991 32.549647,508.70782 Z M 479.95223,495.88191 c 3.14873,-2.06357 8.38142,-7.23473 11.62817,-11.49147 5.14922,-6.75098 6.15493,-10.70527 7.87402,-30.95988 3.04264,-35.84887 0.91138,-407.394943 -2.39545,-417.600804 -1.74169,-5.375373 -5.7273,-10.432536 -11.54115,-14.644068 l -8.88071,-6.433146 H 255.59049 34.543846 l -8.704903,8.135594 -8.704904,8.135593 -2.007167,26.033898 C 14.02293,71.376271 13.096585,170.78003 13.068327,277.95486 l -0.05138,194.86336 6.590317,9.5787 c 8.638199,12.55519 12.999615,14.76013 32.460531,16.41066 8.949152,0.75902 107.596055,1.25542 219.215315,1.10317 188.42941,-0.25704 203.3536,-0.5452 208.66912,-4.02884 z"
   id="path4505"
   inkscape:connector-curvature="0" /></svg>