<?xml version="1.0" encoding="UTF-8" standalone="no"?>
<!-- Generator: Adobe Illustrator 16.0.3, SVG Export Plug-In . SVG Version: 6.00 Build 0)  -->

<svg
   xmlns:dc="http://purl.org/dc/elements/1.1/"
   xmlns:cc="http://creativecommons.org/ns#"
   xmlns:rdf="http://www.w3.org/1999/02/22-rdf-syntax-ns#"
   xmlns:svg="http://www.w3.org/2000/svg"
   xmlns="http://www.w3.org/2000/svg"
   xmlns:sodipodi="http://sodipodi.sourceforge.net/DTD/sodipodi-0.dtd"
   xmlns:inkscape="http://www.inkscape.org/namespaces/inkscape"
   version="1.1"
   x="0px"
   y="0px"
   width="512px"
   height="512px"
   viewBox="0 0 512 512"
   enable-background="new 0 0 512 512"
   xml:space="preserve"
   id="svg16"
   sodipodi:docname="webmail-icon.svg"
   inkscape:version="0.92.1 r15371"><metadata
   id="metadata22"><rdf:RDF><cc:Work
       rdf:about=""><dc:format>image/svg+xml</dc:format><dc:type
         rdf:resource="http://purl.org/dc/dcmitype/StillImage" /></cc:Work></rdf:RDF></metadata><defs
   id="defs20" /><sodipodi:namedview
   pagecolor="#ffffff"
   bordercolor="#666666"
   borderopacity="1"
   objecttolerance="10"
   gridtolerance="10"
   guidetolerance="10"
   inkscape:pageopacity="0"
   inkscape:pageshadow="2"
   inkscape:window-width="741"
   inkscape:window-height="881"
   id="namedview18"
   showgrid="false"
   inkscape:zoom="0.4609375"
   inkscape:cx="256"
   inkscape:cy="256"
   inkscape:window-x="0"
   inkscape:window-y="0"
   inkscape:window-maximized="0"
   inkscape:current-layer="svg16" />
<g
   id="Icon_Background">
	<path
   fill="#CE872A"
   d="M512,462c0,27.615-22.386,50-50,50H50c-27.614,0-50-22.385-50-50V50C0,22.386,22.386,0,50,0h412   c27.614,0,50,22.386,50,50V462z"
   id="path2" />
</g>
<g
   id="Icon_Overlay">
	<path
   fill="#C27F26"
   d="M14.645,497.355C23.693,506.403,36.193,512,50,512h412c27.614,0,50-22.385,50-50V50   c0-13.807-5.597-26.307-14.645-35.355L14.645,497.355z"
   id="path5" />
</g>
<g
   id="Icon_Border">
	<g
   opacity="0.5"
   id="g10">
		<path
   fill="#DD9443"
   d="M462,14.173c19.755,0,35.827,16.072,35.827,35.827v412c0,19.755-16.072,35.827-35.827,35.827H50    c-19.755,0-35.827-16.072-35.827-35.827V50c0-19.755,16.072-35.827,35.827-35.827H462 M462,0H50C22.386,0,0,22.386,0,50v412    c0,27.615,22.386,50,50,50h412c27.614,0,50-22.385,50-50V50C512,22.386,489.614,0,462,0L462,0z"
   id="path8" />
	</g>
</g>
<g
   id="Webmail_Symbol">
	<path
   fill="#FFFFFF"
   d="M406,126H106c-13.807,0-25,11.193-25,25v210c0,13.808,11.193,25,25,25h300c13.807,0,25-11.192,25-25V151   C431,137.193,419.807,126,406,126z M387.651,145.843L256,243.641l-131.651-97.798H387.651z M406,366.157H106   c-2.844,0-5.157-2.313-5.157-5.157V153.1l148.366,110.215c1.868,1.732,4.285,2.653,6.737,2.653c1.859,0,3.73-0.526,5.386-1.602   c0.059-0.038,0.115-0.08,0.174-0.119c0.116-0.079,0.234-0.152,0.349-0.237l149.303-110.911V361   C411.157,363.844,408.844,366.157,406,366.157z"
   id="path13" />
</g>
<path
   style="fill:#009cf0;fill-opacity:1;stroke:#e2dbe3;stroke-width:2.16949153"
   d="M 29.568562,507.02577 C 24.711272,504.81963 17.599768,499.22751 13.765222,494.59883 -0.16992434,477.77772 0.26941353,486.12601 0.92465746,250.60285 L 1.5186441,37.098305 6.3370364,28.087815 C 12.253127,17.024604 23.97629,7.0739588 34.977159,3.7780187 40.927811,1.9951599 103.18602,1.3016949 257.29766,1.3016949 c 234.55985,0 220.36664,-0.77493079 237.7336,12.9799481 4.53669,3.593138 10.06416,10.684944 12.28322,15.759566 3.82794,8.753845 4.06515,20.006149 4.6295,219.613091 0.40839,144.44227 -0.13949,213.92382 -1.748,221.67186 -3.25606,15.68438 -12.83055,28.09259 -26.63715,34.52084 l -11.26052,5.24281 -216.94916,-0.0265 C 48.972989,511.0382 37.969601,510.84143 29.568562,507.02577 Z M 415.9137,384.34751 c 4.11181,-1.71804 9.44631,-6.35533 11.85442,-10.30509 4.23949,-6.95363 4.37862,-10.677 4.38648,-117.39083 0.009,-121.63012 0.29841,-118.92889 -13.65654,-127.43772 -6.71679,-4.09548 -12.03807,-4.23521 -161.59147,-4.24305 -169.468295,-0.009 -166.086717,-0.258 -172.803175,12.7302 -2.956893,5.71799 -3.39833,21.21832 -3.39833,119.32647 v 112.75486 l 5.789153,6.88002 c 3.184037,3.784 7.821325,7.7021 10.305085,8.7069 2.483762,1.00478 73.618477,1.88876 158.077137,1.96439 128.96467,0.11542 154.75866,-0.3628 161.03724,-2.98615 z"
   id="path4499"
   inkscape:connector-curvature="0" /><path
   style="fill:#009cf0;fill-opacity:1;stroke:#e2dbe3;stroke-width:2.16949153"
   d="m 103.84633,364.32994 c -1.66806,-1.66806 -2.0082,-206.82486 -0.34291,-206.82486 0.60689,0 33.9859,24.40678 74.1756,54.23729 45.71705,33.93315 74.93834,54.23729 78.05718,54.23729 3.12105,0 32.77843,-20.62903 79.31593,-55.17045 l 74.33092,-55.17045 0.56507,102.35689 c 0.3108,56.29629 0.0974,103.57723 -0.47428,105.06876 -0.81776,2.13369 -33.35419,2.71186 -152.61027,2.71186 -83.364,0 -152.22176,-0.65085 -153.01724,-1.44633 z"
   id="path4501"
   inkscape:connector-curvature="0" /><path
   style="fill:#009cf0;fill-opacity:1;stroke:#e2dbe3;stroke-width:2.16949153"
   d="m 191.83237,194.88794 -63.51678,-47.14557 64.05915,-0.57465 c 35.23254,-0.31606 92.75042,-0.31606 127.81752,0 l 63.75836,0.57465 -62.99569,46.64407 c -34.64763,25.65424 -63.58297,46.86974 -64.30074,47.14557 -0.71777,0.27582 -29.88759,-20.71401 -64.82182,-46.64407 z"
   id="path4503"
   inkscape:connector-curvature="0" /></svg>