<?xml version="1.0" encoding="utf-8"?>
<!-- Generator: Adobe Illustrator 16.0.3, SVG Export Plug-In . SVG Version: 6.00 Build 0)  -->
<!DOCTYPE svg PUBLIC "-//W3C//DTD SVG 1.1//EN" "http://www.w3.org/Graphics/SVG/1.1/DTD/svg11.dtd">
<svg version="1.1" id="Easter_Saturday_Icon" xmlns="http://www.w3.org/2000/svg" xmlns:xlink="http://www.w3.org/1999/xlink"
	 x="0px" y="0px" width="125px" height="125px" viewBox="0 0 125 125" enable-background="new 0 0 125 125" xml:space="preserve">
<g>
	<path d="M48.747,94.158l-8.185-6.299l-8.538,6.299L29,92.102v15.714c0,2.175,2.461,4.685,4.636,4.685h24.408
		c2.175,0,2.956-2.51,2.956-4.685V91.736l-4.552-3.877L48.747,94.158z"/>
	<path d="M58.044,38.5H47v-4.074c4-0.536,5.827-2.351,6.44-4.56c1.642-5.905-5.834-10.826-7.408-17.125
		c-1.575,6.299-9.481,11.22-7.84,17.125C38.806,32.075,42,33.89,44,34.426V38.5H33.636C31.461,38.5,29,38.716,29,40.89v25.772
		l3.023,2.057l8.363-6.298l8.274,6.298l7.744-6.298L61,66.298V40.89C61,38.716,60.22,38.5,58.044,38.5z M43.155,28.516
		c-0.263-1.296,1.354-3.553,2.917-5.737c0.054-0.075,0.108-0.15,0.162-0.226c0.054,0.076,0.108,0.151,0.162,0.226
		c1.564,2.184,3.18,4.439,2.917,5.737c-0.422,1.597-1.784,2.138-3.08,2.138C44.939,30.654,43.478,30.014,43.155,28.516z"/>
	<path d="M48.747,73.688l-8.185-6.3l-8.538,6.3L29,71.63v15.503l3.023,2.059l8.363-6.3l8.274,6.3l7.744-6.299L61,86.771V71.265
		l-4.552-3.877L48.747,73.688z M35.21,80.258c-1.086,0-1.968-0.882-1.968-1.968c0-1.088,0.881-1.969,1.968-1.969
		c1.087,0,1.969,0.881,1.969,1.969C37.179,79.376,36.297,80.258,35.21,80.258z M45.447,80.258c-1.086,0-1.969-0.882-1.969-1.968
		c0-1.088,0.882-1.969,1.969-1.969s1.969,0.881,1.969,1.969C47.416,79.376,46.533,80.258,45.447,80.258z M57.651,78.29
		c0,1.086-0.882,1.968-1.968,1.968c-1.087,0-1.969-0.882-1.969-1.968c0-1.088,0.881-1.969,1.969-1.969
		C56.769,76.321,57.651,77.202,57.651,78.29z"/>
	<path d="M68,108.393c0,1.855,1.785,4.107,3.642,4.107h20.835c1.856,0,2.523-2.252,2.523-4.107V94.5H68V108.393z"/>
	<path d="M68,90.5h27v-13H68V90.5z M91.114,80.258c1.086,0,1.968,0.882,1.968,1.969c0,1.086-0.882,1.969-1.968,1.969
		c-1.086,0-1.969-0.883-1.969-1.969C89.146,81.14,90.028,80.258,91.114,80.258z M82.454,80.258c1.086,0,1.968,0.882,1.968,1.969
		c0,1.086-0.881,1.969-1.968,1.969c-1.087,0-1.969-0.883-1.969-1.969C80.485,81.14,81.366,80.258,82.454,80.258z M73.792,80.258
		c1.086,0,1.968,0.882,1.968,1.969c0,1.086-0.882,1.969-1.968,1.969c-1.087,0-1.968-0.883-1.968-1.969
		C71.824,81.14,72.705,80.258,73.792,80.258z"/>
	<path d="M92.477,49.5H83v-4.836c2-0.41,4.604-1.897,5.108-3.713c1.33-4.787-4.832-8.776-6.109-13.882
		c-1.276,5.105-7.514,9.095-6.184,13.882C76.261,42.552,78,43.901,80,44.479V49.5h-8.358C69.785,49.5,68,49.48,68,51.336V73.5h27
		V51.336C95,49.48,94.333,49.5,92.477,49.5z M79.564,39.855c-0.214-1.051,1.096-2.879,2.364-4.65
		c0.044-0.061,0.088-0.122,0.132-0.183c0.043,0.062,0.087,0.123,0.131,0.183c1.268,1.771,2.578,3.598,2.364,4.65
		c-0.342,1.294-1.446,1.733-2.496,1.733C81.01,41.588,79.826,41.069,79.564,39.855z"/>
</g>
</svg>
