<?xml version="1.0" encoding="utf-8"?>
<!-- Generator: Adobe Illustrator 16.0.3, SVG Export Plug-In . SVG Version: 6.00 Build 0)  -->
<!DOCTYPE svg PUBLIC "-//W3C//DTD SVG 1.1//EN" "http://www.w3.org/Graphics/SVG/1.1/DTD/svg11.dtd">
<svg version="1.1" id="Good_Friday_Icon" xmlns="http://www.w3.org/2000/svg" xmlns:xlink="http://www.w3.org/1999/xlink" x="0px"
	 y="0px" width="125px" height="125px" viewBox="0 0 125 125" enable-background="new 0 0 125 125" xml:space="preserve">
<g>
	<path d="M62.398,93.5h0.203c2.874,0,5.399-3.275,5.399-6.148V59.5h8.997c2.873,0,5.003-3.369,5.003-6.243v-0.202
		c0-2.874-2.131-4.555-5.003-4.555H68V37.902c0-2.873-2.525-4.402-5.399-4.402h-0.203C59.524,33.5,57,35.029,57,37.902V48.5h-9.755
		C44.373,48.5,43,50.182,43,53.055v0.202c0,2.874,1.373,6.243,4.245,6.243H57v27.852C57,90.225,59.524,93.5,62.398,93.5z"/>
	<path d="M53.662,21.436c1.846,1.502,3.726,1.696,5.277,1.432c-1.257,0.946-2.407,2.447-2.581,4.82
		c2.367-0.256,3.827-1.458,4.728-2.747c-0.21,1.559,0.049,3.431,1.614,5.224c1.481-1.864,1.653-3.746,1.37-5.293
		c0.961,1.246,2.475,2.378,4.851,2.524c-0.285-2.363-1.502-3.809-2.801-4.695c1.561,0.192,3.429-0.089,5.203-1.676
		c-1.88-1.458-3.763-1.609-5.307-1.308c1.234-0.975,2.347-2.503,2.466-4.879c-2.178,0.288-3.561,1.363-4.447,2.558
		c0.157-1.479-0.132-3.208-1.539-4.896c-1.524,1.828-1.74,3.706-1.493,5.26c-0.931-1.268-2.418-2.434-4.789-2.636
		c0.229,2.369,1.413,3.842,2.691,4.759C57.349,19.654,55.474,19.892,53.662,21.436z M62.496,19.364c1.086,0,1.969,0.882,1.969,1.97
		c0,1.087-0.882,1.969-1.969,1.969c-1.087,0-1.969-0.881-1.969-1.969C60.527,20.246,61.409,19.364,62.496,19.364z"/>
	<path d="M38.079,27.39c-1.462,0.581-2.968,1.723-3.764,3.967c2.35,0.378,4.075-0.394,5.286-1.398
		c-0.615,1.447-0.86,3.322,0.176,5.465c1.921-1.405,2.585-3.176,2.721-4.743c0.597,1.455,1.757,2.947,4.009,3.717
		c0.352-2.354-0.441-4.071-1.459-5.27c1.455,0.599,3.332,0.822,5.462-0.239c-1.428-1.904-3.206-2.548-4.773-2.666
		c1.448-0.614,2.925-1.792,3.668-4.053c-2.358-0.323-4.065,0.489-5.251,1.522c0.581-1.461,0.781-3.341-0.304-5.459
		c-1.743,1.338-2.403,2.961-2.574,4.438c-0.603-1.359-1.717-2.711-3.779-3.47c-0.405,2.346,0.347,4.081,1.337,5.302
		c-1.441-0.632-3.312-0.899-5.466,0.111C34.75,26.551,36.513,27.236,38.079,27.39z M40.928,25.146
		c0.941-0.544,2.146-0.221,2.69,0.72c0.543,0.941,0.22,2.146-0.721,2.69c-0.941,0.543-2.146,0.221-2.689-0.72
		C39.665,26.894,39.987,25.688,40.928,25.146z"/>
	<path d="M23.796,44.305c-0.977,1.233-1.709,2.976-1.277,5.316c2.225-0.848,3.333-2.378,3.878-3.854
		c0.191,1.561,0.916,3.307,2.884,4.646c0.96-2.178,0.651-4.043-0.014-5.469c1.244,0.962,2.996,1.674,5.331,1.215
		c-0.874-2.215-2.418-3.306-3.899-3.834c1.559-0.209,3.295-0.955,4.611-2.939c-2.188-0.935-4.049-0.603-5.466,0.079
		c0.946-1.255,1.637-3.015,1.15-5.344c-2.204,0.898-3.276,2.455-3.787,3.942c-0.228-1.556-0.994-3.283-2.993-4.575
		c-0.84,2.031-0.6,3.766-0.009,5.13c-1.202-0.875-2.843-1.49-5.008-1.115c0.821,2.234,2.34,3.36,3.809,3.922
		c-1.563,0.173-3.318,0.877-4.678,2.83C20.494,45.242,22.363,44.954,23.796,44.305z M25.141,40.937
		c0.544-0.942,1.749-1.265,2.69-0.722c0.941,0.544,1.264,1.748,0.721,2.691c-0.543,0.94-1.748,1.264-2.689,0.72
		C24.92,43.082,24.598,41.878,25.141,40.937z"/>
	<path d="M15.124,68.785c2.369-0.229,3.842-1.412,4.759-2.69c-0.229,1.557,0.008,3.433,1.552,5.242
		c1.503-1.846,1.697-3.726,1.434-5.275c0.945,1.257,2.446,2.405,4.818,2.58c-0.256-2.366-1.457-3.826-2.746-4.729
		c1.559,0.211,3.432-0.048,5.225-1.613c-1.864-1.482-3.747-1.654-5.294-1.371c1.246-0.961,2.377-2.476,2.524-4.851
		c-2.362,0.285-3.808,1.501-4.694,2.801c0.191-1.561-0.09-3.43-1.676-5.203c-1.459,1.881-1.61,3.764-1.309,5.308
		c-0.975-1.233-2.502-2.346-4.879-2.466c0.288,2.178,1.364,3.562,2.558,4.448c-1.479-0.158-3.208,0.13-4.896,1.538
		c1.829,1.523,3.707,1.74,5.262,1.492C16.493,64.928,15.326,66.415,15.124,68.785z M19.364,62.505c0-1.088,0.884-1.97,1.97-1.97
		c1.087,0,1.969,0.882,1.969,1.969c0,1.086-0.881,1.969-1.969,1.97C20.246,64.473,19.364,63.592,19.364,62.505z"/>
	<path d="M35.422,85.225c-1.405-1.921-3.175-2.585-4.742-2.722c1.456-0.597,2.948-1.758,3.718-4.01
		c-2.355-0.351-4.072,0.441-5.271,1.46c0.599-1.455,0.822-3.332-0.24-5.464c-1.903,1.429-2.547,3.205-2.665,4.772
		c-0.614-1.446-1.793-2.924-4.053-3.667c-0.323,2.358,0.488,4.065,1.521,5.251c-1.461-0.58-3.34-0.78-5.458,0.305
		c1.339,1.742,2.961,2.402,4.439,2.573c-1.359,0.603-2.712,1.717-3.471,3.779c2.346,0.405,4.08-0.348,5.303-1.338
		c-0.633,1.441-0.9,3.313,0.11,5.467c1.938-1.383,2.622-3.145,2.776-4.71c0.58,1.462,1.724,2.968,3.966,3.764
		c0.379-2.349-0.393-4.074-1.396-5.286C31.406,86.017,33.28,86.261,35.422,85.225z M27.836,84.792
		c-0.943,0.542-2.146,0.22-2.691-0.719c-0.543-0.943-0.219-2.147,0.72-2.691c0.942-0.544,2.147-0.221,2.69,0.72
		C29.099,83.043,28.777,84.247,27.836,84.792z"/>
	<path d="M44.944,95.732c0.962-1.244,1.675-2.996,1.215-5.331c-2.215,0.873-3.307,2.418-3.835,3.899
		c-0.209-1.559-0.954-3.296-2.938-4.611c-0.935,2.189-0.604,4.049,0.078,5.466c-1.256-0.945-3.015-1.637-5.344-1.148
		c0.898,2.203,2.455,3.274,3.942,3.786c-1.555,0.229-3.283,0.993-4.574,2.992c2.03,0.84,3.766,0.6,5.13,0.009
		c-0.875,1.202-1.49,2.843-1.115,5.009c2.234-0.821,3.36-2.341,3.923-3.81c0.172,1.563,0.877,3.317,2.829,4.679
		c0.986-2.166,0.698-4.034,0.049-5.468c1.233,0.977,2.976,1.709,5.316,1.278c-0.847-2.225-2.377-3.333-3.853-3.879
		c1.561-0.191,3.307-0.916,4.645-2.884C48.235,94.759,46.37,95.067,44.944,95.732z M43.626,99.137
		c-0.545,0.943-1.748,1.264-2.69,0.724c-0.941-0.545-1.262-1.751-0.721-2.691c0.544-0.941,1.75-1.266,2.69-0.721
		C43.845,96.991,44.168,98.196,43.626,99.137z"/>
	<path d="M71.338,103.564c-1.846-1.502-3.726-1.697-5.277-1.433c1.258-0.946,2.407-2.446,2.582-4.819
		c-2.367,0.257-3.828,1.457-4.729,2.746c0.21-1.56-0.049-3.433-1.614-5.226c-1.482,1.865-1.654,3.748-1.371,5.295
		c-0.961-1.246-2.475-2.377-4.851-2.523c0.285,2.362,1.502,3.808,2.8,4.693c-1.561-0.191-3.429,0.091-5.203,1.678
		c1.88,1.458,3.764,1.609,5.308,1.308c-1.233,0.976-2.345,2.502-2.466,4.878c2.179-0.287,3.562-1.363,4.448-2.558
		c-0.157,1.479,0.131,3.208,1.539,4.896c1.524-1.829,1.74-3.707,1.493-5.262c0.931,1.269,2.418,2.436,4.789,2.638
		c-0.229-2.369-1.412-3.843-2.691-4.759C67.651,105.346,69.526,105.108,71.338,103.564z M62.504,105.637
		c-1.087-0.001-1.968-0.885-1.97-1.971c0.001-1.087,0.883-1.971,1.97-1.969c1.085,0,1.968,0.881,1.969,1.967
		C64.472,104.754,63.591,105.635,62.504,105.637z"/>
	<path d="M86.921,97.609c1.463-0.58,2.968-1.723,3.764-3.966c-2.349-0.378-4.075,0.393-5.285,1.398
		c0.616-1.448,0.861-3.322-0.173-5.465c-1.922,1.406-2.587,3.177-2.724,4.743c-0.597-1.456-1.757-2.948-4.01-3.719
		c-0.351,2.355,0.441,4.072,1.459,5.271c-1.455-0.6-3.332-0.822-5.462,0.238c1.427,1.905,3.204,2.547,4.772,2.666
		c-1.447,0.614-2.925,1.792-3.667,4.055c2.357,0.322,4.064-0.49,5.25-1.522c-0.58,1.462-0.78,3.341,0.304,5.458
		c1.744-1.338,2.403-2.963,2.574-4.439c0.603,1.359,1.717,2.713,3.781,3.471c0.405-2.346-0.348-4.08-1.338-5.302
		c1.44,0.633,3.312,0.898,5.465-0.111C90.249,98.448,88.486,97.764,86.921,97.609z M84.073,99.856
		c-0.943,0.541-2.147,0.217-2.692-0.724c-0.542-0.939-0.221-2.147,0.722-2.689c0.94-0.542,2.144-0.221,2.689,0.72
		C85.334,98.106,85.012,99.31,84.073,99.856z"/>
	<path d="M101.204,80.695c0.977-1.233,1.708-2.977,1.277-5.316c-2.224,0.847-3.333,2.378-3.878,3.853
		c-0.19-1.561-0.915-3.308-2.882-4.646c-0.962,2.18-0.653,4.045,0.012,5.47c-1.245-0.963-2.997-1.676-5.332-1.215
		c0.873,2.215,2.417,3.306,3.899,3.834c-1.559,0.209-3.296,0.955-4.611,2.939c2.189,0.935,4.05,0.604,5.466-0.079
		c-0.946,1.256-1.636,3.016-1.149,5.346c2.204-0.899,3.276-2.456,3.787-3.944c0.228,1.557,0.994,3.283,2.992,4.575
		c0.84-2.031,0.599-3.768,0.007-5.132c1.203,0.876,2.845,1.491,5.01,1.115c-0.821-2.233-2.339-3.359-3.809-3.922
		c1.564-0.173,3.318-0.877,4.677-2.829C104.505,79.758,102.637,80.046,101.204,80.695z M99.861,84.064
		c-0.546,0.941-1.751,1.262-2.693,0.721c-0.94-0.544-1.266-1.75-0.72-2.69c0.542-0.939,1.747-1.263,2.688-0.723
		C100.079,81.919,100.401,83.123,99.861,84.064z"/>
	<path d="M107.602,64.034c1.48,0.157,3.209-0.131,4.898-1.539c-1.828-1.524-3.707-1.74-5.26-1.493
		c1.267-0.932,2.434-2.418,2.635-4.789c-2.369,0.229-3.843,1.413-4.759,2.692c0.229-1.557-0.008-3.432-1.551-5.243
		c-1.502,1.845-1.697,3.725-1.433,5.276c-0.946-1.257-2.446-2.407-4.819-2.583c0.256,2.368,1.457,3.829,2.746,4.731
		c-1.56-0.211-3.433,0.047-5.226,1.613c1.864,1.481,3.747,1.654,5.294,1.371c-1.245,0.961-2.377,2.476-2.523,4.852
		c2.362-0.284,3.808-1.501,4.694-2.801c-0.191,1.562,0.09,3.43,1.677,5.203c1.459-1.88,1.609-3.765,1.308-5.309
		c0.975,1.233,2.502,2.347,4.879,2.467C109.874,66.304,108.796,64.92,107.602,64.034z M103.666,64.466
		c-1.086-0.002-1.97-0.883-1.968-1.97c0-1.085,0.881-1.967,1.967-1.968c1.088,0.001,1.97,0.882,1.974,1.968
		C105.636,63.583,104.751,64.463,103.666,64.466z"/>
	<path d="M89.577,39.773c1.406,1.922,3.176,2.587,4.744,2.724c-1.456,0.597-2.949,1.757-3.719,4.011
		c2.355,0.351,4.072-0.441,5.27-1.46c-0.598,1.455-0.821,3.332,0.24,5.463c1.903-1.427,2.547-3.204,2.664-4.772
		c0.615,1.449,1.793,2.925,4.055,3.668c0.323-2.358-0.489-4.065-1.522-5.252c1.46,0.581,3.34,0.781,5.459-0.304
		c-1.34-1.743-2.963-2.402-4.441-2.573c1.36-0.604,2.713-1.718,3.472-3.782c-2.346-0.405-4.08,0.346-5.302,1.337
		c0.632-1.44,0.898-3.311-0.112-5.464c-1.937,1.383-2.622,3.145-2.776,4.71c-0.58-1.463-1.722-2.968-3.964-3.765
		c-0.379,2.35,0.393,4.075,1.397,5.286C93.595,38.984,91.72,38.738,89.577,39.773z M97.162,40.209
		c0.944-0.544,2.147-0.221,2.695,0.717c0.541,0.944,0.216,2.147-0.724,2.693c-0.941,0.542-2.147,0.221-2.689-0.722
		C95.901,41.958,96.224,40.752,97.162,40.209z"/>
	<path d="M80.056,29.268c-0.962,1.244-1.675,2.996-1.215,5.332c2.215-0.874,3.306-2.418,3.834-3.9
		c0.209,1.559,0.955,3.296,2.939,4.61c0.935-2.187,0.603-4.047-0.078-5.464c1.255,0.947,3.015,1.637,5.344,1.15
		c-0.899-2.205-2.456-3.276-3.943-3.788c1.555-0.229,3.283-0.995,4.575-2.993c-2.031-0.84-3.768-0.599-5.132-0.008
		c0.876-1.202,1.491-2.844,1.115-5.01c-2.233,0.822-3.359,2.34-3.922,3.809c-0.173-1.564-0.877-3.318-2.829-4.676
		c-0.986,2.166-0.698,4.034-0.049,5.468c-1.233-0.978-2.976-1.709-5.315-1.279c0.847,2.225,2.377,3.333,3.853,3.88
		c-1.563,0.189-3.309,0.914-4.647,2.881C76.765,30.241,78.63,29.932,80.056,29.268z M81.373,25.864
		c0.545-0.943,1.749-1.264,2.692-0.726c0.94,0.547,1.26,1.752,0.72,2.693c-0.543,0.941-1.749,1.266-2.69,0.72
		C81.154,28.009,80.832,26.805,81.373,25.864z"/>
</g>
</svg>
