<?xml version="1.0" encoding="utf-8"?>
<!-- Generator: Adobe Illustrator 16.0.3, SVG Export Plug-In . SVG Version: 6.00 Build 0)  -->
<!DOCTYPE svg PUBLIC "-//W3C//DTD SVG 1.1//EN" "http://www.w3.org/Graphics/SVG/1.1/DTD/svg11.dtd">
<svg version="1.1" id="Independence_Day_Icon" xmlns="http://www.w3.org/2000/svg" xmlns:xlink="http://www.w3.org/1999/xlink"
	 x="0px" y="0px" width="125px" height="125px" viewBox="0 0 125 125" enable-background="new 0 0 125 125" xml:space="preserve">
<g>
	<path fill-rule="evenodd" clip-rule="evenodd" d="M112.49,65.939c-1.005-0.407-1.941-0.803-2.889-1.166
		c-2.707-1.036-5.484-1.831-8.343-2.306c-1.509-0.252-3.029-0.446-4.549-0.617c-0.997-0.111-2.003-0.159-3.007-0.189
		c-1.369-0.042-2.741-0.086-4.108-0.045c-1.531,0.046-3.062,0.165-4.589,0.289c-4.67,0.382-9.274,1.195-13.85,2.176
		c-3.725,0.799-7.436,1.661-11.157,2.479c-2.659,0.585-5.319,1.168-7.989,1.703c-2.14,0.43-4.29,0.814-6.443,1.167
		c-1.357,0.223-2.727,0.384-4.096,0.514c-1.7,0.161-3.406,0.265-5.11,0.388c-0.729,0.053-0.729,0.046-0.729-0.689
		c0-4.321,0-8.644,0-12.965c0-0.442,0.007-0.427,0.457-0.452c1.282-0.07,2.565-0.139,3.845-0.246
		c1.227-0.102,2.453-0.221,3.673-0.385c1.548-0.208,3.091-0.456,4.632-0.709c1.072-0.176,2.136-0.399,3.207-0.583
		c0.255-0.043,0.339-0.139,0.337-0.401c-0.01-2.099,0-4.197-0.013-6.295c-0.002-0.27,0.098-0.357,0.336-0.41
		c4.692-1.031,9.377-2.09,14.074-3.096c3.521-0.753,7.051-1.47,10.589-2.142c1.878-0.357,3.778-0.607,5.674-0.862
		c1.148-0.154,2.306-0.244,3.461-0.325c1.282-0.09,2.566-0.149,3.85-0.198c0.943-0.037,1.89-0.081,2.832-0.042
		c1.52,0.063,3.041,0.163,4.556,0.299c4.013,0.361,7.916,1.239,11.701,2.616c1.14,0.414,2.251,0.905,3.376,1.358
		c0.165,0.067,0.277,0.143,0.276,0.355c-0.007,2.182-0.004,4.363-0.005,6.544c0,0.03-0.012,0.06-0.028,0.134
		c-0.33-0.14-0.649-0.275-0.968-0.412c-3.367-1.442-6.848-2.509-10.463-3.103c-1.621-0.266-3.258-0.442-4.892-0.628
		c-2.388-0.271-4.788-0.222-7.183-0.165c-1.5,0.036-3.003,0.134-4.494,0.307c-2.383,0.276-4.764,0.592-7.132,0.973
		c-5.584,0.898-11.081,2.229-16.593,3.477c-2.897,0.656-5.807,1.261-8.711,1.883c-0.197,0.042-0.313,0.088-0.312,0.327
		c0.008,2.212,0.004,4.425,0.005,6.638c0,0.061,0.01,0.12,0.021,0.234c0.424-0.079,0.829-0.143,1.228-0.23
		c3.225-0.708,6.448-1.429,9.675-2.131c3.995-0.869,7.986-1.76,11.993-2.571c2.148-0.435,4.323-0.75,6.493-1.065
		c1.412-0.204,2.839-0.308,4.259-0.458c2.823-0.3,5.656-0.293,8.488-0.23c1.24,0.028,2.478,0.172,3.714,0.295
		c3.59,0.359,7.096,1.123,10.501,2.311c1.379,0.481,2.722,1.066,4.084,1.596c0.236,0.092,0.326,0.22,0.325,0.484
		c-0.012,2.078-0.007,4.155-0.007,6.233C112.49,65.702,112.49,65.803,112.49,65.939z"/>
	<path fill-rule="evenodd" clip-rule="evenodd" d="M112.49,94.163c-0.701-0.294-1.346-0.575-1.998-0.837
		c-3.048-1.224-6.183-2.156-9.426-2.684c-1.592-0.259-3.195-0.465-4.8-0.614c-1.35-0.126-2.71-0.155-4.066-0.193
		c-1.035-0.028-2.073-0.035-3.107,0.005c-1.221,0.047-2.44,0.137-3.658,0.239c-1.269,0.107-2.539,0.215-3.798,0.389
		c-1.824,0.251-3.646,0.524-5.457,0.857c-2.544,0.468-5.084,0.964-7.613,1.511c-3.632,0.785-7.247,1.656-10.88,2.438
		c-3.157,0.678-6.325,1.309-9.498,1.907c-1.727,0.326-3.472,0.561-5.214,0.799c-1.076,0.147-2.159,0.254-3.243,0.324
		c-1.737,0.112-3.477,0.228-5.216,0.252c-1.666,0.022-3.337-0.011-4.999-0.128c-1.691-0.118-3.381-0.31-5.056-0.573
		c-2.995-0.471-5.916-1.255-8.753-2.329c-0.999-0.378-1.978-0.809-2.967-1.211c-0.164-0.067-0.24-0.16-0.24-0.349
		c0.005-2.16,0.003-4.321,0.004-6.482c0-0.049,0.011-0.099,0.022-0.191c0.258,0.109,0.494,0.206,0.727,0.308
		c3.511,1.538,7.161,2.619,10.935,3.264c1.335,0.228,2.686,0.365,4.032,0.519c2.469,0.281,4.949,0.301,7.428,0.229
		c1.469-0.042,2.938-0.152,4.4-0.294c1.813-0.176,3.628-0.354,5.425-0.641c2.595-0.412,5.188-0.856,7.757-1.402
		c4.971-1.058,9.92-2.218,14.888-3.292c2.913-0.63,5.836-1.214,8.768-1.746c1.912-0.348,3.844-0.588,5.773-0.831
		c1.334-0.167,2.677-0.269,4.019-0.377c0.805-0.065,1.613-0.103,2.421-0.126c1.109-0.032,2.221-0.08,3.33-0.049
		c1.387,0.04,2.773,0.128,4.156,0.237c3.565,0.281,7.061,0.952,10.458,2.069c1.73,0.568,3.414,1.284,5.121,1.927
		c0.252,0.095,0.333,0.242,0.332,0.513c-0.011,2.077-0.006,4.155-0.006,6.232C112.49,93.924,112.49,94.017,112.49,94.163z"/>
	<path fill-rule="evenodd" clip-rule="evenodd" d="M112.464,80.04c-0.862-0.354-1.671-0.703-2.492-1.022
		c-2.963-1.153-6.007-2.031-9.149-2.521c-1.695-0.265-3.405-0.443-5.112-0.621c-0.854-0.09-1.717-0.103-2.576-0.13
		c-0.923-0.029-1.847-0.073-2.769-0.045c-1.459,0.046-2.919,0.126-4.375,0.232c-1.331,0.097-2.663,0.208-3.985,0.384
		c-1.855,0.247-3.71,0.521-5.552,0.854c-2.454,0.443-4.903,0.924-7.341,1.447c-3.279,0.705-6.542,1.488-9.82,2.198
		c-3.256,0.705-6.519,1.386-9.788,2.029c-1.735,0.342-3.487,0.602-5.237,0.86c-1.125,0.167-2.258,0.29-3.391,0.388
		c-1.516,0.132-3.035,0.259-4.555,0.316c-1.648,0.063-3.303,0.107-4.95,0.042c-1.725-0.068-3.453-0.216-5.166-0.436
		c-4.297-0.549-8.448-1.669-12.441-3.358c-0.354-0.149-0.709-0.296-1.05-0.471c-0.096-0.049-0.201-0.194-0.202-0.296
		c-0.011-2.181-0.008-4.362-0.007-6.544c0-0.039,0.016-0.077,0.033-0.154c0.223,0.095,0.43,0.179,0.634,0.269
		c3.461,1.52,7.055,2.608,10.776,3.253c1.477,0.256,2.97,0.421,4.462,0.574c1.081,0.111,2.169,0.153,3.256,0.19
		c1.161,0.04,2.325,0.084,3.485,0.044c1.572-0.054,3.147-0.134,4.712-0.297c2.366-0.248,4.737-0.494,7.081-0.891
		c3.243-0.55,6.473-1.191,9.69-1.881c4.777-1.024,9.531-2.16,14.309-3.18c2.63-0.562,5.286-1.01,7.938-1.456
		c1.57-0.264,3.154-0.448,4.737-0.625c1.254-0.14,2.515-0.26,3.775-0.309c2.011-0.078,4.024-0.134,6.036-0.111
		c1.322,0.016,2.644,0.169,3.963,0.29c2.562,0.234,5.082,0.714,7.567,1.373c2.491,0.659,4.91,1.521,7.26,2.577
		c0.182,0.082,0.272,0.175,0.271,0.391c-0.008,2.119-0.005,4.238-0.006,6.357C112.489,79.842,112.475,79.921,112.464,80.04z"/>
	<path fill-rule="evenodd" clip-rule="evenodd" d="M112.49,37.703c-1.091-0.438-2.113-0.871-3.151-1.26
		c-2.861-1.072-5.797-1.875-8.818-2.333c-1.564-0.237-3.137-0.449-4.714-0.551c-1.985-0.128-3.98-0.2-5.969-0.171
		c-1.799,0.026-3.603,0.156-5.392,0.354c-2.509,0.276-5.019,0.582-7.505,1.011c-3.06,0.529-6.103,1.16-9.138,1.815
		c-4.788,1.034-9.563,2.127-14.343,3.191c-0.475,0.105-0.954,0.193-1.434,0.279c-0.228,0.041-0.317,0.14-0.316,0.39
		c0.011,2.119,0.002,4.239,0.012,6.358c0.001,0.269-0.071,0.379-0.351,0.425c-2.266,0.377-4.525,0.803-6.796,1.149
		c-1.513,0.23-3.041,0.376-4.565,0.516c-1.299,0.119-2.604,0.176-3.906,0.257c-0.143,0.009-0.288,0.001-0.458,0.001
		c-0.005-0.111-0.014-0.212-0.014-0.313c-0.001-4.426,0.001-8.851-0.006-13.276c0-0.29,0.068-0.382,0.377-0.397
		c1.251-0.058,2.504-0.127,3.751-0.242c1.556-0.142,3.114-0.287,4.659-0.513c2.15-0.315,4.305-0.631,6.43-1.082
		c5.916-1.255,11.812-2.606,17.726-3.866c3.209-0.684,6.435-1.295,9.665-1.871c1.761-0.313,3.545-0.504,5.324-0.708
		c1.244-0.143,2.494-0.263,3.745-0.309c2.104-0.077,4.212-0.151,6.316-0.108c2.09,0.043,4.171,0.268,6.242,0.586
		c4.226,0.65,8.29,1.837,12.201,3.559c0.321,0.141,0.443,0.3,0.44,0.664c-0.021,2.025-0.01,4.051-0.01,6.077
		C112.49,37.447,112.49,37.558,112.49,37.703z"/>
	<path fill-rule="evenodd" clip-rule="evenodd" d="M12.527,51.968c1.174,0.465,2.302,0.939,3.449,1.362
		c2.513,0.925,5.085,1.644,7.728,2.081c1.53,0.252,3.072,0.425,4.61,0.629c0.182,0.024,0.294,0.088,0.278,0.292
		c-0.005,0.062-0.001,0.125-0.001,0.187c0,4.414,0,8.829,0,13.243c0,0.431-0.001,0.441-0.44,0.379
		c-1.75-0.247-3.511-0.438-5.247-0.768c-3.516-0.666-6.898-1.78-10.165-3.246c-0.179-0.081-0.238-0.189-0.238-0.382
		c0.004-4.519,0.003-9.037,0.004-13.555C12.506,52.12,12.519,52.05,12.527,51.968z"/>
	<path fill-rule="evenodd" clip-rule="evenodd" d="M28.59,49c-1.09-0.131-2.13-0.23-3.163-0.385
		c-2.173-0.326-4.317-0.788-6.429-1.403c-2.124-0.619-4.193-1.384-6.216-2.28c-0.212-0.095-0.284-0.216-0.283-0.447
		c0.006-4.435,0.005-8.869,0.005-13.303c0-0.092,0.009-0.183,0.016-0.313c0.098,0.028,0.175,0.04,0.244,0.071
		c3.369,1.519,6.869,2.632,10.5,3.309c1.503,0.28,3.028,0.444,4.544,0.662c0.102,0.015,0.204,0.038,0.307,0.049
		c0.474,0.053,0.474,0.052,0.474,0.544c0,4.351,0,8.703,0,13.054C28.59,48.682,28.59,48.804,28.59,49z"/>
</g>
</svg>
