<?xml version="1.0" encoding="utf-8"?>
<!-- Generator: Adobe Illustrator 16.0.3, SVG Export Plug-In . SVG Version: 6.00 Build 0)  -->
<!DOCTYPE svg PUBLIC "-//W3C//DTD SVG 1.1//EN" "http://www.w3.org/Graphics/SVG/1.1/DTD/svg11.dtd">
<svg version="1.1" id="Labor_Day_Icon" xmlns="http://www.w3.org/2000/svg" xmlns:xlink="http://www.w3.org/1999/xlink" x="0px"
	 y="0px" width="125px" height="125px" viewBox="0 0 125 125" enable-background="new 0 0 125 125" xml:space="preserve">
<path fill-rule="evenodd" clip-rule="evenodd" d="M81.241,110.764c-8.49,0-16.98,0-25.47,0c-1.124-0.453-1.439-0.911-1.439-2.135
	c-0.002-8.32-0.005-16.641,0.009-24.961c0.001-0.523-0.144-0.883-0.527-1.257c-1.743-1.695-3.528-3.358-5.144-5.172
	c-2.797-3.139-4.583-6.724-4.22-11.086c0.052-0.626-0.202-0.853-0.751-1.062c-4.633-1.765-6.209-7.662-3.098-11.514
	c0.288-0.356,0.595-0.697,0.942-1.103c-2.339,0-4.556,0.01-6.772-0.007c-0.475-0.004-0.677,0.191-0.782,0.636
	c-0.36,1.525-1.072,2.96-2.374,3.766c-1.389,0.86-1.643,1.949-1.471,3.357c0.006,0.048-0.017,0.105,0.004,0.144
	c0.146,0.266,0.244,0.59,0.46,0.777c0.505,0.439,1.116,0.761,1.597,1.221c1.759,1.68,2.189,3.843,2.111,6.159
	c-0.122,3.6-2.657,6.53-6.24,6.803c-3.045,0.231-6.121,0.144-9.18,0.064c-1.61-0.041-3.009-0.801-4.165-1.943
	c-1.804-1.784-2.285-4.001-2.104-6.439c0.19-2.55,1.402-4.457,3.582-5.763c0.627-0.376,0.766-2.994,0.166-3.416
	c-0.177-0.125-0.38-0.221-0.537-0.366c-0.562-0.521-1.15-1.023-1.654-1.598c-1.037-1.18-1.416-2.648-1.684-4.151
	c0-3.812,0-7.622,0-11.434c0.048-0.157,0.11-0.312,0.143-0.473c0.527-2.583,1.981-4.443,4.342-5.604
	c0.195-0.096,0.372-0.227,0.557-0.342c0.011-0.063,0.021-0.126,0.033-0.188c-0.958-0.089-1.507-0.577-1.621-1.482
	c-0.327-2.601-0.329-5.192,0.25-7.763c1.08-4.791,3.752-8.171,8.604-9.545c1.126-0.318,2.309-0.439,3.466-0.651
	c3.039,0,6.078,0,9.117,0c0.078,0.051,0.156,0.103,0.234,0.153c0.614,0.396,0.851,0.966,0.747,1.676
	c-0.103,0.705-0.547,1.067-1.22,1.252c-3.354,0.92-5.442,3.134-6.438,6.417c-0.811,2.674-0.884,5.403-0.512,8.153
	c0.088,0.646-0.099,1.118-0.641,1.474c-0.145,0.095-0.247,0.253-0.369,0.383c0.152,0.129,0.284,0.302,0.458,0.382
	c1.906,0.876,3.253,2.294,4.037,4.225c0.182,0.446,0.408,0.552,0.848,0.548c3.085-0.025,6.171-0.027,9.257-0.04
	c0.187-0.001,0.374-0.026,0.648-0.048c0-0.866-0.017-1.704,0.003-2.542c0.067-2.839,1.324-5.024,3.811-6.366
	c2.559-1.381,5.157-1.256,7.596,0.36c0.786,0.521,1.435,1.249,2.18,1.913c1.657-1.4,3.633-1.986,5.848-1.701
	c2.227,0.286,3.919,1.478,5.233,3.274c1.816-1.449,3.853-1.688,6.004-1.48c2.238,0.216,3.909,1.35,5.179,3.202
	c1.556-1.271,3.316-1.661,5.244-1.574c2.914,0.131,4.974,1.532,6.171,4.14c0.321,0.698,0.679,0.868,1.38,0.864
	c4.99-0.024,9.98-0.006,14.971-0.013c1.321-0.002,2.532,0.357,3.341,1.406c0.508,0.659,0.741,1.531,1.097,2.307
	c0,2.123,0,4.245,0,6.368c-1.151,2.932-1.95,3.474-5.125,3.473c-4.677-0.002-9.355,0.01-14.032-0.023
	c-0.681-0.005-0.837,0.198-0.833,0.851c0.027,4.532-0.046,9.066,0.036,13.598c0.054,2.989-0.833,5.629-2.444,8.085
	c-1.869,2.849-4.299,5.18-6.843,7.4c-0.47,0.41-0.622,0.831-0.62,1.433c0.016,8.246,0,16.491,0.019,24.736
	C82.662,109.615,82.301,110.387,81.241,110.764z M78.995,107.087c0-0.656,0-1.207,0-1.759c0-7.499,0-14.997-0.005-22.496
	c0-0.88,0.047-1.683,0.788-2.363c1.895-1.743,3.789-3.495,5.56-5.361c1.533-1.615,2.745-3.48,3.311-5.686
	c0.107-0.418,0.204-0.854,0.208-1.281c0.021-2.157,0.009-4.314,0.009-6.567c-1.811,1.007-3.695,1.121-5.601,0.791
	c-1.968-0.34-3.447-1.499-4.553-3.106c-4.729,2.502-8.207,1.864-11.21-2.066c-0.05,0.281-0.1,0.5-0.127,0.722
	c-0.116,0.925-0.241,1.848-0.326,2.775c-0.019,0.204,0.061,0.467,0.188,0.629c3.676,4.661,3.659,9.738,1.691,15.026
	c-0.292,0.785-1.037,1.182-1.841,1.119c-1.347-0.104-2.008-1.338-1.458-2.747c0.759-1.94,1.083-3.944,0.874-6.021
	c-0.173-1.711-0.748-3.268-1.859-4.68c-1.812,1.463-3.926,1.604-6.105,1.576c-3.182-0.039-6.365-0.011-9.548-0.012
	c-0.28,0-0.561,0-0.851,0c-0.174,2.094-0.112,4.072,0.976,5.825c0.859,1.384,1.751,2.779,2.841,3.978
	c1.585,1.742,3.332,3.342,5.068,4.938c0.705,0.648,0.976,1.356,0.973,2.286c-0.017,7.837-0.009,15.673-0.009,23.51
	c0,0.305,0,0.609,0,0.971C65.021,107.087,71.953,107.087,78.995,107.087z M31.319,46.16c-0.012,0-0.024,0-0.036,0
	c0-1.662,0.026-3.325-0.006-4.986c-0.05-2.562-2.052-4.658-4.613-4.734c-2.19-0.065-4.386-0.044-6.575,0.042
	c-2.605,0.102-4.584,2.111-4.616,4.722c-0.042,3.396-0.02,6.794,0.061,10.189c0.059,2.468,2.198,4.495,4.664,4.524
	c2.095,0.024,4.192,0.026,6.288-0.008c2.733-0.046,4.82-2.185,4.832-4.907C31.325,49.388,31.319,47.773,31.319,46.16z
	 M77.624,46.513c0-2.339,0.006-4.679-0.002-7.018c-0.007-2.336-1.371-3.63-3.802-3.624c-2.234,0.005-3.581,1.362-3.582,3.616
	c-0.001,4.63,0,9.26-0.001,13.89c0,0.289-0.032,0.581-0.003,0.867c0.036,0.346,0.009,0.784,0.207,1.008
	c0.466,0.527,0.979,1.102,1.597,1.391c2.427,1.135,5.67,0.081,5.596-3.333C77.583,51.045,77.624,48.778,77.624,46.513z
	 M81.382,48.105c0,2.338,0.055,4.678-0.018,7.015c-0.058,1.856,1.343,3.689,3.702,3.605c2.295-0.081,3.696-1.355,3.699-3.602
	c0.007-4.677,0.008-9.353,0-14.029c-0.004-2.229-1.414-3.563-3.729-3.563c-2.259,0.001-3.647,1.348-3.653,3.559
	C81.377,43.43,81.382,45.768,81.382,48.105z M53.186,54.544c0-0.001,0-0.002,0-0.003c-2.24,0-4.48,0.004-6.72-0.002
	c-0.922-0.002-1.77,0.222-2.475,0.833c-1.236,1.071-1.643,2.633-1.101,4.117c0.543,1.489,1.741,2.35,3.425,2.364
	c4.551,0.042,9.102,0.057,13.652,0.076c1.629,0.007,2.818-0.737,3.48-2.215c1.104-2.463-0.636-5.111-3.398-5.162
	C57.763,54.511,55.474,54.544,53.186,54.544z M23.452,72.514c0-0.017,0-0.033,0-0.051c1.301,0,2.611,0.086,3.902-0.032
	c0.757-0.07,1.566-0.336,2.208-0.74c1.498-0.943,1.87-2.445,1.813-4.144c-0.084-2.506-1.808-4.264-4.311-4.271
	c-2.411-0.006-4.822-0.008-7.232,0.025c-0.519,0.007-1.066,0.094-1.549,0.278c-2.013,0.771-2.959,2.577-2.707,5.047
	c0.235,2.299,1.96,3.876,4.259,3.886C21.041,72.519,22.246,72.514,23.452,72.514z M92.407,49.427
	c0.157,0.026,0.25,0.056,0.343,0.056c5.16,0.008,10.321,0.021,15.481,0.013c0.844-0.002,1.265-0.458,1.273-1.329
	c0.014-1.567-0.001-3.135-0.012-4.702c-0.008-1.188-0.418-1.589-1.625-1.591c-4.896-0.005-9.791-0.008-14.687-0.009
	c-0.252,0-0.505,0.028-0.774,0.044C92.407,44.456,92.407,46.912,92.407,49.427z M55.429,50.872c0.019-0.398,0.049-0.753,0.05-1.108
	c0.004-2.845,0.008-5.689,0-8.534c-0.005-1.711,0.012-3.423-0.061-5.131c-0.056-1.323-0.745-2.342-1.894-2.975
	c-2.478-1.365-5.415,0.398-5.428,3.261c-0.021,4.63-0.007,9.26-0.005,13.89c0,0.188,0.026,0.374,0.042,0.598
	C50.568,50.872,52.966,50.872,55.429,50.872z M59.267,50.931c2.652-0.169,4.849,0.666,6.583,2.659
	c0.631-0.709,0.76-1.522,0.764-2.338c0.02-4.459,0.024-8.92,0.002-13.379c-0.008-1.616-0.778-2.836-2.255-3.49
	c-2.473-1.097-5.106,0.636-5.121,3.356c-0.023,4.219-0.007,8.438-0.006,12.657C59.234,50.537,59.25,50.679,59.267,50.931z
	 M31.053,17.363c-0.018-0.072-0.036-0.144-0.054-0.216c-1.411,0.105-2.84,0.104-4.229,0.339c-2.966,0.503-5.283,2.006-6.677,4.758
	c-1.131,2.233-1.451,4.63-1.391,7.092c0.037,1.48-0.216,1.315,1.311,1.32c2.17,0.007,4.341-0.021,6.512-0.036
	c0.183-0.002,0.366-0.031,0.58-0.051C26.914,25.689,27.508,21.082,31.053,17.363z M34.277,49.462c3.421,0,6.755,0,10.118,0
	c0-2.577,0-5.069,0-7.565c-3.395,0-6.746,0-10.118,0C34.277,44.467,34.277,46.961,34.277,49.462z M19.726,60.297
	c2.498,0,4.938,0,7.425,0c0-0.51,0-0.927,0-1.37c-2.508,0-4.968,0-7.425,0C19.726,59.424,19.726,59.868,19.726,60.297z"/>
</svg>
