<?xml version="1.0" encoding="utf-8"?>
<!-- Generator: Adobe Illustrator 16.0.3, SVG Export Plug-In . SVG Version: 6.00 Build 0)  -->
<!DOCTYPE svg PUBLIC "-//W3C//DTD SVG 1.1//EN" "http://www.w3.org/Graphics/SVG/1.1/DTD/svg11.dtd">
<svg version="1.1" id="New_Year_Icon" xmlns="http://www.w3.org/2000/svg" xmlns:xlink="http://www.w3.org/1999/xlink" x="0px"
	 y="0px" width="125px" height="125px" viewBox="0 0 125 125" enable-background="new 0 0 125 125" xml:space="preserve">
<g>
	<path d="M102.197,16.316h-3.429c0.089-0.283,0.179-0.564,0.179-0.878c0-1.627-1.312-2.939-2.937-2.939s-2.937,1.313-2.937,2.939
		c0,0.313,0.089,0.595,0.179,0.878H82.009c0.09-0.283,0.179-0.564,0.179-0.878c0-1.627-1.312-2.939-2.938-2.939
		c-1.61,0-2.922,1.313-2.922,2.939c0,0.313,0.075,0.595,0.164,0.878H65.266c0.091-0.283,0.177-0.564,0.177-0.878
		c-0.015-1.627-1.327-2.939-2.934-2.939c-1.627,0-2.939,1.313-2.939,2.939c0,0.313,0.087,0.595,0.179,0.878h-11.24
		c0.088-0.283,0.175-0.564,0.175-0.878c0-1.627-1.308-2.939-2.935-2.939c-1.625,0-2.939,1.313-2.939,2.939
		c0,0.313,0.091,0.595,0.179,0.878h-11.24c0.087-0.283,0.179-0.564,0.179-0.878c0-1.627-1.312-2.939-2.939-2.939
		c-1.61,0-2.918,1.313-2.918,2.939c0,0.313,0.073,0.595,0.164,0.878h-3.433c-4.622,0-8.393,3.771-8.393,8.393v79.398
		c0,4.637,3.771,8.394,8.393,8.394h69.914l17.877-17.876V24.709C110.592,20.087,106.834,16.316,102.197,16.316L102.197,16.316z
		 M85.603,35.386l-2.729-6.828h2.58l1.118,3.667c0.119,0.431,0.269,0.984,0.358,1.385h0.045c0.104-0.384,0.238-0.954,0.343-1.385
		l0.91-3.667h2.49l-1.745,4.92c-1.059,2.965-1.774,4.159-2.624,4.903c-0.805,0.702-1.67,0.939-2.236,1.016l-0.492-1.97
		c0.283-0.041,0.656-0.179,0.999-0.384c0.358-0.196,0.746-0.57,0.969-0.939c0.074-0.108,0.119-0.226,0.119-0.345
		C85.707,35.699,85.692,35.564,85.603,35.386L85.603,35.386z M77.193,28.558h1.998l0.075,1.369h0.06
		c0.388-1.088,1.297-1.533,2.028-1.533c0.208,0,0.313,0,0.492,0.029v2.175c-0.179-0.029-0.373-0.056-0.626-0.056
		c-0.865,0-1.446,0.462-1.595,1.176c-0.03,0.147-0.045,0.343-0.045,0.522v3.787h-2.326V31.02
		C77.253,29.912,77.224,29.198,77.193,28.558L77.193,28.558z M71.349,29.974c-0.761,0-1.581,0.267-2.073,0.568l-0.417-1.493
		c0.507-0.298,1.536-0.655,2.893-0.655c2.49,0,3.295,1.461,3.295,3.22v2.593c0,0.718,0.03,1.42,0.104,1.821h-2.102l-0.134-0.746
		H72.87c-0.492,0.597-1.252,0.925-2.132,0.925c-1.521,0-2.416-1.104-2.416-2.298c0-1.935,1.729-2.878,4.383-2.863v-0.103
		C72.706,30.542,72.497,29.974,71.349,29.974L71.349,29.974z M62.998,34.313c0.641,0,1.016-0.431,1.165-0.806
		c0.06-0.134,0.076-0.313,0.076-0.507v-4.442h2.341v5.068c0,0.984,0.03,1.774,0.06,2.401h-2.017l-0.117-1.042h-0.046
		c-0.282,0.445-0.984,1.206-2.339,1.206c-1.508,0-2.626-0.939-2.626-3.253v-4.381h2.343v4.025
		C61.836,33.656,62.181,34.313,62.998,34.313L62.998,34.313z M53.783,30.27c-0.641,0-1.027,0.437-1.176,0.867
		c-0.06,0.134-0.091,0.371-0.091,0.581v4.31h-2.324v-5.085c0-0.939-0.03-1.729-0.062-2.385h2.032l0.103,1.016h0.046
		c0.296-0.463,1.057-1.197,2.309-1.197c1.523,0,2.667,1.016,2.667,3.223v4.429h-2.324v-4.146
		C54.963,30.928,54.635,30.27,53.783,30.27L53.783,30.27z M44.288,29.974c-0.76,0-1.581,0.267-2.058,0.568l-0.432-1.493
		c0.52-0.298,1.536-0.655,2.909-0.655c2.488,0,3.278,1.461,3.278,3.22v2.593c0,0.718,0.032,1.42,0.104,1.821H46l-0.132-0.746h-0.047
		c-0.488,0.597-1.267,0.925-2.145,0.925c-1.519,0-2.416-1.104-2.416-2.298c0-1.935,1.745-2.878,4.386-2.863v-0.103
		C45.646,30.542,45.436,29.974,44.288,29.974L44.288,29.974z M39.593,25.725v6.516c0,2.935-1.405,3.951-3.667,3.951
		c-0.539,0-1.241-0.088-1.704-0.237l0.272-1.882c0.313,0.107,0.729,0.179,1.174,0.179c0.986,0,1.595-0.445,1.595-2.041v-6.485
		H39.593z M22.801,107.924c-2.102,0-3.815-1.715-3.815-3.816V46.093h87.028v46.639l-0.954,0.938h-7.187
		c-3.355,0-6.113,2.759-6.113,6.113v7.201l-0.939,0.939H22.801z M22.801,107.924"/>
	<path d="M43.559,33.671c0,0.597,0.4,0.893,0.908,0.893c0.58,0,1.057-0.384,1.206-0.846c0.03-0.138,0.047-0.272,0.047-0.404v-0.807
		C44.513,32.477,43.559,32.774,43.559,33.671L43.559,33.671z M43.559,33.671"/>
	<path d="M70.618,33.671c0,0.597,0.388,0.893,0.91,0.893c0.582,0,1.059-0.384,1.208-0.846c0.03-0.138,0.045-0.272,0.045-0.404
		v-0.807C71.558,32.477,70.618,32.774,70.618,33.671L70.618,33.671z M70.618,33.671"/>
	<path d="M48.12,62.673v8.678h9.958v25.107h12.705V52.772h-9.646C59.719,60.228,54.844,62.55,48.12,62.673L48.12,62.673z
		 M48.12,62.673"/>
</g>
</svg>
