<?xml version="1.0" encoding="utf-8"?>
<!-- Generator: Adobe Illustrator 16.0.3, SVG Export Plug-In . SVG Version: 6.00 Build 0)  -->
<!DOCTYPE svg PUBLIC "-//W3C//DTD SVG 1.1//EN" "http://www.w3.org/Graphics/SVG/1.1/DTD/svg11.dtd">
<svg version="1.1" id="OXI_Day_Icon" xmlns="http://www.w3.org/2000/svg" xmlns:xlink="http://www.w3.org/1999/xlink" x="0px"
	 y="0px" width="125px" height="125px" viewBox="0 0 125 125" enable-background="new 0 0 125 125" xml:space="preserve">
<g>
	<g>
		<path fill-rule="evenodd" clip-rule="evenodd" d="M21.506,100.504c-4.467-0.596-6.803,1.263-8.093,5.951
			c0.15-0.138,0.3-0.265,0.45-0.383c1.337-3.686,3.587-5.157,7.513-4.684C21.427,101.096,21.474,100.801,21.506,100.504
			L21.506,100.504z M27.46,106.364c-0.718,2.458-3.437,2.924-6.476,1.961c-2.45-0.773-5.039-0.419-6.72,3.304
			c-0.008,0.283-0.004,0.576,0,0.871c1.669-4.241,4.427-3.749,7.036-3.07c2.884,0.75,5.757,0.202,6.262-2.647
			C27.56,106.633,27.524,106.494,27.46,106.364L27.46,106.364z M14.47,109.288c-0.06,0.34-0.107,0.694-0.138,1.062
			c1.625-3.286,4.017-3.768,6.325-3.133c-0.205-0.146-0.323-0.344-0.378-0.592c-0.023-0.111-0.036-0.229-0.036-0.359
			C18.132,105.867,15.993,106.432,14.47,109.288L14.47,109.288z M21.664,107.501c2.399,0.567,4.51,0.114,5.454-1.512
			c-0.114-0.079-0.256-0.146-0.426-0.192c-0.048-0.009-0.095-0.021-0.143-0.028c-0.746,0.706-1.823,1.037-3.074,1.041
			C22.915,107.192,22.358,107.524,21.664,107.501L21.664,107.501z M20.618,104.324c-1.622-0.174-2.893,0.023-3.907,0.604
			c0.13,0,0.256,0.008,0.387,0.024c-0.994,0.544-1.701,1.429-2.159,2.6c1.172-1.835,2.845-2.612,5.454-2.379l0.012-0.036v-0.016
			l0.004-0.012l0.004-0.008v-0.004l0.004-0.013l0.012-0.051l0.004-0.012v-0.008l0.004-0.008v-0.012l0.004-0.012l0.008-0.027
			l0.004-0.013l0,0l0.004-0.023l0.004-0.016l0.004-0.012l0.004-0.012l0.003-0.017l0.004-0.011v-0.012l0.004-0.005v-0.008
			l0.004-0.016l0.004-0.012l0.004-0.012l0.004-0.017l0.003-0.012l0.008-0.027v-0.012l0.004-0.017l0.004-0.011l0.004-0.012
			l0.003-0.017l0.004-0.012l0,0l0.004-0.016l0.004-0.012l0.008-0.028l0.004-0.011l0.003-0.016l0.004-0.013l0,0l0.004-0.016
			l0.004-0.012l0.004-0.016l0.004-0.012l0.004-0.013v-0.015l0.003-0.013l0,0l0.004-0.016l0.004-0.012l0.004-0.016l0.004-0.012
			l0.004-0.017l0.003-0.011l0.008-0.032l0.004-0.012L20.618,104.324z M14.455,105.649c0.272-0.173,0.536-0.312,0.801-0.418
			c1.31-1.563,3.121-2.186,5.662-1.945c0.083-0.288,0.166-0.587,0.241-0.893C17.899,102.047,15.816,103.077,14.455,105.649
			L14.455,105.649z M32.918,97.315c-2.036-0.797-3.267-1.716-4.957-2.411c-2.399-0.985-5.118-1.302-6.234,0.017
			c-0.269,0.362-0.328,0.832-0.312,1.42c0.331-0.458,0.848-0.888,1.523-1.081c1.267-0.363,3.168-0.063,4.605,0.513
			c1.642,0.655,3.307,1.808,5.256,2.608C32.843,98.026,32.882,97.671,32.918,97.315L32.918,97.315z M32.638,99.593
			c-2.813-1.168-6.535-4.132-9.699-3.229c-0.631,0.182-1.125,0.568-1.456,0.994c0.023,0.304,0.047,0.632,0.067,0.983
			c0.332-0.391,0.797-0.742,1.389-0.912c3.244-0.927,6.748,2.061,9.545,3.232C32.535,100.314,32.59,99.956,32.638,99.593
			L32.638,99.593z M32.298,101.826c-2.719-1.12-6.294-4.128-9.36-3.252c-0.58,0.166-1.042,0.506-1.369,0.888
			c-0.008,0.315-0.028,0.647-0.06,0.999c0.332-0.344,0.813-0.607,1.429-0.781c2.916-0.833,6.539,2.024,9.178,3.173
			C32.176,102.529,32.235,102.185,32.298,101.826L32.298,101.826z M39.563,103.689c-0.785,0.536-1.854,0.97-3.235,1.097
			c-0.576,0.402-1.073,0.813-1.555,1.132c0.268,0.028,0.544,0.043,0.824,0.047c2.762-0.022,4.436-0.978,5.189-1.921
			C40.451,103.814,40.025,103.704,39.563,103.689L39.563,103.689z M21.297,101.795c-0.095,0.449-0.209,0.888-0.324,1.302
			c0.631-0.841,1.574-1.479,2.956-1.412c2.952,0.178,5.13,2.126,7.747,3.334c0.004-0.016,0.008-0.031,0.011-0.048l0,0
			c0.06-0.26,0.13-0.58,0.206-0.951c-2.648-1.156-4.569-3.18-7.963-3.362C22.769,100.604,21.913,101.124,21.297,101.795
			L21.297,101.795z M32.129,104.119L32.129,104.119c-0.004,0.008-0.008,0.016-0.016,0.023L32.129,104.119z M41.556,105.614
			l0.237-1.282l-0.008,0.004L41.556,105.614z M41.402,104.821c-0.572,1.065-2.561,2.38-5.805,2.406
			c-5.122-0.026-7.379-4.103-11.668-4.36c-1.941-0.094-3.026,1.216-3.579,2.507c-0.103,0.493-0.146,0.915-0.071,1.251
			c0.395-1.492,1.662-2.739,3.413-2.723c4.29,0.26,6.784,4.522,11.905,4.549c3.698-0.031,5.766-1.736,5.959-2.837
			C41.544,105.311,41.489,105.046,41.402,104.821L41.402,104.821z M103.494,100.504c4.467-0.596,6.803,1.263,8.094,5.951
			c-0.15-0.138-0.3-0.265-0.45-0.383c-1.338-3.686-3.587-5.157-7.513-4.684C103.573,101.096,103.525,100.801,103.494,100.504
			L103.494,100.504z M97.539,106.364c0.718,2.458,3.437,2.924,6.476,1.961c2.451-0.773,5.039-0.419,6.72,3.304
			c0.008,0.283,0.004,0.576,0,0.871c-1.669-4.241-4.427-3.749-7.036-3.07c-2.884,0.75-5.761,0.202-6.262-2.647
			C97.44,106.633,97.476,106.494,97.539,106.364L97.539,106.364z M110.529,109.288c0.06,0.34,0.107,0.694,0.139,1.062
			c-1.626-3.286-4.017-3.768-6.326-3.133c0.205-0.146,0.323-0.344,0.378-0.592c0.024-0.111,0.036-0.229,0.036-0.359
			C106.867,105.867,109.006,106.432,110.529,109.288L110.529,109.288z M103.336,107.501c-2.399,0.567-4.51,0.114-5.453-1.512
			c0.114-0.079,0.256-0.146,0.425-0.192c0.048-0.009,0.095-0.021,0.143-0.028c0.746,0.706,1.823,1.037,3.074,1.041
			C102.085,107.192,102.641,107.524,103.336,107.501L103.336,107.501z M104.381,104.324c1.622-0.174,2.893,0.023,3.907,0.604
			c-0.13,0-0.256,0.008-0.387,0.024c0.994,0.544,1.701,1.429,2.159,2.6c-1.172-1.835-2.845-2.612-5.454-2.379l-0.012-0.036v-0.016
			l-0.004-0.012l-0.004-0.008v-0.004l-0.003-0.013l-0.012-0.051l-0.004-0.012v-0.008l-0.004-0.008v-0.012l-0.004-0.012l-0.008-0.027
			l-0.004-0.013l0,0l-0.004-0.023l-0.004-0.016l-0.004-0.012l-0.004-0.012l-0.003-0.017l-0.004-0.011v-0.012l-0.004-0.005v-0.008
			l-0.004-0.016l-0.004-0.012l-0.004-0.012l-0.004-0.017l-0.004-0.012l-0.008-0.027v-0.012l-0.004-0.017l-0.004-0.011l-0.004-0.012
			l-0.003-0.017l-0.004-0.012l0,0l-0.004-0.016l-0.004-0.012l-0.008-0.028l-0.004-0.011l-0.003-0.016l-0.004-0.013l0,0l-0.004-0.016
			l-0.004-0.012l-0.004-0.016l-0.004-0.012l-0.004-0.013l-0.003-0.015v-0.013l0,0l-0.004-0.016l-0.004-0.012l-0.004-0.016
			l-0.004-0.012l-0.004-0.017l-0.004-0.011l-0.008-0.032l-0.004-0.012L104.381,104.324z M110.545,105.649
			c-0.271-0.173-0.536-0.312-0.801-0.418c-1.31-1.563-3.121-2.186-5.662-1.945c-0.083-0.288-0.166-0.587-0.241-0.893
			C107.101,102.047,109.184,103.077,110.545,105.649L110.545,105.649z M92.082,97.315c2.036-0.797,3.267-1.716,4.956-2.411
			c2.399-0.985,5.118-1.302,6.234,0.017c0.269,0.362,0.328,0.832,0.312,1.42c-0.331-0.458-0.848-0.888-1.522-1.081
			c-1.271-0.363-3.169-0.063-4.605,0.513c-1.642,0.655-3.307,1.808-5.256,2.608C92.157,98.026,92.117,97.671,92.082,97.315
			L92.082,97.315z M92.362,99.593c2.813-1.168,6.535-4.132,9.7-3.229c0.631,0.182,1.125,0.568,1.456,0.994
			c-0.024,0.304-0.047,0.632-0.067,0.983c-0.332-0.391-0.797-0.742-1.389-0.912c-3.244-0.927-6.749,2.061-9.546,3.232
			C92.464,100.314,92.409,99.956,92.362,99.593L92.362,99.593z M92.701,101.826c2.719-1.12,6.294-4.128,9.36-3.252
			c0.58,0.166,1.042,0.506,1.369,0.888c0.008,0.315,0.028,0.647,0.06,0.999c-0.332-0.344-0.813-0.607-1.428-0.781
			c-2.916-0.833-6.539,2.024-9.179,3.173C92.823,102.529,92.765,102.185,92.701,101.826L92.701,101.826z M85.437,103.689
			c0.785,0.536,1.854,0.97,3.235,1.097c0.576,0.402,1.073,0.813,1.555,1.132c-0.269,0.028-0.544,0.043-0.825,0.047
			c-2.762-0.022-4.436-0.978-5.189-1.921C84.548,103.814,84.975,103.704,85.437,103.689L85.437,103.689z M103.703,101.795
			c0.095,0.449,0.209,0.888,0.324,1.302c-0.631-0.841-1.578-1.479-2.956-1.412c-2.952,0.178-5.13,2.126-7.746,3.334
			c-0.004-0.016-0.008-0.031-0.012-0.048l0,0c-0.06-0.26-0.13-0.58-0.206-0.951c2.648-1.156,4.569-3.18,7.963-3.362
			C102.231,100.604,103.087,101.124,103.703,101.795L103.703,101.795z M92.871,104.119L92.871,104.119
			c0.004,0.008,0.008,0.016,0.016,0.023L92.871,104.119z M83.443,105.614l-0.236-1.282l0.008,0.004L83.443,105.614z M83.598,104.821
			c0.572,1.065,2.561,2.38,5.805,2.406c5.122-0.026,7.379-4.103,11.668-4.36c1.941-0.094,3.027,1.216,3.579,2.507
			c0.103,0.493,0.146,0.915,0.071,1.251c-0.395-1.492-1.661-2.739-3.413-2.723c-4.289,0.26-6.783,4.522-11.905,4.549
			c-3.698-0.031-5.766-1.736-5.959-2.837C83.456,105.311,83.511,105.046,83.598,104.821L83.598,104.821z M62.502,104.427
			c-13.653,0-28.049-6.898-30.847,0.671c0.13-0.533,0.308-1.386,0.498-2.431c3.444-5.793,16.013,0.308,30.349,0.454
			c14.336-0.146,26.904-6.247,30.349-0.454c0.189,1.045,0.363,1.897,0.493,2.431C90.547,97.528,76.151,104.427,62.502,104.427
			L62.502,104.427z M62.502,101.7c-13.91-0.146-26.159-5.959-30.022-1.019c0.083-0.549,0.166-1.121,0.245-1.708
			c4.08-4.239,16.167,1.247,29.777,1.385c13.61-0.138,25.697-5.624,29.777-1.385c0.075,0.587,0.158,1.159,0.241,1.708
			C88.661,95.741,76.412,101.554,62.502,101.7L62.502,101.7z M62.502,96.294c-6.4-0.1-12.079-1.228-16.862-2.14l-0.012-1.396
			c4.787,0.931,10.469,2.095,16.874,2.193c10.311-0.162,18.756-3.077,24.588-3.354c2.49-0.119,4.227,0.209,5.315,1.612
			c-0.091,0.482-0.182,0.995-0.252,1.527c-1.097-1.293-2.754-1.83-5.063-1.72C81.254,93.3,72.813,96.136,62.502,96.294
			L62.502,96.294z M62.502,98.938c-8.706-0.083-16.459-2.253-22.071-2.932c0.012-0.955,0-1.87-0.031-2.751
			c1.598,0.213,3.35,0.541,5.24,0.899l0.008,1.351c4.83,0.931,10.599,2.106,16.854,2.17c13.886-0.138,25.361-5.757,29.56-2.032
			c-0.035,0.489-0.039,0.99,0.004,1.495C87.871,93.361,76.392,98.804,62.502,98.938L62.502,98.938z M32.942,95.643
			c-0.024-0.308-0.055-0.607-0.095-0.904c1.097-1.293,2.758-1.83,5.063-1.72c0.032,0,0.063,0.004,0.091,0.004
			c0.012,0.889-0.02,1.814-0.094,2.79c-2.135-0.052-3.824,0.291-4.968,1.325C32.977,96.633,32.973,96.132,32.942,95.643
			L32.942,95.643z M62.502,93.571c-6.409-0.104-12.095-1.278-16.881-2.226l0.007,1.413c-1.914-0.376-3.685-0.712-5.303-0.928
			c-0.063-0.982-0.154-1.914-0.261-2.798c5.939,0.872,14.36,3.165,22.438,3.192c8.725-0.027,17.852-2.7,23.814-3.37
			c3.003-0.339,5.197-0.17,6.128,1.097c0.323,0.486,0.295,1.22,0.158,2.12c-1.07-1.643-2.861-2.021-5.513-1.895
			C81.258,90.454,72.813,93.408,62.502,93.571L62.502,93.571z M37.949,91.603c-2.47-0.115-4.27,0.213-5.351,1.608
			c-0.075-0.401-0.146-0.78-0.202-1.139c-0.138-0.9-0.162-1.634,0.158-2.12c0.813-1.109,2.593-1.377,5.032-1.199
			C37.764,89.641,37.886,90.592,37.949,91.603L37.949,91.603z"/>
	</g>
	<path d="M59.997,52.915c0,5.958-3.612,9.572-8.923,9.572c-5.392,0-8.545-4.073-8.545-9.248c0-5.446,3.477-9.517,8.841-9.517
		C56.951,43.722,59.997,47.9,59.997,52.915z M46.868,53.158c0,3.56,1.672,6.066,4.421,6.066c2.776,0,4.368-2.643,4.368-6.175
		c0-3.262-1.564-6.064-4.395-6.064C48.486,46.985,46.868,49.626,46.868,53.158z M71.383,62.188L69.738,58.9
		c-0.673-1.267-1.105-2.211-1.616-3.263h-0.054c-0.378,1.052-0.836,1.996-1.403,3.263l-1.509,3.288h-4.691l5.257-9.192l-5.068-8.977
		h4.718l1.591,3.316c0.54,1.105,0.943,1.996,1.375,3.02h0.054c0.431-1.159,0.783-1.968,1.24-3.02l1.537-3.316h4.691l-5.123,8.869
		l5.393,9.3H71.383z M82.472,44.019v18.169h-4.125V44.019H82.472z M27.746,39.158c-0.244,0.515-0.492,1.037-0.744,1.567
		c-0.21,0.547-0.424,1.104-0.64,1.666c-0.107,0.282-0.214,0.565-0.323,0.85c-0.104,0.287-0.177,0.586-0.267,0.88
		c-0.173,0.593-0.348,1.192-0.524,1.796c-0.161,0.61-0.267,1.238-0.405,1.865c-0.307,1.251-0.401,2.559-0.582,3.871
		c-0.062,0.66-0.068,1.326-0.105,1.995c-0.015,0.335-0.03,0.67-0.044,1.007c-0.008,0.336,0.019,0.673,0.026,1.012
		c0.025,0.676,0.051,1.356,0.076,2.037c0.08,0.678,0.16,1.357,0.239,2.038l0.126,1.022l0.206,1.011
		c0.141,0.675,0.269,1.353,0.422,2.024l0.576,1.986l0.145,0.497L26,66.531l0.037,0.124l0.055,0.152l0.354,0.941l0.354,0.939
		l0.176,0.469l0.214,0.475c0.289,0.633,0.578,1.264,0.865,1.892c1.234,2.438,2.712,4.699,4.368,6.716
		c1.709,1.97,3.55,3.705,5.457,5.138c1.93,1.396,3.836,2.607,5.725,3.463c0.916,0.483,1.851,0.822,2.725,1.168
		c0.219,0.086,0.435,0.17,0.647,0.253c0.219,0.069,0.434,0.138,0.646,0.205c0.424,0.132,0.837,0.261,1.236,0.384
		c1.612,0.442,3.031,0.757,4.218,0.902c1.175,0.201,2.113,0.236,2.748,0.274c0.633,0.034,0.971,0.054,0.971,0.054l0.025-0.229
		c0,0-0.327-0.076-0.942-0.223c-0.306-0.07-0.683-0.157-1.126-0.26c-0.446-0.082-0.94-0.269-1.503-0.419
		c-0.559-0.166-1.183-0.32-1.837-0.578c-0.33-0.115-0.672-0.237-1.028-0.363c-0.356-0.122-0.724-0.252-1.09-0.423
		c-1.489-0.614-3.139-1.368-4.838-2.365c-0.423-0.249-0.865-0.486-1.296-0.761c-0.423-0.286-0.855-0.576-1.294-0.872
		c-0.219-0.148-0.448-0.284-0.663-0.445c-0.214-0.163-0.429-0.326-0.646-0.492c-0.43-0.334-0.882-0.654-1.312-1.013
		c-1.717-1.443-3.406-3.092-5.003-4.934c-1.559-1.874-3.019-3.938-4.289-6.171c-0.289-0.563-0.579-1.129-0.87-1.697l-0.218-0.428
		l-0.193-0.463l-0.387-0.927l-0.388-0.927l-0.024-0.059l-0.007-0.018c-0.002-0.004-0.003-0.01-0.002-0.008l-0.038-0.116
		l-0.077-0.232l-0.153-0.466l-0.617-1.866c-0.167-0.633-0.307-1.274-0.462-1.912l-0.228-0.957l-0.15-0.968
		c-0.098-0.647-0.194-1.293-0.292-1.938c-0.044-0.65-0.089-1.297-0.133-1.943c-0.018-0.323-0.055-0.645-0.057-0.967
		c0.004-0.323,0.008-0.644,0.013-0.964c0.015-0.642,0-1.283,0.039-1.917c0.136-1.263,0.183-2.526,0.442-3.738
		c0.352-2.456,1.114-4.742,1.856-6.892c0.223-0.524,0.443-1.042,0.66-1.55c0.226-0.505,0.412-1.021,0.679-1.487
		c0.25-0.475,0.495-0.943,0.736-1.402c0.122-0.228,0.236-0.459,0.361-0.68c0.135-0.216,0.27-0.429,0.403-0.64
		c0.541-0.837,1.011-1.676,1.583-2.385c0.273-0.365,0.538-0.721,0.796-1.067c0.129-0.173,0.257-0.343,0.383-0.51
		c0.138-0.158,0.274-0.313,0.409-0.466c0.539-0.608,1.033-1.189,1.509-1.707c0.503-0.491,0.965-0.942,1.382-1.35
		c0.209-0.203,0.408-0.397,0.594-0.578c0.202-0.168,0.391-0.324,0.566-0.471c0.352-0.292,0.652-0.54,0.894-0.741
		c0.486-0.402,0.744-0.617,0.744-0.617L39.562,25.3c0,0-0.269,0.201-0.772,0.581c-0.252,0.19-0.563,0.424-0.928,0.699
		c-0.183,0.137-0.379,0.285-0.588,0.442c-0.198,0.175-0.408,0.36-0.63,0.556c-0.444,0.395-0.936,0.832-1.471,1.308
		c-0.504,0.505-1.029,1.073-1.602,1.669c-0.143,0.15-0.287,0.302-0.435,0.457c-0.135,0.165-0.271,0.333-0.411,0.502
		c-0.277,0.341-0.563,0.693-0.855,1.053c-0.613,0.702-1.127,1.535-1.714,2.369c-0.145,0.21-0.291,0.423-0.439,0.637
		c-0.137,0.222-0.264,0.452-0.397,0.681c-0.266,0.46-0.537,0.929-0.813,1.406C28.212,38.128,28,38.647,27.746,39.158z
		 M41.309,27.282c0,0,2.096,2.994,5.19,3.485c3.094,0.492,6.014-1.707,6.014-1.707s-2.096-2.994-5.189-3.486
		C44.229,25.083,41.309,27.282,41.309,27.282z M47.707,22.954c2.52-1.861,3-5.485,3-5.485s-3.604-0.605-6.124,1.256
		s-3,5.484-3,5.484S45.187,24.815,47.707,22.954z M42.259,18.529c0.52-3.089-1.65-6.029-1.65-6.029s-3.014,2.067-3.534,5.157
		c-0.52,3.089,1.65,6.029,1.65,6.029S41.739,21.619,42.259,18.529z M45.092,73.544c0,0-1.847,3.154-1.003,6.17
		c0.845,3.017,4.06,4.754,4.06,4.754s1.847-3.154,1.002-6.171C48.308,75.281,45.092,73.544,45.092,73.544z M32.055,81.191
		c0,0-2.32-2.823-5.443-3.074s-5.865,2.166-5.865,2.166s2.321,2.824,5.443,3.074C29.313,83.608,32.055,81.191,32.055,81.191z
		 M40.586,71.861c0.188-3.127-2.283-5.82-2.283-5.82s-2.776,2.376-2.965,5.503c-0.188,3.127,2.282,5.821,2.282,5.821
		S40.397,74.987,40.586,71.861z M17.654,66.604c2.896,1.193,6.246-0.269,6.246-0.269s-1.346-3.398-4.242-4.592
		c-2.896-1.195-6.246,0.268-6.246,0.268S14.758,65.41,17.654,66.604z M29.387,59.292c-1.137,2.919,0.392,6.239,0.392,6.239
		s3.371-1.412,4.507-4.332c1.136-2.918-0.392-6.24-0.392-6.24S30.524,56.373,29.387,59.292z M22.435,50.517
		c0,0,0.293-3.643-1.778-5.994c-2.071-2.351-5.722-2.518-5.722-2.518s-0.294,3.643,1.778,5.993
		C18.783,50.349,22.435,50.517,22.435,50.517z M30.106,45.482c-2.309,2.118-2.404,5.771-2.404,5.771s3.648,0.221,5.958-1.896
		c2.308-2.118,2.404-5.771,2.404-5.771S32.415,43.366,30.106,45.482z M27.313,35.561c0,0,1.911-3.116,1.129-6.149
		c-0.782-3.033-3.961-4.837-3.961-4.837s-1.912,3.115-1.13,6.149C24.134,33.757,27.313,35.561,27.313,35.561z M42.411,34.444
		c0,0-3.153-1.849-6.17-1.006c-3.018,0.842-4.757,4.056-4.757,4.056s3.153,1.85,6.17,1.007
		C40.671,37.659,42.411,34.444,42.411,34.444z M69.178,90.026c0.635-0.038,1.573-0.073,2.748-0.274
		c1.187-0.146,2.606-0.46,4.218-0.902c0.399-0.123,0.812-0.252,1.236-0.384c0.212-0.067,0.427-0.136,0.646-0.205
		c0.213-0.083,0.429-0.167,0.647-0.253c0.874-0.346,1.809-0.685,2.725-1.168c1.889-0.855,3.794-2.067,5.725-3.463
		c1.907-1.433,3.748-3.168,5.457-5.138c1.655-2.017,3.134-4.277,4.368-6.716c0.287-0.628,0.576-1.259,0.865-1.892l0.214-0.475
		l0.176-0.469l0.354-0.939l0.354-0.941l0.055-0.152L99,66.531l0.072-0.249l0.145-0.497l0.576-1.986
		c0.154-0.672,0.281-1.35,0.422-2.024l0.206-1.011l0.126-1.022c0.08-0.681,0.16-1.36,0.239-2.038
		c0.025-0.681,0.05-1.361,0.076-2.037c0.008-0.339,0.035-0.676,0.026-1.012c-0.015-0.336-0.03-0.671-0.044-1.007
		c-0.037-0.669-0.043-1.335-0.105-1.995c-0.181-1.312-0.275-2.619-0.582-3.871c-0.138-0.627-0.244-1.255-0.405-1.865
		c-0.176-0.604-0.351-1.203-0.524-1.796c-0.09-0.294-0.163-0.594-0.267-0.88c-0.108-0.285-0.215-0.568-0.323-0.85
		c-0.216-0.562-0.429-1.118-0.64-1.666c-0.251-0.53-0.5-1.053-0.744-1.567c-0.253-0.51-0.466-1.03-0.76-1.499
		c-0.275-0.477-0.546-0.945-0.813-1.406c-0.134-0.229-0.261-0.459-0.397-0.681c-0.148-0.214-0.294-0.427-0.439-0.637
		c-0.587-0.834-1.102-1.667-1.714-2.369c-0.292-0.359-0.578-0.711-0.855-1.053c-0.139-0.17-0.276-0.337-0.411-0.502
		c-0.147-0.154-0.292-0.307-0.435-0.457c-0.573-0.596-1.098-1.164-1.602-1.669c-0.535-0.476-1.027-0.913-1.471-1.308
		c-0.222-0.196-0.432-0.381-0.63-0.556c-0.209-0.157-0.406-0.305-0.588-0.442c-0.365-0.275-0.676-0.509-0.928-0.699
		c-0.504-0.379-0.772-0.581-0.772-0.581l-0.142,0.179c0,0,0.258,0.215,0.744,0.617c0.242,0.202,0.542,0.45,0.894,0.741
		c0.175,0.146,0.365,0.303,0.566,0.471c0.187,0.181,0.385,0.375,0.594,0.578c0.417,0.408,0.879,0.859,1.382,1.35
		c0.476,0.518,0.97,1.099,1.509,1.707c0.134,0.153,0.271,0.308,0.409,0.466c0.126,0.167,0.254,0.337,0.383,0.51
		c0.258,0.346,0.523,0.702,0.796,1.067c0.572,0.709,1.042,1.548,1.583,2.385c0.133,0.211,0.268,0.424,0.403,0.64
		c0.125,0.22,0.24,0.452,0.361,0.68c0.241,0.459,0.486,0.927,0.736,1.402c0.268,0.466,0.454,0.982,0.679,1.487
		c0.217,0.509,0.437,1.026,0.66,1.55c0.742,2.15,1.504,4.436,1.856,6.892c0.259,1.212,0.306,2.476,0.442,3.738
		c0.039,0.634,0.024,1.275,0.039,1.917c0.004,0.32,0.008,0.642,0.013,0.964c-0.002,0.322-0.04,0.645-0.057,0.967
		c-0.044,0.646-0.089,1.293-0.133,1.943c-0.097,0.645-0.194,1.291-0.292,1.938l-0.15,0.968l-0.228,0.957
		c-0.155,0.638-0.295,1.278-0.462,1.912l-0.617,1.866l-0.153,0.466l-0.077,0.232l-0.038,0.116c0.001-0.002,0,0.004-0.002,0.008
		l-0.007,0.018l-0.024,0.059l-0.388,0.927l-0.387,0.927l-0.193,0.463l-0.218,0.428c-0.291,0.568-0.581,1.134-0.87,1.697
		c-1.27,2.232-2.729,4.297-4.289,6.171c-1.597,1.842-3.286,3.49-5.003,4.934c-0.43,0.358-0.881,0.679-1.312,1.013
		c-0.217,0.166-0.432,0.329-0.646,0.492c-0.215,0.161-0.444,0.297-0.663,0.445c-0.438,0.296-0.871,0.586-1.294,0.872
		c-0.431,0.274-0.873,0.512-1.296,0.761c-1.699,0.997-3.349,1.751-4.838,2.365c-0.367,0.171-0.734,0.301-1.09,0.423
		c-0.356,0.126-0.699,0.248-1.028,0.363c-0.654,0.258-1.279,0.412-1.837,0.578c-0.563,0.15-1.057,0.337-1.503,0.419
		c-0.443,0.103-0.821,0.189-1.126,0.26c-0.615,0.146-0.942,0.223-0.942,0.223l0.025,0.229C68.207,90.08,68.544,90.061,69.178,90.026
		z M78.501,30.767c3.094-0.491,5.19-3.485,5.19-3.485s-2.92-2.198-6.015-1.708c-3.094,0.492-5.189,3.486-5.189,3.486
		S75.407,31.259,78.501,30.767z M77.293,22.954c2.521,1.861,6.124,1.255,6.124,1.255s-0.48-3.623-3-5.484s-6.124-1.256-6.124-1.256
		S74.773,21.093,77.293,22.954z M86.275,23.687c0,0,2.17-2.94,1.65-6.029c-0.52-3.09-3.534-5.157-3.534-5.157s-2.17,2.94-1.65,6.029
		C83.261,21.619,86.275,23.687,86.275,23.687z M75.848,78.297c-0.845,3.017,1.002,6.171,1.002,6.171s3.215-1.737,4.06-4.754
		c0.844-3.016-1.003-6.17-1.003-6.17S76.692,75.281,75.848,78.297z M104.252,80.283c0,0-2.742-2.417-5.865-2.166
		s-5.443,3.074-5.443,3.074s2.742,2.417,5.864,2.166C101.932,83.107,104.252,80.283,104.252,80.283z M86.697,66.041
		c0,0-2.471,2.693-2.283,5.82c0.188,3.126,2.966,5.504,2.966,5.504s2.471-2.694,2.282-5.821
		C89.473,68.417,86.697,66.041,86.697,66.041z M111.587,62.011c0,0-3.35-1.462-6.246-0.268c-2.896,1.194-4.242,4.592-4.242,4.592
		s3.35,1.462,6.246,0.269C110.242,65.41,111.587,62.011,111.587,62.011z M91.105,54.959c0,0-1.528,3.321-0.392,6.24
		c1.136,2.92,4.507,4.332,4.507,4.332s1.528-3.32,0.392-6.239S91.105,54.959,91.105,54.959z M108.288,47.998
		c2.072-2.351,1.778-5.993,1.778-5.993s-3.651,0.167-5.722,2.518c-2.071,2.351-1.778,5.994-1.778,5.994
		S106.217,50.349,108.288,47.998z M97.298,51.254c0,0-0.095-3.654-2.404-5.771c-2.309-2.117-5.957-1.896-5.957-1.896
		s0.096,3.654,2.404,5.771C93.65,51.475,97.298,51.254,97.298,51.254z M101.648,30.724c0.782-3.034-1.13-6.149-1.13-6.149
		s-3.179,1.804-3.961,4.837c-0.782,3.034,1.129,6.149,1.129,6.149S100.866,33.757,101.648,30.724z M88.759,33.438
		c-3.017-0.843-6.17,1.006-6.17,1.006s1.74,3.215,4.757,4.057c3.018,0.843,6.17-1.007,6.17-1.007S91.777,34.28,88.759,33.438z"/>
</g>
</svg>
