<?xml version="1.0" encoding="utf-8"?>
<!-- Generator: Adobe Illustrator 16.0.3, SVG Export Plug-In . SVG Version: 6.00 Build 0)  -->
<!DOCTYPE svg PUBLIC "-//W3C//DTD SVG 1.1//EN" "http://www.w3.org/Graphics/SVG/1.1/DTD/svg11.dtd">
<svg version="1.1" id="Virgin_Mary_Icon" xmlns="http://www.w3.org/2000/svg" xmlns:xlink="http://www.w3.org/1999/xlink" x="0px"
	 y="0px" width="125px" height="125px" viewBox="0 0 125 125" enable-background="new 0 0 125 125" xml:space="preserve">
<path fill-rule="evenodd" clip-rule="evenodd" d="M93.522,112.5c-1.316-1.585-2.942-2.673-4.964-3.152
	c-0.23-0.055-0.435-0.241-0.639-0.385c-1.183-0.835-2.487-1.351-3.922-1.556c-0.292-0.042-0.586-0.169-0.848-0.314
	c-1.035-0.577-2.131-0.943-3.307-1.097c-0.366-0.048-0.725-0.186-1.073-0.318c-1.409-0.537-2.785-1.139-4.047-1.98
	c-0.22-0.147-0.486-0.259-0.745-0.308c-1.065-0.203-1.96-0.764-2.834-1.348c-0.298-0.199-0.5-0.553-0.724-0.853
	c-1.03-1.376-1.987-2.791-2.717-4.364c-0.693-1.492-1.52-2.921-2.271-4.387c-0.448-0.874-0.873-1.76-1.292-2.648
	c-0.776-1.643-1.539-3.291-2.313-4.936c-0.067-0.142-0.164-0.273-0.265-0.395c-0.408-0.482-0.649-0.475-0.953,0.061
	c-1.1,1.938-2.16,3.898-3.292,5.817c-0.88,1.493-1.853,2.932-2.77,4.402c-0.527,0.845-0.98,1.756-1.867,2.29
	c-0.522,0.314-1.075,0.613-1.654,0.789c-2.275,0.689-4.625,0.534-6.959,0.529c-0.413-0.002-0.826,0.049-1.239,0.052
	c-0.789,0.007-1.578-0.022-2.366-0.003c-2.057,0.05-4.114,0.042-6.171,0.008c-0.423-0.007-0.873,0.081-1.267,0.236
	c-1.004,0.395-2.044,0.52-3.105,0.566c-0.196,0.009-0.398,0.035-0.584,0.096c-1.88,0.61-3.824,0.537-5.762,0.569
	c-1.22,0.02-2.438,0.099-3.789,0.156c0.335-0.304,0.553-0.503,0.772-0.702c-0.006-0.041-0.013-0.081-0.02-0.122
	c-0.531,0.041-1.087-0.004-1.589,0.141c-1.174,0.339-2.261-0.093-3.568-0.28c0.517-0.356,0.886-0.73,1.333-0.895
	c1.138-0.417,2.3-0.78,3.473-1.088c0.99-0.26,2.005-0.429,2.909-0.94c1.057-0.6,2.104-1.214,3.152-1.829
	c0.586-0.344,1.184-0.674,1.743-1.059c0.569-0.392,1.123-0.813,1.638-1.273c1.625-1.449,3.298-2.854,4.82-4.406
	c1.589-1.622,3.008-3.415,4.072-5.439c1.492-2.84,2.951-5.697,4.38-8.568c0.708-1.422,1.3-2.901,1.975-4.341
	c0.687-1.468,1.415-2.917,2.116-4.379c1.024-2.137,2.036-4.279,3.061-6.415c1.107-2.308,2.223-4.612,3.336-6.917
	c0.544-1.127,1.098-2.249,1.634-3.38c0.101-0.213,0.139-0.456,0.206-0.685c-0.044-0.032-0.088-0.065-0.133-0.097
	c-0.429,0.351-0.827,0.751-1.294,1.041c-1.133,0.703-1.811,1.803-2.625,2.798c-0.692,0.845-1.531,1.568-2.295,2.355
	c-0.453,0.467-0.873,0.967-1.336,1.424c-0.146,0.145-0.384,0.196-0.58,0.291c-0.05-0.212-0.168-0.434-0.139-0.635
	c0.158-1.103,0.761-1.983,1.429-2.845c0.687-0.887,1.318-1.817,1.95-2.745c0.882-1.292,2.024-2.319,3.249-3.268
	c1.556-1.208,3.084-2.453,4.677-3.611c1.357-0.987,2.775-1.893,4.189-2.798c1.055-0.675,2.123-1.339,3.232-1.92
	c0.873-0.458,1.8-0.823,2.731-1.153c1.242-0.44,2.519-0.782,3.765-1.211c1.042-0.358,2.063-0.781,3.122-1.187
	c-0.093-0.157-0.164-0.277-0.275-0.467c0.81-0.289,1.578-0.562,2.377-0.846c-0.04-0.094-0.089-0.21-0.162-0.382
	c0.299-0.049,0.554-0.118,0.812-0.129c1.48-0.063,2.913,0.204,4.278,0.752c0.919,0.369,1.833,0.241,2.756,0.145
	c0.442-0.046,0.876-0.162,1.496-0.282c-0.561-0.397-0.979-0.743-1.443-1.013c-2.934-1.712-6.152-2.374-9.502-2.55
	c-3.697-0.194-7.299,0.397-10.873,1.262c-0.245,0.06-0.517,0.008-0.776,0.008c-0.02-0.07-0.04-0.141-0.06-0.211
	c0.345-0.188,0.676-0.41,1.036-0.56c1.578-0.658,3.218-1.077,4.91-1.333c2.291-0.347,4.59-0.406,6.878-0.118
	c1.861,0.234,3.706,0.619,5.547,0.986c0.51,0.102,0.943,0.39,1.363,0.774c0.509,0.466,1.208,0.746,1.858,1.03
	c0.915,0.401,1.872,0.704,2.789,1.1c1.02,0.441,2.032,0.909,2.604,1.966c0.115,0.212,0.324,0.394,0.529,0.532
	c1.404,0.946,2.44,2.265,3.156,3.726c0.637,1.3,1.699,2.296,2.252,3.62c0.165,0.394,0.291,0.804,0.44,1.222
	c0.21-0.422,0.401-0.873,0.655-1.284c0.115-0.185,0.358-0.29,0.542-0.431c0.122,0.198,0.31,0.382,0.355,0.596
	c0.378,1.805,0.184,3.618-0.027,5.417c-0.265,2.262-0.563,4.522-0.933,6.77c-0.437,2.649-0.96,5.285-1.462,7.923
	c-0.113,0.598-0.006,1.071,0.563,1.364c0.457,0.234,0.579,0.595,0.563,1.099c-0.115,3.666-0.186,7.334-0.31,10.999
	c-0.07,2.084-0.208,4.165-0.329,6.247c-0.027,0.466-0.114,0.928-0.261,1.385c-0.117-0.332-0.234-0.664-0.352-0.996
	c-0.068-0.026-0.137-0.053-0.205-0.079c-0.211,0.282-0.422,0.563-0.634,0.845c-0.056-0.023-0.111-0.047-0.167-0.07
	c0.037-0.45,0.049-0.903,0.114-1.349c0.253-1.756,0.537-3.508,0.776-5.266c0.055-0.401-0.002-0.822-0.047-1.229
	c-0.017-0.154-0.145-0.295-0.299-0.59c-0.148,0.344-0.274,0.538-0.315,0.749c-0.263,1.334-0.547,2.665-0.747,4.009
	c-0.266,1.789-0.475,3.588-0.68,5.386c-0.135,1.185-0.337,2.379-0.303,3.563c0.064,2.194,0.664,4.277,1.616,6.267
	c0.84,1.755,2.021,3.246,3.284,4.707c1.035,1.197,2.29,2.103,3.522,3.048c0.735,0.564,1.355,1.2,1.701,2.073
	c0.226,0.572,0.466,1.141,0.682,1.717c0.32,0.854,0.969,1.41,1.658,1.962c0.842,0.674,1.624,1.423,2.381,2.266
	c-0.189-0.042-0.389-0.059-0.567-0.13c-1.778-0.712-3.592-0.829-5.455-0.384c-0.323,0.077-0.675,0.038-1.013,0.039
	c-0.682,0.002-1.365-0.034-2.044,0c-0.501,0.025-0.999,0.137-1.551,0.218c0.046,0.034,0.029,0.026,0.019,0.013
	c-0.211-0.262-0.288-0.849-0.781-0.521c-0.273,0.182-0.366,0.628-0.557,0.945c-0.077,0.128-0.182,0.249-0.301,0.338
	c-0.562,0.419-1.126,0.834-1.703,1.23c-0.29,0.199-0.609,0.355-0.916,0.531C93.594,112.5,93.558,112.5,93.522,112.5z M71.699,70.895
	c1.151-0.229,1.907,0.253,2.27,0.746c0.188,0.258,0.357,0.53,0.549,0.784c0.541,0.716,1.453,0.917,1.976,0.443
	c0.619-0.56,1.029-1.258,1.147-2.073c0.188-1.3,0.314-2.61,0.444-3.918c0.219-2.198,0.362-4.405,0.65-6.593
	c0.196-1.485,0.548-2.957,1.305-4.289c0.397-0.699,0.831-1.384,1.161-2.114c0.466-1.03,0.231-1.594-0.77-2.088
	c-0.641-0.316-1.323-0.563-1.924-0.94c-0.691-0.434-1.384-0.909-1.945-1.492c-0.649-0.674-0.591-1.335-0.005-2.022
	c0.197-0.231,0.417-0.451,0.658-0.636c1.913-1.467,4.027-2.592,6.214-3.581c0.827-0.374,1.661-0.759,2.614-0.721
	c0.684,0.027,0.877,0.218,0.92,0.894c0.037,0.569,0.076,1.152,0.228,1.698c0.388,1.404,1.708,1.896,2.646,0.997
	c0.286-0.274,0.517-0.658,0.644-1.036c0.299-0.888,0.147-1.835-1.075-1.999c-0.373-0.05-0.76-0.254-1.068-0.484
	c-0.752-0.56-1.482-1.168-1.42-2.25c0.034-0.59,0.4-0.878,1.033-0.809c-0.018,0.729,0.321,1.271,0.89,1.727
	c1.044,0.835,2.253,1.31,3.513,1.669c0.227,0.065,0.509-0.063,0.783-0.105c-0.794-0.397-1.513-0.75-2.223-1.121
	c-0.096-0.05-0.211-0.188-0.208-0.28c0.01-0.301-0.032-0.695,0.136-0.881c0.327-0.362,1.088-0.4,1.387-0.139
	c0.552,0.483,1.069,1.005,1.611,1.5c0.225,0.205,0.475,0.381,0.714,0.57c0.058-0.061,0.117-0.121,0.175-0.182
	c-0.773-0.901-1.547-1.802-2.417-2.815c0.557-0.079,0.969-0.138,1.455-0.207c-0.219-0.333-0.408-0.628-0.606-0.917
	c-1.511-2.205-3.616-3.146-6.249-2.825c-1.072,0.131-2.125,0.43-3.183,0.667c-0.076,0.017-0.144,0.134-0.187,0.219
	c-0.231,0.461-0.431,0.939-0.685,1.387c-0.61,1.073-1.437,1.894-2.63,2.34c-1.138,0.424-2.263,0.13-3.373-0.005
	c-1.559-0.19-3.01-0.006-4.39,0.744c-0.15,0.082-0.324,0.122-0.487,0.182c-0.03-0.042-0.06-0.084-0.09-0.126
	c0.18-0.277,0.359-0.554,0.538-0.831c-0.469,0.233-0.908,0.493-1.29,0.821c-1.122,0.964-2.373,1.609-3.837,1.925
	c-0.531,0.115-1.101,0.549-1.431,1c-0.926,1.266-1.694,2.646-2.604,3.924c-0.776,1.09-1.092,2.359-1.603,3.554
	c-0.393,0.917-1.047,1.628-1.828,2.244c-0.333,0.263-0.715,0.567-0.869,0.938c-0.532,1.284-1.121,2.574-1.415,3.921
	c-0.468,2.141-0.866,4.319-1.021,6.502c-0.206,2.922-0.084,5.858,0.514,8.748c0.126,0.608,0.358,1.155,1.04,1.415
	c1.531,0.583,2.422,1.928,3.464,3.07c0.651,0.715,1.108,1.61,1.778,2.303c0.702,0.724,1.516,1.357,2.349,1.931
	c1.172,0.807,2.394,1.561,3.925,1.396c1.159-0.126,2.24-0.447,2.996-1.398c0.144-0.181,0.181-0.617,0.062-0.798
	c-0.239-0.36-0.577-0.703-0.953-0.912c-1-0.559-2.04-1.048-3.07-1.553c-0.253-0.123-0.539-0.156-0.492-0.567
	c0.041-0.357,0.2-0.51,0.53-0.631c0.273-0.101,0.563-0.301,0.72-0.539c0.371-0.564,0.549-0.634,1.246-0.553
	c0.521,0.061,1.125,0.444,1.587-0.25c-1.647-0.786-3.28-1.548-5.178-1.222c-0.227,0.039-0.457,0.11-0.681,0.097
	c-0.229-0.013-0.644-0.105-0.646-0.173c-0.01-0.313-0.002-0.714,0.181-0.926c0.436-0.505,0.959-0.938,1.477-1.363
	c0.188-0.154,0.459-0.206,0.713-0.313c0.078,0.306,0.139,0.475,0.161,0.648c0.022,0.177,0.001,0.359,0.01,0.538
	c0.023,0.493,0.329,0.813,0.778,0.846c0.87,0.066,1.741,0.131,2.609,0.221c0.668,0.069,1.334,0.186,1.897,0.591
	c0.482,0.348,0.994,0.468,1.589,0.391c0.343-0.044,0.722-0.004,1.052,0.101c0.519,0.162,0.889,0.01,1.192-0.351
	c-0.625-0.647-1.321-0.648-2.06-0.214c-0.059,0.035-0.141,0.027-0.206,0.054c-0.413,0.169-0.683,0.015-0.864-0.365
	c-0.137-0.286-0.246-0.595-0.429-0.848c-0.553-0.766-1.157-1.494-1.698-2.268C71.922,71.635,71.847,71.268,71.699,70.895z
	 M89.613,67.951c-0.079-0.015-0.157-0.03-0.236-0.045c-0.601,0.725-1.212,1.44-1.798,2.178c-0.172,0.217-0.369,0.484-0.387,0.741
	c-0.047,0.676-0.08,1.369,0.021,2.034c0.458,3.011,0.936,6.019,1.465,9.018c0.338,1.913,0.776,3.809,1.177,5.71
	c0.085,0.402,0.273,0.717,0.746,0.77c0.297,0.032,0.593,0.173,0.882,0.155c0.28-0.018,0.723,0.056,0.734-0.416
	c0.021-0.845,0.011-1.69-0.021-2.535c-0.044-1.143-0.128-2.283-0.183-3.426c-0.038-0.804-0.053-1.609-0.085-2.414
	c-0.085-2.101-0.18-4.201-0.253-6.302c-0.008-0.224,0.097-0.451,0.15-0.677c0.052,0.003,0.104,0.007,0.157,0.01
	c0.046,0.199,0.11,0.396,0.137,0.598c0.12,0.889,0.231,1.778,0.341,2.668c0.081,0.649,0.293,0.899,0.905,0.975
	c0.024-0.167,0.04-0.34,0.077-0.507c0.262-1.187,0.425-2.408,0.826-3.547c0.306-0.867,0.493-1.632,0.009-2.46
	c-0.07-0.12-0.107-0.269-0.125-0.409c-0.184-1.44-0.366-2.882-0.538-4.324c-0.047-0.398-0.392-0.716-0.77-0.599
	c-0.561,0.174-1.114,0.386-1.649,0.628c-0.68,0.308-0.924,0.883-0.927,1.611c-0.006,1.851-0.04,3.7-0.059,5.551
	c-0.018,1.727-0.023,3.453-0.051,5.179c-0.006,0.37,0.03,0.786-0.544,1.108C89.613,75.39,89.613,71.67,89.613,67.951z
	 M48.616,68.356c-0.022,0.008-0.044,0.017-0.066,0.024c-0.173,1.138-0.273,2.293-0.534,3.411c-0.581,2.487-1.06,5-1.981,7.402
	c-0.673,1.755-1.407,3.479-2.411,5.061c-0.872,1.375-1.843,2.695-2.858,3.969c-1.226,1.539-2.733,2.79-4.399,3.838
	c-1.076,0.677-2.205,1.277-3.238,2.012c-0.619,0.439-1.149,1.037-1.497,1.912c0.387-0.022,0.707,0.034,0.961-0.068
	c1.404-0.568,2.828-1.106,4.174-1.791c1.225-0.623,2.399-1.365,3.525-2.156c1.334-0.937,2.651-1.916,3.871-2.994
	c1.688-1.492,2.562-3.513,3.124-5.635c0.442-1.671,0.732-3.389,0.99-5.102c0.22-1.46,0.352-2.938,0.422-4.413
	c0.07-1.472,0.021-2.95,0.011-4.425C48.708,69.053,48.649,68.705,48.616,68.356z M93.498,100.265
	c-0.663-0.571-1.392-1.083-1.974-1.728c-0.997-1.104-1.948-2.258-2.828-3.458c-0.596-0.813-1.291-1.616-1.252-2.749
	c0.014-0.403-0.096-0.81-0.148-1.215c-0.156-1.215-0.317-2.428-0.465-3.644c-0.16-1.303-0.295-2.609-0.463-3.912
	c-0.154-1.195-0.339-2.387-0.509-3.579c-0.221-1.546-0.437-3.093-0.663-4.638c-0.054-0.365-0.287-0.441-0.5-0.156
	c-0.294,0.393-0.585,0.813-0.752,1.267c-0.315,0.858-0.539,1.751-0.805,2.629c-0.271,0.894-0.528,1.768-0.219,2.729
	c0.404,1.259,0.718,2.547,1.069,3.822c0.552,2.009,1.114,4.016,1.64,6.031c0.065,0.249-0.011,0.573-0.12,0.82
	c-0.166,0.379-0.231,0.663,0.137,0.98c0.39,0.337,0.702,0.763,1.066,1.131c1.61,1.626,3.217,3.255,4.846,4.861
	C92.088,99.981,92.643,100.533,93.498,100.265z M95.496,44.826c-0.069,0.034-0.118,0.053-0.164,0.079
	c-0.348,0.198-0.804,0.357-0.205,0.818c0.064,0.049,0,0.406-0.109,0.519c-0.608,0.629-1.068,1.309-1.247,2.2
	c-0.241,1.205-0.491,2.423-0.905,3.575c-0.488,1.358-1.089,2.687-1.774,3.958c-0.322,0.598-0.602,1.165-0.673,1.833
	c-0.021,0.196-0.021,0.396-0.063,0.587c-0.526,2.408-1.446,4.684-2.501,6.892c-1.062,2.223-2.261,4.381-3.439,6.546
	c-0.539,0.99-1.116,1.97-1.772,2.884c-1.082,1.509-2.182,3.014-3.389,4.421c-0.938,1.093-1.965,2.152-3.114,3.009
	c-0.9,0.672-1.806,1.344-2.716,2.008c-1.011,0.738-2.108,1.245-3.423,1.266c-1.265,0.02-2.359-0.442-3.462-0.935
	c-0.485-0.216-0.952-0.472-1.427-0.71c-0.032,0.067-0.063,0.135-0.095,0.202c1.261,0.584,2.511,1.195,3.79,1.737
	c0.462,0.196,1.009,0.356,1.493,0.306c1.169-0.124,2.276-0.555,3.225-1.245c1.089-0.792,2.135-1.653,3.132-2.559
	c1.028-0.933,2.02-1.915,2.946-2.949c0.899-1.003,1.778-2.045,2.515-3.168c1.236-1.883,2.432-3.801,3.499-5.782
	c1.228-2.28,2.337-4.626,3.422-6.979c0.741-1.606,1.322-3.28,1.622-5.038c0.142-0.834,0.405-1.605,0.937-2.3
	c0.408-0.534,0.787-1.133,1.003-1.763c0.583-1.704,1.114-3.43,1.582-5.169c0.259-0.964,0.637-1.807,1.386-2.482
	C96.198,46.017,96.169,45.477,95.496,44.826z M82.271,35.557c0.006-0.081,0.011-0.161,0.017-0.242
	c-0.815-0.185-1.623-0.457-2.448-0.538c-2.387-0.232-4.613,0.421-6.729,1.457c-1.556,0.762-3.08,1.589-4.597,2.426
	c-0.436,0.24-0.795,0.617-1.294,1.014c1.709,0.054,2.96-0.611,4.097-1.562c0.636-0.532,1.283-1.031,2.299-0.995
	c-0.27,0.154-0.438,0.25-0.606,0.347c0.321-0.04,0.607-0.179,0.905-0.21c0.938-0.097,1.881-0.178,2.823-0.219
	c1.377-0.059,2.758-0.037,4.131-0.129c0.844-0.057,1.667-0.281,2.263-1.193c-0.877,0.41-1.638,0.799-2.5,0.62
	c-0.015-0.049-0.029-0.098-0.043-0.147C81.149,35.976,81.71,35.767,82.271,35.557z M80.724,59.08c0.875-1.433,2.03-2.403,3.78-2.46
	c1.604-0.053,3.098,0.256,4.447,1.223c-0.224-0.468-0.476-0.874-0.769-1.248c-0.347-0.443-0.667-0.865-0.133-1.384
	c0.014-0.014-0.005-0.063-0.009-0.096C84.802,54.818,81.431,56.799,80.724,59.08z M80.423,60.92
	c-0.02,0.015-0.039,0.029-0.059,0.044c-0.249,2.103-0.489,4.206-0.753,6.307c-0.08,0.635-0.259,1.259-0.331,1.895
	c-0.051,0.45,0.289,0.769,0.746,0.793c0.481,0.025,0.616-0.279,0.636-0.686c0.008-0.18,0.025-0.359,0.022-0.538
	c-0.044-2.41-0.088-4.82-0.142-7.23C80.539,61.309,80.465,61.114,80.423,60.92z M76.897,38.769c-1.353-0.402-2.664-0.554-3.667,0.46
	C74.39,39.083,75.644,38.926,76.897,38.769z M72.505,37.912c-1.451,1.052-2.628,2.555-4.632,2.616
	C70,40.686,71.268,39.313,72.505,37.912z M84.401,60.507c1.138,0.565,2.976-0.434,3.009-1.387
	C86.61,60.087,85.64,60.461,84.401,60.507z M85.258,61.7c0.758,0.311,1.924-0.173,2.194-0.813
	C86.768,61.141,86.046,61.408,85.258,61.7z"/>
<path fill-rule="evenodd" clip-rule="evenodd" d="M14.056,98.14c0.745-0.623,1.472-1.271,2.24-1.864
	c1.304-1.008,2.629-1.988,3.958-2.964c0.484-0.355,1.042-0.618,1.495-1.006c0.365-0.313,0.66-0.727,0.922-1.137
	c1.302-2.037,2.563-4.102,3.88-6.129c0.733-1.129,1.59-2.179,2.32-3.31c0.966-1.498,1.895-3.022,2.781-4.568
	c0.867-1.515,1.709-3.048,2.474-4.615c0.832-1.706,1.516-3.483,2.348-5.189c1.05-2.154,1.754-4.429,2.402-6.718
	c0.349-1.233,0.491-2.523,0.738-3.786c0.343-1.757,0.639-3.526,1.06-5.265c0.844-3.488,1.655-6.989,2.677-10.426
	c0.895-3.007,1.985-5.963,3.13-8.887c1.121-2.863,2.499-5.623,4.194-8.195c1.208-1.833,2.762-3.378,4.438-4.798
	c2.254-1.91,4.709-3.51,7.43-4.656c2.18-0.918,4.435-1.602,6.802-1.903c1.901-0.242,3.794-0.3,5.696-0.108
	c3.96,0.399,7.616,1.685,11.013,3.76c2.45,1.497,4.638,3.308,6.551,5.431c2.229,2.475,4.074,5.205,5.193,8.386
	c0.525,1.495,1.219,2.931,1.741,4.427c0.838,2.403,1.39,4.884,1.643,7.417c0.222,2.22,0.238,4.445,0.056,6.675
	c-0.135,1.647-0.16,3.302-0.254,4.953c-0.118,2.062-0.262,4.123-0.385,6.185c-0.093,1.561-0.161,3.123-0.259,4.684
	c-0.169,2.707-0.366,5.412-0.527,8.12c-0.131,2.188-0.222,4.381-0.34,6.57c-0.12,2.243-0.296,4.483-0.365,6.728
	c-0.072,2.368-0.096,4.741-0.042,7.109c0.025,1.069,0.532,2.041,1.202,2.878c1.443,1.802,2.96,3.546,4.363,5.379
	c0.856,1.119,1.211,2.468,1.201,3.885c-0.003,0.402,0.089,0.646,0.426,0.933c1.454,1.239,2.849,2.548,4.271,3.825
	c0.139,0.125,0.313,0.212,0.417,0.374c-0.958,0.061-1.72-0.168-2.404-0.842c-0.964-0.951-2.033-1.8-3.094-2.646
	c-0.452-0.36-0.708-0.775-0.665-1.326c0.15-1.918-0.728-3.369-1.924-4.772c-1.432-1.682-2.758-3.46-4.047-5.256
	c-0.624-0.868-0.846-1.958-0.851-3.015c-0.01-2.372,0.049-4.746,0.14-7.117c0.088-2.298,0.246-4.595,0.382-6.891
	c0.114-1.938,0.245-3.875,0.36-5.813c0.101-1.687,0.188-3.374,0.286-5.062c0.123-2.135,0.25-4.27,0.375-6.404
	c0.126-2.152,0.249-4.306,0.381-6.458s0.291-4.302,0.412-6.455c0.118-2.101,0.2-4.206-0.18-6.291
	c-0.349-1.916-0.616-3.86-1.146-5.727c-0.489-1.723-1.281-3.36-1.939-5.035c-0.372-0.945-0.71-1.906-1.122-2.833
	c-0.738-1.663-1.781-3.139-2.912-4.554c-1.304-1.631-2.775-3.097-4.394-4.414c-1.572-1.279-3.266-2.376-5.076-3.289
	c-1.956-0.986-4.01-1.691-6.156-2.132c-2.952-0.606-5.897-0.649-8.876-0.113c-3.938,0.709-7.461,2.311-10.7,4.618
	c-2.305,1.642-4.391,3.512-6.026,5.829c-0.77,1.091-1.459,2.254-2.057,3.448c-0.943,1.881-1.901,3.771-2.632,5.739
	c-1.18,3.174-2.277,6.387-3.228,9.636c-0.881,3.01-1.577,6.078-2.255,9.142c-0.61,2.757-1.018,5.56-1.645,8.312
	c-0.363,1.595-0.942,3.145-1.497,4.688c-0.563,1.566-1.155,3.129-1.844,4.644c-0.93,2.045-1.91,4.071-2.972,6.05
	c-0.973,1.813-2.038,3.583-3.145,5.319c-1.34,2.103-2.789,4.136-4.151,6.225c-1.129,1.729-2.177,3.514-3.321,5.232
	c-0.265,0.398-0.773,0.639-1.181,0.937c-1.514,1.104-3.045,2.188-4.545,3.312c-0.636,0.476-1.296,0.962-1.79,1.57
	c-0.427,0.526-0.93,0.455-1.447,0.521C14.056,98.788,14.056,98.464,14.056,98.14z"/>
<path fill-rule="evenodd" clip-rule="evenodd" d="M33.606,79.896c0.499-1.144,0.98-2.252,1.466-3.358
	c0.589-1.341,1.152-2.694,1.782-4.016c0.567-1.189,1.234-2.331,1.81-3.518c0.703-1.446,1.43-2.888,2.018-4.382
	c1.292-3.287,2.494-6.611,3.752-9.913c1.195-3.139,2.398-6.273,3.627-9.399c1.32-3.358,2.614-6.728,4.031-10.045
	c1.286-3.011,3.37-5.408,6.019-7.348c2.553-1.872,5.341-3.222,8.365-4.12c4.243-1.261,8.594-1.625,12.987-1.439
	c3.607,0.152,7.002,1.166,10.19,2.881c1.979,1.065,3.844,2.29,5.499,3.807c0.751,0.688,1.169,1.597,1.24,2.677
	c-0.112-0.092-0.247-0.167-0.332-0.279c-1.29-1.701-2.959-2.947-4.777-4.019c-2.821-1.664-5.85-2.796-9.016-3.614
	c-2.23-0.576-4.487-0.577-6.742-0.428c-1.891,0.125-3.784,0.368-5.65,0.708c-2.901,0.527-5.651,1.548-8.2,3.037
	c-2.609,1.523-4.945,3.4-6.584,5.975c-0.935,1.469-1.716,3.046-2.461,4.625c-1.029,2.179-1.985,4.394-2.924,6.613
	c-0.974,2.303-1.915,4.621-2.825,6.95c-0.787,2.011-1.545,4.036-2.249,6.077c-0.395,1.145-0.652,2.336-0.976,3.505
	c-0.886,3.204-1.851,6.39-3.187,9.434c-0.879,2.003-1.921,3.948-3.045,5.826c-0.681,1.138-1.624,2.128-2.519,3.121
	C34.601,79.589,34.177,79.941,33.606,79.896z"/>
<path fill-rule="evenodd" clip-rule="evenodd" d="M66.459,59.506c0.246-0.087,0.491-0.175,0.798-0.283
	c-0.596-0.679-1.184-1.348-1.772-2.018c0.047-0.048,0.095-0.097,0.143-0.145c0.617-0.002,0.959,0.531,1.43,0.809
	c0.305,0.18,0.552,0.458,0.853,0.646c0.14,0.089,0.347,0.07,0.562,0.023c-1.163-1.593-2.678-2.721-4.447-3.657
	c0.188-0.053,0.374-0.141,0.564-0.154c1.656-0.118,3.299-0.02,4.923,0.331c0.275,0.06,0.528,0.221,0.803,0.29
	c0.358,0.09,0.727,0.136,1.218,0.224c-0.314-0.933-0.971-1.159-1.601-1.36c-1.254-0.4-2.544-0.338-3.837-0.209
	c-0.678,0.067-1.363,0.093-2.044,0.095c-0.695,0.001-1.273-0.333-1.794-0.762c-0.228-0.188-0.236-0.353,0.053-0.542
	c0.155-0.102,0.317-0.358,0.299-0.525c-0.042-0.396,0.126-0.458,0.454-0.464c0.987-0.017,1.978,0,2.958-0.092
	c1.335-0.126,2.657-0.411,3.992-0.503c2.617-0.182,4.83,0.639,6.392,2.858c0.453,0.644,0.349,1.395,0.251,2.088
	c-0.265,1.857-1.182,3.271-2.973,4.033c-0.47,0.2-0.884,0.544-1.362,0.712c-0.87,0.305-1.685,0.027-2.359-0.522
	c-0.5-0.408-1.05-0.497-1.639-0.557c-0.618-0.062-1.235-0.127-1.853-0.191C66.466,59.589,66.463,59.548,66.459,59.506z
	 M72.095,53.343c0.901,0.721,1.902,1.452,2.814,2.282c0.396,0.36,0.626,0.313,0.988,0.018
	C74.866,54.351,73.513,53.694,72.095,53.343z"/>
</svg>
