<?xml version="1.0" encoding="utf-8"?>
<!-- Generator: Adobe Illustrator 16.0.3, SVG Export Plug-In . SVG Version: 6.00 Build 0)  -->
<!DOCTYPE svg PUBLIC "-//W3C//DTD SVG 1.1//EN" "http://www.w3.org/Graphics/SVG/1.1/DTD/svg11.dtd">
<svg version="1.1" id="Layer_1" xmlns="http://www.w3.org/2000/svg" xmlns:xlink="http://www.w3.org/1999/xlink" x="0px" y="0px"
	 width="512px" height="512px" viewBox="0 0 512 512" enable-background="new 0 0 512 512" xml:space="preserve">
<g id="Academy_Symbol">
	<g>
		<path d="M256.001,274.395l-104.408-32.136v53.671c0,24.813,46.761,44.932,104.44,44.932c57.676,0,104.445-20.118,104.445-44.932
			c0-0.195-0.065-0.391-0.069-0.582v-53.089L256.001,274.395z"/>
		<path d="M81,205.312l37.301,13.343l3.177-6.808l13.704-1.163l1.954,2.031l-11.759,2.789l-1.713,5.072
			c-0.002,0-26.559,55.521-22.659,82.682c0,0,16.576,9.891,33.146,0l4.406-74.26v-6.181l24.663-5.564l-1.742,4.291l-18.389,5.979
			l8.506,3.039l104.408,32.136l104.408-32.136L431,205.314l-174.999-34.175L81,205.312z"/>
	</g>
</g>
</svg>
