<?xml version="1.0" encoding="utf-8"?>
<!-- Generator: Adobe Illustrator 16.0.3, SVG Export Plug-In . SVG Version: 6.00 Build 0)  -->
<!DOCTYPE svg PUBLIC "-//W3C//DTD SVG 1.1//EN" "http://www.w3.org/Graphics/SVG/1.1/DTD/svg11.dtd">
<svg version="1.1" id="Layer_1" xmlns="http://www.w3.org/2000/svg" xmlns:xlink="http://www.w3.org/1999/xlink" x="0px" y="0px"
	 width="512px" height="512px" viewBox="0 0 512 512" enable-background="new 0 0 512 512" xml:space="preserve">
<g id="Citrix_Symbol">
	<path d="M279.659,256c0,13.064-10.593,23.659-23.659,23.659c-13.066,0-23.659-10.595-23.659-23.659
		c0-13.066,10.592-23.659,23.659-23.659C269.066,232.341,279.659,242.934,279.659,256z M431,256c0-5.186-4.203-9.389-9.389-9.389
		c-5.187,0-9.39,4.204-9.39,9.389c0,86.141-70.082,156.223-156.223,156.223c-86.142,0-156.222-70.082-156.222-156.223
		c0-86.142,70.081-156.222,156.222-156.222c5.187,0,9.39-4.204,9.39-9.389S261.186,81,256,81c-96.495,0-175,78.505-175,175
		s78.505,175,175,175S431,352.495,431,256z M348.194,256c0-5.186-4.203-9.389-9.39-9.389c-5.186,0-9.389,4.204-9.389,9.389
		c0,40.482-32.936,73.417-73.417,73.417c-40.482,0-73.417-32.935-73.417-73.417c0-40.482,32.935-73.417,73.417-73.417
		c5.187,0,9.39-4.204,9.39-9.389s-4.203-9.389-9.39-9.389c-50.836,0-92.195,41.358-92.195,92.195s41.358,92.193,92.195,92.193
		C306.837,348.193,348.194,306.837,348.194,256z"/>
</g>
</svg>
