<?xml version="1.0" encoding="utf-8"?>
<!-- Generator: Adobe Illustrator 16.0.3, SVG Export Plug-In . SVG Version: 6.00 Build 0)  -->
<!DOCTYPE svg PUBLIC "-//W3C//DTD SVG 1.1//EN" "http://www.w3.org/Graphics/SVG/1.1/DTD/svg11.dtd">
<svg version="1.1" xmlns="http://www.w3.org/2000/svg" xmlns:xlink="http://www.w3.org/1999/xlink" x="0px" y="0px" width="512px"
	 height="512px" viewBox="0 0 512 512" enable-background="new 0 0 512 512" xml:space="preserve">
<g id="Icon_Background" display="none">
	<path display="inline" fill="#CE872A" d="M512,462c0,27.615-22.386,50-50,50H50c-27.614,0-50-22.385-50-50V50
		C0,22.386,22.386,0,50,0h412c27.614,0,50,22.386,50,50V462z"/>
</g>
<g id="Icon_Overlay" display="none">
	<path display="inline" fill="#C27F26" d="M14.645,497.355C23.693,506.403,36.193,512,50,512h412c27.614,0,50-22.385,50-50V50
		c0-13.807-5.597-26.307-14.645-35.355L14.645,497.355z"/>
</g>
<g id="Icon_Border" display="none">
	<g display="inline" opacity="0.5">
		<path fill="#DD9443" d="M462,14.173c19.755,0,35.827,16.072,35.827,35.827v412c0,19.755-16.072,35.827-35.827,35.827H50
			c-19.755,0-35.827-16.072-35.827-35.827V50c0-19.755,16.072-35.827,35.827-35.827H462 M462,0H50C22.386,0,0,22.386,0,50v412
			c0,27.615,22.386,50,50,50h412c27.614,0,50-22.385,50-50V50C512,22.386,489.614,0,462,0L462,0z"/>
	</g>
</g>
<g id="Wiki_Symbol" display="none">
	<path display="inline" fill="#FFFFFF" d="M425.675,152.828c-5.095-2.942-11.606-1.196-14.547,3.897l-99.665,172.618l-43.164-74.766
		l50.349-87.204c2.94-5.093,1.196-11.606-3.897-14.546c-5.094-2.942-11.605-1.196-14.546,3.897l-44.201,76.555l-44.197-76.555
		c-2.94-5.094-9.453-6.841-14.545-3.897c-5.093,2.94-6.839,9.453-3.898,14.545l50.345,87.203l-43.168,74.767l-99.667-172.618
		c-2.941-5.093-9.455-6.838-14.546-3.897c-5.093,2.94-6.838,9.453-3.897,14.546l118.11,204.563l55.464-96.063l55.46,96.063
		l118.108-204.563C432.512,162.281,430.768,155.768,425.675,152.828z"/>
</g>
<g id="AD_Manager_Symbol" display="none">
	<path display="inline" fill="#FFFFFF" d="M349.844,240.384c-34.396-66.738-93.451-92.957-147.86-89.053
		C146.629,155.317,97.438,189.837,81,254.11c11.425-77.917,63.985-115.847,119.34-120.49
		C254.75,129.017,328.063,161.522,349.844,240.384L349.844,240.384z M139.437,132.509c73.314-41.629,140.627-15.821,179.668,19.767
		c36.862,33.616,77.588,101.176,52.725,181.271c36.287-76.766,1.356-159.655-38.342-195.818
		C291.446,99.387,219.655,74.894,139.437,132.509L139.437,132.509z M319.845,424.365c82.889-43.971,97.683-132.857,87.697-191.707
		c-9-52.889-45.165-120.367-133.149-145.024c110.587,14.876,150.408,98.587,155.791,156.284
		C435.28,299.028,418.637,389.229,319.845,424.365L319.845,424.365z"/>
	<path display="inline" fill="#FFFFFF" d="M223.602,359.481L161.558,252.02c-0.019-0.032-0.041-0.061-0.06-0.093
		c-0.105-0.179-0.222-0.352-0.339-0.524c-0.069-0.102-0.135-0.206-0.208-0.305c-0.113-0.154-0.237-0.302-0.36-0.45
		c-0.089-0.107-0.176-0.219-0.27-0.322c-0.107-0.118-0.223-0.229-0.337-0.344c-0.122-0.122-0.242-0.246-0.369-0.361
		c-0.094-0.085-0.195-0.163-0.292-0.245c-0.159-0.133-0.317-0.265-0.482-0.386c-0.087-0.063-0.179-0.122-0.269-0.184
		c-0.185-0.126-0.371-0.25-0.563-0.363c-0.029-0.017-0.054-0.037-0.083-0.054c-0.076-0.044-0.154-0.076-0.23-0.118
		c-0.178-0.097-0.357-0.191-0.54-0.276c-0.141-0.066-0.284-0.124-0.426-0.183c-0.147-0.061-0.294-0.121-0.445-0.174
		c-0.174-0.063-0.348-0.116-0.524-0.168c-0.125-0.037-0.25-0.073-0.377-0.105c-0.191-0.048-0.382-0.088-0.574-0.125
		c-0.121-0.022-0.242-0.045-0.364-0.063c-0.191-0.028-0.381-0.051-0.572-0.068c-0.132-0.012-0.265-0.022-0.398-0.029
		c-0.177-0.009-0.352-0.013-0.528-0.012c-0.152,0-0.304,0.003-0.457,0.01c-0.157,0.008-0.313,0.021-0.469,0.035
		c-0.168,0.017-0.336,0.035-0.504,0.061c-0.145,0.021-0.288,0.047-0.431,0.075c-0.171,0.033-0.342,0.069-0.513,0.111
		c-0.146,0.036-0.291,0.078-0.435,0.121c-0.158,0.048-0.316,0.096-0.473,0.151c-0.165,0.059-0.327,0.124-0.489,0.191
		c-0.129,0.054-0.259,0.106-0.388,0.166c-0.194,0.09-0.383,0.19-0.571,0.293c-0.07,0.038-0.142,0.067-0.21,0.107
		c-0.027,0.016-0.05,0.034-0.077,0.05c-0.2,0.117-0.393,0.246-0.585,0.378c-0.083,0.057-0.168,0.11-0.248,0.169
		c-0.171,0.126-0.336,0.263-0.5,0.4c-0.092,0.077-0.188,0.151-0.276,0.231c-0.132,0.118-0.255,0.247-0.381,0.373
		c-0.11,0.11-0.223,0.219-0.327,0.333c-0.095,0.105-0.184,0.219-0.275,0.329c-0.122,0.146-0.244,0.292-0.356,0.444
		c-0.073,0.1-0.14,0.204-0.209,0.307c-0.117,0.172-0.233,0.345-0.338,0.523c-0.019,0.032-0.042,0.061-0.06,0.093L82.33,359.481
		c-2.739,4.745-1.114,10.813,3.632,13.553c1.563,0.902,3.268,1.331,4.951,1.331c3.429,0,6.764-1.779,8.602-4.962l16.608-28.767
		h73.686l16.608,28.767c1.838,3.183,5.172,4.962,8.602,4.962c1.683,0,3.389-0.429,4.951-1.331
		C224.715,370.295,226.341,364.227,223.602,359.481z M127.579,320.795l25.387-43.972l25.387,43.972H127.579z M277.832,247.111
		h-53.707c-5.479,0-9.921,4.442-9.921,9.921v74.835l14.307,24.78c2.082,3.606,2.635,7.808,1.557,11.83
		c-0.589,2.197-1.639,4.186-3.046,5.888h50.81c35.141,0,63.627-28.486,63.627-63.627
		C341.459,275.599,312.973,247.111,277.832,247.111z M277.832,354.522h-43.785v-87.568h43.785c24.143,0,43.784,19.642,43.784,43.784
		S301.975,354.522,277.832,354.522z"/>
</g>
<g id="My_Files_Symbol" display="none">
	<path display="inline" fill="#FFFFFF" d="M81,151v-5c0-13.807,11.193-25,25-25h125c13.807,0,25,11.193,25,25v5H81z M406,182.843
		H100.843V366c0,2.844,2.313,5.157,5.157,5.157h300c2.844,0,5.157-2.313,5.157-5.157V188
		C411.157,185.157,408.844,182.843,406,182.843 M406,163c13.807,0,25,11.192,25,25v178c0,13.807-11.193,25-25,25H106
		c-13.807,0-25-11.193-25-25V163H406L406,163z"/>
</g>
<g id="Fanous_Symbol" display="none">
	<g display="inline">
		<path fill="#FFFFFF" d="M296.891,160.353c2.797,6.087,5.129,12.675,6.588,19.66c47.697,7.814,81.432,27.063,81.432,49.572
			c0,29.44-57.712,53.307-128.91,53.307c-71.193,0-128.91-23.866-128.91-53.307c0-22.508,33.734-41.757,81.437-49.572
			c1.454-6.985,3.786-13.573,6.583-19.66C138.185,172.096,81,216.244,81,268.919c0,61.654,78.35,111.638,175,111.638
			c96.65,0,175-49.983,175-111.638C431,216.244,373.815,172.096,296.891,160.353L296.891,160.353z M296.891,160.353"/>
		<path fill="#FFFFFF" d="M256,259.675c0,0,33.09-28.702,33.09-64.113c0-35.417-33.09-64.118-33.09-64.118
			s-33.09,28.701-33.09,64.118C222.91,230.973,256,259.675,256,259.675L256,259.675z M256,259.675"/>
	</g>
</g>
<g id="Webmail_Symbol" display="none">
	<path display="inline" fill="#FFFFFF" d="M406,126H106c-13.807,0-25,11.193-25,25v210c0,13.808,11.193,25,25,25h300
		c13.807,0,25-11.192,25-25V151C431,137.193,419.807,126,406,126z M387.651,145.843L256,243.641l-131.651-97.798H387.651z
		 M406,366.157H106c-2.844,0-5.157-2.313-5.157-5.157V153.1l148.366,110.215c1.868,1.732,4.285,2.653,6.737,2.653
		c1.859,0,3.73-0.526,5.386-1.602c0.059-0.038,0.115-0.08,0.174-0.119c0.116-0.079,0.234-0.152,0.349-0.237l149.303-110.911V361
		C411.157,363.844,408.844,366.157,406,366.157z"/>
</g>
<g id="Maximo_Symbol" display="none">
	<path display="inline" fill="#FFFFFF" d="M274.186,100.843l4.039,24.146l2.011,12.023l11.634,3.64
		c7.068,2.212,13.885,5.042,20.261,8.412l10.837,5.728l9.973-7.126l19.921-14.236l25.707,25.71l-14.234,19.925l-7.12,9.968
		l5.721,10.832c3.395,6.429,6.221,13.237,8.399,20.234l3.63,11.657l12.041,2.015l24.153,4.041v36.337l-24.16,4.051l-12.036,2.019
		l-3.628,11.651c-2.196,7.054-5.022,13.873-8.4,20.27l-5.726,10.844l7.138,9.972l14.228,19.876l-25.717,25.71l-19.929-14.218
		l-9.955-7.104l-10.82,5.701c-6.532,3.443-13.339,6.271-20.23,8.407l-11.682,3.62l-2.016,12.063l-4.035,24.149h-36.375
		l-4.001-24.125l-2.006-12.097l-11.716-3.617c-6.892-2.127-13.702-4.953-20.242-8.399l-10.831-5.708l-9.959,7.119l-19.935,14.25
		l-25.688-25.696l14.235-19.96l7.089-9.939l-5.676-10.808c-3.456-6.58-6.285-13.394-8.408-20.252l-3.619-11.686l-12.066-2.016
		l-24.147-4.034v-36.378l24.154-4.042l12.045-2.016l3.627-11.662c2.166-6.965,4.993-13.774,8.401-20.24l5.708-10.828l-7.115-9.96
		l-14.231-19.921l25.705-25.71l19.927,14.235l9.973,7.124l10.834-5.727c6.383-3.374,13.203-6.202,20.271-8.405l11.67-3.637l2-12.06
		l4-24.118H274.186 M277.151,81h-42.303c-8.447,0-15.443,6.326-16.238,14.342l-4.374,26.372c-8.165,2.545-16.1,5.821-23.64,9.806
		l-21.466-15.334c-2.922-2.385-6.608-3.56-10.296-3.56c-4.261,0-8.526,1.57-11.614,4.658l-29.931,29.938
		c-5.994,5.955-6.442,15.391-1.331,21.6l15.556,21.776c-3.975,7.54-7.257,15.439-9.795,23.601l-26.008,4.353
		C87.326,219.398,81,226.405,81,234.849v42.296c0,8.472,6.326,15.454,14.342,16.244l26.379,4.406
		c2.51,8.104,5.821,16.039,9.795,23.607l-15.302,21.455c-5.366,6.53-4.889,15.955,1.076,21.942l29.902,29.912
		c3.106,3.078,7.197,4.794,11.578,4.794c3.781,0,7.455-1.32,10.05-3.467l21.776-15.566c7.568,3.988,15.475,7.285,23.64,9.806
		l4.313,26.009c0.854,8.387,7.851,14.713,16.298,14.713h42.303c8.443,0,15.447-6.326,16.237-14.353l4.406-26.369
		c8.133-2.521,16.039-5.817,23.607-9.806l21.462,15.313c2.918,2.391,6.604,3.566,10.292,3.566c4.271,0,8.545-1.578,11.622-4.675
		l29.905-29.898c5.987-5.966,6.467-15.391,1.355-21.639l-15.56-21.737c3.981-7.54,7.258-15.475,9.799-23.636l25.98-4.356
		c8.415-0.812,14.741-7.794,14.741-16.266v-42.296c0-8.443-6.326-15.451-14.346-16.238l-26.376-4.413
		c-2.541-8.161-5.817-16.061-9.799-23.601l15.334-21.466c5.337-6.548,4.857-15.983-1.102-21.91l-29.934-29.938
		c-3.078-3.078-7.173-4.772-11.55-4.772c-3.784,0-7.455,1.303-10.053,3.449l-21.773,15.56c-7.54-3.985-15.475-7.261-23.607-9.806
		l-4.35-26.001C292.599,87.326,285.595,81,277.151,81L277.151,81z M256,198.303c31.798,0,57.665,25.896,57.693,57.697
		c0,31.798-25.896,57.658-57.693,57.658c-31.794,0-57.668-25.86-57.668-57.658C198.332,224.199,224.206,198.303,256,198.303
		 M256,178.461c-42.74,0-77.511,34.784-77.511,77.539c0,42.734,34.771,77.501,77.511,77.501c42.754,0,77.536-34.767,77.536-77.501
		C333.498,213.237,298.715,178.461,256,178.461L256,178.461z"/>
</g>
<g id="Citrix_Symbol" display="none">
	<path display="inline" fill="#FFFFFF" d="M279.659,256c0,13.065-10.593,23.659-23.659,23.659S232.341,269.065,232.341,256
		c0-13.066,10.592-23.659,23.659-23.659S279.659,242.934,279.659,256z M431,256c0-5.186-4.203-9.389-9.389-9.389
		s-9.389,4.204-9.389,9.389c0,86.141-70.082,156.223-156.223,156.223c-86.142,0-156.222-70.082-156.222-156.223
		c0-86.142,70.081-156.222,156.222-156.222c5.186,0,9.389-4.204,9.389-9.389S261.186,81,256,81c-96.495,0-175,78.505-175,175
		s78.505,175,175,175S431,352.495,431,256z M348.194,256c0-5.186-4.203-9.389-9.389-9.389s-9.389,4.204-9.389,9.389
		c0,40.482-32.935,73.417-73.417,73.417c-40.482,0-73.417-32.935-73.417-73.417c0-40.482,32.935-73.417,73.417-73.417
		c5.186,0,9.389-4.204,9.389-9.389s-4.203-9.389-9.389-9.389c-50.836,0-92.195,41.358-92.195,92.195
		c0,50.837,41.358,92.194,92.195,92.194C306.837,348.194,348.194,306.837,348.194,256z"/>
</g>
<g id="ibill_Symbol" display="none">
	<g id="_152222920" display="inline">
		<g id="_152222248">
			<path fill="#FFFFFF" d="M110.465,156.118c15.216,15.127,36.516,36.316,50.973,50.71c-6.316,15.451-5.231,34.458,3.439,55.312
				c18.579,44.685,71.673,94.472,118.157,94.472c8.572,0,16.628-1.692,23.922-4.977c4.894,4.866,10.575,10.518,16.544,16.454
				c11.48,11.419,24.019,23.89,34.034,33.854c-7.918,6.126-15.044,9.22-23.495,9.22c-3.777,0-7.987-0.599-12.514-1.778
				c-38.433-10.017-88.16-42.771-133.02-87.618c-44.927-44.914-77.181-94.237-86.279-131.939
				C98.888,175.991,101.66,167.071,110.465,156.118 M109.866,127.549c-19.667,19.769-34.29,36.424-26.929,66.932
				c21.184,87.78,145.062,211.032,233.583,234.104c6.357,1.656,12.15,2.419,17.518,2.419c21.528,0,36.152-12.283,52.236-28.456
				c-14.7-14.636-62.134-61.804-76.83-76.427c-7.386,7.419-16.477,10.647-26.41,10.647c-54.095,0-133.066-95.816-96.315-132.765
				C172.009,189.337,124.61,142.186,109.866,127.549L109.866,127.549z"/>
		</g>
		<g id="_150519168">
			<path fill="#FFFFFF" d="M148.562,104.041l61.479,61.153l-10.967,11.009l-61.458-61.166L148.562,104.041 M148.533,80.996
				c-3.11,0-6.223,1.186-8.573,3.56l-21.869,21.973c-4.703,4.741-4.694,12.415,0.047,17.118l72.424,72.081
				c2.363,2.344,5.45,3.515,8.537,3.515c3.107,0,6.215-1.187,8.582-3.561l21.894-21.979c4.669-4.71,4.695-12.417-0.042-17.105
				l-72.467-72.083C154.722,82.168,151.628,80.995,148.533,80.996L148.533,80.996z"/>
		</g>
		<g id="_226148072">
			<path fill="#FFFFFF" d="M346.478,300.955l61.471,61.162L397.01,373.13l-61.485-61.17L346.478,300.955 M346.429,277.93
				c-3.112,0.001-6.22,1.184-8.567,3.554l-21.868,21.972c-4.688,4.74-4.69,12.431,0.043,17.106l72.49,72.118
				c2.331,2.325,5.417,3.493,8.51,3.493c3.112,0,6.23-1.184,8.59-3.561l21.848-21.997c4.712-4.7,4.706-12.376-0.042-17.104
				l-72.417-72.054C352.646,279.107,349.535,277.93,346.429,277.93L346.429,277.93z"/>
		</g>
	</g>
</g>
<g id="Academy_Symbol" display="none">
	<g display="inline">
		<path fill="#FFFFFF" d="M256.001,274.395l-104.408-32.136v53.671c0,24.813,46.761,44.932,104.44,44.932
			c57.676,0,104.445-20.119,104.445-44.932c0-0.195-0.065-0.391-0.069-0.582v-53.089L256.001,274.395z M256.001,274.395"/>
		<path fill="#FFFFFF" d="M81,205.312l37.301,13.343l3.177-6.808l13.704-1.163l1.954,2.031l-11.759,2.789l-1.713,5.072
			c-0.002,0-26.559,55.522-22.659,82.682c0,0,16.576,9.89,33.146,0l4.406-74.26v-6.181l24.663-5.564l-1.742,4.291l-18.389,5.979
			l8.506,3.039l104.408,32.136l104.408-32.136L431,205.314l-174.999-34.175L81,205.312z M81,205.312"/>
	</g>
</g>
<g id="IT-HSE" display="none">
	<g display="inline">
		<g>
			<path fill-rule="evenodd" clip-rule="evenodd" d="M75,193.986c0.488-1.022,1.058-2.014,1.453-3.07
				c2.169-5.823,8.947-10.652,15.398-10.537c7.212,0.128,14.429,0.053,21.642,0.003c1.207-0.006,1.712,0.41,2.265,1.51
				c1.96,3.899,4.136,7.693,6.225,11.528c0.519,0.951,0.971,1.945,1.551,2.862c0.828,1.308,1.625,1.345,2.425,0.012
				c1.785-2.97,3.477-6,5.183-9.017c1.171-2.073,2.286-4.179,3.471-6.243c0.165-0.286,0.583-0.522,0.921-0.59
				c0.496-0.1,1.025-0.034,1.542-0.034c31.26-0.003,62.525-0.046,93.791,0.047c5.108,0.012,9.309,2.188,12.652,6.313
				c2.455,3.033,3.54,6.47,3.642,10.074c0.115,3.865-0.923,7.588-3.468,10.829c-3.766,4.785-8.638,6.475-14.551,6.451
				c-22.332-0.09-44.661-0.038-66.991-0.038c-0.732,0-1.463,0-2.458,0c0,1.01,0,1.843,0,2.679c0,55.598,0.011,111.193-0.014,166.793
				c-0.003,5.91-1.72,11.205-6.768,14.766c-1.896,1.336-4.221,2.063-6.354,3.063c-0.598,0.28-1.207,0.538-1.81,0.809
				c-1.49,0-2.978,0-4.466,0c-0.429-0.242-0.832-0.6-1.291-0.709c-5.108-1.196-8.853-4.154-11.298-8.753
				c-0.736-1.383-1.291-2.865-2.03-4.533c-2.028,7.075-6.104,11.64-13.108,13.286c-0.519,0.125-0.987,0.467-1.478,0.709
				c-1.488,0-2.979,0-4.467,0c-0.994-0.326-1.99-0.646-2.983-0.979c-6.665-2.218-11.621-9.106-11.621-16.167
				c-0.003-27.822-0.001-55.638-0.001-83.454c0-0.516-0.03-1.031,0.003-1.547c0.065-1.007-0.354-1.43-1.392-1.467
				c-1.016-0.037-2.079-0.118-3.029-0.441c-5.899-2.026-10.068-5.798-11.805-11.963c-0.12-0.423-0.514-0.765-0.78-1.144
				C75,254.683,75,224.334,75,193.986z"/>
			<path fill-rule="evenodd" clip-rule="evenodd" d="M335.607,110.291c0.951,0,1.793,0,2.635,0c25.194,0,50.388-0.021,75.584,0.026
				c3.294,0.006,6.544,0.555,8.81,3.351c1.376,1.697,2.336,3.532,2.333,5.889c-0.037,62.181-0.056,124.362,0.031,186.545
				c0.003,3.978-3.891,9.023-8.778,8.998c-0.4-0.006-0.802,0-1.202,0c-69.17,0-138.341-0.043-207.511,0.081
				c-5.702,0.013-10.558-5.027-10.052-10.688c0.417-4.63,4.633-8.663,9.452-8.663c16.947-0.013,33.9-0.007,50.847-0.007
				c48.441,0,96.884,0,145.325,0c2.402,0,2.474-0.074,2.474-2.548c0-39.337,0.013-78.675-0.009-118.013
				c-0.007-8.526-0.171-17.054-0.184-25.583c-0.007-5.722,0.137-11.444,0.187-17.166c0.021-2.469-0.078-2.554-2.468-2.556
				c-27.772-0.001-55.542,0-83.314,0c-37.501,0-75.005-0.005-112.51,0.003c-5.749,0.001-9.191-4.114-9.72-8.731
				c-0.606-5.298,2.672-9.541,7.874-10.5c1.448-0.266,2.939-0.418,4.406-0.419c24.908-0.025,49.819-0.017,74.726-0.019
				c2.495-0.001,2.642-0.017,2.452-2.511c-0.417-5.462,4.325-10.007,9.66-9.976c9.735,0.059,19.47-0.033,29.202,0.031
				c5.872,0.039,9.791,4.153,9.753,10.03C335.604,108.546,335.607,109.227,335.607,110.291z"/>
			<path fill-rule="evenodd" clip-rule="evenodd" d="M89.943,139.769c-0.03-19.908,15.814-36.15,36.333-35.872
				c19.729,0.267,35.357,15.606,35.43,35.934c0.073,19.966-16.086,35.241-34.629,35.859
				C106.184,176.386,89.692,159.292,89.943,139.769z"/>
			<path fill-rule="evenodd" clip-rule="evenodd" d="M377.869,394.388c0.003,2.846-1.901,6.043-4.263,6.867
				c-3.046,1.063-5.926,0.932-8.374-1.529c-6.898-6.929-13.793-13.861-20.72-20.763c-6.04-6.019-12.143-11.972-18.184-17.987
				c-4.229-4.22-8.417-8.471-12.581-12.752c-2.464-2.529-2.364-2.505-4.807,0.093c-2.505,2.66-5.146,5.195-7.734,7.774
				c-6.6,6.587-13.199,13.175-19.806,19.75c-8.02,7.982-16.049,15.952-24.074,23.926c-2.291,2.277-5.009,2.575-7.921,1.591
				c-3.001-1.014-4.334-3.53-4.763-6.361c-0.286-1.895,0.417-3.871,1.855-5.322c5.301-5.338,10.658-10.62,15.965-15.952
				c4.139-4.158,8.219-8.378,12.361-12.535c4.266-4.281,8.585-8.508,12.863-12.777c4.12-4.102,8.234-8.209,12.33-12.335
				c2.085-2.107,4.086-4.295,6.189-6.376c2.84-2.803,8.138-2.424,11.158,0.634c16.142,16.313,32.303,32.607,48.467,48.904
				c3.29,3.318,6.631,6.591,9.905,9.931C377.136,390.594,377.984,392.312,377.869,394.388z"/>
		</g>
		<g>
			<path fill-rule="evenodd" clip-rule="evenodd" d="M280.159,230.036c-2.834-5.099-4.45-10.959-4.45-17.183
				c0-18.631,14.468-33.987,32.738-35.414l7.806-7.805l-7.632-7.63c-26.84,1.366-48.305,23.679-48.305,50.849
				c0,9.005,2.361,17.475,6.494,24.83l2.806-10.475L280.159,230.036z"/>
			<path fill-rule="evenodd" clip-rule="evenodd" d="M341.642,231.164c-6.229,10.3-17.54,17.208-30.413,17.208
				c-12.104,0-22.823-6.106-29.239-15.396l-10.698-2.865l-2.784,10.382c9.092,13.988,24.857,23.273,42.722,23.273
				c18.531,0,34.804-9.99,43.709-24.858l-10.468,2.803L341.642,231.164z"/>
			<path fill-rule="evenodd" clip-rule="evenodd" d="M311.896,177.337c19.259,0.361,34.854,16.173,34.854,35.516
				c0,5.462-1.246,10.646-3.468,15.278l2.862,10.68l10.399-2.788c3.577-6.957,5.6-14.837,5.6-23.17
				c0-27.816-22.503-50.536-50.229-50.906l7.688,7.687L311.896,177.337z"/>
			<g>
				<path fill-rule="evenodd" clip-rule="evenodd" d="M317.445,212.738c-0.068-3.322-2.765-6.019-6.087-6.087v6.087H317.445
					L317.445,212.738z M305.014,212.996c0.068,3.325,2.763,6.019,6.087,6.087v-6.087H305.014z"/>
				<path fill-rule="evenodd" clip-rule="evenodd" stroke="#000000" stroke-width="0.216" stroke-miterlimit="2.6131" d="
					M311.229,219.344c3.566,0,6.476-2.908,6.476-6.475c0-3.567-2.909-6.479-6.476-6.479c-3.567,0-6.476,2.912-6.476,6.479
					C304.753,216.436,307.661,219.344,311.229,219.344L311.229,219.344z M311.358,219.083v-6.087h6.087
					C317.377,216.321,314.681,219.015,311.358,219.083L311.358,219.083z M317.445,212.738h-6.087v-6.087
					C314.681,206.719,317.377,209.417,317.445,212.738L317.445,212.738z M311.101,206.651v6.087h-6.087
					C305.082,209.417,307.776,206.719,311.101,206.651L311.101,206.651z M305.014,212.996h6.087v6.087
					C307.776,219.015,305.082,216.321,305.014,212.996z"/>
				<polygon fill-rule="evenodd" clip-rule="evenodd" stroke="#000000" stroke-width="0.216" stroke-miterlimit="2.6131" points="
					311.229,180.746 325.14,204.836 297.317,204.836 				"/>
				<polygon fill-rule="evenodd" clip-rule="evenodd" stroke="#000000" stroke-width="0.216" stroke-miterlimit="2.6131" points="
					325.14,204.836 339.047,228.93 311.229,228.93 				"/>
				<polygon fill-rule="evenodd" clip-rule="evenodd" stroke="#000000" stroke-width="0.216" stroke-miterlimit="2.6131" points="
					297.317,204.836 311.229,228.93 283.409,228.93 				"/>
			</g>
		</g>
	</g>
</g>
<g id="IT-Induction" display="none">
	<g display="inline">
		<path fill-rule="evenodd" clip-rule="evenodd" d="M75,193.986c0.488-1.022,1.058-2.014,1.453-3.07
			c2.169-5.823,8.947-10.652,15.398-10.537c7.212,0.128,14.429,0.053,21.642,0.003c1.207-0.006,1.712,0.41,2.265,1.51
			c1.96,3.899,4.136,7.693,6.225,11.528c0.519,0.951,0.971,1.945,1.551,2.862c0.828,1.308,1.625,1.345,2.425,0.012
			c1.785-2.97,3.477-6,5.183-9.017c1.171-2.073,2.286-4.179,3.471-6.243c0.165-0.286,0.583-0.522,0.921-0.59
			c0.496-0.1,1.025-0.034,1.542-0.034c31.26-0.003,62.525-0.046,93.791,0.047c5.108,0.012,9.309,2.188,12.652,6.313
			c2.455,3.033,3.54,6.47,3.642,10.074c0.115,3.865-0.923,7.588-3.468,10.829c-3.766,4.785-8.638,6.475-14.551,6.451
			c-22.332-0.09-44.661-0.038-66.991-0.038c-0.732,0-1.463,0-2.458,0c0,1.01,0,1.843,0,2.679c0,55.598,0.011,111.193-0.014,166.793
			c-0.003,5.91-1.72,11.205-6.768,14.766c-1.896,1.336-4.221,2.063-6.354,3.063c-0.598,0.28-1.207,0.538-1.81,0.809
			c-1.49,0-2.978,0-4.466,0c-0.429-0.242-0.832-0.6-1.291-0.709c-5.108-1.196-8.853-4.154-11.298-8.753
			c-0.736-1.383-1.291-2.865-2.03-4.533c-2.028,7.075-6.104,11.64-13.108,13.286c-0.519,0.125-0.987,0.467-1.478,0.709
			c-1.488,0-2.979,0-4.467,0c-0.994-0.326-1.99-0.646-2.983-0.979c-6.665-2.218-11.621-9.106-11.621-16.167
			c-0.003-27.822-0.001-55.638-0.001-83.454c0-0.516-0.03-1.031,0.003-1.547c0.065-1.007-0.354-1.43-1.392-1.467
			c-1.016-0.037-2.079-0.118-3.029-0.441c-5.899-2.026-10.068-5.798-11.805-11.963c-0.12-0.423-0.514-0.765-0.78-1.144
			C75,254.683,75,224.334,75,193.986z"/>
		<path fill-rule="evenodd" clip-rule="evenodd" d="M335.607,110.291c0.951,0,1.793,0,2.635,0c25.194,0,50.388-0.021,75.584,0.026
			c3.294,0.006,6.544,0.555,8.81,3.351c1.376,1.697,2.336,3.532,2.333,5.889c-0.037,62.181-0.056,124.362,0.031,186.545
			c0.003,3.978-3.891,9.023-8.778,8.998c-0.4-0.006-0.802,0-1.202,0c-69.17,0-138.341-0.043-207.511,0.081
			c-5.702,0.013-10.558-5.027-10.052-10.688c0.417-4.63,4.633-8.663,9.452-8.663c16.947-0.013,33.9-0.007,50.847-0.007
			c48.441,0,96.884,0,145.325,0c2.402,0,2.474-0.074,2.474-2.548c0-39.337,0.013-78.675-0.009-118.013
			c-0.007-8.526-0.171-17.054-0.184-25.583c-0.007-5.722,0.137-11.444,0.187-17.166c0.021-2.469-0.078-2.554-2.468-2.556
			c-27.772-0.001-55.542,0-83.314,0c-37.501,0-75.005-0.005-112.51,0.003c-5.749,0.001-9.191-4.114-9.72-8.731
			c-0.606-5.298,2.672-9.541,7.874-10.5c1.448-0.266,2.939-0.418,4.406-0.419c24.908-0.025,49.819-0.017,74.726-0.019
			c2.495-0.001,2.642-0.017,2.452-2.511c-0.417-5.462,4.325-10.007,9.66-9.976c9.735,0.059,19.47-0.033,29.202,0.031
			c5.872,0.039,9.791,4.153,9.753,10.03C335.604,108.546,335.607,109.227,335.607,110.291z"/>
		<path fill-rule="evenodd" clip-rule="evenodd" d="M89.943,139.769c-0.03-19.908,15.814-36.15,36.333-35.872
			c19.729,0.267,35.357,15.606,35.43,35.934c0.073,19.966-16.086,35.241-34.629,35.859
			C106.184,176.386,89.692,159.292,89.943,139.769z"/>
		<path fill-rule="evenodd" clip-rule="evenodd" d="M377.869,394.388c0.003,2.846-1.901,6.043-4.263,6.867
			c-3.046,1.063-5.926,0.932-8.374-1.529c-6.898-6.929-13.793-13.861-20.72-20.763c-6.04-6.019-12.143-11.972-18.184-17.987
			c-4.229-4.22-8.417-8.471-12.581-12.752c-2.464-2.529-2.364-2.505-4.807,0.093c-2.505,2.66-5.146,5.195-7.734,7.774
			c-6.6,6.587-13.199,13.175-19.806,19.75c-8.02,7.982-16.049,15.952-24.074,23.926c-2.291,2.277-5.009,2.575-7.921,1.591
			c-3.001-1.014-4.334-3.53-4.763-6.361c-0.286-1.895,0.417-3.871,1.855-5.322c5.301-5.338,10.658-10.62,15.965-15.952
			c4.139-4.158,8.219-8.378,12.361-12.535c4.266-4.281,8.585-8.508,12.863-12.777c4.12-4.102,8.234-8.209,12.33-12.335
			c2.085-2.107,4.086-4.295,6.189-6.376c2.84-2.803,8.138-2.424,11.158,0.634c16.142,16.313,32.303,32.607,48.467,48.904
			c3.29,3.318,6.631,6.591,9.905,9.931C377.136,390.594,377.984,392.312,377.869,394.388z"/>
		<g>
			<path d="M309.563,223.697l-47.668-3.903l5.059,22.944c2.337,10.614,24.221,14.81,48.89,9.378
				c24.662-5.438,42.759-18.445,40.422-29.053c-0.019-0.087-0.065-0.159-0.084-0.242l-4.999-22.699L309.563,223.697z
				 M309.563,223.697"/>
			<path d="M228.237,210.644l17.205,2.191l0.715-3.207l5.751-1.79l1.022,0.684l-4.764,2.299l-0.258,2.331
				c0,0-6.118,26.244-1.896,37.489c0,0,8.014,2.663,14.169-3.123l-5.108-32.167l-0.581-2.644l10.021-4.701L264.172,210l-7.299,4.291
				l3.922,0.5l47.668,3.902l41.615-23.571l27.801-17.444l-81.161-12.301L228.237,210.644z M228.237,210.644"/>
		</g>
	</g>
</g>
<g id="IT-ISMS" display="none">
	<g display="inline">
		<path fill-rule="evenodd" clip-rule="evenodd" d="M75,193.986c0.488-1.022,1.058-2.014,1.453-3.07
			c2.169-5.823,8.947-10.652,15.398-10.537c7.212,0.128,14.429,0.053,21.642,0.003c1.207-0.006,1.712,0.41,2.265,1.51
			c1.96,3.899,4.136,7.693,6.225,11.528c0.519,0.951,0.971,1.945,1.551,2.862c0.828,1.308,1.625,1.345,2.425,0.012
			c1.785-2.97,3.477-6,5.183-9.017c1.171-2.073,2.286-4.179,3.471-6.243c0.165-0.286,0.583-0.522,0.921-0.59
			c0.496-0.1,1.025-0.034,1.542-0.034c31.26-0.003,62.525-0.046,93.791,0.047c5.108,0.012,9.309,2.188,12.652,6.313
			c2.455,3.033,3.54,6.47,3.642,10.074c0.115,3.865-0.923,7.588-3.468,10.829c-3.766,4.785-8.638,6.475-14.551,6.451
			c-22.332-0.09-44.661-0.038-66.991-0.038c-0.732,0-1.463,0-2.458,0c0,1.01,0,1.843,0,2.679c0,55.598,0.011,111.193-0.014,166.793
			c-0.003,5.91-1.72,11.205-6.768,14.766c-1.896,1.336-4.221,2.063-6.354,3.063c-0.598,0.28-1.207,0.538-1.81,0.809
			c-1.49,0-2.978,0-4.466,0c-0.429-0.242-0.832-0.6-1.291-0.709c-5.108-1.196-8.853-4.154-11.298-8.753
			c-0.736-1.383-1.291-2.865-2.03-4.533c-2.028,7.075-6.104,11.64-13.108,13.286c-0.519,0.125-0.987,0.467-1.478,0.709
			c-1.488,0-2.979,0-4.467,0c-0.994-0.326-1.99-0.646-2.983-0.979c-6.665-2.218-11.621-9.106-11.621-16.167
			c-0.003-27.822-0.001-55.638-0.001-83.454c0-0.516-0.03-1.031,0.003-1.547c0.065-1.007-0.354-1.43-1.392-1.467
			c-1.016-0.037-2.079-0.118-3.029-0.441c-5.899-2.026-10.068-5.798-11.805-11.963c-0.12-0.423-0.514-0.765-0.78-1.144
			C75,254.683,75,224.334,75,193.986z"/>
		<path fill-rule="evenodd" clip-rule="evenodd" d="M335.607,110.291c0.951,0,1.793,0,2.635,0c25.194,0,50.388-0.021,75.584,0.026
			c3.294,0.006,6.544,0.555,8.81,3.351c1.376,1.697,2.336,3.532,2.333,5.889c-0.037,62.181-0.056,124.362,0.031,186.545
			c0.003,3.978-3.891,9.023-8.778,8.998c-0.4-0.006-0.802,0-1.202,0c-69.17,0-138.341-0.043-207.511,0.081
			c-5.702,0.013-10.558-5.027-10.052-10.688c0.417-4.63,4.633-8.663,9.452-8.663c16.947-0.013,33.9-0.007,50.847-0.007
			c48.441,0,96.884,0,145.325,0c2.402,0,2.474-0.074,2.474-2.548c0-39.337,0.013-78.675-0.009-118.013
			c-0.007-8.526-0.171-17.054-0.184-25.583c-0.007-5.722,0.137-11.444,0.187-17.166c0.021-2.469-0.078-2.554-2.468-2.556
			c-27.772-0.001-55.542,0-83.314,0c-37.501,0-75.005-0.005-112.51,0.003c-5.749,0.001-9.191-4.114-9.72-8.731
			c-0.606-5.298,2.672-9.541,7.874-10.5c1.448-0.266,2.939-0.418,4.406-0.419c24.908-0.025,49.819-0.017,74.726-0.019
			c2.495-0.001,2.642-0.017,2.452-2.511c-0.417-5.462,4.325-10.007,9.66-9.976c9.735,0.059,19.47-0.033,29.202,0.031
			c5.872,0.039,9.791,4.153,9.753,10.03C335.604,108.546,335.607,109.227,335.607,110.291z"/>
		<path fill-rule="evenodd" clip-rule="evenodd" d="M89.943,139.769c-0.03-19.908,15.814-36.15,36.333-35.872
			c19.729,0.267,35.357,15.606,35.43,35.934c0.073,19.966-16.086,35.241-34.629,35.859
			C106.184,176.386,89.692,159.292,89.943,139.769z"/>
		<path fill-rule="evenodd" clip-rule="evenodd" d="M377.869,394.388c0.003,2.846-1.901,6.043-4.263,6.867
			c-3.046,1.063-5.926,0.932-8.374-1.529c-6.898-6.929-13.793-13.861-20.72-20.763c-6.04-6.019-12.143-11.972-18.184-17.987
			c-4.229-4.22-8.417-8.471-12.581-12.752c-2.464-2.529-2.364-2.505-4.807,0.093c-2.505,2.66-5.146,5.195-7.734,7.774
			c-6.6,6.587-13.199,13.175-19.806,19.75c-8.02,7.982-16.049,15.952-24.074,23.926c-2.291,2.277-5.009,2.575-7.921,1.591
			c-3.001-1.014-4.334-3.53-4.763-6.361c-0.286-1.895,0.417-3.871,1.855-5.322c5.301-5.338,10.658-10.62,15.965-15.952
			c4.139-4.158,8.219-8.378,12.361-12.535c4.266-4.281,8.585-8.508,12.863-12.777c4.12-4.102,8.234-8.209,12.33-12.335
			c2.085-2.107,4.086-4.295,6.189-6.376c2.84-2.803,8.138-2.424,11.158,0.634c16.142,16.313,32.303,32.607,48.467,48.904
			c3.29,3.318,6.631,6.591,9.905,9.931C377.136,390.594,377.984,392.312,377.869,394.388z"/>
		<g>
			<path d="M336.664,205.377v-19.091c0-14.032-11.416-25.455-25.454-25.455c-14.036,0-25.455,11.422-25.455,25.455v19.091
				c-7.028,0-12.728,5.699-12.728,12.728v31.818c0,7.029,5.699,12.727,12.728,12.727h50.909c7.028,0,12.728-5.698,12.728-12.727
				v-31.818C349.392,211.076,343.692,205.377,336.664,205.377L336.664,205.377z M314.392,236.22v10.521
				c0,1.758-1.423,3.182-3.182,3.182s-3.183-1.423-3.183-3.182V236.22c-1.867-1.106-3.182-3.058-3.182-5.388
				c0-3.518,2.85-6.364,6.364-6.364c3.514,0,6.363,2.846,6.363,6.364C317.573,233.162,316.259,235.113,314.392,236.22
				L314.392,236.22z M323.937,205.377h-25.454v-19.091c0-7.022,5.708-12.728,12.728-12.728c7.016,0,12.727,5.705,12.727,12.728
				V205.377z M323.937,205.377"/>
		</g>
	</g>
</g>
<g id="IT-Quality" display="none">
	<g display="inline">
		<path fill-rule="evenodd" clip-rule="evenodd" d="M75,193.986c0.488-1.022,1.058-2.014,1.453-3.07
			c2.169-5.823,8.947-10.652,15.398-10.537c7.212,0.128,14.429,0.053,21.642,0.003c1.207-0.006,1.712,0.41,2.265,1.51
			c1.96,3.899,4.136,7.693,6.225,11.528c0.519,0.951,0.971,1.945,1.551,2.862c0.828,1.308,1.625,1.345,2.425,0.012
			c1.785-2.97,3.477-6,5.183-9.017c1.171-2.073,2.286-4.179,3.471-6.243c0.165-0.286,0.583-0.522,0.921-0.59
			c0.496-0.1,1.025-0.034,1.542-0.034c31.26-0.003,62.525-0.046,93.791,0.047c5.108,0.012,9.309,2.188,12.652,6.313
			c2.455,3.033,3.54,6.47,3.642,10.074c0.115,3.865-0.923,7.588-3.468,10.829c-3.766,4.785-8.638,6.475-14.551,6.451
			c-22.332-0.09-44.661-0.038-66.991-0.038c-0.732,0-1.463,0-2.458,0c0,1.01,0,1.843,0,2.679c0,55.598,0.011,111.193-0.014,166.793
			c-0.003,5.91-1.72,11.205-6.768,14.766c-1.896,1.336-4.221,2.063-6.354,3.063c-0.598,0.28-1.207,0.538-1.81,0.809
			c-1.49,0-2.978,0-4.466,0c-0.429-0.242-0.832-0.6-1.291-0.709c-5.108-1.196-8.853-4.154-11.298-8.753
			c-0.736-1.383-1.291-2.865-2.03-4.533c-2.028,7.075-6.104,11.64-13.108,13.286c-0.519,0.125-0.987,0.467-1.478,0.709
			c-1.488,0-2.979,0-4.467,0c-0.994-0.326-1.99-0.646-2.983-0.979c-6.665-2.218-11.621-9.106-11.621-16.167
			c-0.003-27.822-0.001-55.638-0.001-83.454c0-0.516-0.03-1.031,0.003-1.547c0.065-1.007-0.354-1.43-1.392-1.467
			c-1.016-0.037-2.079-0.118-3.029-0.441c-5.899-2.026-10.068-5.798-11.805-11.963c-0.12-0.423-0.514-0.765-0.78-1.144
			C75,254.683,75,224.334,75,193.986z"/>
		<path fill-rule="evenodd" clip-rule="evenodd" d="M335.607,110.291c0.951,0,1.793,0,2.635,0c25.194,0,50.388-0.021,75.584,0.026
			c3.294,0.006,6.544,0.555,8.81,3.351c1.376,1.697,2.336,3.532,2.333,5.889c-0.037,62.181-0.056,124.362,0.031,186.545
			c0.003,3.978-3.891,9.023-8.778,8.998c-0.4-0.006-0.802,0-1.202,0c-69.17,0-138.341-0.043-207.511,0.081
			c-5.702,0.013-10.558-5.027-10.052-10.688c0.417-4.63,4.633-8.663,9.452-8.663c16.947-0.013,33.9-0.007,50.847-0.007
			c48.441,0,96.884,0,145.325,0c2.402,0,2.474-0.074,2.474-2.548c0-39.337,0.013-78.675-0.009-118.013
			c-0.007-8.526-0.171-17.054-0.184-25.583c-0.007-5.722,0.137-11.444,0.187-17.166c0.021-2.469-0.078-2.554-2.468-2.556
			c-27.772-0.001-55.542,0-83.314,0c-37.501,0-75.005-0.005-112.51,0.003c-5.749,0.001-9.191-4.114-9.72-8.731
			c-0.606-5.298,2.672-9.541,7.874-10.5c1.448-0.266,2.939-0.418,4.406-0.419c24.908-0.025,49.819-0.017,74.726-0.019
			c2.495-0.001,2.642-0.017,2.452-2.511c-0.417-5.462,4.325-10.007,9.66-9.976c9.735,0.059,19.47-0.033,29.202,0.031
			c5.872,0.039,9.791,4.153,9.753,10.03C335.604,108.546,335.607,109.227,335.607,110.291z"/>
		<path fill-rule="evenodd" clip-rule="evenodd" d="M89.943,139.769c-0.03-19.908,15.814-36.15,36.333-35.872
			c19.729,0.267,35.357,15.606,35.43,35.934c0.073,19.966-16.086,35.241-34.629,35.859
			C106.184,176.386,89.692,159.292,89.943,139.769z"/>
		<path fill-rule="evenodd" clip-rule="evenodd" d="M377.869,394.388c0.003,2.846-1.901,6.043-4.263,6.867
			c-3.046,1.063-5.926,0.932-8.374-1.529c-6.898-6.929-13.793-13.861-20.72-20.763c-6.04-6.019-12.143-11.972-18.184-17.987
			c-4.229-4.22-8.417-8.471-12.581-12.752c-2.464-2.529-2.364-2.505-4.807,0.093c-2.505,2.66-5.146,5.195-7.734,7.774
			c-6.6,6.587-13.199,13.175-19.806,19.75c-8.02,7.982-16.049,15.952-24.074,23.926c-2.291,2.277-5.009,2.575-7.921,1.591
			c-3.001-1.014-4.334-3.53-4.763-6.361c-0.286-1.895,0.417-3.871,1.855-5.322c5.301-5.338,10.658-10.62,15.965-15.952
			c4.139-4.158,8.219-8.378,12.361-12.535c4.266-4.281,8.585-8.508,12.863-12.777c4.12-4.102,8.234-8.209,12.33-12.335
			c2.085-2.107,4.086-4.295,6.189-6.376c2.84-2.803,8.138-2.424,11.158,0.634c16.142,16.313,32.303,32.607,48.467,48.904
			c3.29,3.318,6.631,6.591,9.905,9.931C377.136,390.594,377.984,392.312,377.869,394.388z"/>
		<g>
			<path d="M360.621,170.849c-2.008-2.007-5.255-2.007-7.256,0l-46.009,45.994l-21.194-21.186c-1.995-1.998-5.251-1.998-7.252,0
				c-1.995,2.011-1.995,5.258,0,7.252l24.833,24.814c0.973,0.957,2.274,1.498,3.613,1.498c1.364,0,2.666-0.541,3.639-1.498
				l49.629-49.629C362.619,176.098,362.619,172.854,360.621,170.849L360.621,170.849z M360.621,170.849"/>
			<path d="M349.528,203.699c-2.815,0-5.108,2.293-5.108,5.121v37.983h-73.869v-73.859h58.479c2.853,0,5.146-2.299,5.146-5.13
				c0-2.828-2.293-5.128-5.146-5.128h-63.586c-2.85,0-5.143,2.301-5.143,5.128v84.116c0,2.821,2.293,5.124,5.143,5.124h84.085
				c2.846,0,5.143-2.303,5.143-5.124v-43.11C354.671,205.992,352.374,203.699,349.528,203.699L349.528,203.699z M349.528,203.699"/>
		</g>
	</g>
</g>
<g id="IT-RASO" display="none">
	<g display="inline">
		<g>
			<path fill-rule="evenodd" clip-rule="evenodd" d="M75,193.986c0.488-1.022,1.058-2.014,1.453-3.07
				c2.169-5.823,8.947-10.652,15.398-10.537c7.212,0.128,14.429,0.053,21.642,0.003c1.207-0.006,1.712,0.41,2.265,1.51
				c1.96,3.899,4.136,7.693,6.225,11.528c0.519,0.951,0.971,1.945,1.551,2.862c0.828,1.308,1.625,1.345,2.425,0.012
				c1.785-2.97,3.477-6,5.183-9.017c1.171-2.073,2.286-4.179,3.471-6.243c0.165-0.286,0.583-0.522,0.921-0.59
				c0.496-0.1,1.025-0.034,1.542-0.034c31.26-0.003,62.525-0.046,93.791,0.047c5.108,0.012,9.309,2.188,12.652,6.313
				c2.455,3.033,3.54,6.47,3.642,10.074c0.115,3.865-0.923,7.588-3.468,10.829c-3.766,4.785-8.638,6.475-14.551,6.451
				c-22.332-0.09-44.661-0.038-66.991-0.038c-0.732,0-1.463,0-2.458,0c0,1.01,0,1.843,0,2.679c0,55.598,0.011,111.193-0.014,166.793
				c-0.003,5.91-1.72,11.205-6.768,14.766c-1.896,1.336-4.221,2.063-6.354,3.063c-0.598,0.28-1.207,0.538-1.81,0.809
				c-1.49,0-2.978,0-4.466,0c-0.429-0.242-0.832-0.6-1.291-0.709c-5.108-1.196-8.853-4.154-11.298-8.753
				c-0.736-1.383-1.291-2.865-2.03-4.533c-2.028,7.075-6.104,11.64-13.108,13.286c-0.519,0.125-0.987,0.467-1.478,0.709
				c-1.488,0-2.979,0-4.467,0c-0.994-0.326-1.99-0.646-2.983-0.979c-6.665-2.218-11.621-9.106-11.621-16.167
				c-0.003-27.822-0.001-55.638-0.001-83.454c0-0.516-0.03-1.031,0.003-1.547c0.065-1.007-0.354-1.43-1.392-1.467
				c-1.016-0.037-2.079-0.118-3.029-0.441c-5.899-2.026-10.068-5.798-11.805-11.963c-0.12-0.423-0.514-0.765-0.78-1.144
				C75,254.683,75,224.334,75,193.986z"/>
			<path fill-rule="evenodd" clip-rule="evenodd" d="M335.607,110.291c0.951,0,1.793,0,2.635,0c25.194,0,50.388-0.021,75.584,0.026
				c3.294,0.006,6.544,0.555,8.81,3.351c1.376,1.697,2.336,3.532,2.333,5.889c-0.037,62.181-0.056,124.362,0.031,186.545
				c0.003,3.978-3.891,9.023-8.778,8.998c-0.4-0.006-0.802,0-1.202,0c-69.17,0-138.341-0.043-207.511,0.081
				c-5.702,0.013-10.558-5.027-10.052-10.688c0.417-4.63,4.633-8.663,9.452-8.663c16.947-0.013,33.9-0.007,50.847-0.007
				c48.441,0,96.884,0,145.325,0c2.402,0,2.474-0.074,2.474-2.548c0-39.337,0.013-78.675-0.009-118.013
				c-0.007-8.526-0.171-17.054-0.184-25.583c-0.007-5.722,0.137-11.444,0.187-17.166c0.021-2.469-0.078-2.554-2.468-2.556
				c-27.772-0.001-55.542,0-83.314,0c-37.501,0-75.005-0.005-112.51,0.003c-5.749,0.001-9.191-4.114-9.72-8.731
				c-0.606-5.298,2.672-9.541,7.874-10.5c1.448-0.266,2.939-0.418,4.406-0.419c24.908-0.025,49.819-0.017,74.726-0.019
				c2.495-0.001,2.642-0.017,2.452-2.511c-0.417-5.462,4.325-10.007,9.66-9.976c9.735,0.059,19.47-0.033,29.202,0.031
				c5.872,0.039,9.791,4.153,9.753,10.03C335.604,108.546,335.607,109.227,335.607,110.291z"/>
			<path fill-rule="evenodd" clip-rule="evenodd" d="M89.943,139.769c-0.03-19.908,15.814-36.15,36.333-35.872
				c19.729,0.267,35.357,15.606,35.43,35.934c0.073,19.966-16.086,35.241-34.629,35.859
				C106.184,176.386,89.692,159.292,89.943,139.769z"/>
			<path fill-rule="evenodd" clip-rule="evenodd" d="M377.869,394.388c0.003,2.846-1.901,6.043-4.263,6.867
				c-3.046,1.063-5.926,0.932-8.374-1.529c-6.898-6.929-13.793-13.861-20.72-20.763c-6.04-6.019-12.143-11.972-18.184-17.987
				c-4.229-4.22-8.417-8.471-12.581-12.752c-2.464-2.529-2.364-2.505-4.807,0.093c-2.505,2.66-5.146,5.195-7.734,7.774
				c-6.6,6.587-13.199,13.175-19.806,19.75c-8.02,7.982-16.049,15.952-24.074,23.926c-2.291,2.277-5.009,2.575-7.921,1.591
				c-3.001-1.014-4.334-3.53-4.763-6.361c-0.286-1.895,0.417-3.871,1.855-5.322c5.301-5.338,10.658-10.62,15.965-15.952
				c4.139-4.158,8.219-8.378,12.361-12.535c4.266-4.281,8.585-8.508,12.863-12.777c4.12-4.102,8.234-8.209,12.33-12.335
				c2.085-2.107,4.086-4.295,6.189-6.376c2.84-2.803,8.138-2.424,11.158,0.634c16.142,16.313,32.303,32.607,48.467,48.904
				c3.29,3.318,6.631,6.591,9.905,9.931C377.136,390.594,377.984,392.312,377.869,394.388z"/>
		</g>
		<g>
			<path fill-rule="evenodd" clip-rule="evenodd" d="M254.965,255.003c-0.702-3.033-1.395-6.003-2.076-8.977
				c-0.938-4.102-1.855-8.209-2.812-12.305c-0.143-0.615-0.146-1,0.519-1.327c7.37-3.602,14.915-6.728,23.019-8.247
				c3.928-0.74,7.886-1.079,11.739,0.488c3.088,1.252,6.152,2.566,9.271,3.741c5.55,2.094,11.264,3.579,17.171,4.282
				c2.309,0.273,4.151,2.439,4.238,4.897c0.084,2.405-1.672,4.651-3.993,5.108c-0.037,0.006-0.077,0.012-0.118,0.016
				c-7.612,0.09-15.256,1.193-22.822-0.342c-3.639-0.74-7.19-1.908-11.103-2.968c1.78,1.196,3.266,2.353,4.895,3.247
				c3.085,1.7,6.221,3.325,9.408,4.819c1.075,0.503,2.38,0.708,3.583,0.718c5.006,0.043,10.018-0.006,15.026-0.09
				c4.935-0.081,8.542-2.791,9.856-7.296c0.068-0.23,0.189-0.473,0.161-0.693c-0.251-1.868,1.014-2.107,2.393-2.417
				c6.858-1.532,13.7-3.123,20.546-4.698c3.517-0.811,6.537,0.882,7.565,4.248c0.938,3.07-0.668,6.165-3.955,7.401
				c-7.02,2.638-14.107,5.105-21.077,7.868c-5.564,2.203-11.009,4.714-16.483,7.141c-1.769,0.786-3.39,1.951-5.201,2.579
				c-4.521,1.565-9.058,0.882-13.452-0.565c-6.779-2.237-13.522-4.608-20.24-7.026C265.629,252.666,260.328,252.514,254.965,255.003
				z"/>
			<path fill-rule="evenodd" clip-rule="evenodd" d="M270.321,161.272c11.811,0,23.568,0,35.426,0c0,18.404,0,36.79,0,55.147
				c-5.354-2.74-11.276-3.076-17.124-3.555c-6.06-0.488-12.14-0.64-18.302-0.944C270.321,195.167,270.321,178.294,270.321,161.272z"
				/>
			<path fill-rule="evenodd" clip-rule="evenodd" d="M346.514,212.343c-4.132,0-8.181-0.093-12.227,0.022
				c-6.118,0.171-12.236,0.497-18.221,1.911c-1.73,0.407-3.368,1.205-5.024,1.814c0-18.047,0-36.38,0-54.793
				c11.829,0,23.615,0,35.472,0C346.514,178.195,346.514,195.067,346.514,212.343z"/>
		</g>
	</g>
</g>
<g id="IT-Default">
	<g>
		<g>
			<g>
				<defs>
					<rect id="SVGID_1_" x="190.309" y="151.351" width="213.123" height="213.267"/>
				</defs>
				<clipPath id="SVGID_2_">
					<use xlink:href="#SVGID_1_"  overflow="visible"/>
				</clipPath>
			</g>
			<path d="M221.563,172.535c-2.784-2.779-7.288-2.779-10.07,0c-2.78,2.783-2.78,7.291,0,10.07l15.82,15.821
				c1.39,1.391,3.21,2.086,5.033,2.086c1.821,0,3.645-0.696,5.034-2.086c2.779-2.782,2.779-7.288,0-10.07L221.563,172.535z
				 M221.563,172.535"/>
			<path d="M226.922,221.756c0-3.931-3.185-7.12-7.12-7.12h-22.375c-3.93,0-7.119,3.189-7.119,7.12c0,3.935,3.189,7.124,7.119,7.124
				h22.375C223.737,228.88,226.922,225.69,226.922,221.756L226.922,221.756z M226.922,221.756"/>
			<path d="M224.038,243.731l-15.826,15.826c-2.779,2.778-2.779,7.287,0,10.066c1.393,1.391,3.213,2.085,5.038,2.085
				c1.819,0,3.644-0.694,5.033-2.085l15.822-15.821c2.782-2.78,2.782-7.289,0-10.071
				C231.325,240.956,226.82,240.952,224.038,243.731L224.038,243.731z M224.038,243.731"/>
			<path d="M260.711,187.967c3.935,0,7.118-3.188,7.118-7.123V158.47c0-3.93-3.184-7.119-7.118-7.119
				c-3.932,0-7.121,3.189-7.121,7.119v22.378C253.59,184.779,256.779,187.967,260.711,187.967L260.711,187.967z M260.711,187.967"/>
			<path d="M287.715,197.233c1.824,0,3.648-0.692,5.037-2.083l15.818-15.821c2.782-2.78,2.782-7.288,0-10.072
				c-2.779-2.779-7.288-2.779-10.066,0l-15.822,15.823c-2.778,2.778-2.778,7.287,0,10.07
				C284.071,196.541,285.896,197.233,287.715,197.233L287.715,197.233z M287.715,197.233"/>
		</g>
		<path d="M353.794,338.414l47.048,47.05c0.769,0.765,2.121,0.769,2.884,0.003l20.68-20.682c0.519-0.518,0.595-1.125,0.595-1.439
			c0-0.315-0.076-0.922-0.595-1.438l-47.052-47.06l35.956-20.772c0.677-0.388,1.071-1.136,1.017-1.908
			c-0.056-0.775-0.556-1.46-1.275-1.747l-134.797-53.771c-0.759-0.303-1.631-0.115-2.201,0.453c-0.572,0.574-0.75,1.437-0.448,2.196
			l53.761,134.807c0.288,0.726,0.974,1.228,1.747,1.283c0.79,0.057,1.526-0.345,1.916-1.019L353.794,338.414z"/>
		<g>
			<path d="M298.566,377.636h1.485c-15.493-1.938-23.755-8.137-28.146-14.4h-80.181c-4.392,6.264-12.654,12.462-28.147,14.4h0.967
				c-4.842,0-8.717,3.938-8.717,8.712c0,4.779,3.938,8.716,8.717,8.716h134.022c4.843,0,8.718-3.937,8.718-8.716
				C307.284,381.573,303.409,377.636,298.566,377.636z"/>
			<path d="M365.837,104.936H97.788C85.202,104.936,75,115.137,75,127.724v201.813c0.387,10.719,9.233,19.301,20.078,19.301h213.273
				l-19.515-48.932H97.788c-2.193,0-4-1.812-4-4.002v-168.18c0-2.193,1.807-4,4-4h267.985c2.196,0,4.003,1.807,4.003,4V262.22
				l18.853,7.52V127.724C388.629,115.137,378.427,104.936,365.837,104.936z M213.544,323.471c0-2.78,2.26-5.04,5.037-5.04h26.402
				c2.774,0,5.036,2.26,5.036,5.04v3.486c0,2.773-2.262,5.031-5.036,5.031h-26.402c-2.777,0-5.037-2.258-5.037-5.031V323.471z"/>
		</g>
	</g>
</g>
</svg>
