<?xml version="1.0" encoding="utf-8"?>
<!-- Generator: Adobe Illustrator 16.0.3, SVG Export Plug-In . SVG Version: 6.00 Build 0)  -->
<!DOCTYPE svg PUBLIC "-//W3C//DTD SVG 1.1//EN" "http://www.w3.org/Graphics/SVG/1.1/DTD/svg11.dtd">
<svg version="1.1" id="Layer_1" xmlns="http://www.w3.org/2000/svg" xmlns:xlink="http://www.w3.org/1999/xlink" x="0px" y="0px"
	 width="512px" height="512px" viewBox="0 0 512 512" enable-background="new 0 0 512 512" xml:space="preserve">
<g id="Fanous_Symbol">
	<g>
		<path d="M296.891,160.353c2.797,6.087,5.129,12.675,6.588,19.66c47.697,7.814,81.433,27.063,81.433,49.572
			c0,29.44-57.712,53.308-128.91,53.308c-71.193,0-128.91-23.867-128.91-53.308c0-22.508,33.734-41.757,81.437-49.572
			c1.454-6.985,3.786-13.573,6.583-19.66C138.185,172.096,81,216.244,81,268.919c0,61.654,78.35,111.638,175,111.638
			c96.65,0,175-49.982,175-111.638C431,216.244,373.815,172.096,296.891,160.353L296.891,160.353z"/>
		<path d="M256,259.675c0,0,33.09-28.702,33.09-64.113c0-35.417-33.09-64.118-33.09-64.118s-33.09,28.701-33.09,64.118
			C222.91,230.973,256,259.675,256,259.675L256,259.675z"/>
	</g>
</g>
</svg>
