<?xml version="1.0" encoding="utf-8"?>
<!-- Generator: Adobe Illustrator 16.0.3, SVG Export Plug-In . SVG Version: 6.00 Build 0)  -->
<!DOCTYPE svg PUBLIC "-//W3C//DTD SVG 1.1//EN" "http://www.w3.org/Graphics/SVG/1.1/DTD/svg11.dtd">
<svg version="1.1" id="Layer_1" xmlns="http://www.w3.org/2000/svg" xmlns:xlink="http://www.w3.org/1999/xlink" x="0px" y="0px"
	 width="512px" height="512px" viewBox="0 0 512 512" enable-background="new 0 0 512 512" xml:space="preserve">
<g id="ibill_Symbol">
	<g id="_152222920">
		<g id="_152222248">
			<path d="M110.465,156.118c15.216,15.127,36.516,36.316,50.973,50.71c-6.316,15.451-5.231,34.458,3.439,55.313
				c18.579,44.685,71.673,94.471,118.157,94.471c8.571,0,16.628-1.691,23.922-4.977c4.894,4.866,10.575,10.518,16.544,16.454
				c11.48,11.419,24.019,23.89,34.034,33.854c-7.918,6.126-15.044,9.22-23.495,9.22c-3.777,0-7.987-0.599-12.514-1.778
				c-38.434-10.017-88.16-42.771-133.021-87.617c-44.927-44.914-77.181-94.237-86.279-131.939
				C98.888,175.991,101.66,167.071,110.465,156.118 M109.866,127.549c-19.667,19.769-34.29,36.424-26.929,66.932
				c21.184,87.78,145.062,211.032,233.583,234.104c6.357,1.656,12.15,2.419,17.519,2.419c21.528,0,36.152-12.283,52.236-28.456
				c-14.7-14.636-62.135-61.804-76.83-76.427c-7.386,7.419-16.478,10.646-26.41,10.646c-54.095,0-133.066-95.815-96.315-132.765
				C172.009,189.337,124.61,142.186,109.866,127.549L109.866,127.549z"/>
		</g>
		<g id="_150519168">
			<path d="M148.562,104.041l61.479,61.153l-10.967,11.009l-61.458-61.166L148.562,104.041 M148.533,80.996
				c-3.11,0-6.223,1.186-8.573,3.56l-21.869,21.973c-4.703,4.741-4.694,12.415,0.047,17.118l72.424,72.081
				c2.363,2.344,5.45,3.515,8.537,3.515c3.107,0,6.215-1.187,8.582-3.561l21.894-21.979c4.669-4.71,4.695-12.417-0.042-17.105
				l-72.467-72.083C154.722,82.168,151.628,80.995,148.533,80.996L148.533,80.996z"/>
		</g>
		<g id="_226148072">
			<path d="M346.478,300.955l61.472,61.162L397.01,373.13l-61.484-61.17L346.478,300.955 M346.429,277.93
				c-3.111,0.002-6.22,1.184-8.566,3.555l-21.868,21.972c-4.688,4.739-4.69,12.431,0.043,17.106l72.49,72.117
				c2.331,2.325,5.417,3.493,8.51,3.493c3.112,0,6.229-1.184,8.59-3.562l21.848-21.996c4.712-4.7,4.706-12.377-0.042-17.104
				l-72.417-72.054C352.646,279.107,349.535,277.93,346.429,277.93L346.429,277.93z"/>
		</g>
	</g>
</g>
</svg>
