<?xml version="1.0" encoding="utf-8"?>
<!-- Generator: Adobe Illustrator 16.0.3, SVG Export Plug-In . SVG Version: 6.00 Build 0)  -->
<!DOCTYPE svg PUBLIC "-//W3C//DTD SVG 1.1//EN" "http://www.w3.org/Graphics/SVG/1.1/DTD/svg11.dtd">
<svg version="1.1" id="Layer_1" xmlns="http://www.w3.org/2000/svg" xmlns:xlink="http://www.w3.org/1999/xlink" x="0px" y="0px"
	 width="512px" height="512px" viewBox="0 0 512 512" enable-background="new 0 0 512 512" xml:space="preserve">
<g id="Wiki_Symbol">
	<path d="M425.675,152.828c-5.095-2.942-11.605-1.196-14.547,3.897l-99.665,172.618l-43.164-74.766l50.35-87.204
		c2.939-5.093,1.195-11.606-3.897-14.546c-5.094-2.942-11.604-1.196-14.546,3.897l-44.201,76.555l-44.197-76.555
		c-2.94-5.094-9.453-6.841-14.545-3.897c-5.093,2.94-6.839,9.453-3.898,14.545l50.345,87.203l-43.168,74.767l-99.667-172.618
		c-2.941-5.093-9.455-6.838-14.546-3.897c-5.093,2.94-6.838,9.453-3.897,14.546l118.11,204.563l55.464-96.063l55.46,96.063
		l118.108-204.563C432.512,162.281,430.768,155.768,425.675,152.828z"/>
</g>
</svg>
