<?xml version="1.0" encoding="utf-8"?>
<!-- Generator: Adobe Illustrator 16.0.3, SVG Export Plug-In . SVG Version: 6.00 Build 0)  -->
<!DOCTYPE svg PUBLIC "-//W3C//DTD SVG 1.1//EN" "http://www.w3.org/Graphics/SVG/1.1/DTD/svg11.dtd">
<svg version="1.1" id="IT-Induction" xmlns="http://www.w3.org/2000/svg" xmlns:xlink="http://www.w3.org/1999/xlink" x="0px"
	 y="0px" width="512px" height="512px" viewBox="0 0 512 512" enable-background="new 0 0 512 512" xml:space="preserve">
<g>
	<path fill-rule="evenodd" clip-rule="evenodd" d="M75,193.986c0.488-1.022,1.058-2.014,1.453-3.07
		c2.169-5.823,8.947-10.652,15.398-10.537c7.212,0.128,14.429,0.053,21.642,0.003c1.207-0.006,1.712,0.41,2.265,1.51
		c1.96,3.899,4.136,7.693,6.225,11.528c0.519,0.951,0.971,1.945,1.551,2.862c0.828,1.308,1.625,1.345,2.425,0.012
		c1.785-2.97,3.477-6,5.183-9.017c1.171-2.073,2.286-4.179,3.471-6.243c0.165-0.286,0.583-0.522,0.921-0.59
		c0.496-0.1,1.025-0.034,1.542-0.034c31.26-0.003,62.525-0.046,93.791,0.047c5.108,0.012,9.309,2.188,12.652,6.313
		c2.455,3.033,3.54,6.47,3.642,10.074c0.115,3.865-0.923,7.588-3.468,10.829c-3.766,4.785-8.638,6.475-14.551,6.451
		c-22.332-0.09-44.661-0.038-66.991-0.038c-0.732,0-1.463,0-2.458,0c0,1.01,0,1.843,0,2.679c0,55.598,0.011,111.193-0.014,166.793
		c-0.003,5.91-1.72,11.205-6.768,14.766c-1.896,1.336-4.221,2.063-6.354,3.063c-0.598,0.28-1.207,0.538-1.81,0.809
		c-1.49,0-2.978,0-4.466,0c-0.429-0.242-0.832-0.6-1.291-0.709c-5.108-1.196-8.853-4.154-11.298-8.753
		c-0.736-1.383-1.291-2.865-2.03-4.533c-2.028,7.075-6.104,11.64-13.108,13.286c-0.519,0.125-0.987,0.467-1.478,0.709
		c-1.488,0-2.979,0-4.467,0c-0.994-0.326-1.99-0.646-2.983-0.979c-6.665-2.218-11.621-9.106-11.621-16.167
		c-0.003-27.822-0.001-55.638-0.001-83.454c0-0.516-0.03-1.031,0.003-1.547c0.065-1.007-0.354-1.43-1.392-1.467
		c-1.016-0.037-2.079-0.118-3.029-0.441c-5.899-2.026-10.068-5.798-11.805-11.963c-0.12-0.423-0.514-0.765-0.78-1.144
		C75,254.683,75,224.334,75,193.986z"/>
	<path fill-rule="evenodd" clip-rule="evenodd" d="M335.607,110.291c0.951,0,1.793,0,2.635,0c25.194,0,50.388-0.021,75.584,0.026
		c3.294,0.006,6.544,0.555,8.81,3.351c1.376,1.697,2.336,3.532,2.333,5.889c-0.037,62.181-0.056,124.362,0.031,186.545
		c0.003,3.978-3.891,9.023-8.778,8.998c-0.4-0.006-0.802,0-1.202,0c-69.17,0-138.341-0.043-207.511,0.081
		c-5.702,0.013-10.558-5.027-10.052-10.688c0.417-4.63,4.633-8.663,9.452-8.663c16.947-0.013,33.9-0.007,50.847-0.007
		c48.441,0,96.884,0,145.325,0c2.402,0,2.474-0.074,2.474-2.548c0-39.337,0.013-78.675-0.009-118.013
		c-0.007-8.526-0.171-17.054-0.184-25.583c-0.007-5.722,0.137-11.444,0.187-17.166c0.021-2.469-0.078-2.554-2.468-2.556
		c-27.772-0.001-55.542,0-83.314,0c-37.501,0-75.005-0.005-112.51,0.003c-5.749,0.001-9.191-4.114-9.72-8.731
		c-0.606-5.298,2.672-9.541,7.874-10.5c1.448-0.266,2.939-0.418,4.406-0.419c24.908-0.025,49.819-0.017,74.726-0.019
		c2.495-0.001,2.642-0.017,2.452-2.511c-0.417-5.462,4.325-10.007,9.66-9.976c9.735,0.059,19.47-0.033,29.202,0.031
		c5.872,0.039,9.791,4.153,9.753,10.03C335.604,108.546,335.607,109.227,335.607,110.291z"/>
	<path fill-rule="evenodd" clip-rule="evenodd" d="M89.943,139.769c-0.03-19.908,15.814-36.15,36.333-35.872
		c19.729,0.267,35.357,15.606,35.43,35.934c0.073,19.966-16.086,35.241-34.629,35.859
		C106.184,176.386,89.692,159.292,89.943,139.769z"/>
	<path fill-rule="evenodd" clip-rule="evenodd" d="M377.869,394.388c0.003,2.846-1.901,6.043-4.263,6.867
		c-3.046,1.063-5.926,0.932-8.374-1.529c-6.898-6.929-13.793-13.861-20.72-20.763c-6.04-6.019-12.143-11.972-18.184-17.987
		c-4.229-4.22-8.417-8.471-12.581-12.752c-2.464-2.529-2.364-2.505-4.807,0.093c-2.505,2.66-5.146,5.195-7.734,7.774
		c-6.6,6.587-13.199,13.175-19.806,19.75c-8.02,7.982-16.049,15.952-24.074,23.926c-2.291,2.277-5.009,2.575-7.921,1.591
		c-3.001-1.014-4.334-3.53-4.763-6.361c-0.286-1.895,0.417-3.871,1.855-5.322c5.301-5.338,10.658-10.62,15.965-15.952
		c4.139-4.158,8.219-8.378,12.361-12.535c4.266-4.281,8.585-8.508,12.863-12.777c4.12-4.102,8.234-8.209,12.33-12.335
		c2.085-2.107,4.086-4.295,6.189-6.376c2.84-2.803,8.138-2.424,11.158,0.634c16.142,16.313,32.303,32.607,48.467,48.904
		c3.29,3.318,6.631,6.591,9.905,9.931C377.136,390.594,377.984,392.312,377.869,394.388z"/>
	<g>
		<path d="M309.563,223.697l-47.668-3.903l5.059,22.944c2.337,10.614,24.221,14.81,48.89,9.378
			c24.662-5.438,42.759-18.445,40.422-29.053c-0.019-0.087-0.065-0.159-0.084-0.242l-4.999-22.699L309.563,223.697z
			 M309.563,223.697"/>
		<path d="M228.237,210.644l17.205,2.191l0.715-3.207l5.751-1.79l1.022,0.684l-4.764,2.299l-0.258,2.331
			c0,0-6.118,26.244-1.896,37.489c0,0,8.014,2.663,14.169-3.123l-5.108-32.167l-0.581-2.644l10.021-4.701L264.172,210l-7.299,4.291
			l3.922,0.5l47.668,3.902l41.615-23.571l27.801-17.444l-81.161-12.301L228.237,210.644z M228.237,210.644"/>
	</g>
</g>
</svg>
