<?xml version="1.0" encoding="utf-8"?>
<!-- Generator: Adobe Illustrator 16.0.3, SVG Export Plug-In . SVG Version: 6.00 Build 0)  -->
<!DOCTYPE svg PUBLIC "-//W3C//DTD SVG 1.1//EN" "http://www.w3.org/Graphics/SVG/1.1/DTD/svg11.dtd">
<svg version="1.1" id="Layer_1" xmlns="http://www.w3.org/2000/svg" xmlns:xlink="http://www.w3.org/1999/xlink" x="0px" y="0px"
	 width="512px" height="512px" viewBox="0 0 512 512" enable-background="new 0 0 512 512" xml:space="preserve">
<g id="AD_Manager_Symbol">
	<path d="M349.844,240.384c-34.396-66.738-93.451-92.957-147.86-89.053C146.629,155.317,97.438,189.837,81,254.11
		c11.425-77.917,63.985-115.847,119.34-120.49C254.75,129.017,328.063,161.522,349.844,240.384L349.844,240.384z M139.437,132.509
		c73.314-41.629,140.627-15.821,179.668,19.767c36.861,33.616,77.588,101.176,52.725,181.271
		c36.287-76.766,1.355-159.655-38.342-195.818C291.445,99.387,219.655,74.894,139.437,132.509L139.437,132.509z M319.845,424.365
		c82.89-43.971,97.684-132.857,87.697-191.707c-9-52.889-45.165-120.367-133.149-145.024
		c110.588,14.876,150.408,98.587,155.791,156.284C435.28,299.027,418.637,389.229,319.845,424.365L319.845,424.365z"/>
	<path d="M223.602,359.48l-62.044-107.46c-0.019-0.032-0.041-0.061-0.06-0.093c-0.105-0.179-0.222-0.352-0.339-0.524
		c-0.069-0.102-0.135-0.206-0.208-0.305c-0.113-0.154-0.237-0.302-0.36-0.45c-0.089-0.107-0.176-0.219-0.27-0.322
		c-0.107-0.118-0.223-0.229-0.337-0.344c-0.122-0.122-0.242-0.246-0.369-0.361c-0.094-0.085-0.195-0.163-0.292-0.245
		c-0.159-0.133-0.317-0.265-0.482-0.386c-0.087-0.063-0.179-0.122-0.269-0.184c-0.185-0.126-0.371-0.25-0.563-0.363
		c-0.029-0.017-0.054-0.037-0.083-0.054c-0.076-0.044-0.154-0.076-0.23-0.118c-0.178-0.097-0.357-0.191-0.54-0.276
		c-0.141-0.066-0.284-0.124-0.426-0.183c-0.147-0.061-0.294-0.121-0.445-0.174c-0.174-0.063-0.348-0.116-0.524-0.168
		c-0.125-0.037-0.25-0.073-0.377-0.105c-0.191-0.048-0.382-0.088-0.574-0.125c-0.121-0.022-0.242-0.045-0.364-0.063
		c-0.191-0.028-0.381-0.051-0.572-0.068c-0.132-0.012-0.265-0.022-0.398-0.029c-0.177-0.009-0.352-0.013-0.528-0.012
		c-0.152,0-0.304,0.003-0.457,0.01c-0.157,0.008-0.313,0.021-0.469,0.035c-0.168,0.017-0.336,0.035-0.504,0.061
		c-0.145,0.021-0.288,0.047-0.431,0.075c-0.171,0.033-0.342,0.069-0.513,0.111c-0.146,0.036-0.291,0.078-0.435,0.121
		c-0.158,0.048-0.316,0.096-0.473,0.151c-0.165,0.059-0.327,0.124-0.489,0.191c-0.129,0.054-0.259,0.106-0.388,0.166
		c-0.194,0.09-0.383,0.19-0.571,0.293c-0.07,0.038-0.142,0.067-0.21,0.107c-0.027,0.016-0.05,0.034-0.077,0.05
		c-0.2,0.117-0.393,0.246-0.585,0.378c-0.083,0.057-0.168,0.11-0.248,0.169c-0.171,0.126-0.336,0.263-0.5,0.4
		c-0.092,0.077-0.188,0.151-0.276,0.231c-0.132,0.118-0.255,0.247-0.381,0.373c-0.11,0.11-0.223,0.219-0.327,0.333
		c-0.095,0.105-0.184,0.219-0.275,0.329c-0.122,0.146-0.244,0.292-0.356,0.444c-0.073,0.1-0.14,0.204-0.209,0.307
		c-0.117,0.172-0.233,0.345-0.338,0.523c-0.019,0.032-0.042,0.061-0.06,0.093L82.33,359.48c-2.739,4.746-1.114,10.813,3.632,13.554
		c1.563,0.901,3.268,1.331,4.951,1.331c3.429,0,6.764-1.779,8.602-4.963l16.608-28.767h73.686l16.608,28.767
		c1.838,3.184,5.172,4.963,8.602,4.963c1.683,0,3.389-0.43,4.951-1.331C224.715,370.295,226.341,364.227,223.602,359.48z
		 M127.579,320.795l25.387-43.972l25.387,43.972H127.579L127.579,320.795z M277.832,247.111h-53.707
		c-5.479,0-9.921,4.442-9.921,9.921v74.835l14.307,24.779c2.082,3.606,2.635,7.809,1.557,11.83
		c-0.589,2.197-1.639,4.187-3.046,5.889h50.81c35.141,0,63.627-28.486,63.627-63.627C341.459,275.6,312.973,247.111,277.832,247.111
		z M277.832,354.521h-43.785v-87.567h43.785c24.143,0,43.784,19.642,43.784,43.784C321.616,334.88,301.975,354.521,277.832,354.521z
		"/>
</g>
</svg>
