<?xml version="1.0" encoding="utf-8"?>
<!-- Generator: Adobe Illustrator 16.0.3, SVG Export Plug-In . SVG Version: 6.00 Build 0)  -->
<!DOCTYPE svg PUBLIC "-//W3C//DTD SVG 1.1//EN" "http://www.w3.org/Graphics/SVG/1.1/DTD/svg11.dtd">
<svg version="1.1" id="Layer_1" xmlns="http://www.w3.org/2000/svg" xmlns:xlink="http://www.w3.org/1999/xlink" x="0px" y="0px"
	 width="512px" height="512px" viewBox="0 0 512 512" enable-background="new 0 0 512 512" xml:space="preserve">
<g id="Maximo_Symbol">
	<path d="M274.186,100.843l4.039,24.146l2.012,12.022l11.634,3.64c7.067,2.212,13.885,5.042,20.261,8.412l10.837,5.728l9.974-7.126
		l19.921-14.236l25.707,25.71l-14.234,19.925l-7.12,9.968l5.721,10.832c3.396,6.429,6.222,13.237,8.399,20.234l3.63,11.657
		l12.041,2.015l24.153,4.041v36.336l-24.16,4.052l-12.036,2.019l-3.628,11.651c-2.196,7.054-5.022,13.873-8.4,20.271l-5.726,10.844
		l7.138,9.972l14.229,19.876l-25.717,25.71l-19.93-14.218l-9.955-7.104l-10.819,5.7c-6.532,3.442-13.34,6.271-20.23,8.407
		l-11.682,3.62l-2.016,12.063l-4.035,24.149h-36.375l-4.001-24.125l-2.006-12.098l-11.716-3.617
		c-6.892-2.127-13.702-4.952-20.242-8.398l-10.831-5.708l-9.959,7.119l-19.935,14.25l-25.688-25.696l14.235-19.96l7.089-9.938
		l-5.676-10.809c-3.456-6.58-6.285-13.394-8.408-20.252l-3.619-11.686l-12.066-2.016l-24.147-4.035v-36.377L125,233.772
		l12.045-2.016l3.627-11.662c2.166-6.965,4.993-13.774,8.401-20.24l5.708-10.828l-7.115-9.96l-14.231-19.921l25.705-25.71
		l19.927,14.235l9.973,7.124l10.834-5.727c6.383-3.374,13.203-6.202,20.271-8.405l11.67-3.637l2-12.06l4-24.118h36.371 M277.15,81
		h-42.302c-8.447,0-15.443,6.326-16.238,14.342l-4.374,26.372c-8.165,2.545-16.1,5.821-23.64,9.806l-21.466-15.334
		c-2.922-2.385-6.608-3.56-10.296-3.56c-4.261,0-8.526,1.57-11.614,4.658l-29.931,29.938c-5.994,5.955-6.442,15.391-1.331,21.6
		l15.556,21.776c-3.975,7.54-7.257,15.439-9.795,23.601l-26.008,4.353C87.326,219.398,81,226.405,81,234.849v42.295
		c0,8.473,6.326,15.455,14.342,16.244l26.379,4.406c2.51,8.104,5.821,16.039,9.795,23.607l-15.302,21.455
		c-5.366,6.529-4.889,15.955,1.076,21.941l29.902,29.912c3.106,3.078,7.197,4.794,11.578,4.794c3.781,0,7.455-1.32,10.05-3.467
		l21.776-15.566c7.568,3.988,15.475,7.285,23.64,9.806l4.313,26.01C219.403,424.674,226.4,431,234.847,431h42.303
		c8.442,0,15.447-6.326,16.236-14.354l4.406-26.369c8.133-2.521,16.039-5.816,23.607-9.805l21.462,15.313
		c2.918,2.391,6.604,3.565,10.292,3.565c4.271,0,8.545-1.577,11.622-4.675l29.904-29.898c5.987-5.965,6.468-15.391,1.355-21.639
		l-15.561-21.736c3.981-7.541,7.259-15.476,9.8-23.637l25.979-4.355c8.415-0.813,14.741-7.794,14.741-16.266v-42.296
		c0-8.443-6.326-15.451-14.346-16.238l-26.376-4.413c-2.541-8.161-5.817-16.061-9.8-23.601l15.334-21.466
		c5.338-6.548,4.857-15.983-1.102-21.91l-29.934-29.938c-3.078-3.078-7.174-4.772-11.551-4.772c-3.783,0-7.455,1.303-10.053,3.449
		l-21.772,15.56c-7.54-3.985-15.476-7.261-23.607-9.806l-4.351-26.001C292.6,87.326,285.596,81,277.15,81L277.15,81z M256,198.303
		c31.798,0,57.665,25.896,57.693,57.697c0,31.798-25.896,57.658-57.693,57.658c-31.794,0-57.668-25.86-57.668-57.658
		C198.332,224.199,224.206,198.303,256,198.303 M256,178.461c-42.74,0-77.511,34.784-77.511,77.539
		c0,42.734,34.771,77.501,77.511,77.501c42.754,0,77.536-34.767,77.536-77.501C333.498,213.237,298.715,178.461,256,178.461
		L256,178.461z"/>
</g>
</svg>
