<?xml version="1.0" encoding="utf-8"?>
<!-- Generator: Adobe Illustrator 16.0.3, SVG Export Plug-In . SVG Version: 6.00 Build 0)  -->
<!DOCTYPE svg PUBLIC "-//W3C//DTD SVG 1.1//EN" "http://www.w3.org/Graphics/SVG/1.1/DTD/svg11.dtd">
<svg version="1.1" id="Layer_1" xmlns="http://www.w3.org/2000/svg" xmlns:xlink="http://www.w3.org/1999/xlink" x="0px" y="0px"
	 width="512px" height="512px" viewBox="0 0 512 512" enable-background="new 0 0 512 512" xml:space="preserve">
<g id="Webmail_Symbol">
	<path d="M406,126H106c-13.807,0-25,11.193-25,25v210c0,13.809,11.193,25,25,25h300c13.807,0,25-11.191,25-25V151
		C431,137.193,419.807,126,406,126z M387.651,145.843L256,243.641l-131.651-97.798H387.651z M406,366.157H106
		c-2.844,0-5.157-2.313-5.157-5.157V153.1l148.366,110.214c1.868,1.732,4.285,2.653,6.737,2.653c1.859,0,3.73-0.526,5.386-1.602
		c0.059-0.038,0.115-0.08,0.174-0.119c0.116-0.079,0.234-0.151,0.35-0.237l149.303-110.911V361
		C411.157,363.844,408.844,366.157,406,366.157z"/>
</g>
</svg>
