<?xml version="1.0" encoding="utf-8"?>
<!-- Generator: Adobe Illustrator 16.0.3, SVG Export Plug-In . SVG Version: 6.00 Build 0)  -->
<!DOCTYPE svg PUBLIC "-//W3C//DTD SVG 1.1//EN" "http://www.w3.org/Graphics/SVG/1.1/DTD/svg11.dtd">
<svg version="1.1" id="Layer_1" xmlns="http://www.w3.org/2000/svg" xmlns:xlink="http://www.w3.org/1999/xlink" x="0px" y="0px"
	 width="250px" height="250px" viewBox="0 0 250 250" enable-background="new 0 0 250 250" xml:space="preserve">
<g id="CIB_background">
	<rect fill="#5B1447" width="250" height="250"/>
</g>
<g id="CIB_Symbol">
	<g enable-background="new    ">
		<path fill="#FFFFFF" d="M197.117,127.073c-0.814,0-1.439-0.361-2.076-0.9c-5.227-4.866-10.088-8.294-17.579-8.294
			c-8.558,0-15.954,5.316-20.817,12.078c-1.084,1.533-1.896,3.162-2.888,4.686c-0.627,1-1.349,1.531-2.524,1.531
			c-1.265,0-1.983-0.531-2.609-1.531c-0.992-1.522-1.807-3.151-2.891-4.686c-4.862-6.761-12.166-12.078-20.73-12.078
			c-8.565,0-15.864,5.316-20.732,12.078c-1.084,1.533-1.894,3.162-2.885,4.686c-0.632,1-1.356,1.531-2.614,1.531
			c-1.173,0-1.893-0.531-2.524-1.531c-0.992-1.522-1.805-3.151-2.885-4.686c-4.868-6.761-12.259-12.078-20.825-12.078
			c-7.481,0-12.349,3.428-17.581,8.294c-0.631,0.539-1.257,0.9-2.071,0.9c-1.533,0-2.885-1.354-2.885-2.886
			c0-0.267,0-0.45,0.088-0.626c8.295-34.077,41.197-53.368,74.914-53.368c33.534,0,66.797,19.291,74.913,53.368
			C200,123.738,200,123.92,200,124.187C199.999,125.72,198.652,127.073,197.117,127.073z M130.77,174.039
			c0,12.531-10.547,23.079-23.078,23.079c-12.531,0-23.074-10.548-23.074-23.079c0-3.152,2.613-5.771,5.765-5.771
			c3.157,0,5.771,2.619,5.771,5.771c0,6.039,5.498,11.538,11.539,11.538c6.042,0,11.54-5.499,11.54-11.538v-52.284
			c1.893-0.632,3.786-0.991,5.77-0.991c1.981,0,3.881,0.359,5.769,0.991v52.284H130.77z M130.77,67.484
			c-1.888-0.088-3.881-0.177-5.769-0.177c-1.895,0-3.876,0.089-5.77,0.177v-8.831c0-3.156,2.613-5.77,5.77-5.77
			c3.151,0,5.769,2.614,5.769,5.77V67.484z"/>
	</g>
</g>
</svg>
