<?xml version="1.0" encoding="utf-8"?>
<!-- Generator: Adobe Illustrator 16.0.3, SVG Export Plug-In . SVG Version: 6.00 Build 0)  -->
<!DOCTYPE svg PUBLIC "-//W3C//DTD SVG 1.1//EN" "http://www.w3.org/Graphics/SVG/1.1/DTD/svg11.dtd">
<svg version="1.1" id="Layer_1" xmlns="http://www.w3.org/2000/svg" xmlns:xlink="http://www.w3.org/1999/xlink" x="0px" y="0px"
	 width="250px" height="250px" viewBox="0 0 250 250" enable-background="new 0 0 250 250" xml:space="preserve">
<g id="CSR_background">
	<rect fill="#9BC53D" width="250" height="250"/>
</g>
<g id="CSR_Symbol">
	<g enable-background="new    ">
		<path fill="#FFFFFF" d="M198.326,113.867c-5.355,26.031-22.1,42.939-45.367,54.492c-11.3,5.69-23.941,9.039-36.665,9.039
			c-8.035,0-16.322-1.34-23.939-3.935c-4.019-1.338-12.054-6.612-15.402-6.612c-4.185,0-9.207,17.076-16.49,17.076
			c-5.274,0-6.864-2.595-9.124-6.443c-0.754-1.426-1.34-1.926-1.34-3.685c0-8.706,16.574-15.485,16.574-20.342
			c0-0.752-2.176-5.188-2.512-6.862c-0.501-2.846-0.753-5.775-0.753-8.705c0-26.619,21.178-45.621,44.95-53.489
			c17.159-5.691,53.656,0.921,65.291-10.128c4.604-4.268,6.864-8.203,13.895-8.203c9.459,0,12.557,24.526,12.557,31.64
			C200,103.068,199.414,108.51,198.326,113.867z M151.787,108.929c-29.633,0-48.717,12.388-68.054,33.733
			c-1.004,1.089-1.59,2.259-1.59,3.768c0,2.93,2.427,5.356,5.357,5.356c1.507,0,2.679-0.586,3.767-1.591
			c4.102-3.685,7.785-7.701,11.803-11.469c15.15-13.645,28.125-19.083,48.717-19.083c2.93,0,5.355-2.427,5.355-5.357
			C157.143,111.356,154.717,108.929,151.787,108.929z"/>
	</g>
</g>
</svg>
