<?xml version="1.0" encoding="utf-8"?>
<!-- Generator: Adobe Illustrator 16.0.3, SVG Export Plug-In . SVG Version: 6.00 Build 0)  -->
<!DOCTYPE svg PUBLIC "-//W3C//DTD SVG 1.1//EN" "http://www.w3.org/Graphics/SVG/1.1/DTD/svg11.dtd">
<svg version="1.1" xmlns="http://www.w3.org/2000/svg" xmlns:xlink="http://www.w3.org/1999/xlink" x="0px" y="0px" width="250px"
	 height="250px" viewBox="0 0 250 250" enable-background="new 0 0 250 250" xml:space="preserve">
<g id="HR_background">
	<rect fill="#5CC0EB" width="250" height="250"/>
</g>
<g id="HR_Symbol">
	<g enable-background="new    ">
		<path fill="#FFFFFF" d="M75.625,135H65.157C57.344,135,50,131.25,50,122.578C50,116.25,49.766,95,59.688,95
			c1.64,0,9.766,6.641,20.313,6.641c3.594,0,7.031-0.626,10.39-1.797C90.157,101.562,90,103.282,90,105
			c0,7.109,2.265,14.14,6.328,20C88.204,125.234,80.859,128.75,75.625,135z M80,95c-11.016,0-20-8.985-20-20
			c0-11.015,8.984-20,20-20s20,8.985,20,20C100,86.015,91.016,95,80,95z M159.14,195h-68.28C78.359,195,70,187.421,70,174.766
			C70,157.108,74.141,130,97.031,130c2.657,0,12.344,10.859,27.969,10.859c15.624,0,25.312-10.859,27.969-10.859
			c22.89,0,27.031,27.108,27.031,44.766C180,187.421,171.641,195,159.14,195z M125,135c-16.563,0-30-13.438-30-30
			c0-16.562,13.438-30,30-30c16.562,0,29.998,13.438,29.998,30C154.998,121.562,141.562,135,125,135z M170,95
			c-11.017,0-20-8.985-20-20c0-11.015,8.983-20,20-20c11.015,0,20,8.985,20,20C190,86.015,181.015,95,170,95z M184.843,135h-10.469
			c-5.234-6.25-12.578-9.766-20.703-10c4.063-5.86,6.329-12.891,6.329-20c0-1.718-0.158-3.438-0.392-5.156
			c3.36,1.171,6.797,1.797,10.392,1.797c10.547,0,18.672-6.641,20.312-6.641c9.922,0,9.688,21.25,9.688,27.578
			C199.999,131.25,192.655,135,184.843,135z"/>
	</g>
</g>
</svg>
