<?xml version="1.0" encoding="utf-8"?>
<!-- Generator: Adobe Illustrator 16.0.3, SVG Export Plug-In . SVG Version: 6.00 Build 0)  -->
<!DOCTYPE svg PUBLIC "-//W3C//DTD SVG 1.1//EN" "http://www.w3.org/Graphics/SVG/1.1/DTD/svg11.dtd">
<svg version="1.1" xmlns="http://www.w3.org/2000/svg" xmlns:xlink="http://www.w3.org/1999/xlink" x="0px" y="0px" width="250px"
	 height="250px" viewBox="0 0 250 250" enable-background="new 0 0 250 250" xml:space="preserve">
<g id="ISD_background">
	<rect fill="#C91F39" width="250" height="250"/>
</g>
<g id="ISD_Symbol">
	<g id="ISD_Symbol_1_">
		<path fill="#FFFFFF" d="M52.416,141.014v-21.788c0-3.71,1.905-6.95,4.814-8.822C61.135,76.446,90.015,50,124.987,50
			c34.97,0,63.846,26.446,67.781,60.402c2.882,1.874,4.815,5.113,4.815,8.822v21.79c0,5.809-4.686,10.529-10.486,10.529
			s-10.49-4.721-10.49-10.529v-4.556c-5.703,28.555-26.58,55.073-51.619,55.073c-25.012,0-45.925-26.519-51.595-55.073v4.556
			c0,4.728-3.146,8.662-7.412,10.004c4.195,14.194,13.441,26.484,26.258,34.549c2.356-0.787,5.341-0.657,8.231,0.851
			c4.646,2.423,7.015,7.114,5.244,10.488c-1.736,3.346-6.924,4.097-11.607,1.673c-3.405-1.771-5.572-4.752-5.805-7.574
			c-14.651-9.341-25.038-23.696-29.336-40.248C55.132,149.216,52.416,145.445,52.416,141.014L52.416,141.014z M64.379,107.945
			c0.327,0.033,0.623,0.033,0.913,0.169c0.758,0.262,1.311,0.815,1.705,1.434c2.266,0.992,4.067,2.762,5.187,4.954
			c3.113-29.008,25.533-44.379,52.803-44.379c27.266,0,49.686,15.371,52.767,44.379c1.543-3.016,4.459-5.179,7.967-5.641
			c-4.558-29.49-30.025-52.14-60.733-52.14C94.571,56.718,69.297,78.905,64.379,107.945L64.379,107.945z"/>
	</g>
</g>
</svg>
