<?xml version="1.0" encoding="utf-8"?>
<!-- Generator: Adobe Illustrator 16.0.3, SVG Export Plug-In . SVG Version: 6.00 Build 0)  -->
<!DOCTYPE svg PUBLIC "-//W3C//DTD SVG 1.1//EN" "http://www.w3.org/Graphics/SVG/1.1/DTD/svg11.dtd">
<svg version="1.1" xmlns="http://www.w3.org/2000/svg" xmlns:xlink="http://www.w3.org/1999/xlink" x="0px" y="0px" width="250px"
	 height="250px" viewBox="0 0 250 250" enable-background="new 0 0 250 250" xml:space="preserve">
<g id="Knowledge_Management_background">
	<rect fill="#F26F6A" width="250" height="250"/>
</g>
<g id="Knowledge_Management_Symbol">
	<g>
		<g>
			<path fill="#FFFFFF" d="M176.221,148.353c-15.873-4.039-28.762-13.108-28.762-13.108l-10.062,31.834l-1.896,5.995l-0.031-0.095
				l-1.646,5.094l-5.311-15.063c13.043-18.198-2.64-18.012-3.51-17.982c-0.869-0.029-16.554-0.216-3.509,17.982l-5.311,15.063
				l-1.647-5.094l-0.03,0.095l-1.895-5.995l-10.093-31.834c0,0-12.89,9.069-28.76,13.108c-11.833,3.011-12.391,16.678-11.926,23.417
				c0,0,0.683,9.161,1.366,13.2c0,0,23.107,14.999,61.805,15.03c38.697,0,61.805-15.03,61.805-15.03
				c0.684-4.039,1.366-13.2,1.366-13.2C188.611,165.03,188.052,151.363,176.221,148.353L176.221,148.353z M176.221,148.353"/>
			<path fill="#FFFFFF" d="M154.447,92.416c0.497-1.397,0.87-2.826,1.117-4.191c4.412-26.493-8.633-27.394-8.633-27.394
				s-2.175-4.161-7.857-7.299c-3.82-2.267-9.133-4.007-16.12-3.415c-2.267,0.093-4.411,0.558-6.429,1.21
				c-2.577,0.87-4.937,2.143-7.081,3.633c-2.61,1.647-5.094,3.697-7.268,6.026c-3.447,3.54-6.521,8.106-7.857,13.79
				c-1.117,4.253-0.87,8.696,0.062,13.479c0.249,1.398,0.621,2.794,1.118,4.193c-2.608-0.249-5.684,1.272-2.794,11.491
				c2.142,7.455,4.098,9.535,5.589,9.659c1.367,8.882,8.231,20.188,19.505,24.162c4.626,1.615,9.69,1.647,14.316-0.03
				c11.088-4.006,18.17-15.282,19.566-24.132c1.491-0.124,3.448-2.205,5.56-9.69C160.131,93.69,157.058,92.167,154.447,92.416z
				 M132.535,116.379c0,1.374-1.141,2.511-2.512,2.511h-10.047c-1.373,0-2.512-1.138-2.512-2.511v-8.791
				c0-1.374,1.139-2.512,2.512-2.512h10.047c1.371,0,2.512,1.138,2.512,2.512V116.379z M132.612,96.287
				c-0.04,1.374-1.218,2.511-2.589,2.511h-10.047c-1.373,0-2.551-1.138-2.59-2.511l-1.099-30.139
				c-0.039-1.374,1.059-2.511,2.433-2.511h12.557c1.375,0,2.475,1.138,2.435,2.511L132.612,96.287z"/>
		</g>
	</g>
</g>
</svg>
