<?xml version="1.0" encoding="utf-8"?>
<!-- Generator: Adobe Illustrator 16.0.3, SVG Export Plug-In . SVG Version: 6.00 Build 0)  -->
<!DOCTYPE svg PUBLIC "-//W3C//DTD SVG 1.1//EN" "http://www.w3.org/Graphics/SVG/1.1/DTD/svg11.dtd">
<svg version="1.1" xmlns="http://www.w3.org/2000/svg" xmlns:xlink="http://www.w3.org/1999/xlink" x="0px" y="0px" width="250px"
	 height="250px" viewBox="0 0 250 250" enable-background="new 0 0 250 250" xml:space="preserve">
<g id="Legal_background">
	<rect fill="#973720" width="250" height="250"/>
</g>
<g id="Legal_Symbol">
	<g>
		<g>
			<defs>
				<rect id="SVGID_1_" x="-80" y="-68" width="409.92" height="384.96"/>
			</defs>
			<clipPath id="SVGID_2_">
				<use xlink:href="#SVGID_1_"  overflow="visible"/>
			</clipPath>
		</g>
	</g>
	<g>
		<path fill="#FFFFFF" d="M139.063,177.863v-1.3c0-10.339-8.413-18.75-18.752-18.75H73.435c-10.34,0-18.749,8.411-18.749,18.75
			v1.302C49.999,179.49,50,182.479,50,185.939c0,5.177,4.197,9.374,9.375,9.374h75.001c5.178,0,9.376-4.197,9.376-9.374
			C143.752,182.477,143.749,179.488,139.063,177.863L139.063,177.863z M139.063,177.863"/>
		<path fill="#FFFFFF" d="M190.625,87.5h-75v-9.377c4.687,0,9.375-4.197,9.375-9.375v-4.688c0-5.176-4.199-9.374-9.376-9.374H78.123
			c-5.179,0-9.374,4.198-9.374,9.374v4.688c0,5.178,4.687,9.375,9.375,9.375v37.501c-4.688,0-9.375,4.199-9.375,9.376v4.688
			c0,5.178,4.195,9.375,9.374,9.375h37.501c5.177,0,9.376-4.197,9.376-9.375V125c0-5.177-4.688-9.376-9.375-9.376v-9.374h75
			c5.178,0,9.375-4.197,9.375-9.375C200,91.697,195.803,87.5,190.625,87.5L190.625,87.5z M190.625,87.5"/>
	</g>
</g>
</svg>
