<?xml version="1.0" encoding="utf-8"?>
<!-- Generator: Adobe Illustrator 16.0.3, SVG Export Plug-In . SVG Version: 6.00 Build 0)  -->
<!DOCTYPE svg PUBLIC "-//W3C//DTD SVG 1.1//EN" "http://www.w3.org/Graphics/SVG/1.1/DTD/svg11.dtd">
<svg version="1.1" xmlns="http://www.w3.org/2000/svg" xmlns:xlink="http://www.w3.org/1999/xlink" x="0px" y="0px" width="250px"
	 height="250px" viewBox="0 0 250 250" enable-background="new 0 0 250 250" xml:space="preserve">
<g id="Accounts_background">
	<rect fill="#F1592F" width="250" height="250"/>
</g>
<g id="Accounts_Symbol">
	<g enable-background="new    ">
		<path fill="#FFFFFF" d="M200,181.25H50V68.75h9.375v103.125H200V181.25z M190.625,112.329c0,2.051-2.491,3.149-4.028,1.611
			l-8.862-8.862l-46.363,46.363c-0.951,0.952-2.416,0.952-3.367,0l-17.066-17.065l-30.469,30.47L66.406,150.78l42.847-42.845
			c0.953-0.953,2.417-0.953,3.369,0L129.688,125l33.984-33.985l-8.862-8.862c-1.538-1.539-0.439-4.028,1.611-4.028h31.861
			c1.317,0,2.343,1.025,2.343,2.344V112.329z"/>
	</g>
</g>
</svg>
