<?xml version="1.0" encoding="utf-8"?>
<!-- Generator: Adobe Illustrator 16.0.3, SVG Export Plug-In . SVG Version: 6.00 Build 0)  -->
<!DOCTYPE svg PUBLIC "-//W3C//DTD SVG 1.1//EN" "http://www.w3.org/Graphics/SVG/1.1/DTD/svg11.dtd">
<svg version="1.1" xmlns="http://www.w3.org/2000/svg" xmlns:xlink="http://www.w3.org/1999/xlink" x="0px" y="0px" width="250px"
	 height="250px" viewBox="0 0 250 250" enable-background="new 0 0 250 250" xml:space="preserve">
<g id="Plant_Machinery_Vehicles_background">
	<rect fill="#921941" width="250" height="250"/>
</g>
<g id="Plant_Machinery_Vehicles_Symbol">
	<g>
		<path fill="#FFFFFF" d="M76.828,150.048c-8.077,0-14.609,6.577-14.609,14.609c0,8.077,6.532,14.61,14.609,14.61
			s14.61-6.576,14.61-14.61C91.438,156.625,84.905,150.048,76.828,150.048L76.828,150.048z M76.828,173.132
			c-4.679,0-8.431-3.796-8.431-8.475c0-4.68,3.752-8.475,8.431-8.475s8.475,3.795,8.475,8.475
			C85.302,169.336,81.462,173.132,76.828,173.132L76.828,173.132z M76.828,173.132"/>
		<path fill="#FFFFFF" d="M131.911,147.224c-8.474,0-15.354,6.886-15.354,15.403c0,8.475,6.88,15.359,15.354,15.359
			c8.475,0,15.36-6.885,15.36-15.359C147.271,154.109,140.386,147.224,131.911,147.224L131.911,147.224z M131.911,171.542
			c-4.905,0-8.917-4.017-8.917-8.915s4.011-8.915,8.917-8.915c4.899,0,8.872,4.017,8.872,8.915S136.811,171.542,131.911,171.542
			L131.911,171.542z M131.911,171.542"/>
		<path fill="#FFFFFF" d="M134.515,132.658c0,0-6.488-61.925-30.896-61.925H64.42v56.981h-9.964c-10.025,0,0,35.398,0,35.398h6.168
			c0.441-8.784,7.729-15.802,16.645-15.802c8.917,0,16.155,7.018,16.596,15.802h20.259c0-0.088,0-0.131,0-0.222
			c0-9.753,7.945-17.698,17.698-17.698c9.756,0,17.7,7.945,17.7,17.698c0,1.148-0.132,2.253-0.31,3.312h6.268l-10.461-32.75
			C135.485,138.837,134.515,132.658,134.515,132.658L134.515,132.658z M102.963,134.644l-9.231-16.148H73.7V80.007h28.292
			c8.249,0,12.789,11.471,15.172,21.143c1.551,6.167,6.229,28.595,6.625,33.494H102.963z M102.963,134.644"/>
		<path fill="#FFFFFF" d="M199.839,147.974c-0.574-1.722-2.473-2.692-4.193-2.074l-32.044,10.549l-27.674-83.194
			c-0.574-1.722-2.429-2.66-4.193-2.081c-1.722,0.574-2.692,2.428-2.074,4.193l28.732,86.288c0.487,1.369,1.723,2.251,3.136,2.251
			c0.353,0,0.705-0.044,1.06-0.132l35.133-11.608C199.442,151.593,200.401,149.739,199.839,147.974L199.839,147.974z
			 M199.839,147.974"/>
	</g>
</g>
</svg>
