<?xml version="1.0" encoding="utf-8"?>
<!-- Generator: Adobe Illustrator 16.0.3, SVG Export Plug-In . SVG Version: 6.00 Build 0)  -->
<!DOCTYPE svg PUBLIC "-//W3C//DTD SVG 1.1//EN" "http://www.w3.org/Graphics/SVG/1.1/DTD/svg11.dtd">
<svg version="1.1" xmlns="http://www.w3.org/2000/svg" xmlns:xlink="http://www.w3.org/1999/xlink" x="0px" y="0px" width="250px"
	 height="250px" viewBox="0 0 250 250" enable-background="new 0 0 250 250" xml:space="preserve">
<g id="Services_background">
	<rect fill="#97CEB4" width="250" height="250"/>
</g>
<g id="Services_Symbol">
	<g enable-background="new    ">
		<path fill="#FFFFFF" d="M150,132.305c0,1.015-0.781,2.187-1.797,2.343l-12.109,1.875c-0.626,2.031-1.484,3.985-2.501,5.938
			c2.188,3.125,4.532,6.017,7.032,8.985c0.313,0.469,0.547,0.938,0.547,1.562c0,0.547-0.155,1.094-0.547,1.484
			c-1.563,2.11-10.313,11.641-12.577,11.641c-0.626,0-1.173-0.233-1.641-0.547l-8.985-7.031c-1.953,1.017-3.906,1.797-6.016,2.422
			c-0.391,3.985-0.781,8.281-1.797,12.11c-0.313,1.094-1.25,1.875-2.344,1.875h-14.53c-1.094,0-2.188-0.86-2.344-1.954
			l-1.797-11.952c-2.031-0.625-3.984-1.484-5.859-2.422l-9.219,6.952c-0.391,0.391-1.016,0.547-1.563,0.547
			c-0.625,0-1.172-0.233-1.641-0.624c-2.032-1.875-11.25-10.234-11.25-12.501c0-0.547,0.234-1.015,0.547-1.484
			c2.266-2.969,4.61-5.858,6.875-8.906c-1.094-2.108-2.031-4.218-2.735-6.405l-11.875-1.875C50.781,134.18,50,133.163,50,132.069
			v-14.453c0-1.015,0.781-2.187,1.796-2.343l12.11-1.875c0.625-2.031,1.484-3.985,2.5-5.937c-2.187-3.125-4.531-6.017-7.031-8.985
			c-0.313-0.469-0.547-1.015-0.547-1.562c0-0.547,0.156-1.094,0.547-1.563c1.563-2.109,10.313-11.562,12.578-11.562
			c0.625,0,1.172,0.234,1.641,0.547l8.984,7.031c1.953-1.016,3.906-1.797,6.016-2.5c0.391-3.906,0.781-8.203,1.797-12.031
			c0.313-1.094,1.25-1.875,2.344-1.875h14.53c1.094,0,2.188,0.86,2.344,1.954l1.797,11.953c2.031,0.625,3.984,1.484,5.859,2.422
			l9.219-6.953c0.47-0.39,1.017-0.547,1.563-0.547c0.624,0,1.171,0.234,1.641,0.625c2.03,1.875,11.249,10.313,11.249,12.5
			c0,0.547-0.234,1.015-0.547,1.484c-2.266,3.046-4.609,5.859-6.798,8.906c1.017,2.109,1.954,4.218,2.657,6.406l11.875,1.797
			c1.094,0.234,1.875,1.25,1.875,2.344V132.305z M100,104.96c-11.016,0-20,8.985-20,20c0,11.015,8.984,20,20,20s20-8.985,20-20
			C120,113.946,111.016,104.96,100,104.96z M200,90.43c0,1.172-10.077,2.266-11.641,2.422c-0.625,1.484-1.405,2.813-2.345,4.063
			c0.705,1.562,3.985,9.375,3.985,10.781c0,0.234-0.077,0.391-0.312,0.547c-0.938,0.547-9.298,5.547-9.688,5.547
			c-1.017,0-6.875-7.813-7.656-8.985c-0.78,0.079-1.563,0.156-2.344,0.156s-1.563-0.078-2.344-0.156
			c-0.781,1.171-6.64,8.985-7.656,8.985c-0.391,0-8.75-5-9.688-5.547c-0.234-0.156-0.312-0.391-0.312-0.547
			c0-1.328,3.28-9.219,3.985-10.781c-0.939-1.25-1.72-2.578-2.345-4.063C150.077,92.695,140,91.602,140,90.43V79.491
			c0-1.171,10.077-2.265,11.641-2.422c0.625-1.405,1.405-2.812,2.345-4.063C153.28,71.445,150,63.554,150,62.226
			c0-0.157,0.077-0.391,0.312-0.547c0.938-0.468,9.298-5.468,9.688-5.468c1.017,0,6.875,7.735,7.656,8.906
			c0.78-0.079,1.563-0.157,2.344-0.157s1.563,0.078,2.344,0.157c2.188-3.048,4.531-6.094,7.187-8.75l0.47-0.156
			c0.391,0,8.75,4.921,9.688,5.468c0.234,0.156,0.312,0.39,0.312,0.547c0,1.407-3.28,9.219-3.985,10.781
			c0.939,1.25,1.72,2.657,2.345,4.063C189.923,77.226,200,78.32,200,79.491V90.43z M200,170.43c0,1.172-10.077,2.266-11.641,2.422
			c-0.625,1.484-1.405,2.813-2.345,4.063c0.705,1.563,3.985,9.374,3.985,10.781c0,0.234-0.077,0.391-0.312,0.547
			c-0.938,0.547-9.298,5.547-9.688,5.547c-1.017,0-6.875-7.813-7.656-8.985c-0.78,0.079-1.563,0.157-2.344,0.157
			s-1.563-0.078-2.344-0.157c-0.781,1.172-6.64,8.985-7.656,8.985c-0.391,0-8.75-5-9.688-5.547
			c-0.234-0.156-0.312-0.391-0.312-0.547c0-1.328,3.28-9.219,3.985-10.781c-0.939-1.25-1.72-2.578-2.345-4.063
			c-1.563-0.156-11.641-1.25-11.641-2.422v-10.938c0-1.172,10.077-2.266,11.641-2.422c0.625-1.405,1.405-2.813,2.345-4.063
			c-0.705-1.562-3.985-9.453-3.985-10.781c0-0.156,0.077-0.391,0.312-0.547c0.938-0.468,9.298-5.468,9.688-5.468
			c1.017,0,6.875,7.734,7.656,8.906c0.78-0.079,1.563-0.156,2.344-0.156s1.563,0.077,2.344,0.156
			c2.188-3.048,4.531-6.094,7.187-8.75l0.47-0.156c0.391,0,8.75,4.921,9.688,5.468c0.234,0.156,0.312,0.391,0.312,0.547
			c0,1.407-3.28,9.22-3.985,10.781c0.939,1.25,1.72,2.657,2.345,4.063c1.563,0.156,11.641,1.25,11.641,2.422V170.43z M170,74.96
			c-5.468,0-10,4.531-10,10c0,5.547,4.532,10,10,10c5.547,0,10-4.531,10-10S175.468,74.96,170,74.96z M170,154.961
			c-5.468,0-10,4.53-10,10c0,5.547,4.532,10,10,10c5.547,0,10-4.531,10-10C180,159.491,175.468,154.961,170,154.961z"/>
	</g>
</g>
</svg>
