<?xml version="1.0" encoding="utf-8"?>
<!-- Generator: Adobe Illustrator 16.0.3, SVG Export Plug-In . SVG Version: 6.00 Build 0)  -->
<!DOCTYPE svg PUBLIC "-//W3C//DTD SVG 1.1//EN" "http://www.w3.org/Graphics/SVG/1.1/DTD/svg11.dtd">
<svg version="1.1" xmlns="http://www.w3.org/2000/svg" xmlns:xlink="http://www.w3.org/1999/xlink" x="0px" y="0px" width="250px"
	 height="250px" viewBox="0 0 250 250" enable-background="new 0 0 250 250" xml:space="preserve">
<g id="Accounts_background">
	<rect fill="#F1592F" width="250" height="250"/>
</g>
<g id="Accounts_Text">
	<g>
		<path fill="#FFFFFF" d="M83.824,186.433v43.811h-0.65h-0.715v-46.605v-0.065v-0.584h1.105l12.025,23.529l12.025-23.529h1.04v0.584
			v0.065v46.605h-0.682h-0.683v-43.876l-11.245,22.426h-0.91L83.824,186.433z M83.369,182.988h-0.065h-0.065h-0.065h-0.065h-0.065
			h-0.065h-0.065H83.369z M107.744,182.988h0.065h0.065h0.065h0.065h0.065h0.065h0.065H107.744z"/>
		<path fill="#FFFFFF" d="M137.903,230.243h-1.431l-2.925-14.235h-11.31l-3.055,14.235h-1.43l9.555-47.255h1.105L137.903,230.243z
			 M133.158,214.643l-5.266-28.08l-5.46,28.08H133.158z M127.633,182.988h0.065h0.13h0.064h0.065h0.13H127.633z"/>
		<path fill="#FFFFFF" d="M166.827,219.453c0,0.043,0,0.38,0,1.007c0,0.629-0.076,1.397-0.228,2.308
			c-0.152,0.91-0.412,1.864-0.78,2.86c-0.368,0.997-0.921,1.885-1.657,2.665c-1.69,1.777-4.03,2.665-7.021,2.665
			c-2.989,0-5.265-0.888-6.824-2.665c-0.78-0.823-1.355-1.712-1.723-2.665c-0.369-0.953-0.618-1.853-0.748-2.697
			c-0.13-0.846-0.185-1.57-0.162-2.178c0.021-0.606,0.032-0.976,0.032-1.105v-26.715c0-3.466,1.04-6.175,3.12-8.125
			c0.822-0.736,1.787-1.321,2.893-1.755c1.105-0.433,2.242-0.65,3.412-0.65c2.341,0,4.463,0.78,6.37,2.34
			c1.083,0.91,1.918,2.156,2.503,3.738s0.877,3.305,0.877,5.168h-1.43c0-1.69-0.25-3.163-0.747-4.42
			c-0.499-1.257-1.149-2.285-1.95-3.088c-0.803-0.802-1.701-1.398-2.697-1.787c-0.998-0.391-1.973-0.586-2.926-0.586
			c-0.997,0-1.982,0.186-2.957,0.553c-0.975,0.369-1.843,0.922-2.6,1.658c-0.759,0.736-1.365,1.689-1.82,2.859
			s-0.683,2.535-0.683,4.095v26.78v0.064c0,1.084,0.054,2.005,0.162,2.763c0.108,0.759,0.325,1.571,0.65,2.438
			c0.325,0.867,0.813,1.647,1.463,2.34c1.386,1.518,3.314,2.275,5.784,2.275c2.557,0,4.551-0.758,5.98-2.275
			c0.65-0.692,1.138-1.483,1.463-2.372c0.324-0.888,0.552-1.744,0.682-2.567c0.131-0.823,0.195-1.798,0.195-2.925H166.827z"/>
	</g>
</g>
<g id="Accounts_Symbol">
	<g>
		<path fill="#FFFFFF" d="M186.422,132.268H63.578V40.135h7.678v84.455h115.166V132.268z M178.744,75.824
			c0,1.68-2.039,2.579-3.299,1.32l-7.258-7.258l-37.969,37.969c-0.78,0.78-1.979,0.78-2.76,0l-13.976-13.976l-24.953,24.953
			l-11.517-11.517l35.09-35.09c0.78-0.78,1.979-0.78,2.759,0l13.976,13.976l27.832-27.832l-7.258-7.258
			c-1.26-1.259-0.36-3.299,1.319-3.299h26.092c1.08,0,1.92,0.84,1.92,1.919V75.824z"/>
	</g>
</g>
</svg>
