<?xml version="1.0" encoding="utf-8"?>
<!-- Generator: Adobe Illustrator 16.0.3, SVG Export Plug-In . SVG Version: 6.00 Build 0)  -->
<!DOCTYPE svg PUBLIC "-//W3C//DTD SVG 1.1//EN" "http://www.w3.org/Graphics/SVG/1.1/DTD/svg11.dtd">
<svg version="1.1" xmlns="http://www.w3.org/2000/svg" xmlns:xlink="http://www.w3.org/1999/xlink" x="0px" y="0px" width="250px"
	 height="250px" viewBox="0 0 250 250" enable-background="new 0 0 250 250" xml:space="preserve">
<g id="CIB_background">
	<rect fill="#5B1447" width="250" height="250"/>
</g>
<g id="CIB_Text">
	<g>
		<path fill="#FFFFFF" d="M110.766,219.45c0,0.043,0,0.38,0,1.007c0,0.629-0.076,1.397-0.228,2.308
			c-0.152,0.91-0.413,1.864-0.78,2.86c-0.369,0.997-0.921,1.885-1.657,2.665c-1.69,1.777-4.03,2.665-7.02,2.665
			c-2.99,0-5.265-0.888-6.825-2.665c-0.78-0.823-1.355-1.712-1.722-2.665c-0.369-0.953-0.618-1.853-0.748-2.697
			c-0.13-0.846-0.185-1.57-0.163-2.178c0.021-0.606,0.032-0.976,0.032-1.105V192.93c0-3.467,1.04-6.175,3.12-8.125
			c0.823-0.736,1.788-1.321,2.893-1.755c1.105-0.433,2.243-0.649,3.413-0.649c2.34,0,4.462,0.779,6.37,2.34
			c1.083,0.91,1.917,2.156,2.502,3.737c0.585,1.582,0.877,3.305,0.877,5.167h-1.43c0-1.689-0.25-3.162-0.748-4.42
			c-0.499-1.256-1.148-2.285-1.95-3.088c-0.803-0.801-1.701-1.396-2.698-1.787c-0.997-0.39-1.972-0.585-2.925-0.585
			c-0.998,0-1.982,0.185-2.958,0.553s-1.842,0.921-2.6,1.657c-0.759,0.738-1.365,1.69-1.82,2.86s-0.683,2.535-0.683,4.095v26.78
			v0.064c0,1.084,0.054,2.005,0.163,2.763c0.107,0.759,0.325,1.571,0.65,2.438c0.325,0.867,0.813,1.647,1.462,2.34
			c1.386,1.518,3.315,2.275,5.785,2.275c2.556,0,4.55-0.758,5.98-2.275c0.65-0.692,1.137-1.483,1.462-2.372
			c0.325-0.888,0.553-1.744,0.683-2.567s0.195-1.798,0.195-2.925H110.766z"/>
		<path fill="#FFFFFF" d="M124.286,230.24v-47.256h0.682h0.683v47.256h-0.683H124.286z"/>
		<path fill="#FFFFFF" d="M154.055,186.365c1.603,2.383,2.383,5.049,2.34,7.994c0,1.388-0.162,2.677-0.487,3.868
			c-0.325,1.192-0.759,2.253-1.3,3.185c-0.543,0.933-1.16,1.701-1.853,2.308c-0.694,0.607-1.431,1.04-2.21,1.3
			c0.909,0.131,1.895,0.499,2.957,1.105c1.062,0.607,1.896,1.344,2.503,2.21c0.866,1.257,1.516,2.654,1.949,4.192
			c0.434,1.539,0.65,3.152,0.65,4.843c0,2.817-0.401,5.069-1.202,6.76c-0.803,1.69-1.799,2.99-2.99,3.9
			c-1.192,0.909-2.492,1.517-3.9,1.819c-1.408,0.304-2.762,0.455-4.063,0.455h-6.694h-0.78V182.92h8.19
			c1.862,0,3.292,0.304,4.289,0.91C152.451,184.438,153.317,185.282,154.055,186.365z M140.34,204.436h7.345
			c1.083,0,2.08-0.271,2.99-0.815c0.91-0.543,1.689-1.282,2.34-2.217s1.147-2.011,1.495-3.229c0.346-1.217,0.52-2.499,0.52-3.848
			c0-1.348-0.185-2.63-0.552-3.847c-0.369-1.217-0.878-2.282-1.528-3.195c-0.649-0.913-1.408-1.642-2.274-2.185
			c-0.867-0.544-1.82-0.815-2.86-0.815h-7.475V204.436z M146.449,228.939c2.123,0,3.89-0.313,5.298-0.942
			c1.407-0.627,2.523-1.473,3.348-2.535c0.822-1.061,1.397-2.296,1.723-3.704c0.324-1.408,0.465-2.87,0.422-4.388
			c-0.087-3.986-0.986-6.911-2.697-8.775c-1.712-1.862-4.41-2.795-8.093-2.795h-6.109v23.14H146.449z"/>
	</g>
</g>
<g id="CIB_Symbol">
	<g>
		<path fill="#FFFFFF" d="M172.984,85.661c-0.539,0-0.959-0.24-1.379-0.6c-3.479-3.239-6.718-5.519-11.696-5.519
			c-5.699,0-10.617,3.539-13.856,8.038c-0.72,1.02-1.26,2.1-1.919,3.119c-0.42,0.66-0.9,1.02-1.68,1.02
			c-0.84,0-1.32-0.36-1.739-1.02c-0.66-1.02-1.2-2.099-1.92-3.119c-3.239-4.499-8.098-8.038-13.796-8.038
			s-10.557,3.539-13.796,8.038c-0.72,1.02-1.26,2.1-1.919,3.119c-0.42,0.66-0.9,1.02-1.74,1.02c-0.779,0-1.259-0.36-1.679-1.02
			c-0.66-1.02-1.2-2.099-1.919-3.119c-3.239-4.499-8.158-8.038-13.856-8.038c-4.979,0-8.218,2.279-11.697,5.519
			c-0.42,0.36-0.839,0.6-1.379,0.6c-1.02,0-1.919-0.899-1.919-1.919c0-0.18,0-0.3,0.06-0.419
			c5.518-22.673,27.412-35.51,49.845-35.51c22.313,0,44.447,12.836,49.846,35.51c0.06,0.12,0.06,0.24,0.06,0.419
			C174.904,84.762,174.005,85.661,172.984,85.661z M128.838,116.912c0,8.337-7.018,15.355-15.355,15.355
			s-15.355-7.018-15.355-15.355c0-2.1,1.739-3.839,3.839-3.839s3.839,1.739,3.839,3.839c0,4.019,3.659,7.678,7.678,7.678
			s7.678-3.659,7.678-7.678v-34.79c1.26-0.42,2.519-0.66,3.839-0.66c1.319,0,2.579,0.24,3.839,0.66V116.912z M128.838,46.013
			c-1.26-0.06-2.579-0.12-3.839-0.12s-2.579,0.06-3.839,0.12v-5.878c0-2.1,1.739-3.839,3.839-3.839s3.839,1.739,3.839,3.839V46.013z
			"/>
	</g>
</g>
</svg>
