<?xml version="1.0" encoding="utf-8"?>
<!-- Generator: Adobe Illustrator 16.0.3, SVG Export Plug-In . SVG Version: 6.00 Build 0)  -->
<!DOCTYPE svg PUBLIC "-//W3C//DTD SVG 1.1//EN" "http://www.w3.org/Graphics/SVG/1.1/DTD/svg11.dtd">
<svg version="1.1" xmlns="http://www.w3.org/2000/svg" xmlns:xlink="http://www.w3.org/1999/xlink" x="0px" y="0px" width="250px"
	 height="250px" viewBox="0 0 250 250" enable-background="new 0 0 250 250" xml:space="preserve">
<g id="CIB_background">
	<rect fill="#5B1447" width="250" height="250"/>
</g>
<g id="CIB_Text">
	<path fill="#FFFFFF" d="M103.499,233.757c-3.505,0-6.274-1.117-8.229-3.319c-0.938-0.997-1.644-2.104-2.1-3.288
		c-0.401-1.036-0.68-2.051-0.828-3.012c-0.146-0.95-0.204-1.766-0.177-2.493c0.017-0.479,0.027-0.777,0.027-0.892V196.74
		c0-3.916,1.245-7.069,3.7-9.372c1.039-0.93,2.201-1.637,3.504-2.147c1.323-0.518,2.703-0.78,4.103-0.78
		c2.764,0,5.294,0.924,7.521,2.744c1.379,1.158,2.417,2.688,3.114,4.57c0.64,1.73,0.964,3.624,0.964,5.628v2.835h-6.954v-2.835
		c0-1.151-0.159-2.137-0.473-2.929c-0.303-0.762-0.681-1.374-1.122-1.815c-0.445-0.444-0.921-0.763-1.456-0.973
		c-1.184-0.461-2.19-0.415-3.253-0.016c-0.512,0.194-0.958,0.479-1.361,0.87c-0.385,0.375-0.711,0.901-0.969,1.565
		c-0.28,0.72-0.421,1.612-0.421,2.654v24.073c0,0.896,0.04,1.597,0.118,2.14c0.067,0.476,0.213,1.012,0.433,1.6
		c0.161,0.429,0.399,0.808,0.729,1.159c0.464,0.508,1.266,1.148,3.132,1.148c1.497,0,2.58-0.378,3.313-1.154
		c0.317-0.34,0.553-0.722,0.714-1.162c0.228-0.622,0.388-1.221,0.476-1.778c0.093-0.59,0.141-1.325,0.141-2.186v-2.835h6.896v3.74
		c0,0.724-0.079,1.555-0.243,2.539c-0.167,0.995-0.449,2.033-0.838,3.088c-0.463,1.253-1.166,2.383-2.088,3.36
		C109.796,232.654,106.982,233.757,103.499,233.757z"/>
	<rect x="121.523" y="184.966" fill="#FFFFFF" width="6.896" height="48.148"/>
	<path fill="#FFFFFF" d="M144.281,233.173h-9.554v-48.266h10.197c2.222,0,3.965,0.402,5.327,1.23
		c1.242,0.757,2.32,1.801,3.209,3.105c1.771,2.637,2.642,5.6,2.595,8.823c0.001,1.451-0.181,2.872-0.538,4.182
		c-0.354,1.304-0.844,2.497-1.454,3.544c-0.243,0.419-0.504,0.814-0.781,1.185c0.754,0.583,1.394,1.247,1.91,1.986
		c0.966,1.401,1.688,2.951,2.16,4.626c0.458,1.63,0.69,3.353,0.69,5.121c0,2.985-0.443,5.37-1.354,7.292
		c-0.914,1.925-2.101,3.453-3.528,4.544c-1.405,1.07-2.962,1.795-4.63,2.154C147.078,233.014,145.647,233.173,144.281,233.173z
		 M141.624,226.275h2.657c1.499,0,2.714-0.202,3.608-0.601c0.84-0.375,1.469-0.842,1.923-1.427c0.491-0.634,0.827-1.364,1.027-2.23
		c0.235-1.023,0.339-2.109,0.308-3.229c-0.063-2.835-0.643-4.921-1.679-6.05c-0.973-1.058-2.719-1.595-5.188-1.595h-2.657V226.275z
		 M141.624,204.247h3.768c0.465,0,0.857-0.104,1.236-0.331c0.471-0.281,0.874-0.668,1.229-1.179c0.4-0.575,0.719-1.27,0.944-2.061
		c0.237-0.835,0.357-1.738,0.357-2.681c0-0.926-0.126-1.813-0.375-2.638c-0.241-0.794-0.567-1.485-0.969-2.049
		c-0.369-0.519-0.776-0.913-1.242-1.205c-0.327-0.205-0.665-0.301-1.064-0.301h-3.885V204.247z"/>
</g>
<g id="CIB_Symbol">
	<g enable-background="new    ">
		<path fill="#FFFFFF" d="M172.988,85.659c-0.541,0-0.96-0.239-1.38-0.6c-3.479-3.239-6.718-5.519-11.696-5.519
			c-5.699,0-10.617,3.539-13.856,8.038c-0.72,1.02-1.26,2.099-1.919,3.119c-0.42,0.659-0.9,1.02-1.68,1.02
			c-0.84,0-1.32-0.36-1.74-1.02c-0.659-1.021-1.199-2.1-1.919-3.119c-3.239-4.499-8.098-8.038-13.796-8.038
			s-10.557,3.539-13.796,8.038c-0.72,1.02-1.26,2.099-1.919,3.119c-0.42,0.659-0.9,1.02-1.74,1.02c-0.779,0-1.259-0.36-1.679-1.02
			c-0.66-1.021-1.2-2.1-1.919-3.119c-3.239-4.499-8.158-8.038-13.856-8.038c-4.979,0-8.218,2.279-11.697,5.519
			c-0.42,0.36-0.839,0.6-1.379,0.6c-1.02,0-1.919-0.899-1.919-1.919c0-0.181,0-0.3,0.06-0.42
			c5.518-22.674,27.412-35.51,49.845-35.51c22.313,0,44.447,12.836,49.846,35.51c0.06,0.12,0.06,0.239,0.06,0.42
			C174.907,84.76,174.008,85.659,172.988,85.659z M128.841,116.91c0,8.338-7.018,15.355-15.355,15.355S98.13,125.248,98.13,116.91
			c0-2.1,1.739-3.839,3.839-3.839s3.839,1.739,3.839,3.839c0,4.019,3.659,7.678,7.678,7.678s7.678-3.659,7.678-7.678V82.12
			c1.26-0.42,2.519-0.659,3.839-0.659c1.32,0,2.579,0.239,3.839,0.659V116.91z M128.841,46.011c-1.26-0.06-2.579-0.12-3.839-0.12
			s-2.579,0.061-3.839,0.12v-5.878c0-2.1,1.739-3.839,3.839-3.839s3.839,1.739,3.839,3.839V46.011z"/>
	</g>
</g>
</svg>
