<?xml version="1.0" encoding="utf-8"?>
<!-- Generator: Adobe Illustrator 16.0.3, SVG Export Plug-In . SVG Version: 6.00 Build 0)  -->
<!DOCTYPE svg PUBLIC "-//W3C//DTD SVG 1.1//EN" "http://www.w3.org/Graphics/SVG/1.1/DTD/svg11.dtd">
<svg version="1.1" xmlns="http://www.w3.org/2000/svg" xmlns:xlink="http://www.w3.org/1999/xlink" x="0px" y="0px" width="250px"
	 height="250px" viewBox="0 0 250 250" enable-background="new 0 0 250 250" xml:space="preserve">
<g id="CSR_background">
	<rect fill="#9BC53D" width="250" height="250"/>
</g>
<g id="CSR_Text">
	<g>
		<path fill="#FFFFFF" d="M103.388,219.45c0,0.043,0,0.38,0,1.007c0,0.629-0.076,1.397-0.228,2.308
			c-0.152,0.91-0.413,1.864-0.78,2.86c-0.369,0.997-0.921,1.885-1.657,2.665c-1.69,1.777-4.03,2.665-7.02,2.665
			c-2.99,0-5.265-0.888-6.825-2.665c-0.78-0.823-1.355-1.712-1.722-2.665c-0.369-0.953-0.618-1.853-0.748-2.697
			c-0.13-0.846-0.185-1.57-0.163-2.178c0.021-0.606,0.032-0.976,0.032-1.105V192.93c0-3.467,1.04-6.175,3.12-8.125
			c0.823-0.736,1.788-1.321,2.893-1.755c1.105-0.433,2.243-0.649,3.413-0.649c2.34,0,4.462,0.779,6.37,2.34
			c1.083,0.91,1.917,2.156,2.502,3.737c0.585,1.582,0.877,3.305,0.877,5.167h-1.43c0-1.689-0.25-3.162-0.748-4.42
			c-0.499-1.256-1.148-2.285-1.95-3.088c-0.803-0.801-1.701-1.396-2.698-1.787c-0.997-0.39-1.972-0.585-2.925-0.585
			c-0.998,0-1.982,0.185-2.958,0.553s-1.842,0.921-2.6,1.657c-0.759,0.738-1.365,1.69-1.82,2.86s-0.683,2.535-0.683,4.095v26.78
			v0.064c0,1.084,0.054,2.005,0.163,2.763c0.107,0.759,0.325,1.571,0.65,2.438c0.325,0.867,0.813,1.647,1.462,2.34
			c1.386,1.518,3.315,2.275,5.785,2.275c2.556,0,4.55-0.758,5.98-2.275c0.65-0.692,1.137-1.483,1.462-2.372
			c0.325-0.888,0.553-1.744,0.683-2.567s0.195-1.798,0.195-2.925H103.388z"/>
		<path fill="#FFFFFF" d="M117.947,228.55c-1.083-0.952-1.896-2.231-2.438-3.835c-0.542-1.603-0.813-3.315-0.813-5.135h1.365
			c0,2.08,0.292,3.77,0.877,5.069c0.585,1.301,1.321,2.308,2.21,3.023c0.888,0.715,1.853,1.191,2.893,1.43s2.015,0.357,2.925,0.357
			c1.126,0,2.243-0.162,3.347-0.487c1.105-0.325,2.102-0.846,2.99-1.561c0.888-0.715,1.603-1.657,2.146-2.827
			c0.541-1.17,0.813-2.6,0.813-4.29c0-1.95-0.282-3.65-0.845-5.103c-0.564-1.451-1.312-2.74-2.243-3.867
			c-0.933-1.127-1.982-2.134-3.152-3.023c-1.17-0.888-2.362-1.765-3.575-2.632c-1.17-0.822-2.286-1.635-3.347-2.438
			c-1.063-0.801-2.026-1.7-2.893-2.697c-1.907-2.297-2.86-4.854-2.86-7.67c0-0.131,0-0.465,0-1.008c0-0.541,0.072-1.18,0.217-1.918
			c0.144-0.736,0.383-1.537,0.715-2.404c0.331-0.867,0.865-1.668,1.603-2.405c1.69-1.819,4.051-2.729,7.085-2.729
			c3.077,0,5.395,0.91,6.956,2.729c0.649,0.78,1.115,1.636,1.397,2.567c0.281,0.933,0.465,1.82,0.552,2.665s0.119,1.56,0.098,2.146
			c-0.022,0.584-0.032,0.899-0.032,0.941h-1.365c0.043-1.039,0.021-1.949-0.064-2.729c-0.088-0.78-0.25-1.593-0.488-2.438
			s-0.64-1.593-1.202-2.242c-0.649-0.736-1.452-1.3-2.405-1.69c-0.953-0.39-2.102-0.585-3.445-0.585
			c-2.644,0-4.659,0.759-6.045,2.275c-0.607,0.649-1.062,1.364-1.365,2.146c-0.304,0.779-0.52,1.506-0.65,2.177
			c-0.13,0.673-0.195,1.485-0.195,2.438c0,1.431,0.239,2.698,0.717,3.803c0.478,1.104,1.109,2.124,1.892,3.055
			c0.782,0.933,1.685,1.788,2.707,2.567c1.021,0.78,2.076,1.561,3.164,2.34c1.26,0.867,2.5,1.777,3.717,2.73
			c1.217,0.954,2.326,2.037,3.327,3.25c2.261,2.773,3.392,6.023,3.392,9.75c0,3.51-1.171,6.24-3.511,8.19
			c-1.907,1.56-4.289,2.34-7.15,2.34c-0.997,0-2.135-0.142-3.412-0.423C120.276,230.121,119.074,229.504,117.947,228.55z"/>
		<path fill="#FFFFFF" d="M157.401,209.83c-0.478,0.087-0.965,0.141-1.463,0.162c-0.498,0.022-1.029,0.032-1.592,0.032h-6.11v20.216
			h-0.715h-0.65v-46.476v-0.78h0.78h6.695c2.34,0,4.3,0.369,5.882,1.105c1.582,0.737,2.806,1.777,3.673,3.12
			c0.822,1.3,1.463,2.763,1.918,4.388s0.682,3.261,0.682,4.907c0,1.69-0.227,3.348-0.682,4.973s-1.096,3.065-1.918,4.322
			c-0.607,0.954-1.322,1.755-2.145,2.405c-0.824,0.649-1.864,1.104-3.12,1.365L157.401,209.83z M162.731,205.076
			c0.736-1.174,1.321-2.51,1.755-4.01c0.433-1.498,0.65-3.029,0.65-4.594c0-1.521-0.218-3.031-0.65-4.529
			c-0.434-1.5-1.019-2.836-1.755-4.01c-0.737-1.129-1.799-2.008-3.185-2.639c-1.388-0.629-3.12-0.945-5.2-0.945h-6.11v24.311h6.11
			c2.513,0,4.354-0.315,5.524-0.945C161.041,207.086,161.994,206.205,162.731,205.076z M158.637,209.57l9.035,20.604h-1.431
			l-8.904-20.345L158.637,209.57z"/>
	</g>
</g>
<g id="CSR_Symbol">
	<g>
		<path fill="#FFFFFF" d="M177.547,74.386c-3.838,18.654-15.836,30.771-32.51,39.049c-8.098,4.078-17.156,6.478-26.273,6.478
			c-5.758,0-11.696-0.96-17.155-2.819c-2.879-0.959-8.638-4.738-11.037-4.738c-2.999,0-6.598,12.236-11.817,12.236
			c-3.779,0-4.918-1.859-6.538-4.618c-0.54-1.021-0.96-1.38-0.96-2.64c0-6.238,11.876-11.097,11.876-14.576
			c0-0.539-1.56-3.719-1.799-4.918c-0.36-2.039-0.54-4.139-0.54-6.238c0-19.074,15.176-32.69,32.21-38.329
			c12.296-4.078,38.449,0.66,46.787-7.258c3.299-3.059,4.918-5.878,9.957-5.878c6.777,0,8.996,17.575,8.996,22.673
			C178.746,66.648,178.326,70.547,177.547,74.386z M144.197,70.847c-21.234,0-34.91,8.877-48.766,24.173
			c-0.72,0.78-1.14,1.619-1.14,2.699c0,2.1,1.739,3.839,3.839,3.839c1.08,0,1.919-0.42,2.699-1.14
			c2.939-2.64,5.578-5.519,8.458-8.218c10.857-9.777,20.154-13.676,34.91-13.676c2.1,0,3.838-1.739,3.838-3.839
			S146.297,70.847,144.197,70.847z"/>
	</g>
</g>
</svg>
