<?xml version="1.0" encoding="utf-8"?>
<!-- Generator: Adobe Illustrator 16.0.3, SVG Export Plug-In . SVG Version: 6.00 Build 0)  -->
<!DOCTYPE svg PUBLIC "-//W3C//DTD SVG 1.1//EN" "http://www.w3.org/Graphics/SVG/1.1/DTD/svg11.dtd">
<svg version="1.1" xmlns="http://www.w3.org/2000/svg" xmlns:xlink="http://www.w3.org/1999/xlink" x="0px" y="0px" width="250px"
	 height="250px" viewBox="0 0 250 250" enable-background="new 0 0 250 250" xml:space="preserve">
<g id="CSR_background">
	<rect fill="#9BC53D" width="250" height="250"/>
</g>
<g id="CSR_Text">
	<path fill="#FFFFFF" d="M96.867,233.757c-3.505,0-6.274-1.117-8.229-3.319c-0.938-0.997-1.644-2.104-2.1-3.288
		c-0.401-1.036-0.68-2.051-0.828-3.012c-0.146-0.95-0.204-1.766-0.177-2.493c0.017-0.479,0.027-0.777,0.027-0.892V196.74
		c0-3.916,1.245-7.069,3.7-9.372c1.039-0.93,2.201-1.637,3.504-2.147c1.323-0.518,2.703-0.78,4.103-0.78
		c2.764,0,5.294,0.924,7.521,2.744c1.379,1.158,2.417,2.688,3.114,4.57c0.64,1.73,0.964,3.624,0.964,5.628v2.835h-6.954v-2.835
		c0-1.151-0.159-2.137-0.473-2.929c-0.303-0.762-0.681-1.374-1.122-1.815c-0.445-0.444-0.921-0.763-1.456-0.973
		c-1.184-0.461-2.189-0.415-3.253-0.016c-0.512,0.194-0.958,0.479-1.361,0.87c-0.385,0.375-0.711,0.901-0.969,1.565
		c-0.28,0.72-0.421,1.612-0.421,2.654v24.073c0,0.896,0.04,1.597,0.118,2.14c0.067,0.476,0.213,1.012,0.433,1.6
		c0.161,0.429,0.399,0.808,0.729,1.159c0.464,0.508,1.266,1.148,3.132,1.148c1.497,0,2.58-0.378,3.313-1.154
		c0.317-0.34,0.553-0.722,0.714-1.162c0.228-0.622,0.388-1.221,0.476-1.778c0.093-0.59,0.141-1.325,0.141-2.186v-2.835h6.896v3.74
		c0,0.724-0.079,1.555-0.243,2.539c-0.167,0.995-0.449,2.033-0.838,3.088c-0.463,1.253-1.166,2.383-2.088,3.36
		C103.164,232.654,100.35,233.757,96.867,233.757z"/>
	<path fill="#FFFFFF" d="M124.971,233.64c-1.099,0-2.336-0.15-3.678-0.445c-1.599-0.353-3.101-1.116-4.465-2.271
		c-1.388-1.22-2.399-2.79-3.045-4.703c-0.583-1.724-0.879-3.582-0.879-5.522v-2.835h6.896v2.835c0,1.814,0.293,2.847,0.54,3.393
		c0.339,0.754,0.735,1.316,1.18,1.674c0.463,0.373,0.939,0.612,1.454,0.729c1.603,0.368,2.875,0.317,4.208-0.073
		c0.638-0.188,1.197-0.479,1.71-0.892c0.457-0.368,0.828-0.867,1.132-1.523c0.311-0.67,0.468-1.566,0.468-2.665
		c0-1.391-0.19-2.59-0.568-3.563c-0.393-1.014-0.916-1.92-1.557-2.695c-0.696-0.841-1.491-1.603-2.363-2.265
		c-1.03-0.782-2.081-1.556-3.149-2.319c-1.06-0.745-2.089-1.495-3.068-2.234c-1.107-0.836-2.127-1.787-3.032-2.828
		c-2.18-2.624-3.265-5.553-3.265-8.754v-0.905c0-0.679,0.081-1.421,0.249-2.271c0.16-0.816,0.422-1.701,0.777-2.629
		c0.431-1.13,1.12-2.179,2.045-3.114c2.067-2.204,4.896-3.321,8.411-3.321c3.618,0,6.445,1.158,8.404,3.443
		c0.85,1.019,1.453,2.13,1.817,3.331c0.304,1.008,0.507,1.992,0.603,2.928c0.093,0.898,0.126,1.659,0.102,2.324
		c-0.018,0.448-0.026,0.707-0.028,0.78l-0.057,2.776l-6.956,0.02l0.12-2.95c0.032-0.789,0.018-1.472-0.044-2.029
		c-0.062-0.542-0.18-1.128-0.35-1.733c-0.101-0.354-0.263-0.659-0.495-0.928c-0.277-0.313-0.641-0.566-1.096-0.753
		c-0.507-0.207-1.188-0.313-2.02-0.313c-2.315,0-3.088,0.845-3.342,1.122c-0.321,0.344-0.535,0.677-0.677,1.041
		c-0.211,0.542-0.36,1.035-0.444,1.471c-0.082,0.425-0.124,0.981-0.124,1.652c0,0.891,0.139,1.662,0.412,2.293
		c0.319,0.737,0.746,1.426,1.269,2.047c0.566,0.675,1.232,1.306,1.984,1.88c0.896,0.685,1.821,1.368,2.775,2.053
		c1.144,0.787,2.314,1.647,3.438,2.526c1.246,0.976,2.399,2.102,3.429,3.348c2.458,3.016,3.698,6.567,3.698,10.57
		c0,4.021-1.405,7.231-4.176,9.54C130.968,232.717,128.201,233.64,124.971,233.64z"/>
	<path fill="#FFFFFF" d="M148.724,233.114h-6.897v-48.148h9.555c2.506,0,4.688,0.423,6.482,1.258
		c1.91,0.891,3.419,2.182,4.488,3.838c0.899,1.42,1.592,3,2.072,4.719c0.477,1.702,0.719,3.443,0.719,5.174
		c0,1.77-0.242,3.53-0.72,5.234c-0.483,1.73-1.185,3.304-2.082,4.675c-0.694,1.091-1.557,2.055-2.542,2.833
		c-0.249,0.196-0.512,0.38-0.788,0.549l8.687,19.811h-7.478l-7.933-18.123c-0.291,0.006-0.594,0.01-0.906,0.01h-2.657V233.114z
		 M148.724,208.046h2.657c2.414,0,3.338-0.356,3.623-0.511c0.633-0.34,1.136-0.806,1.539-1.425c0.493-0.786,0.916-1.757,1.23-2.843
		c0.313-1.087,0.472-2.212,0.472-3.343c0-1.092-0.159-2.197-0.473-3.286c-0.313-1.084-0.736-2.055-1.255-2.882
		c-0.339-0.519-0.882-0.957-1.633-1.298c-0.874-0.396-2.053-0.597-3.504-0.597h-2.657V208.046z"/>
</g>
<g id="CSR_Symbol">
	<g enable-background="new    ">
		<path fill="#FFFFFF" d="M177.547,74.383c-3.839,18.654-15.836,30.771-32.51,39.049c-8.098,4.078-17.156,6.478-26.273,6.478
			c-5.758,0-11.696-0.96-17.155-2.819c-2.879-0.959-8.638-4.738-11.037-4.738c-2.999,0-6.598,12.236-11.817,12.236
			c-3.779,0-4.918-1.859-6.538-4.618c-0.54-1.021-0.96-1.38-0.96-2.64c0-6.238,11.876-11.097,11.876-14.576
			c0-0.539-1.56-3.719-1.799-4.918c-0.36-2.039-0.54-4.139-0.54-6.238c0-19.074,15.176-32.69,32.21-38.329
			c12.296-4.078,38.449,0.66,46.786-7.258c3.3-3.059,4.919-5.878,9.957-5.878c6.778,0,8.997,17.575,8.997,22.673
			C178.746,66.645,178.326,70.544,177.547,74.383z M144.197,70.844c-21.234,0-34.91,8.877-48.766,24.173
			c-0.72,0.78-1.14,1.619-1.14,2.699c0,2.1,1.739,3.839,3.839,3.839c1.08,0,1.919-0.42,2.699-1.14
			c2.939-2.64,5.578-5.519,8.458-8.218c10.857-9.777,20.154-13.676,34.91-13.676c2.1,0,3.838-1.739,3.838-3.839
			S146.297,70.844,144.197,70.844z"/>
	</g>
</g>
</svg>
