<?xml version="1.0" encoding="utf-8"?>
<!-- Generator: Adobe Illustrator 16.0.3, SVG Export Plug-In . SVG Version: 6.00 Build 0)  -->
<!DOCTYPE svg PUBLIC "-//W3C//DTD SVG 1.1//EN" "http://www.w3.org/Graphics/SVG/1.1/DTD/svg11.dtd">
<svg version="1.1" xmlns="http://www.w3.org/2000/svg" xmlns:xlink="http://www.w3.org/1999/xlink" x="0px" y="0px" width="250px"
	 height="250px" viewBox="0 0 250 250" enable-background="new 0 0 250 250" xml:space="preserve">
<g id="Default_background">
	<rect fill="#B3B3B3" width="250" height="250"/>
</g>
<g id="Default_Symbol">
	<g>
		<path fill="#FFFFFF" d="M184.883,109.716c-1.743-1.742-3.846-2.617-6.313-2.617V80.316c0-2.421-0.882-4.511-2.65-6.279
			c-1.764-1.77-3.862-2.651-6.279-2.651c-21.437,17.859-42.272,26.784-62.498,26.784H73.662c-3.069,0-5.699,1.096-7.885,3.282
			c-2.185,2.187-3.277,4.812-3.277,7.88v13.394c0,3.068,1.092,5.697,3.277,7.88c2.187,2.187,4.813,3.281,7.881,3.281h8.511
			c-0.79,2.509-1.3,5.079-1.535,7.705c-0.23,2.629-0.313,4.92-0.242,6.872c0.066,1.952,0.417,4.302,1.044,7.044
			c0.627,2.743,1.162,4.813,1.605,6.208c0.439,1.396,1.184,3.592,2.232,6.593c1.046,2.998,1.731,5.033,2.058,6.104
			c2.136,1.952,5.208,3.244,9.206,3.871c4,0.627,7.917,0.359,11.755-0.803c3.837-1.162,6.429-3.094,7.776-5.79
			c-1.765-1.396-3.195-2.57-4.29-3.523c-1.092-0.953-2.208-2.115-3.349-3.487c-1.138-1.371-1.915-2.65-2.337-3.833
			c-0.417-1.188-0.555-2.537-0.417-4.047c0.143-1.513,0.678-3.035,1.605-4.569c-1.769-1.814-2.697-3.967-2.789-6.454
			c-0.092-2.487,0.627-4.824,2.162-7.011c1.534-2.183,3.65-3.717,6.347-4.603c18.373,1.534,37.251,10.371,56.64,26.508
			c2.417,0,4.516-0.886,6.279-2.65c1.769-1.769,2.65-3.862,2.65-6.279v-26.784c2.467,0,4.569-0.874,6.313-2.617
			c1.743-1.743,2.617-3.845,2.617-6.312C187.5,113.563,186.626,111.459,184.883,109.716L184.883,109.716z M169.641,149.23
			c-18.181-13.904-36.039-21.831-53.567-23.787v-18.833c17.39-1.906,35.249-9.883,53.567-23.924V149.23z M169.641,149.23"/>
	</g>
</g>
</svg>
