<?xml version="1.0" encoding="utf-8"?>
<!-- Generator: Adobe Illustrator 16.0.3, SVG Export Plug-In . SVG Version: 6.00 Build 0)  -->
<!DOCTYPE svg PUBLIC "-//W3C//DTD SVG 1.1//EN" "http://www.w3.org/Graphics/SVG/1.1/DTD/svg11.dtd">
<svg version="1.1" xmlns="http://www.w3.org/2000/svg" xmlns:xlink="http://www.w3.org/1999/xlink" x="0px" y="0px" width="250px"
	 height="250px" viewBox="0 0 250 250" enable-background="new 0 0 250 250" xml:space="preserve">
<g id="Default_background">
	<rect fill="#B3B3B3" width="250" height="250"/>
</g>
<g id="Default_Text">
	<g>
		<path fill="#FFFFFF" d="M63.607,234.713h5.991v0.413v0.505H56.523v-0.505c0-0.062-0.008-0.122-0.022-0.184
			c-0.015-0.061-0.022-0.106-0.022-0.138v-0.092h6.166l0.044-29.256l-5.51,5.458l-0.612-0.655l6.341-6.375h0.656L63.607,234.713z"/>
		<path fill="#FFFFFF" d="M75.369,235.763v-0.438c0-1.312,0.182-2.587,0.547-3.826c0.364-1.239,0.925-2.515,1.683-3.826
			c0.67-1.137,1.406-2.237,2.208-3.302c0.801-1.063,1.625-2.105,2.471-3.126c0.962-1.166,1.8-2.193,2.514-3.083
			c0.714-0.889,1.312-1.728,1.793-2.515s0.845-1.574,1.093-2.361c0.247-0.787,0.372-1.676,0.372-2.667v-0.044
			c0-0.263-0.007-0.524-0.022-0.787s-0.051-0.524-0.109-0.787c-0.087-0.466-0.233-0.962-0.437-1.487
			c-0.205-0.524-0.51-1.005-0.918-1.442c-0.962-1.021-2.317-1.53-4.066-1.53c-1.808,0-3.12,0.496-3.936,1.486
			c-0.379,0.438-0.649,0.947-0.809,1.53c-0.161,0.584-0.262,1.13-0.306,1.64c-0.044,0.511-0.051,1.131-0.022,1.858h-0.918
			c0-0.028-0.015-0.247-0.044-0.655c-0.029-0.408-0.015-0.889,0.044-1.443c0.058-0.554,0.182-1.144,0.37-1.771
			s0.501-1.203,0.937-1.728c1.017-1.225,2.571-1.837,4.663-1.837c2.034,0,3.617,0.612,4.75,1.837
			c0.465,0.496,0.82,1.035,1.067,1.618c0.247,0.583,0.421,1.122,0.523,1.617c0.101,0.496,0.152,0.926,0.152,1.29
			c0,0.365,0,0.591,0,0.678c0,1.05-0.167,2.049-0.501,2.996c-0.334,0.947-0.785,1.865-1.351,2.755s-1.213,1.778-1.939,2.667
			c-0.726,0.89-1.467,1.801-2.223,2.733c-0.813,0.991-1.605,1.989-2.375,2.995s-1.467,2.041-2.091,3.104
			c-0.625,1.064-1.133,2.172-1.525,3.323c-0.392,1.152-0.618,2.354-0.676,3.607l11.981-0.087v1.006H75.369z"/>
		<path fill="#FFFFFF" d="M108.864,228.635c-0.029,0.088-0.044,0.321-0.044,0.699c0,0.38-0.051,0.839-0.153,1.378
			c-0.103,0.54-0.277,1.115-0.525,1.728c-0.248,0.611-0.62,1.181-1.115,1.705c-1.137,1.195-2.697,1.793-4.679,1.793
			c-1.954,0-3.484-0.598-4.591-1.793c-0.496-0.524-0.868-1.107-1.115-1.749c-0.248-0.641-0.416-1.253-0.503-1.837
			c-0.117-0.67-0.161-1.355-0.131-2.055h0.962c0,0.029,0,0.219,0,0.568s0.036,0.772,0.109,1.268
			c0.072,0.496,0.211,1.035,0.415,1.618c0.204,0.584,0.525,1.108,0.962,1.574c0.903,0.991,2.201,1.486,3.892,1.486
			c1.72,0,3.061-0.509,4.023-1.53c0.438-0.466,0.758-0.977,0.962-1.53c0.204-0.554,0.35-1.071,0.438-1.553
			c0.087-0.48,0.131-1.056,0.131-1.727L108.864,228.635z M107.902,228.679v-6.69c0-0.029,0.007-0.226,0.021-0.591
			c0.015-0.364-0.015-0.794-0.087-1.29c-0.073-0.495-0.212-1.027-0.416-1.596c-0.204-0.568-0.524-1.086-0.962-1.553
			c-0.962-1.049-2.259-1.574-3.892-1.574c-1.341-0.028-2.522-0.043-3.542-0.043c-1.021,0-1.939,0-2.755,0l0.043-10.977v-0.48h12.288
			v0.48v0.263H97.276l-0.044,9.883l5.335,0.044c1.953,0,3.483,0.598,4.591,1.792c0.496,0.525,0.867,1.102,1.115,1.728
			c0.247,0.627,0.416,1.218,0.503,1.771s0.124,1.027,0.109,1.421c-0.015,0.394-0.022,0.634-0.022,0.722v6.646L107.902,228.679z"/>
		<path fill="#FFFFFF" d="M125.432,221.155l-0.405-1.065l-0.405,1.065l-2.43,6.374h-0.49l2.494-6.523l0.575-1.513l-2.813-7.376
			h0.469l2.58,6.971l2.622-6.971h0.47l-2.835,7.376l0.575,1.513l2.516,6.502h-0.49L125.432,221.155z"/>
		<path fill="#FFFFFF" d="M146.873,234.713h5.991v0.413v0.505h-13.075v-0.505c0-0.062-0.007-0.122-0.021-0.184
			c-0.015-0.061-0.021-0.106-0.021-0.138v-0.092h6.165l0.044-29.256l-5.51,5.458l-0.612-0.655l6.341-6.375h0.655L146.873,234.713z"
			/>
		<path fill="#FFFFFF" d="M158.636,235.763v-0.438c0-1.312,0.182-2.587,0.547-3.826c0.364-1.239,0.925-2.515,1.684-3.826
			c0.67-1.137,1.406-2.237,2.208-3.302c0.802-1.063,1.625-2.105,2.471-3.126c0.962-1.166,1.8-2.193,2.515-3.083
			c0.714-0.889,1.312-1.728,1.792-2.515c0.481-0.787,0.846-1.574,1.094-2.361c0.247-0.787,0.372-1.676,0.372-2.667v-0.044
			c0-0.263-0.008-0.524-0.022-0.787s-0.051-0.524-0.109-0.787c-0.087-0.466-0.233-0.962-0.438-1.487
			c-0.204-0.524-0.51-1.005-0.918-1.442c-0.962-1.021-2.317-1.53-4.066-1.53c-1.808,0-3.12,0.496-3.936,1.486
			c-0.379,0.438-0.649,0.947-0.81,1.53c-0.16,0.584-0.262,1.13-0.306,1.64c-0.044,0.511-0.051,1.131-0.021,1.858h-0.919
			c0-0.028-0.015-0.247-0.043-0.655c-0.03-0.408-0.016-0.889,0.043-1.443c0.059-0.554,0.182-1.144,0.371-1.771
			c0.188-0.627,0.5-1.203,0.937-1.728c1.017-1.225,2.57-1.837,4.662-1.837c2.033,0,3.617,0.612,4.75,1.837
			c0.465,0.496,0.82,1.035,1.067,1.618s0.422,1.122,0.523,1.617c0.101,0.496,0.152,0.926,0.152,1.29c0,0.365,0,0.591,0,0.678
			c0,1.05-0.168,2.049-0.502,2.996s-0.784,1.865-1.351,2.755s-1.213,1.778-1.938,2.667c-0.727,0.89-1.468,1.801-2.223,2.733
			c-0.813,0.991-1.605,1.989-2.375,2.995c-0.771,1.006-1.468,2.041-2.092,3.104c-0.625,1.064-1.133,2.172-1.525,3.323
			c-0.392,1.152-0.617,2.354-0.676,3.607l11.981-0.087v1.006H158.636z"/>
		<path fill="#FFFFFF" d="M192.131,228.635c-0.029,0.088-0.044,0.321-0.044,0.699c0,0.38-0.051,0.839-0.153,1.378
			c-0.103,0.54-0.277,1.115-0.524,1.728c-0.248,0.611-0.62,1.181-1.115,1.705c-1.137,1.195-2.696,1.793-4.679,1.793
			c-1.953,0-3.483-0.598-4.592-1.793c-0.496-0.524-0.867-1.107-1.114-1.749c-0.248-0.641-0.416-1.253-0.503-1.837
			c-0.117-0.67-0.161-1.355-0.132-2.055h0.962c0,0.029,0,0.219,0,0.568s0.036,0.772,0.109,1.268
			c0.073,0.496,0.212,1.035,0.416,1.618c0.203,0.584,0.524,1.108,0.962,1.574c0.903,0.991,2.2,1.486,3.892,1.486
			c1.72,0,3.061-0.509,4.023-1.53c0.437-0.466,0.757-0.977,0.962-1.53c0.203-0.554,0.35-1.071,0.437-1.553
			c0.088-0.48,0.132-1.056,0.132-1.727L192.131,228.635z M191.169,228.679v-6.69c0-0.029,0.007-0.226,0.021-0.591
			c0.015-0.364-0.015-0.794-0.087-1.29c-0.073-0.495-0.212-1.027-0.416-1.596s-0.524-1.086-0.962-1.553
			c-0.962-1.049-2.26-1.574-3.892-1.574c-1.341-0.028-2.521-0.043-3.542-0.043s-1.939,0-2.755,0l0.044-10.977v-0.48h12.287v0.48
			v0.263h-11.325l-0.044,9.883l5.335,0.044c1.953,0,3.483,0.598,4.592,1.792c0.495,0.525,0.866,1.102,1.114,1.728
			c0.248,0.627,0.416,1.218,0.503,1.771c0.088,0.554,0.124,1.027,0.109,1.421s-0.021,0.634-0.021,0.722v6.646L191.169,228.679z"/>
	</g>
</g>
<g id="Default_Symbol">
	<g>
		<path fill="#FFFFFF" d="M178.747,78.519c0,4.259-3.419,7.678-7.678,7.678v23.033c0,4.199-3.479,7.678-7.678,7.678
			c-10.677-8.877-27.892-21.054-48.705-22.793c-7.138,2.399-9.597,10.737-4.918,15.536c-4.199,6.898,1.2,11.756,7.558,16.734
			c-3.719,7.318-19.194,7.438-24.713,2.34c-3.479-10.677-8.637-21.354-4.438-34.85h-7.318c-5.278,0-9.597-4.319-9.597-9.597V72.76
			c0-5.278,4.319-9.597,9.597-9.597h28.792c23.033,0,42.228-13.436,53.744-23.033c4.199,0,7.678,3.479,7.678,7.678v23.033
			C175.328,70.841,178.747,74.26,178.747,78.519z M163.392,49.847c-15.655,11.996-30.83,18.894-46.066,20.574v16.195
			c15.236,1.68,30.411,8.458,46.066,20.454V49.847z"/>
	</g>
</g>
</svg>
