<?xml version="1.0" encoding="utf-8"?>
<!-- Generator: Adobe Illustrator 16.0.3, SVG Export Plug-In . SVG Version: 6.00 Build 0)  -->
<!DOCTYPE svg PUBLIC "-//W3C//DTD SVG 1.1//EN" "http://www.w3.org/Graphics/SVG/1.1/DTD/svg11.dtd">
<svg version="1.1" xmlns="http://www.w3.org/2000/svg" xmlns:xlink="http://www.w3.org/1999/xlink" x="0px" y="0px" width="250px"
	 height="250px" viewBox="0 0 250 250" enable-background="new 0 0 250 250" xml:space="preserve">
<g id="Default_background">
	<rect fill="#B3B3B3" width="250" height="250"/>
</g>
<g id="Default_Symbol">
	<g enable-background="new    ">
		<path fill="#FFFFFF" d="M200,114.291c0,5.943-4.772,10.714-10.714,10.714v32.142c0,5.86-4.856,10.715-10.715,10.715
			c-14.9-12.388-38.924-29.381-67.969-31.808c-9.96,3.349-13.392,14.982-6.863,21.68c-5.86,9.625,1.673,16.406,10.546,23.354
			c-5.189,10.212-26.786,10.379-34.487,3.265c-4.855-14.9-12.054-29.8-6.194-48.633H63.392c-7.366,0-13.392-6.026-13.392-13.393
			v-16.07c0-7.367,6.026-13.394,13.392-13.394h40.179c32.143,0,58.928-18.749,75-32.143c5.858,0,10.715,4.854,10.715,10.714v32.143
			C195.228,103.576,200,108.347,200,114.291z M178.571,74.279c-21.849,16.742-43.026,26.367-64.286,28.711v22.601
			c21.259,2.344,42.437,11.801,64.286,28.543V74.279z"/>
	</g>
</g>
</svg>
