<?xml version="1.0" encoding="utf-8"?>
<!-- Generator: Adobe Illustrator 16.0.3, SVG Export Plug-In . SVG Version: 6.00 Build 0)  -->
<!DOCTYPE svg PUBLIC "-//W3C//DTD SVG 1.1//EN" "http://www.w3.org/Graphics/SVG/1.1/DTD/svg11.dtd">
<svg version="1.1" xmlns="http://www.w3.org/2000/svg" xmlns:xlink="http://www.w3.org/1999/xlink" x="0px" y="0px" width="250px"
	 height="250px" viewBox="0 0 250 250" enable-background="new 0 0 250 250" xml:space="preserve">
<g id="HR_background">
	<rect fill="#5CC0EB" width="250" height="250"/>
</g>
<g id="HR_Text">
	<g>
		<path fill="#FFFFFF" d="M119.15,182.984v47.256h-0.715h-0.65v-20.216h-17.81v20.216h-0.65H98.61v-47.256h0.715h0.65v25.806h17.81
			v-25.806h0.65H119.15z"/>
		<path fill="#FFFFFF" d="M143.2,209.83c-0.478,0.087-0.965,0.141-1.463,0.162c-0.498,0.022-1.029,0.032-1.592,0.032h-6.11v20.216
			h-0.715h-0.65v-46.476v-0.78h0.78h6.695c2.34,0,4.3,0.369,5.882,1.105c1.582,0.737,2.806,1.777,3.673,3.12
			c0.822,1.3,1.463,2.763,1.918,4.388s0.682,3.261,0.682,4.907c0,1.69-0.227,3.348-0.682,4.973s-1.096,3.065-1.918,4.322
			c-0.607,0.954-1.322,1.755-2.145,2.405c-0.824,0.649-1.864,1.104-3.12,1.365L143.2,209.83z M148.53,205.076
			c0.736-1.174,1.321-2.51,1.755-4.01c0.433-1.498,0.65-3.029,0.65-4.594c0-1.521-0.218-3.031-0.65-4.529
			c-0.434-1.5-1.019-2.836-1.755-4.01c-0.737-1.129-1.799-2.008-3.185-2.639c-1.388-0.629-3.12-0.945-5.2-0.945h-6.11v24.311h6.11
			c2.513,0,4.354-0.315,5.524-0.945C146.84,207.086,147.793,206.205,148.53,205.076z M144.436,209.57l9.035,20.604h-1.431
			l-8.904-20.345L144.436,209.57z"/>
	</g>
</g>
<g id="HR_Symbol">
	<g>
		<path fill="#FFFFFF" d="M87.093,93.869h-8.038c-5.999,0-11.637-2.879-11.637-9.537c0-4.858-0.18-21.174,7.438-21.174
			c1.259,0,7.498,5.099,15.595,5.099c2.759,0,5.398-0.48,7.978-1.38c-0.18,1.32-0.3,2.639-0.3,3.959
			c0,5.458,1.739,10.857,4.858,15.355C96.75,86.372,91.111,89.07,87.093,93.869z M90.452,63.158
			c-8.458,0-15.355-6.898-15.355-15.355s6.898-15.355,15.355-15.355s15.355,6.898,15.355,15.355S98.909,63.158,90.452,63.158z
			 M151.214,139.936H98.789c-9.597,0-16.015-5.818-16.015-15.536c0-13.556,3.179-34.37,20.754-34.37
			c2.04,0,9.477,8.337,21.474,8.337s19.434-8.337,21.474-8.337c17.574,0,20.753,20.814,20.753,34.37
			C167.229,134.117,160.811,139.936,151.214,139.936z M125.001,93.869c-12.716,0-23.033-10.317-23.033-23.033
			s10.317-23.033,23.033-23.033s23.034,10.317,23.034,23.033S137.718,93.869,125.001,93.869z M159.551,63.158
			c-8.457,0-15.355-6.898-15.355-15.355s6.898-15.355,15.355-15.355c8.458,0,15.355,6.898,15.355,15.355
			S168.009,63.158,159.551,63.158z M170.948,93.869h-8.038c-4.019-4.799-9.657-7.498-15.896-7.678
			c3.119-4.499,4.858-9.897,4.858-15.355c0-1.32-0.119-2.639-0.3-3.959c2.58,0.9,5.219,1.38,7.978,1.38
			c8.098,0,14.336-5.099,15.596-5.099c7.618,0,7.438,16.315,7.438,21.174C182.584,90.99,176.946,93.869,170.948,93.869z"/>
	</g>
</g>
</svg>
