<?xml version="1.0" encoding="utf-8"?>
<!-- Generator: Adobe Illustrator 16.0.3, SVG Export Plug-In . SVG Version: 6.00 Build 0)  -->
<!DOCTYPE svg PUBLIC "-//W3C//DTD SVG 1.1//EN" "http://www.w3.org/Graphics/SVG/1.1/DTD/svg11.dtd">
<svg version="1.1" xmlns="http://www.w3.org/2000/svg" xmlns:xlink="http://www.w3.org/1999/xlink" x="0px" y="0px" width="250px"
	 height="250px" viewBox="0 0 250 250" enable-background="new 0 0 250 250" xml:space="preserve">
<g id="HR_background">
	<rect fill="#5CC0EB" width="250" height="250"/>
</g>
<g id="HR_Text">
	<polygon fill="#FFFFFF" points="122.576,233.114 115.68,233.114 115.68,214.942 105.339,214.942 105.339,233.114 98.443,233.114 
		98.443,184.966 105.339,184.966 105.339,208.162 115.68,208.162 115.68,184.966 122.576,184.966 	"/>
	<path fill="#FFFFFF" d="M135.957,233.114h-6.897v-48.148h9.555c2.506,0,4.688,0.423,6.482,1.258
		c1.91,0.891,3.419,2.182,4.488,3.838c0.899,1.42,1.592,3,2.072,4.719c0.477,1.702,0.719,3.443,0.719,5.174
		c0,1.77-0.242,3.53-0.72,5.234c-0.483,1.73-1.185,3.304-2.082,4.675c-0.694,1.091-1.557,2.055-2.542,2.833
		c-0.249,0.196-0.512,0.38-0.788,0.549l8.687,19.811h-7.478l-7.933-18.123c-0.291,0.006-0.594,0.01-0.906,0.01h-2.657V233.114z
		 M135.957,208.046h2.657c2.414,0,3.338-0.356,3.623-0.511c0.633-0.34,1.136-0.806,1.539-1.425c0.493-0.786,0.916-1.757,1.23-2.843
		c0.313-1.087,0.472-2.212,0.472-3.343c0-1.092-0.159-2.197-0.473-3.286c-0.313-1.084-0.736-2.055-1.255-2.882
		c-0.339-0.519-0.882-0.957-1.633-1.298c-0.874-0.396-2.053-0.597-3.504-0.597h-2.657V208.046z"/>
</g>
<g id="HR_Symbol">
	<g enable-background="new    ">
		<path fill="#FFFFFF" d="M87.096,93.874h-8.038c-5.999,0-11.637-2.879-11.637-9.537c0-4.858-0.18-21.174,7.438-21.174
			c1.259,0,7.498,5.099,15.595,5.099c2.759,0,5.398-0.48,7.978-1.38c-0.18,1.319-0.3,2.64-0.3,3.959
			c0,5.458,1.739,10.856,4.858,15.355C96.753,86.376,91.114,89.075,87.096,93.874z M90.455,63.163
			c-8.458,0-15.355-6.898-15.355-15.355s6.898-15.355,15.355-15.355s15.355,6.898,15.355,15.355S98.912,63.163,90.455,63.163z
			 M151.217,139.94H98.792c-9.597,0-16.015-5.818-16.015-15.535c0-13.557,3.179-34.37,20.754-34.37c2.04,0,9.477,8.338,21.474,8.338
			s19.434-8.338,21.474-8.338c17.574,0,20.754,20.813,20.754,34.37C167.232,134.122,160.814,139.94,151.217,139.94z M125.004,93.874
			c-12.716,0-23.033-10.317-23.033-23.033s10.317-23.033,23.033-23.033s23.033,10.317,23.033,23.033S137.721,93.874,125.004,93.874z
			 M159.555,63.163c-8.458,0-15.355-6.898-15.355-15.355s6.897-15.355,15.355-15.355c8.457,0,15.355,6.898,15.355,15.355
			S168.012,63.163,159.555,63.163z M170.951,93.874h-8.038c-4.019-4.799-9.657-7.498-15.896-7.678
			c3.119-4.499,4.859-9.897,4.859-15.355c0-1.319-0.121-2.64-0.301-3.959c2.58,0.899,5.219,1.38,7.979,1.38
			c8.098,0,14.336-5.099,15.595-5.099c7.618,0,7.438,16.315,7.438,21.174C182.588,90.995,176.949,93.874,170.951,93.874z"/>
	</g>
</g>
</svg>
