<?xml version="1.0" encoding="utf-8"?>
<!-- Generator: Adobe Illustrator 16.0.3, SVG Export Plug-In . SVG Version: 6.00 Build 0)  -->
<!DOCTYPE svg PUBLIC "-//W3C//DTD SVG 1.1//EN" "http://www.w3.org/Graphics/SVG/1.1/DTD/svg11.dtd">
<svg version="1.1" xmlns="http://www.w3.org/2000/svg" xmlns:xlink="http://www.w3.org/1999/xlink" x="0px" y="0px" width="250px"
	 height="250px" viewBox="0 0 250 250" enable-background="new 0 0 250 250" xml:space="preserve">
<g id="ISD_background">
	<rect fill="#C91F39" width="250" height="250"/>
</g>
<g id="ISD_Text">
	<rect x="93.916" y="184.966" fill="#FFFFFF" width="6.896" height="48.148"/>
	<path fill="#FFFFFF" d="M118.485,233.64c-1.099,0-2.336-0.15-3.678-0.445c-1.599-0.353-3.101-1.116-4.465-2.271
		c-1.388-1.22-2.399-2.79-3.045-4.703c-0.583-1.724-0.879-3.582-0.879-5.522v-2.835h6.896v2.835c0,1.814,0.293,2.847,0.54,3.393
		c0.339,0.754,0.735,1.316,1.18,1.674c0.463,0.373,0.939,0.612,1.454,0.729c1.604,0.369,2.878,0.318,4.207-0.073
		c0.639-0.188,1.198-0.479,1.71-0.892c0.458-0.368,0.829-0.867,1.134-1.524c0.31-0.67,0.467-1.567,0.467-2.664
		c0-1.391-0.191-2.59-0.568-3.563c-0.394-1.013-0.918-1.921-1.559-2.695c-0.694-0.84-1.49-1.603-2.362-2.265
		c-1.03-0.781-2.081-1.555-3.149-2.319c-1.06-0.745-2.089-1.495-3.068-2.234c-1.107-0.836-2.127-1.787-3.032-2.828
		c-2.18-2.624-3.265-5.553-3.265-8.754v-0.905c0-0.679,0.081-1.421,0.249-2.271c0.16-0.816,0.422-1.701,0.777-2.629
		c0.431-1.13,1.12-2.179,2.046-3.114c2.066-2.204,4.896-3.321,8.411-3.321c3.618,0,6.445,1.158,8.404,3.443
		c0.852,1.021,1.454,2.133,1.816,3.333c0.305,1.01,0.508,1.993,0.604,2.926c0.091,0.877,0.125,1.657,0.102,2.318
		c-0.018,0.454-0.026,0.713-0.028,0.786l-0.057,2.776l-6.959,0.02l0.122-2.952c0.032-0.79,0.018-1.471-0.043-2.025
		c-0.061-0.542-0.179-1.127-0.35-1.735c-0.1-0.354-0.262-0.658-0.495-0.928c-0.277-0.313-0.641-0.566-1.096-0.753
		c-0.507-0.207-1.189-0.313-2.02-0.313c-2.315,0-3.088,0.845-3.342,1.122c-0.321,0.344-0.535,0.677-0.677,1.041
		c-0.211,0.542-0.36,1.035-0.444,1.471c-0.082,0.425-0.124,0.981-0.124,1.652c0,0.891,0.139,1.662,0.412,2.293
		c0.319,0.737,0.746,1.426,1.269,2.047c0.566,0.675,1.232,1.306,1.984,1.88c0.896,0.685,1.821,1.368,2.775,2.053
		c1.138,0.783,2.309,1.643,3.437,2.525c1.25,0.979,2.404,2.106,3.43,3.35c2.458,3.016,3.698,6.567,3.698,10.569
		c0,4.021-1.405,7.23-4.176,9.54C124.481,232.717,121.715,233.64,118.485,233.64z"/>
	<path fill="#FFFFFF" d="M146.121,233.114h-11.599v-48.148h11.599c1.389,0,2.749,0.249,4.043,0.738
		c1.327,0.507,2.508,1.246,3.516,2.201c2.444,2.29,3.69,5.442,3.69,9.36v23.548c0,4.021-1.262,7.189-3.749,9.416
		c-0.951,0.902-2.133,1.642-3.453,2.145C148.875,232.865,147.514,233.114,146.121,233.114z M141.419,226.218h4.702
		c0.569,0,1.112-0.097,1.659-0.296c0.469-0.171,0.885-0.442,1.273-0.832c0.404-0.403,0.742-0.944,1.007-1.61
		c0.273-0.693,0.413-1.591,0.413-2.666v-23.548c0-1.042-0.142-1.935-0.421-2.653c-0.258-0.663-0.585-1.19-0.973-1.568
		c-0.405-0.394-0.849-0.682-1.352-0.876c-0.533-0.206-1.06-0.306-1.607-0.306h-4.702V226.218z"/>
</g>
<g id="ISD_Symbol">
	<path fill="#FFFFFF" d="M71.771,96.743V80.765c0-2.72,1.397-5.096,3.53-6.469C78.166,49.394,99.345,30,124.991,30
		c25.644,0,46.82,19.394,49.706,44.295c2.114,1.374,3.532,3.75,3.532,6.469v15.979c0,4.26-3.437,7.722-7.69,7.722
		s-7.692-3.462-7.692-7.722v-3.341c-4.183,20.941-19.492,40.387-37.854,40.387c-18.342,0-33.678-19.446-37.836-40.387v3.341
		c0,3.467-2.307,6.352-5.435,7.337c3.076,10.408,9.857,19.421,19.256,25.335c1.728-0.577,3.917-0.481,6.036,0.624
		c3.407,1.777,5.144,5.217,3.846,7.691c-1.273,2.453-5.078,3.004-8.512,1.227c-2.497-1.299-4.086-3.484-4.257-5.555
		c-10.744-6.85-18.361-17.377-21.513-29.515C73.764,102.758,71.771,99.993,71.771,96.743L71.771,96.743z M80.545,72.493
		c0.24,0.024,0.457,0.024,0.67,0.124c0.556,0.192,0.961,0.598,1.25,1.052c1.662,0.727,2.983,2.025,3.804,3.633
		c2.283-21.273,18.724-32.545,38.722-32.545c19.995,0,36.436,11.272,38.696,32.545c1.131-2.212,3.27-3.798,5.842-4.137
		c-3.342-21.626-22.019-38.236-44.538-38.236C102.686,34.927,84.151,51.197,80.545,72.493L80.545,72.493z"/>
</g>
</svg>
