<?xml version="1.0" encoding="utf-8"?>
<!-- Generator: Adobe Illustrator 16.0.3, SVG Export Plug-In . SVG Version: 6.00 Build 0)  -->
<!DOCTYPE svg PUBLIC "-//W3C//DTD SVG 1.1//EN" "http://www.w3.org/Graphics/SVG/1.1/DTD/svg11.dtd">
<svg version="1.1" xmlns="http://www.w3.org/2000/svg" xmlns:xlink="http://www.w3.org/1999/xlink" x="0px" y="0px" width="250px"
	 height="250px" viewBox="0 0 250 250" enable-background="new 0 0 250 250" xml:space="preserve">
<g id="ISD_background">
	<rect fill="#C91F39" width="250" height="250"/>
</g>
<g id="ISD_Text">
	<g>
		<path fill="#FFFFFF" d="M93.574,230.24v-47.256h0.682h0.683v47.256h-0.683H93.574z"/>
		<path fill="#FFFFFF" d="M110.732,228.55c-1.083-0.952-1.896-2.231-2.438-3.835c-0.542-1.603-0.813-3.315-0.813-5.135h1.365
			c0,2.08,0.292,3.77,0.877,5.069c0.585,1.301,1.321,2.308,2.21,3.023c0.888,0.715,1.853,1.191,2.893,1.43s2.015,0.357,2.925,0.357
			c1.126,0,2.243-0.162,3.348-0.487s2.102-0.846,2.99-1.561c0.888-0.715,1.603-1.657,2.145-2.827c0.541-1.17,0.813-2.6,0.813-4.29
			c0-1.95-0.282-3.65-0.845-5.103c-0.564-1.451-1.312-2.74-2.243-3.867c-0.932-1.127-1.982-2.134-3.152-3.023
			c-1.17-0.888-2.362-1.765-3.575-2.632c-1.17-0.822-2.286-1.635-3.347-2.438c-1.063-0.801-2.026-1.7-2.893-2.697
			c-1.907-2.297-2.86-4.854-2.86-7.67c0-0.131,0-0.465,0-1.008c0-0.541,0.072-1.18,0.217-1.918c0.144-0.736,0.383-1.537,0.715-2.404
			c0.331-0.867,0.865-1.668,1.603-2.405c1.69-1.819,4.051-2.729,7.085-2.729c3.077,0,5.395,0.91,6.955,2.729
			c0.65,0.78,1.115,1.636,1.398,2.567c0.281,0.933,0.465,1.82,0.553,2.665c0.086,0.845,0.118,1.56,0.098,2.146
			c-0.023,0.584-0.033,0.899-0.033,0.941h-1.365c0.043-1.039,0.021-1.949-0.065-2.729c-0.087-0.78-0.25-1.593-0.487-2.438
			c-0.239-0.845-0.64-1.593-1.203-2.242c-0.65-0.736-1.452-1.3-2.405-1.69c-0.954-0.39-2.103-0.585-3.445-0.585
			c-2.644,0-4.659,0.759-6.045,2.275c-0.607,0.649-1.062,1.364-1.365,2.146c-0.304,0.779-0.52,1.506-0.65,2.177
			c-0.13,0.673-0.195,1.485-0.195,2.438c0,1.431,0.239,2.698,0.717,3.803c0.478,1.104,1.109,2.124,1.892,3.055
			c0.782,0.933,1.685,1.788,2.707,2.567c1.021,0.78,2.076,1.561,3.164,2.34c1.26,0.867,2.5,1.777,3.717,2.73
			c1.217,0.954,2.326,2.037,3.327,3.25c2.261,2.773,3.392,6.023,3.392,9.75c0,3.51-1.171,6.24-3.51,8.19
			c-1.908,1.56-4.29,2.34-7.15,2.34c-0.997,0-2.135-0.142-3.412-0.423C113.062,230.121,111.859,229.504,110.732,228.55z"/>
		<path fill="#FFFFFF" d="M138.747,182.984h9.75c1.17,0,2.296,0.207,3.38,0.618c1.082,0.412,2.036,1.007,2.859,1.787
			c2.08,1.95,3.12,4.659,3.12,8.125v26.195c0,3.554-1.04,6.263-3.12,8.125c-0.823,0.78-1.777,1.376-2.859,1.787
			c-1.084,0.413-2.21,0.618-3.38,0.618h-5.266h-4.484v-0.65V182.984z M156.491,193.515c0-1.56-0.228-2.925-0.682-4.095
			c-0.455-1.17-1.063-2.123-1.82-2.859c-0.759-0.736-1.615-1.289-2.567-1.658c-0.954-0.367-1.929-0.553-2.925-0.553h-5.266h-3.12
			v44.525h3.12h5.266c0.996,0,1.971-0.173,2.925-0.521c0.952-0.346,1.809-0.898,2.567-1.657c0.758-0.758,1.365-1.711,1.82-2.86
			c0.454-1.147,0.682-2.523,0.682-4.127V193.515z"/>
	</g>
</g>
<g id="ISD_Symbol">
	<path fill="#FFFFFF" d="M71.55,96.743V80.765c0-2.72,1.397-5.096,3.53-6.469C77.944,49.394,99.123,30,124.769,30
		c25.644,0,46.82,19.394,49.705,44.295c2.115,1.374,3.533,3.75,3.533,6.469v15.979c0,4.26-3.437,7.722-7.691,7.722
		c-4.254,0-7.692-3.462-7.692-7.722v-3.341c-4.182,20.941-19.492,40.387-37.854,40.387c-18.342,0-33.678-19.446-37.836-40.387v3.341
		c0,3.467-2.307,6.352-5.435,7.337c3.076,10.408,9.857,19.421,19.256,25.335c1.728-0.577,3.917-0.482,6.036,0.624
		c3.407,1.778,5.144,5.217,3.846,7.691c-1.273,2.453-5.078,3.005-8.512,1.227c-2.497-1.299-4.086-3.485-4.257-5.554
		c-10.744-6.85-18.361-17.378-21.513-29.516C73.542,102.758,71.55,99.993,71.55,96.743L71.55,96.743z M80.323,72.493
		c0.24,0.024,0.457,0.024,0.67,0.124c0.556,0.192,0.961,0.598,1.25,1.052c1.662,0.727,2.983,2.025,3.804,3.633
		c2.283-21.273,18.724-32.545,38.722-32.545c19.995,0,36.436,11.272,38.696,32.545c1.13-2.212,3.269-3.798,5.841-4.137
		c-3.341-21.626-22.018-38.236-44.537-38.236C102.464,34.927,83.929,51.197,80.323,72.493L80.323,72.493z M80.323,72.493"/>
</g>
</svg>
