<?xml version="1.0" encoding="utf-8"?>
<!-- Generator: Adobe Illustrator 16.0.3, SVG Export Plug-In . SVG Version: 6.00 Build 0)  -->
<!DOCTYPE svg PUBLIC "-//W3C//DTD SVG 1.1//EN" "http://www.w3.org/Graphics/SVG/1.1/DTD/svg11.dtd">
<svg version="1.1" xmlns="http://www.w3.org/2000/svg" xmlns:xlink="http://www.w3.org/1999/xlink" x="0px" y="0px" width="250px"
	 height="250px" viewBox="0 0 250 250" enable-background="new 0 0 250 250" xml:space="preserve">
<g id="Knowledge_Management_background">
	<rect fill="#F26F6A" width="250" height="250"/>
</g>
<g id="Knowledge_Management_Text">
	<polygon fill="#FFFFFF" points="103.177,233.056 96.281,233.056 96.281,185.024 103.177,185.024 103.177,204.286 114.877,185.083 
		123.143,185.083 110.55,205.369 124.469,232.881 116.714,232.881 106.3,212.309 103.177,217.406 	"/>
	<polygon fill="#FFFFFF" points="154.479,233.114 147.582,233.114 147.582,202.815 142.059,213.832 137.747,213.832 
		132.158,202.781 132.158,233.114 125.262,233.114 125.262,184.966 130.824,184.966 139.899,202.724 148.975,184.966 
		154.479,184.966 	"/>
</g>
<g id="Knowledge_Management_Symbol">
	<g>
		<g>
			<path fill="#FFFFFF" d="M162.562,102.125c-11.64-2.961-21.092-9.612-21.092-9.612l-7.378,23.345l-1.391,4.396l-0.022-0.069
				l-1.207,3.735l-3.895-11.046c9.565-13.346-1.936-13.209-2.574-13.188c-0.637-0.022-12.14-0.159-2.573,13.188l-3.895,11.046
				l-1.208-3.735l-0.022,0.069l-1.389-4.396l-7.402-23.345c0,0-9.453,6.65-21.091,9.612c-8.678,2.208-9.087,12.23-8.746,17.173
				c0,0,0.5,6.718,1.002,9.68c0,0,16.945,11,45.323,11.022c28.378,0,45.324-11.022,45.324-11.022c0.501-2.962,1.002-9.68,1.002-9.68
				C171.648,114.355,171.238,104.333,162.562,102.125L162.562,102.125z M162.562,102.125"/>
			<path fill="#FFFFFF" d="M146.595,61.105c0.364-1.024,0.638-2.072,0.819-3.074c3.235-19.428-6.331-20.089-6.331-20.089
				s-1.595-3.052-5.762-5.353c-2.802-1.663-6.697-2.938-11.821-2.504c-1.663,0.068-3.234,0.409-4.714,0.887
				c-1.89,0.638-3.621,1.572-5.192,2.665c-1.914,1.208-3.735,2.711-5.33,4.419c-2.528,2.596-4.782,5.944-5.762,10.112
				c-0.819,3.119-0.638,6.377,0.045,9.884c0.183,1.025,0.455,2.049,0.82,3.075c-1.913-0.183-4.168,0.933-2.049,8.426
				c1.571,5.467,3.005,6.993,4.099,7.083c1.002,6.514,6.037,14.805,14.304,17.719c3.393,1.185,7.106,1.208,10.499-0.022
				c8.131-2.938,13.324-11.207,14.349-17.697c1.094-0.091,2.528-1.617,4.077-7.106C150.763,62.039,148.509,60.922,146.595,61.105z
				 M130.525,78.678c0,1.007-0.836,1.842-1.842,1.842h-7.368c-1.007,0-1.842-0.834-1.842-1.842v-6.446
				c0-1.007,0.835-1.842,1.842-1.842h7.368c1.006,0,1.842,0.834,1.842,1.842V78.678z M130.582,63.943
				c-0.029,1.007-0.893,1.842-1.898,1.842h-7.368c-1.007,0-1.871-0.834-1.899-1.842l-0.806-22.102
				c-0.029-1.007,0.777-1.842,1.784-1.842h9.208c1.008,0,1.814,0.834,1.785,1.842L130.582,63.943z"/>
		</g>
	</g>
</g>
</svg>
