<?xml version="1.0" encoding="utf-8"?>
<!-- Generator: Adobe Illustrator 16.0.3, SVG Export Plug-In . SVG Version: 6.00 Build 0)  -->
<!DOCTYPE svg PUBLIC "-//W3C//DTD SVG 1.1//EN" "http://www.w3.org/Graphics/SVG/1.1/DTD/svg11.dtd">
<svg version="1.1" xmlns="http://www.w3.org/2000/svg" xmlns:xlink="http://www.w3.org/1999/xlink" x="0px" y="0px" width="250px"
	 height="250px" viewBox="0 0 250 250" enable-background="new 0 0 250 250" xml:space="preserve">
<g id="Legal_background">
	<rect fill="#973720" width="250" height="250"/>
</g>
<g id="Legal_Text">
	<polygon fill="#FFFFFF" points="107.414,233.114 84.859,233.114 84.859,184.966 91.755,184.966 91.755,226.334 107.414,226.334 	
		"/>
	<path fill="#FFFFFF" d="M124.854,233.698c-3.506,0-6.274-1.117-8.229-3.319c-0.937-0.996-1.643-2.102-2.1-3.287
		c-0.402-1.038-0.681-2.054-0.829-3.014c-0.146-0.945-0.204-1.761-0.177-2.491c0.017-0.478,0.026-0.777,0.027-0.892v-24.014
		c0-3.917,1.245-7.07,3.701-9.371c1.037-0.929,2.199-1.637,3.503-2.148c2.565-1.003,5.35-1.054,8.048-0.042
		c1.383,0.518,2.645,1.354,3.75,2.485c1.075,1.099,1.947,2.472,2.59,4.081c0.639,1.597,0.963,3.475,0.963,5.579v2.835h-6.896v-2.835
		c0-1.16-0.152-2.144-0.453-2.925c-0.293-0.757-0.656-1.369-1.08-1.816c-0.405-0.429-0.838-0.733-1.324-0.934
		c-1.117-0.456-2.139-0.386-3.201-0.009c-0.482,0.172-0.901,0.441-1.282,0.823c-0.405,0.404-0.743,0.948-1.008,1.617
		c-0.275,0.694-0.415,1.573-0.415,2.612v24.107c0,0.896,0.04,1.598,0.118,2.146c0.067,0.478,0.213,1.015,0.432,1.601
		c0.162,0.43,0.4,0.812,0.731,1.164c0.464,0.508,1.265,1.149,3.13,1.149c1.496,0,2.581-0.378,3.314-1.155
		c0.333-0.356,0.578-0.732,0.74-1.143c0.222-0.563,0.377-1.084,0.46-1.54c0.087-0.473,0.13-1.078,0.13-1.8l-0.041-6.6l-6.386-0.061
		v-6.889l13.324,0.102v13.36c0,0.132-0.01,0.481-0.031,1.048c-0.025,0.659-0.119,1.395-0.285,2.248
		c-0.175,0.902-0.48,1.865-0.907,2.86c-0.465,1.09-1.119,2.117-1.945,3.049C131.119,232.563,128.315,233.698,124.854,233.698z"/>
	<polygon fill="#FFFFFF" points="165.435,233.114 142.879,233.114 142.879,184.966 149.775,184.966 149.775,226.334 
		165.435,226.334 	"/>
</g>
<g id="Legal_Symbol">
	<g>
		<g>
			<defs>
				<rect id="SVGID_1_" x="-80" y="-68" width="409.92" height="384.96"/>
			</defs>
			<clipPath id="SVGID_2_">
				<use xlink:href="#SVGID_1_"  overflow="visible"/>
			</clipPath>
		</g>
	</g>
	<g>
		<path fill="#FFFFFF" d="M136,126.351v-1.017c0-8.087-6.581-14.667-14.668-14.667H84.665c-8.088,0-14.665,6.58-14.665,14.667v1.018
			c-3.667,1.271-3.666,3.609-3.666,6.316c0,4.049,3.283,7.332,7.333,7.332h58.667c4.05,0,7.334-3.283,7.334-7.332
			C139.668,129.959,139.666,127.621,136,126.351L136,126.351z M136,126.351"/>
		<path fill="#FFFFFF" d="M176.333,55.667h-58.666v-7.335c3.666,0,7.333-3.283,7.333-7.333v-3.667c0-4.049-3.284-7.333-7.334-7.333
			H88.332C84.281,30,81,33.283,81,37.333V41c0,4.05,3.666,7.333,7.333,7.333v29.334C84.666,77.666,81,80.95,81,85v3.667
			C81,92.716,84.281,96,88.332,96h29.334c4.05,0,7.334-3.284,7.334-7.333V85c0-4.05-3.667-7.334-7.333-7.334v-7.333h58.666
			c4.05,0,7.333-3.283,7.333-7.333C183.666,58.95,180.383,55.667,176.333,55.667L176.333,55.667z M176.333,55.667"/>
	</g>
</g>
</svg>
