<?xml version="1.0" encoding="utf-8"?>
<!-- Generator: Adobe Illustrator 16.0.3, SVG Export Plug-In . SVG Version: 6.00 Build 0)  -->
<!DOCTYPE svg PUBLIC "-//W3C//DTD SVG 1.1//EN" "http://www.w3.org/Graphics/SVG/1.1/DTD/svg11.dtd">
<svg version="1.1" xmlns="http://www.w3.org/2000/svg" xmlns:xlink="http://www.w3.org/1999/xlink" x="0px" y="0px" width="250px"
	 height="250px" viewBox="0 0 250 250" enable-background="new 0 0 250 250" xml:space="preserve">
<g id="Accounts_background">
	<rect fill="#F1592F" width="250" height="250"/>
</g>
<g id="Accounts_Text">
	<polygon fill="#FFFFFF" points="113.139,233.117 106.243,233.117 106.243,202.816 100.718,213.834 96.408,213.834 90.817,202.782 
		90.817,233.117 83.921,233.117 83.921,184.966 89.484,184.966 98.559,202.725 107.635,184.966 113.139,184.966 	"/>
	<path fill="#FFFFFF" d="M140.061,233.117h-7.058l-2.63-12.797h-5.565l-2.747,12.797h-7.042l9.737-48.151h5.634L140.061,233.117z
		 M126.131,213.423h2.787l-1.368-7.297L126.131,213.423z"/>
	<path fill="#FFFFFF" d="M153.896,233.76c-3.506,0-6.274-1.117-8.229-3.319c-0.936-0.995-1.642-2.101-2.1-3.286
		c-0.401-1.039-0.681-2.054-0.829-3.015c-0.146-0.948-0.204-1.765-0.177-2.495c0.017-0.474,0.026-0.774,0.026-0.889v-24.015
		c0-3.918,1.246-7.071,3.703-9.372c1.035-0.929,2.197-1.637,3.502-2.148c1.324-0.518,2.704-0.78,4.104-0.78
		c2.765,0,5.295,0.924,7.521,2.744c1.38,1.16,2.418,2.689,3.113,4.571c0.64,1.729,0.965,3.623,0.965,5.628v2.835h-6.955v-2.835
		c0-1.151-0.159-2.137-0.473-2.931c-0.302-0.76-0.68-1.372-1.123-1.815s-0.921-0.762-1.455-0.972
		c-1.185-0.461-2.189-0.415-3.254-0.015c-0.512,0.193-0.958,0.479-1.359,0.869c-0.387,0.375-0.713,0.901-0.972,1.566
		c-0.278,0.718-0.42,1.61-0.42,2.654v24.074c0,0.895,0.039,1.595,0.117,2.14c0.068,0.478,0.213,1.014,0.433,1.598
		c0.161,0.432,0.398,0.81,0.727,1.159c0.467,0.511,1.269,1.151,3.135,1.151c1.496,0,2.58-0.378,3.313-1.155
		c0.318-0.339,0.554-0.721,0.715-1.162c0.229-0.625,0.389-1.222,0.475-1.773c0.095-0.595,0.142-1.33,0.142-2.19v-2.835h6.896v3.741
		c0,0.725-0.079,1.555-0.242,2.538c-0.166,0.988-0.447,2.026-0.838,3.087c-0.463,1.254-1.166,2.384-2.09,3.362
		C160.192,232.657,157.378,233.76,153.896,233.76z"/>
</g>
<g id="Accounts_Symbol">
	<g id="Accounts_Symbol_1_">
		<text transform="matrix(1 0 0 1 63.5811 124.5879)" fill="#FFFFFF" font-family="'FontAwesome'" font-size="107.4852"></text>
	</g>
</g>
</svg>
