<?xml version="1.0" encoding="utf-8"?>
<!-- Generator: Adobe Illustrator 16.0.3, SVG Export Plug-In . SVG Version: 6.00 Build 0)  -->
<!DOCTYPE svg PUBLIC "-//W3C//DTD SVG 1.1//EN" "http://www.w3.org/Graphics/SVG/1.1/DTD/svg11.dtd">
<svg version="1.1" xmlns="http://www.w3.org/2000/svg" xmlns:xlink="http://www.w3.org/1999/xlink" x="0px" y="0px" width="250px"
	 height="250px" viewBox="0 0 250 250" enable-background="new 0 0 250 250" xml:space="preserve">
<g id="Plant_Machinery_Vehicles_background">
	<rect fill="#921941" width="250" height="250"/>
</g>
<g id="Plant_Machinery_Vehicles_Text">
	<path fill="#FFFFFF" d="M89.914,233.114h-6.896v-48.148h9.554c2.506,0,4.688,0.423,6.482,1.258c1.91,0.891,3.418,2.182,4.488,3.838
		c0.899,1.42,1.592,3,2.072,4.718c0.477,1.702,0.718,3.443,0.718,5.175c0,1.771-0.242,3.531-0.719,5.234
		c-0.484,1.731-1.185,3.304-2.082,4.674c-1.093,1.667-2.526,2.95-4.26,3.816c-1.699,0.851-3.891,1.264-6.701,1.264h-2.658V233.114z
		 M89.914,208.046h2.658c2.414,0,3.337-0.356,3.622-0.511c0.633-0.34,1.137-0.807,1.541-1.426c0.492-0.784,0.914-1.755,1.229-2.842
		c0.314-1.087,0.473-2.212,0.473-3.343c0-1.093-0.159-2.197-0.473-3.285c-0.314-1.086-0.737-2.057-1.255-2.883
		c-0.339-0.519-0.882-0.957-1.633-1.298c-0.873-0.396-2.051-0.597-3.503-0.597h-2.658V208.046z"/>
	<polygon fill="#FFFFFF" points="139.813,233.114 132.917,233.114 132.917,202.815 127.394,213.832 123.083,213.832 
		117.493,202.782 117.493,233.114 110.597,233.114 110.597,184.966 116.16,184.966 125.234,202.724 134.31,184.966 139.813,184.966 
			"/>
	<polygon fill="#FFFFFF" points="152.369,232.881 142.621,185.199 149.696,185.199 155.315,212.883 160.894,185.199 
		167.972,185.199 158.224,232.881 	"/>
</g>
<g id="Plant_Machinery_Vehicles_Symbol">
	<g>
		<path fill="#FFFFFF" d="M76.177,110.386c-8.186,0-14.806,6.666-14.806,14.807c0,8.187,6.62,14.808,14.806,14.808
			s14.807-6.665,14.807-14.808C90.984,117.052,84.363,110.386,76.177,110.386L76.177,110.386z M76.177,133.781
			c-4.742,0-8.544-3.847-8.544-8.589s3.803-8.589,8.544-8.589s8.589,3.847,8.589,8.589S80.875,133.781,76.177,133.781
			L76.177,133.781z M76.177,133.781"/>
		<path fill="#FFFFFF" d="M132.005,107.523c-8.589,0-15.562,6.979-15.562,15.612c0,8.589,6.973,15.567,15.562,15.567
			s15.567-6.979,15.567-15.567C147.572,114.501,140.594,107.523,132.005,107.523L132.005,107.523z M132.005,132.17
			c-4.972,0-9.037-4.07-9.037-9.035c0-4.965,4.065-9.036,9.037-9.036c4.965,0,8.991,4.07,8.991,9.036
			C140.996,128.1,136.97,132.17,132.005,132.17L132.005,132.17z M132.005,132.17"/>
		<path fill="#FFFFFF" d="M134.644,92.761c0,0-6.576-62.761-31.313-62.761H63.602v57.751H53.503c-10.161,0,0,35.876,0,35.876h6.251
			c0.447-8.903,7.833-16.016,16.87-16.016c9.037,0,16.373,7.113,16.82,16.016h20.532c0-0.089,0-0.134,0-0.225
			c0-9.886,8.052-17.938,17.937-17.938c9.888,0,17.939,8.052,17.939,17.938c0,1.164-0.134,2.282-0.313,3.356h6.352L145.29,93.567
			C135.627,99.023,134.644,92.761,134.644,92.761L134.644,92.761z M102.666,94.774L93.31,78.407H73.007V39.399h28.674
			c8.36,0,12.961,11.625,15.377,21.428c1.572,6.251,6.313,28.982,6.715,33.947H102.666z M102.666,94.774"/>
		<path fill="#FFFFFF" d="M200.85,108.284c-0.582-1.746-2.506-2.729-4.25-2.103l-32.477,10.691l-28.048-84.317
			c-0.582-1.745-2.461-2.695-4.25-2.108c-1.745,0.582-2.729,2.46-2.103,4.25l29.121,87.453c0.493,1.388,1.746,2.281,3.178,2.281
			c0.357,0,0.715-0.045,1.074-0.134l35.606-11.765C200.447,111.952,201.419,110.073,200.85,108.284L200.85,108.284z M200.85,108.284
			"/>
	</g>
</g>
</svg>
