<?xml version="1.0" encoding="utf-8"?>
<!-- Generator: Adobe Illustrator 16.0.3, SVG Export Plug-In . SVG Version: 6.00 Build 0)  -->
<!DOCTYPE svg PUBLIC "-//W3C//DTD SVG 1.1//EN" "http://www.w3.org/Graphics/SVG/1.1/DTD/svg11.dtd">
<svg version="1.1" xmlns="http://www.w3.org/2000/svg" xmlns:xlink="http://www.w3.org/1999/xlink" x="0px" y="0px" width="250px"
	 height="250px" viewBox="0 0 250 250" enable-background="new 0 0 250 250" xml:space="preserve">
<g id="Services_background">
	<rect fill="#97CEB4" width="250" height="250"/>
</g>
<g id="Services_Text">
	<g>
		<path fill="#FFFFFF" d="M87.236,228.55c-1.083-0.952-1.896-2.231-2.438-3.835c-0.542-1.603-0.813-3.315-0.813-5.135h1.365
			c0,2.08,0.292,3.77,0.877,5.069c0.585,1.301,1.321,2.308,2.21,3.023c0.888,0.715,1.853,1.191,2.893,1.43s2.015,0.357,2.925,0.357
			c1.126,0,2.243-0.162,3.348-0.487s2.102-0.846,2.99-1.561c0.888-0.715,1.603-1.657,2.145-2.827c0.541-1.17,0.813-2.6,0.813-4.29
			c0-1.95-0.283-3.65-0.845-5.103c-0.563-1.451-1.311-2.74-2.243-3.867c-0.932-1.127-1.982-2.134-3.152-3.023
			c-1.17-0.888-2.362-1.765-3.575-2.632c-1.17-0.822-2.286-1.635-3.347-2.438c-1.063-0.801-2.026-1.7-2.893-2.697
			c-1.907-2.297-2.86-4.854-2.86-7.67c0-0.131,0-0.465,0-1.008c0-0.541,0.072-1.18,0.217-1.918c0.144-0.736,0.383-1.537,0.715-2.404
			c0.331-0.867,0.865-1.668,1.603-2.405c1.69-1.819,4.051-2.729,7.085-2.729c3.077,0,5.395,0.91,6.955,2.729
			c0.65,0.78,1.115,1.636,1.397,2.567c0.282,0.933,0.465,1.82,0.553,2.665c0.086,0.845,0.119,1.56,0.098,2.146
			c-0.022,0.584-0.033,0.899-0.033,0.941h-1.365c0.043-1.039,0.021-1.949-0.065-2.729c-0.087-0.78-0.25-1.593-0.487-2.438
			c-0.239-0.845-0.64-1.593-1.203-2.242c-0.65-0.736-1.452-1.3-2.405-1.69c-0.954-0.39-2.103-0.585-3.445-0.585
			c-2.644,0-4.659,0.759-6.045,2.275c-0.607,0.649-1.062,1.364-1.365,2.146c-0.304,0.779-0.52,1.506-0.65,2.177
			c-0.13,0.673-0.195,1.485-0.195,2.438c0,1.431,0.239,2.698,0.717,3.803c0.478,1.104,1.109,2.124,1.892,3.055
			c0.782,0.933,1.685,1.788,2.707,2.567c1.021,0.78,2.076,1.561,3.164,2.34c1.26,0.867,2.5,1.777,3.717,2.73
			c1.217,0.954,2.326,2.037,3.327,3.25c2.261,2.773,3.391,6.023,3.391,9.75c0,3.51-1.17,6.24-3.51,8.19
			c-1.908,1.56-4.29,2.34-7.15,2.34c-0.997,0-2.135-0.142-3.412-0.423C89.565,230.121,88.362,229.504,87.236,228.55z"/>
		<path fill="#FFFFFF" d="M133.061,183.245h1.43l-9.555,46.734h-0.559h-0.124h-0.124h-0.559l-9.555-46.734h1.43l8.84,43.55
			L133.061,183.245z"/>
		<path fill="#FFFFFF" d="M164.975,219.45c0,0.043,0,0.38,0,1.007c0,0.629-0.076,1.397-0.228,2.308
			c-0.152,0.91-0.412,1.864-0.78,2.86c-0.368,0.997-0.921,1.885-1.657,2.665c-1.69,1.777-4.03,2.665-7.021,2.665
			c-2.989,0-5.265-0.888-6.824-2.665c-0.78-0.823-1.355-1.712-1.723-2.665c-0.369-0.953-0.618-1.853-0.748-2.697
			c-0.13-0.846-0.185-1.57-0.162-2.178c0.021-0.606,0.032-0.976,0.032-1.105V192.93c0-3.467,1.04-6.175,3.12-8.125
			c0.822-0.736,1.787-1.321,2.893-1.755c1.105-0.433,2.242-0.649,3.412-0.649c2.341,0,4.463,0.779,6.37,2.34
			c1.083,0.91,1.918,2.156,2.503,3.737c0.585,1.582,0.877,3.305,0.877,5.167h-1.43c0-1.689-0.25-3.162-0.747-4.42
			c-0.499-1.256-1.149-2.285-1.95-3.088c-0.803-0.801-1.701-1.396-2.697-1.787c-0.998-0.39-1.973-0.585-2.926-0.585
			c-0.997,0-1.982,0.185-2.957,0.553s-1.843,0.921-2.6,1.657c-0.759,0.738-1.365,1.69-1.82,2.86s-0.683,2.535-0.683,4.095v26.78
			v0.064c0,1.084,0.054,2.005,0.162,2.763c0.108,0.759,0.325,1.571,0.65,2.438c0.325,0.867,0.813,1.647,1.463,2.34
			c1.386,1.518,3.314,2.275,5.784,2.275c2.557,0,4.551-0.758,5.98-2.275c0.65-0.692,1.138-1.483,1.463-2.372
			c0.324-0.888,0.552-1.744,0.682-2.567c0.131-0.823,0.195-1.798,0.195-2.925H164.975z"/>
	</g>
	<g>
		<path fill="#FFFFFF" d="M144.198,91.833c0,0.78-0.6,1.68-1.38,1.8l-9.297,1.439c-0.479,1.56-1.14,3.059-1.92,4.559
			c1.68,2.399,3.479,4.619,5.398,6.898c0.24,0.36,0.42,0.72,0.42,1.2c0,0.42-0.12,0.84-0.42,1.14
			c-1.199,1.62-7.917,8.938-9.657,8.938c-0.479,0-0.899-0.18-1.259-0.42l-6.898-5.398c-1.5,0.78-2.999,1.379-4.619,1.859
			c-0.3,3.059-0.6,6.358-1.379,9.297c-0.24,0.84-0.96,1.439-1.8,1.439h-11.156c-0.84,0-1.68-0.66-1.8-1.5l-1.379-9.177
			c-1.56-0.48-3.059-1.14-4.499-1.859l-7.078,5.338c-0.3,0.3-0.78,0.42-1.2,0.42c-0.48,0-0.9-0.18-1.26-0.48
			c-1.56-1.439-8.637-7.858-8.637-9.597c0-0.42,0.18-0.78,0.42-1.14c1.739-2.279,3.539-4.499,5.278-6.838
			c-0.84-1.62-1.56-3.239-2.1-4.918l-9.117-1.44c-0.84-0.12-1.439-0.899-1.439-1.739V80.557c0-0.78,0.6-1.68,1.379-1.8l9.297-1.439
			c0.48-1.56,1.14-3.059,1.919-4.559c-1.679-2.399-3.479-4.619-5.398-6.898c-0.24-0.36-0.42-0.78-0.42-1.2s0.12-0.84,0.42-1.2
			c1.2-1.62,7.918-8.877,9.657-8.877c0.48,0,0.9,0.18,1.26,0.42l6.898,5.398c1.5-0.78,2.999-1.379,4.619-1.919
			c0.3-2.999,0.6-6.298,1.379-9.237c0.24-0.84,0.96-1.439,1.8-1.439h11.156c0.84,0,1.68,0.66,1.8,1.5l1.379,9.177
			c1.56,0.48,3.059,1.14,4.499,1.859l7.078-5.338c0.36-0.3,0.78-0.42,1.199-0.42c0.48,0,0.9,0.18,1.26,0.48
			c1.56,1.439,8.638,7.917,8.638,9.597c0,0.42-0.18,0.78-0.42,1.14c-1.739,2.339-3.539,4.499-5.219,6.838
			c0.78,1.62,1.5,3.239,2.04,4.918l9.117,1.38c0.84,0.18,1.439,0.959,1.439,1.799V91.833z M105.81,70.84
			c-8.458,0-15.355,6.898-15.355,15.355s6.898,15.355,15.355,15.355s15.355-6.898,15.355-15.355S114.267,70.84,105.81,70.84z
			 M182.587,59.683c0,0.9-7.737,1.74-8.938,1.859c-0.479,1.14-1.079,2.16-1.8,3.119c0.54,1.2,3.06,7.198,3.06,8.278
			c0,0.18-0.06,0.3-0.24,0.419c-0.72,0.42-7.138,4.259-7.438,4.259c-0.779,0-5.278-5.998-5.878-6.898c-0.601,0.06-1.2,0.12-1.8,0.12
			s-1.199-0.06-1.8-0.12c-0.6,0.9-5.099,6.898-5.878,6.898c-0.3,0-6.718-3.839-7.438-4.259c-0.181-0.12-0.24-0.3-0.24-0.419
			c0-1.02,2.52-7.078,3.06-8.278c-0.721-0.959-1.32-1.979-1.8-3.119c-1.2-0.12-8.938-0.959-8.938-1.859v-8.397
			c0-0.9,7.737-1.74,8.938-1.859c0.479-1.08,1.079-2.16,1.8-3.119c-0.54-1.2-3.06-7.258-3.06-8.278c0-0.12,0.06-0.3,0.24-0.419
			c0.72-0.36,7.138-4.199,7.438-4.199c0.779,0,5.278,5.938,5.878,6.838c0.601-0.06,1.2-0.12,1.8-0.12s1.199,0.06,1.8,0.12
			c1.679-2.339,3.479-4.679,5.518-6.718l0.36-0.12c0.3,0,6.718,3.779,7.438,4.199c0.181,0.12,0.24,0.3,0.24,0.419
			c0,1.08-2.52,7.078-3.06,8.278c0.721,0.959,1.32,2.04,1.8,3.119c1.2,0.12,8.938,0.959,8.938,1.859V59.683z M182.587,121.105
			c0,0.9-7.737,1.74-8.938,1.859c-0.479,1.14-1.079,2.16-1.8,3.12c0.54,1.199,3.06,7.197,3.06,8.277c0,0.18-0.06,0.3-0.24,0.42
			c-0.72,0.42-7.138,4.259-7.438,4.259c-0.779,0-5.278-5.999-5.878-6.898c-0.601,0.061-1.2,0.12-1.8,0.12s-1.199-0.06-1.8-0.12
			c-0.6,0.899-5.099,6.898-5.878,6.898c-0.3,0-6.718-3.839-7.438-4.259c-0.181-0.12-0.24-0.3-0.24-0.42
			c0-1.02,2.52-7.078,3.06-8.277c-0.721-0.96-1.32-1.98-1.8-3.12c-1.2-0.12-8.938-0.959-8.938-1.859v-8.397
			c0-0.9,7.737-1.74,8.938-1.859c0.479-1.08,1.079-2.16,1.8-3.119c-0.54-1.2-3.06-7.258-3.06-8.278c0-0.12,0.06-0.3,0.24-0.419
			c0.72-0.36,7.138-4.199,7.438-4.199c0.779,0,5.278,5.938,5.878,6.838c0.601-0.06,1.2-0.12,1.8-0.12s1.199,0.06,1.8,0.12
			c1.679-2.339,3.479-4.679,5.518-6.718l0.36-0.12c0.3,0,6.718,3.779,7.438,4.199c0.181,0.12,0.24,0.3,0.24,0.419
			c0,1.08-2.52,7.078-3.06,8.278c0.721,0.959,1.32,2.04,1.8,3.119c1.2,0.12,8.938,0.959,8.938,1.859V121.105z M159.554,47.807
			c-4.199,0-7.678,3.479-7.678,7.678c0,4.259,3.479,7.678,7.678,7.678c4.259,0,7.678-3.479,7.678-7.678
			S163.753,47.807,159.554,47.807z M159.554,109.229c-4.199,0-7.678,3.479-7.678,7.678c0,4.259,3.479,7.678,7.678,7.678
			c4.259,0,7.678-3.479,7.678-7.678S163.753,109.229,159.554,109.229z"/>
	</g>
</g>
<g id="Services_Symbol">
</g>
</svg>
