<?xml version="1.0" encoding="utf-8"?>
<!-- Generator: Adobe Illustrator 16.0.3, SVG Export Plug-In . SVG Version: 6.00 Build 0)  -->
<!DOCTYPE svg PUBLIC "-//W3C//DTD SVG 1.1//EN" "http://www.w3.org/Graphics/SVG/1.1/DTD/svg11.dtd">
<svg version="1.1" xmlns="http://www.w3.org/2000/svg" xmlns:xlink="http://www.w3.org/1999/xlink" x="0px" y="0px" width="250px"
	 height="250px" viewBox="0 0 250 250" enable-background="new 0 0 250 250" xml:space="preserve">
<g id="Services_background">
	<rect fill="#97CEB4" width="250" height="250"/>
</g>
<g id="Services_Text">
	<path fill="#FFFFFF" d="M97.364,233.64c-1.099,0-2.336-0.15-3.678-0.445c-1.599-0.353-3.101-1.116-4.465-2.271
		c-1.388-1.22-2.399-2.79-3.045-4.703c-0.583-1.724-0.879-3.582-0.879-5.522v-2.835h6.896v2.835c0,1.814,0.293,2.847,0.54,3.393
		c0.339,0.754,0.735,1.316,1.18,1.674c0.463,0.373,0.939,0.612,1.454,0.729c1.604,0.369,2.879,0.318,4.207-0.073
		c0.639-0.188,1.198-0.479,1.71-0.892c0.458-0.368,0.829-0.867,1.134-1.524c0.31-0.67,0.467-1.567,0.467-2.664
		c0-1.391-0.191-2.59-0.568-3.563c-0.394-1.013-0.918-1.921-1.559-2.695c-0.694-0.84-1.49-1.603-2.362-2.265
		c-1.03-0.781-2.081-1.555-3.149-2.319c-1.06-0.745-2.089-1.495-3.068-2.234c-1.107-0.836-2.127-1.787-3.032-2.828
		c-2.18-2.624-3.265-5.553-3.265-8.754v-0.905c0-0.679,0.081-1.421,0.249-2.271c0.16-0.816,0.422-1.701,0.777-2.629
		c0.431-1.13,1.12-2.179,2.045-3.114c2.067-2.204,4.896-3.321,8.411-3.321c3.618,0,6.445,1.158,8.404,3.443
		c0.852,1.021,1.454,2.133,1.817,3.333c0.304,1.006,0.507,1.989,0.604,2.924c0.092,0.898,0.125,1.657,0.101,2.323
		c-0.018,0.45-0.026,0.712-0.028,0.786l-0.061,2.773l-6.955,0.02l0.122-2.952c0.032-0.79,0.018-1.471-0.043-2.025
		c-0.061-0.542-0.179-1.127-0.35-1.735c-0.1-0.354-0.262-0.658-0.495-0.928c-0.277-0.313-0.641-0.566-1.096-0.753
		c-0.507-0.207-1.189-0.313-2.02-0.313c-2.315,0-3.088,0.845-3.342,1.122c-0.321,0.344-0.535,0.677-0.677,1.041
		c-0.211,0.542-0.36,1.035-0.444,1.471c-0.082,0.425-0.124,0.981-0.124,1.652c0,0.891,0.139,1.662,0.412,2.293
		c0.319,0.737,0.746,1.426,1.269,2.047c0.566,0.675,1.232,1.306,1.984,1.88c0.896,0.685,1.821,1.368,2.775,2.053
		c1.138,0.783,2.309,1.643,3.437,2.525c1.25,0.979,2.403,2.106,3.43,3.35c2.457,3.015,3.697,6.566,3.697,10.569
		c0,4.021-1.405,7.231-4.175,9.54C103.36,232.717,100.594,233.64,97.364,233.64z"/>
	<polygon fill="#FFFFFF" points="121.401,232.881 111.653,185.199 118.728,185.199 124.348,212.883 129.926,185.199 
		137.004,185.199 127.256,232.881 	"/>
	<path fill="#FFFFFF" d="M152.229,233.757c-3.506,0-6.274-1.117-8.229-3.319c-0.937-0.997-1.644-2.103-2.1-3.288
		c-0.401-1.037-0.682-2.053-0.828-3.015c-0.146-0.941-0.204-1.757-0.178-2.488c0.018-0.481,0.027-0.779,0.027-0.894V196.74
		c0-3.917,1.245-7.07,3.701-9.372c1.038-0.93,2.201-1.637,3.505-2.148c1.322-0.517,2.701-0.779,4.102-0.779
		c2.765,0,5.295,0.924,7.521,2.745c1.378,1.156,2.416,2.686,3.113,4.568c0.641,1.734,0.966,3.628,0.966,5.629v2.835h-6.956v-2.835
		c0-1.151-0.159-2.137-0.473-2.93c-0.302-0.761-0.68-1.372-1.121-1.813c-0.445-0.445-0.922-0.764-1.457-0.974
		c-1.183-0.461-2.188-0.415-3.253-0.015c-0.511,0.193-0.958,0.479-1.361,0.87c-0.383,0.373-0.71,0.9-0.969,1.565
		c-0.278,0.718-0.42,1.61-0.42,2.653v24.073c0,0.898,0.039,1.599,0.116,2.14c0.068,0.477,0.213,1.013,0.433,1.6
		c0.161,0.429,0.399,0.808,0.728,1.157c0.467,0.51,1.268,1.15,3.134,1.15c1.496,0,2.58-0.377,3.313-1.154
		c0.318-0.34,0.555-0.722,0.717-1.164c0.227-0.619,0.386-1.217,0.475-1.776c0.093-0.59,0.14-1.326,0.14-2.186v-2.835h6.897v3.74
		c0,0.729-0.08,1.561-0.244,2.542c-0.166,0.991-0.448,2.03-0.838,3.086c-0.462,1.249-1.163,2.379-2.086,3.357
		C158.525,232.654,155.711,233.757,152.229,233.757z"/>
</g>
<g id="Services_Symbol">
	<text transform="matrix(1 0 0 1 67.4209 124.584)" fill="#FFFFFF" font-family="'FontAwesome'" font-size="107.4822"></text>
</g>
</svg>
